<?xml version="1.0" standalone="no"?>
<!DOCTYPE svg PUBLIC "-//W3C//DTD SVG 20010904//EN"
 "http://www.w3.org/TR/2001/REC-SVG-20010904/DTD/svg10.dtd">
<svg version="1.0" xmlns="http://www.w3.org/2000/svg"
 width="573.000000pt" height="507.000000pt" viewBox="0 0 573.000000 507.000000"
 preserveAspectRatio="xMidYMid meet">
<metadata>
Created by potrace 1.15, written by Peter Selinger 2001-2017
</metadata>
<g transform="translate(0.000000,507.000000) scale(0.100000,-0.100000)"
fill="#000000" stroke="none">
<path d="M3861 4718 c-5 -13 -7 -26 -5 -30 3 -4 -11 -18 -30 -33 -28 -21 -38
-24 -60 -15 -37 14 -46 13 -52 -5 -4 -9 4 -23 20 -36 20 -15 26 -29 24 -48 -3
-24 -8 -26 -56 -31 -63 -7 -75 -20 -82 -96 -7 -71 -5 -76 50 -112 63 -42 133
-55 203 -40 65 14 108 14 174 -3 64 -16 110 -4 105 27 -1 10 -5 39 -7 64 -3
25 -8 53 -11 63 -3 10 1 20 10 23 9 4 15 11 14 18 -1 6 12 40 29 76 32 66 49
146 35 166 -13 20 -50 34 -91 34 -36 0 -45 -5 -83 -50 -24 -27 -50 -50 -60
-50 -9 0 -34 19 -55 43 -51 58 -61 63 -72 35z m309 -23 c8 -10 11 -30 7 -58
-7 -46 -42 -127 -56 -127 -16 0 -71 73 -71 95 0 11 11 37 25 56 36 48 72 61
95 34z m-161 -161 c29 -36 26 -54 -13 -105 -19 -24 -36 -53 -38 -64 -5 -30
-31 -29 -67 3 l-33 29 58 81 c33 45 62 81 66 82 4 0 16 -12 27 -26z m-273 -54
c18 0 24 -5 24 -21 0 -13 26 -46 66 -84 l66 -64 -36 -6 c-50 -10 -94 1 -140
33 -45 31 -59 66 -44 118 7 26 14 34 25 30 8 -3 26 -6 39 -6z"/>
<path d="M2899 4070 c-26 -3 -54 -12 -64 -20 -26 -22 -45 -66 -45 -105 l0 -36
-32 18 c-18 10 -41 28 -50 39 -10 12 -29 25 -43 28 -14 4 -23 11 -20 16 10 16
-40 22 -81 11 -46 -12 -119 -80 -129 -118 -8 -33 9 -74 49 -116 49 -52 88 -63
166 -45 78 18 90 15 84 -20 -8 -50 -12 -53 -51 -49 -42 5 -123 -16 -160 -40
-21 -14 -23 -22 -22 -82 2 -62 4 -68 39 -104 21 -20 44 -35 51 -33 8 3 35 7
61 10 55 6 104 36 155 95 l36 42 23 -22 c24 -22 25 -48 9 -139 -3 -19 -6 -48
-7 -65 -1 -16 -7 -43 -14 -60 -6 -16 -17 -66 -24 -110 -7 -44 -16 -88 -21 -97
-29 -54 -47 -338 -29 -451 6 -37 13 -97 16 -134 4 -38 10 -69 15 -71 5 -2 9
-12 9 -23 0 -11 11 -42 25 -68 13 -27 33 -80 44 -119 10 -38 26 -83 35 -100 9
-17 19 -66 22 -109 3 -43 10 -83 15 -88 4 -6 8 -105 8 -220 0 -203 -10 -327
-29 -351 -6 -6 -7 -14 -3 -17 3 -4 1 -13 -6 -20 -11 -13 -55 -180 -66 -249 -5
-27 -38 -145 -72 -250 -3 -12 0 -18 10 -18 16 0 77 114 77 144 0 8 7 37 16 63
9 26 16 58 16 71 0 12 4 25 9 28 5 3 9 16 9 30 0 13 4 24 10 24 5 0 7 7 4 15
-4 8 1 26 10 40 9 13 16 34 16 45 0 11 9 39 20 63 11 23 22 64 25 90 2 26 7
52 10 56 16 27 25 309 13 446 -8 85 -80 374 -108 430 -23 48 -58 144 -59 165
0 8 -7 44 -16 80 -15 67 -20 215 -9 283 7 36 8 38 38 31 21 -4 28 -3 21 4 -5
6 -19 12 -30 14 -27 4 -31 53 -11 132 9 33 18 75 20 91 4 26 29 124 52 203 6
22 7 22 36 -12 26 -30 34 -34 65 -30 89 11 133 66 126 159 -6 80 -30 131 -71
150 -37 18 -34 35 6 35 28 0 112 41 153 75 34 28 70 76 64 85 -3 4 2 13 10 20
18 15 19 40 2 64 -19 26 -140 33 -191 12 -48 -20 -47 -20 -36 8 5 15 5 37 0
58 -6 18 -7 40 -4 50 7 24 -30 58 -64 58 -15 0 -41 4 -57 8 -17 4 -51 5 -76 2z
m119 -51 c20 -8 22 -15 22 -83 0 -57 -4 -79 -19 -97 -16 -20 -22 -22 -42 -12
-13 6 -39 17 -58 24 -75 28 -85 171 -12 182 30 4 76 -2 109 -14z m-393 -56 c8
-16 35 -44 59 -63 38 -31 63 -76 50 -90 -3 -2 -35 -9 -72 -16 -57 -9 -71 -9
-95 5 -15 8 -29 23 -32 32 -3 10 -12 20 -20 23 -24 9 -18 65 11 103 33 43 76
46 99 6z m628 -115 c32 -12 32 -16 10 -62 -28 -60 -127 -116 -205 -116 -55 0
-49 43 14 111 67 73 115 91 181 67z m-307 -76 c10 -21 18 -57 18 -81 1 -41 -2
-47 -41 -74 -36 -26 -45 -28 -58 -17 -11 9 -13 16 -5 24 5 5 10 18 10 28 0 15
-4 16 -27 7 -31 -12 -53 -6 -53 16 0 8 -5 15 -12 15 -9 0 -9 3 0 12 7 7 12 20
12 30 0 9 9 22 19 28 11 5 22 19 26 29 6 20 42 30 77 23 9 -2 25 -20 34 -40z
m-250 -147 c16 -8 41 -15 56 -15 39 0 42 -14 13 -68 -32 -58 -51 -71 -110 -74
-59 -2 -73 12 -81 83 -6 54 -6 56 22 67 16 6 38 13 49 15 11 3 21 5 21 6 1 0
15 -6 30 -14z m369 -77 c13 -11 22 -25 19 -30 -3 -4 -1 -8 4 -8 5 0 13 -24 18
-54 12 -64 -7 -121 -41 -121 -22 0 -72 67 -79 105 -2 14 -7 37 -11 53 -4 15
-4 38 -1 52 8 32 55 34 91 3z"/>
<path d="M1611 3031 c-11 -7 -13 -31 -7 -122 4 -63 9 -271 12 -463 3 -208 9
-356 15 -367 5 -11 12 -43 14 -72 6 -68 16 -120 24 -132 4 -5 8 -26 9 -45 2
-19 10 -57 19 -84 9 -28 17 -66 19 -85 2 -30 14 -82 40 -169 2 -7 4 -14 4 -17
1 -3 10 -35 20 -72 11 -37 18 -68 16 -70 -2 -2 5 -32 15 -65 10 -34 16 -65 13
-70 -3 -4 0 -8 6 -8 6 0 8 -5 5 -10 -7 -11 23 -111 35 -120 6 -5 15 -35 24
-85 2 -11 20 -49 41 -85 38 -65 105 -224 105 -247 0 -7 5 -13 10 -13 6 0 10
-10 10 -22 0 -19 2 -20 10 -8 6 9 10 10 10 3 0 -26 42 -52 81 -50 48 2 73 -18
47 -37 -21 -15 -23 -26 -6 -26 16 0 68 51 68 66 0 7 4 14 8 16 9 3 102 157
102 167 0 4 13 34 29 67 16 33 34 86 41 119 6 33 21 89 32 125 43 136 39 646
-8 925 -9 55 -17 109 -18 120 -4 40 -18 66 -42 75 -15 6 -24 18 -24 30 0 25
-19 17 -19 -8 -1 -16 -3 -42 -16 -157 -3 -27 -7 -77 -9 -110 -2 -33 -9 -130
-15 -215 -6 -85 -13 -189 -16 -230 -3 -41 -7 -95 -11 -120 -5 -38 -29 -212
-38 -275 -2 -11 -6 -48 -11 -83 -4 -34 -11 -64 -16 -67 -4 -3 -6 -12 -2 -20 3
-8 0 -15 -7 -15 -6 0 -8 -4 -5 -10 3 -5 -1 -20 -8 -32 -8 -13 -18 -61 -21
-108 -4 -47 -11 -86 -16 -88 -6 -2 -10 -11 -10 -19 0 -24 -10 -9 -16 23 -3 16
-9 31 -15 32 -5 2 -9 10 -9 18 0 9 -5 12 -10 9 -6 -4 -13 7 -16 24 -4 17 -10
31 -15 31 -4 0 -11 16 -15 35 -3 19 -10 35 -15 35 -5 0 -9 9 -9 21 0 11 -4 18
-9 15 -5 -3 -14 0 -20 8 -9 11 -8 17 3 29 13 13 12 19 -9 49 -13 20 -21 38
-18 41 3 4 -3 19 -13 34 -10 15 -19 34 -20 41 -1 7 -10 24 -19 38 -9 13 -13
28 -11 33 3 5 -4 20 -15 35 -11 14 -17 30 -14 36 3 5 1 10 -5 10 -7 0 -10 6
-7 14 3 8 2 16 -3 18 -4 2 -11 43 -14 91 -4 59 -10 93 -21 103 -11 11 -12 20
-5 33 5 10 7 21 4 24 -7 6 -8 22 -18 157 -4 52 -10 109 -13 125 -3 17 -7 66
-9 110 -2 44 -11 140 -19 214 -8 74 -13 142 -10 152 4 11 3 19 -2 19 -4 0 -9
39 -11 87 -2 48 -7 90 -13 94 -5 3 -7 13 -3 22 7 18 -11 142 -28 197 -7 19
-11 59 -10 88 1 28 -3 52 -8 52 -5 0 -12 17 -16 38 -9 52 -32 140 -39 152 -8
12 -25 13 -44 1z m95 -581 c4 -25 7 -63 9 -85 1 -22 6 -74 9 -115 13 -140 13
-300 0 -300 -7 0 -12 17 -12 41 -1 22 -6 47 -12 54 -7 8 -14 54 -16 102 -7
190 -10 369 -6 382 7 19 21 -20 28 -79z m710 -502 c1 -29 8 -67 14 -83 15 -39
22 -606 9 -695 -11 -72 -38 -168 -53 -188 -5 -7 -15 -11 -23 -8 -8 3 -11 1 -8
-4 3 -5 1 -19 -6 -31 -6 -12 -13 -36 -15 -53 -6 -40 -25 -77 -36 -70 -12 8
-10 21 8 38 8 9 11 16 6 16 -11 0 -7 48 8 94 6 16 10 48 10 72 0 23 5 55 10
69 6 15 11 46 11 68 0 23 7 96 14 162 7 66 13 131 14 145 1 23 7 58 11 70 1 3
2 9 1 13 -1 7 -1 196 0 257 0 8 0 53 -1 100 -2 106 -2 106 11 93 6 -6 13 -36
15 -65z"/>
<path d="M3730 2722 c0 -15 4 -32 9 -37 19 -21 52 -165 84 -370 28 -179 30
-506 4 -650 -10 -55 -20 -109 -22 -120 -5 -34 -16 -78 -30 -120 -7 -22 -20
-67 -30 -100 -9 -33 -22 -73 -29 -90 -8 -16 -26 -61 -40 -100 -15 -38 -31 -78
-37 -88 -5 -10 -7 -22 -4 -27 3 -5 -3 -15 -12 -22 -10 -7 -25 -25 -33 -40 -17
-30 -73 -98 -112 -138 -16 -15 -28 -32 -28 -37 0 -6 -26 -32 -57 -59 -32 -27
-60 -51 -63 -55 -3 -3 -12 -9 -20 -12 -8 -4 -28 -16 -45 -26 -30 -19 -77 -18
-102 1 -7 5 -14 5 -18 -2 -3 -5 -1 -10 4 -10 6 0 10 -3 10 -7 -4 -26 4 -33 41
-33 22 0 50 6 63 12 77 43 132 86 207 162 47 47 90 86 95 86 15 1 54 36 57 51
2 7 13 25 26 39 12 13 22 30 22 35 0 6 15 26 34 44 19 19 45 58 57 87 12 30
24 54 28 54 3 0 20 26 36 58 17 31 33 59 38 60 4 2 7 10 7 17 0 8 14 39 30 69
32 57 73 178 95 276 7 30 20 82 30 115 26 93 36 248 19 299 -8 22 -21 75 -28
116 -20 106 -37 162 -52 181 -8 8 -14 21 -14 28 0 11 -17 54 -60 146 -10 22
-22 52 -26 68 -3 15 -10 30 -15 33 -5 3 -9 12 -9 21 0 30 -43 101 -64 107 -38
10 -46 7 -46 -22z m170 -367 c6 -16 11 -32 12 -35 0 -3 6 -20 14 -39 8 -18 14
-46 14 -62 0 -15 5 -31 10 -34 6 -3 10 -20 10 -36 0 -17 7 -43 15 -60 9 -16
13 -34 10 -38 -3 -5 0 -22 5 -37 15 -39 -3 -184 -39 -304 -15 -52 -36 -129
-46 -170 -10 -41 -21 -84 -25 -95 -4 -11 -8 -23 -9 -28 0 -4 -11 -26 -24 -50
-13 -23 -32 -64 -42 -90 -10 -26 -26 -52 -37 -58 -19 -10 -27 4 -8 16 6 3 10
17 10 29 0 13 7 29 15 36 9 7 13 15 11 18 -3 2 0 14 5 25 6 11 13 34 15 51 3
17 11 51 19 76 7 25 18 81 24 125 5 44 15 102 21 128 20 92 31 336 17 382 -4
11 -2 27 3 34 5 10 4 23 -3 35 -6 12 -13 35 -14 51 -2 42 -9 93 -18 137 -4 21
-4 46 0 55 6 16 9 15 15 -7 4 -14 13 -38 20 -55z"/>
<path d="M1195 2168 c-3 -7 -7 -49 -9 -93 -3 -44 -8 -98 -11 -120 -3 -22 -7
-71 -9 -109 -2 -49 -8 -71 -18 -77 -17 -10 -17 -34 1 -179 9 -75 16 -148 26
-270 1 -19 5 -62 9 -95 3 -33 8 -107 12 -165 10 -159 12 -174 23 -178 6 -2 9
-8 5 -13 -3 -5 -2 -15 3 -21 4 -7 8 -18 9 -25 1 -7 15 -38 30 -69 15 -31 28
-70 29 -86 1 -16 7 -34 13 -40 7 -7 12 -25 12 -41 0 -28 -1 -29 -37 -23 -21 3
-58 7 -83 8 -25 1 -49 4 -55 8 -5 4 -21 10 -35 14 -34 8 -99 66 -82 73 22 9
14 40 -10 39 -23 -1 -28 7 -116 174 -10 19 -23 44 -29 55 -6 11 -16 34 -23 50
-33 81 -62 122 -135 195 -79 79 -152 139 -168 140 -24 1 -150 85 -193 130 -91
94 -109 115 -122 141 -16 31 -64 61 -85 53 -21 -8 -29 -32 -17 -53 5 -10 6
-21 2 -25 -3 -4 -1 -10 5 -14 6 -4 16 -36 22 -72 6 -36 12 -69 14 -75 13 -42
20 -55 28 -55 5 0 9 -10 9 -22 0 -13 16 -41 35 -63 19 -22 35 -45 35 -52 0 -7
5 -13 11 -13 6 0 9 -7 5 -15 -3 -8 0 -15 6 -15 6 0 46 -36 89 -80 43 -44 82
-80 86 -80 5 -1 32 -23 62 -50 30 -28 58 -50 63 -50 4 0 21 -11 36 -24 87 -77
149 -127 172 -138 14 -7 27 -16 30 -19 3 -3 22 -17 42 -31 21 -13 35 -27 32
-30 -7 -7 88 -88 104 -88 6 0 12 -5 12 -11 0 -5 4 -8 9 -4 5 3 13 0 17 -6 8
-14 72 -42 104 -45 51 -6 217 -7 226 -2 5 3 40 3 77 -1 73 -8 83 -5 65 16 -12
15 5 13 92 -6 20 -4 74 -9 120 -11 47 -1 102 -3 122 -4 29 -1 40 4 49 22 7 12
18 22 25 22 13 0 29 18 22 26 -2 2 -34 -3 -71 -10 -66 -14 -175 -13 -212 3
-11 4 -37 16 -58 25 -21 9 -44 16 -51 16 -8 0 -19 6 -25 14 -7 8 -26 18 -42
21 -16 4 -29 13 -29 21 0 8 -3 13 -7 12 -17 -5 -64 35 -58 50 3 9 0 12 -9 9
-16 -6 -63 55 -72 94 -3 13 -6 58 -7 99 -2 41 -6 81 -11 89 -5 8 -10 35 -11
61 -1 25 -4 51 -7 56 -2 5 -6 29 -7 54 -1 24 -6 49 -11 55 -5 5 -12 55 -16
110 -3 55 -9 104 -11 108 -10 17 -12 307 -3 307 6 0 10 -10 10 -23 0 -13 3
-27 7 -31 7 -7 9 -12 19 -61 5 -27 21 -68 45 -120 20 -44 47 -134 41 -139 -3
-4 2 -12 12 -19 9 -7 18 -19 20 -27 2 -8 8 -28 15 -45 7 -16 14 -39 16 -50 3
-24 16 -58 25 -65 8 -7 50 -110 50 -124 0 -6 9 -17 20 -24 12 -7 18 -17 15
-22 -3 -5 9 -25 26 -44 17 -20 27 -36 23 -36 -5 -1 0 -9 11 -18 22 -20 43 -49
51 -72 3 -9 19 -24 35 -35 17 -11 45 -40 62 -65 17 -24 42 -54 56 -66 35 -31
94 -49 116 -37 15 9 13 12 -14 23 -20 8 -31 20 -31 32 0 10 -31 52 -70 91 -80
83 -120 129 -120 139 0 3 -11 19 -24 35 -31 37 -96 160 -88 167 3 3 0 6 -6 6
-7 0 -12 7 -12 15 0 9 -10 35 -22 58 -26 50 -48 104 -53 132 -3 18 -23 67 -74
180 -27 59 -33 77 -36 105 -2 14 -13 54 -25 90 -12 36 -25 81 -30 100 -4 19
-17 69 -28 111 -14 52 -19 99 -17 150 3 80 -5 99 -42 99 -13 0 -26 -6 -28 -12z
m-895 -777 c27 -27 63 -52 79 -56 16 -3 35 -13 42 -21 6 -8 20 -14 31 -14 10
0 21 -7 24 -15 4 -8 11 -15 18 -15 6 0 34 -21 62 -47 75 -70 103 -93 114 -93
6 0 10 -6 10 -12 0 -7 14 -33 30 -57 16 -24 27 -48 24 -52 -3 -5 0 -8 6 -7 7
2 19 -19 29 -47 9 -27 22 -60 29 -72 15 -26 15 -36 2 -28 -5 3 -10 0 -10 -7
-1 -9 -5 -7 -14 5 -7 9 -16 17 -20 17 -5 0 -33 23 -64 50 -31 28 -62 50 -69
50 -7 0 -17 9 -23 20 -6 11 -18 20 -26 20 -8 0 -13 4 -10 9 3 4 -6 13 -19 19
-14 7 -25 16 -25 22 0 5 -13 16 -29 24 -15 8 -50 42 -77 76 -27 33 -55 60 -63
60 -8 0 -12 3 -8 6 3 4 -5 21 -18 39 -14 17 -25 35 -25 39 0 5 -10 21 -21 38
-19 27 -43 98 -33 98 3 0 27 -22 54 -49z"/>
<path d="M3311 1902 c-6 -11 -6 -23 -1 -28 5 -5 13 -28 18 -50 19 -85 -32
-261 -142 -489 -36 -75 -66 -140 -66 -145 0 -4 -9 -19 -21 -34 -11 -14 -17
-26 -13 -26 4 0 0 -8 -8 -17 -9 -10 -30 -45 -47 -78 -40 -75 -132 -222 -159
-252 -11 -13 -18 -23 -15 -23 4 0 -13 -19 -36 -41 -23 -23 -41 -42 -39 -44 2
-1 11 -6 20 -11 17 -9 17 -11 -1 -26 -29 -25 -43 -1 -48 85 -3 39 -8 74 -12
77 -13 9 -6 319 7 332 7 7 12 30 12 53 0 23 7 50 15 61 8 10 15 29 15 42 0 45
-69 14 -76 -34 -2 -10 -6 -29 -10 -43 -4 -14 -8 -28 -9 -31 0 -3 -7 -16 -15
-30 -8 -14 -14 -29 -15 -35 -2 -25 -29 -95 -37 -95 -4 0 -8 -7 -8 -17 0 -14
-29 -81 -67 -156 -8 -15 -11 -32 -8 -37 3 -6 1 -10 -5 -10 -6 0 -9 -4 -5 -9 3
-5 -1 -28 -9 -50 -7 -23 -10 -44 -6 -46 5 -3 9 -13 9 -23 1 -46 9 -66 29 -73
12 -5 22 -15 22 -23 0 -8 9 -18 20 -21 11 -3 20 -10 20 -15 0 -5 14 -17 31
-26 31 -15 32 -15 55 10 31 33 30 42 -3 50 -46 10 -107 75 -96 102 6 17 23 19
23 2 1 -18 40 -63 67 -77 12 -6 42 -11 67 -11 25 0 48 -4 51 -10 3 -5 20 -10
38 -10 32 0 85 31 150 88 21 18 42 30 47 27 6 -4 14 5 20 19 5 14 14 26 20 26
14 0 180 166 180 179 0 5 4 11 8 13 5 2 23 26 42 53 18 28 36 52 39 55 18 15
59 78 66 100 4 14 16 37 26 52 11 14 19 30 19 35 0 4 7 21 15 37 9 16 13 36
10 45 -3 8 0 18 6 22 9 5 14 52 16 146 l3 138 -33 70 c-19 38 -42 90 -51 115
-37 101 -101 158 -125 112z m102 -372 c1 -93 -18 -214 -52 -325 -18 -62 -106
-217 -128 -227 -5 -1 -21 -23 -38 -48 -35 -53 -190 -207 -217 -216 -10 -3 -18
-9 -18 -14 0 -4 -8 -11 -17 -14 -11 -4 -7 4 10 18 35 32 34 40 -3 32 -17 -3
-30 -1 -30 4 0 6 5 10 11 10 5 0 7 5 4 10 -4 6 7 26 23 45 17 18 33 47 37 64
4 17 13 31 21 31 8 0 14 8 14 19 0 10 15 35 33 54 17 20 43 66 57 102 13 36
30 71 37 77 7 6 13 19 13 29 0 10 5 21 10 24 6 3 10 15 10 26 0 11 4 18 9 15
5 -3 14 9 21 27 20 52 32 75 52 97 11 11 20 31 21 43 1 12 7 28 14 35 7 7 13
24 13 38 0 13 4 24 10 24 5 0 7 7 4 15 -4 8 -1 15 4 15 9 0 25 49 27 83 0 4 7
12 15 17 21 13 31 -20 33 -110z"/>
<path d="M4775 1647 c-11 -7 -45 -19 -75 -26 -30 -8 -101 -35 -157 -62 -56
-27 -105 -49 -109 -49 -3 0 -41 -26 -82 -57 -42 -32 -90 -65 -108 -73 -17 -9
-42 -25 -55 -36 -25 -19 -92 -125 -104 -163 -3 -12 -24 -50 -46 -86 -21 -36
-39 -69 -39 -75 0 -5 -9 -15 -20 -22 -12 -8 -23 -28 -26 -50 -5 -28 -18 -48
-54 -80 -59 -53 -68 -60 -100 -76 -14 -7 -41 -22 -60 -34 -19 -12 -53 -24 -75
-27 -45 -7 -54 -30 -17 -46 12 -5 22 -13 22 -16 0 -10 -89 -39 -117 -39 -13 0
-23 -4 -23 -9 0 -9 34 -21 64 -21 22 0 153 61 211 99 22 14 45 26 50 27 6 0
17 4 25 7 8 3 31 8 51 11 21 4 48 15 61 26 14 10 44 30 69 43 24 13 71 39 104
56 33 18 67 42 77 52 9 10 19 19 23 19 3 0 15 9 27 20 12 11 28 20 35 20 23 0
66 32 133 101 92 95 75 67 189 298 36 73 163 221 190 221 8 0 11 10 9 28 -4
32 -40 41 -73 19z m-181 -195 c-10 -15 -29 -48 -41 -75 -12 -26 -36 -67 -53
-91 -16 -25 -30 -49 -30 -54 0 -6 -4 -12 -8 -14 -5 -1 -23 -25 -41 -51 -37
-55 -106 -122 -157 -153 -19 -12 -45 -30 -57 -41 -12 -11 -57 -41 -100 -66
-85 -51 -125 -63 -84 -24 14 12 35 43 47 70 12 26 26 47 31 47 5 0 9 8 9 18 0
84 141 295 212 318 12 3 31 15 42 25 12 10 36 32 55 49 19 16 39 30 46 30 7 0
18 6 24 14 7 8 34 20 62 27 27 7 50 18 50 23 1 6 3 3 6 -7 3 -10 -3 -30 -13
-45z"/>
<path d="M4989 856 c-2 -2 -65 -7 -139 -10 -180 -8 -394 -34 -469 -56 -19 -5
-37 -8 -39 -5 -3 3 -11 0 -18 -5 -6 -6 -18 -9 -25 -8 -7 2 -18 -8 -25 -22 -7
-14 -17 -25 -21 -25 -20 -2 -93 -47 -107 -67 -22 -31 -21 -34 20 -74 24 -23
42 -33 53 -29 20 9 79 17 110 16 14 -1 30 8 38 19 8 11 23 20 34 20 10 0 19 5
19 10 0 6 7 10 16 10 8 0 41 12 72 26 31 14 73 32 92 40 19 8 43 19 53 25 10
5 22 7 27 4 5 -3 17 -1 27 5 89 50 451 46 593 -7 8 -3 38 -5 65 -4 28 1 64 -3
80 -10 17 -7 44 -13 60 -15 17 -1 55 -6 86 -9 48 -6 57 -5 63 11 4 9 2 22 -3
27 -5 5 -61 20 -124 32 -63 13 -125 29 -138 36 -13 7 -30 12 -38 10 -12 -2
-62 9 -183 40 -40 10 -172 21 -179 15z"/>
<path d="M1280 431 c-201 -55 -273 -70 -345 -76 -44 -3 -111 -8 -150 -11 -38
-3 -116 -7 -172 -8 -55 0 -99 -4 -97 -8 4 -6 -5 -8 -88 -11 -20 -1 -34 -5 -32
-8 4 -7 -16 -16 -53 -24 -34 -6 -76 -26 -70 -32 4 -3 2 -15 -4 -26 -8 -14 -8
-18 0 -13 6 4 11 0 11 -8 0 -12 10 -16 41 -16 24 0 38 -4 34 -10 -6 -10 0 -12
75 -14 25 -1 50 -4 55 -7 17 -10 139 -10 154 0 10 6 22 6 33 0 12 -7 18 -6 18
1 0 6 6 10 13 9 6 -1 19 0 27 3 29 11 115 36 148 43 17 4 32 10 32 15 0 4 20
11 45 15 25 3 43 10 40 16 -4 5 5 9 19 9 14 0 27 4 30 9 5 7 75 22 121 25 19
2 75 28 75 36 0 9 77 23 149 28 20 2 22 6 16 30 -12 50 -38 57 -125 33z"/>
</g>
</svg>
