<?xml version="1.0" encoding="UTF-8"?>
<svg width="652px" height="246px" viewBox="0 0 652 246" version="1.1" xmlns="http://www.w3.org/2000/svg" xmlns:xlink="http://www.w3.org/1999/xlink">
    <!-- Generator: Sketch 42 (36781) - http://www.bohemiancoding.com/sketch -->
    <title>Group 3</title>
    <desc>Created with Sketch.</desc>
    <defs></defs>
    <g id="Page-1" stroke="none" stroke-width="1" fill="none" fill-rule="evenodd">
        <g id="Group-3" transform="translate(1.000000, -1.000000)">
            <g id="frog" transform="translate(267.000000, 0.000000)">
                <g id="Group" transform="translate(192.300000, 123.200000) scale(-1, 1) rotate(-180.000000) translate(-192.300000, -123.200000) translate(0.300000, 0.700000)">
                    <path d="M295.7,243.6 C295.7,243 294.9,242.8 293.8,243.2 C292.7,243.5 291.6,243.4 291.3,242.9 C291,242.3 289,241.6 287,241.2 C279.2,239.8 257.2,227.5 254.4,223.1 C254,222.4 253.1,221.2 252.4,220.5 C250,218.1 247.7,214 248.4,213.4 C248.7,213 250.2,212.7 251.5,212.7 C252.9,212.7 253.7,213 253.4,213.4 C252.6,214.1 255.5,217.7 256.9,217.7 C257.3,217.7 257.7,216.8 257.7,215.7 C257.7,212.6 260.2,213.3 263.3,217.3 C268.1,223.3 269,224.1 274.1,226.6 C278.8,228.9 279.4,228.9 286.4,227.9 C290.5,227.2 294.7,226.3 295.7,225.7 C299.1,223.9 303.1,213.9 303.5,205.9 C304,196.7 302.1,191.7 297.1,189.3 C295.2,188.4 293.4,187 293.1,186.2 C292.7,185.4 291.9,184.7 291.3,184.7 C289.8,184.7 285.7,180.5 285.7,179.1 C285.7,177.4 292.5,174.7 299.4,173.7 C309.7,172.3 320.5,164.8 317.6,161.1 C317.1,160.5 315.4,160.2 313.7,160.5 C312.1,160.7 310,160.6 309.1,160.3 C307.7,159.8 307.8,159.4 309.6,157.1 C310.8,155.6 311.6,154.3 311.4,154.1 C310.9,153.6 295.1,155.4 288.7,156.7 C273.6,159.7 260.6,160.3 241.2,158.7 C233.5,158.1 214.4,157.7 198.7,157.7 C183,157.8 167.1,157.6 163.2,157.2 C153.4,156.4 133.5,153.7 132.4,153 C131.4,152.4 129.5,152.2 117.7,151.2 C113,150.8 109,150.5 108.7,150.4 C107,150.1 92.7,152 90,152.8 C86.4,154 86,155.3 87.8,160.8 C89.9,167 92.5,168.8 102.2,171.1 C107.4,172.3 108.9,174.3 106.5,176.9 C104.6,179 102.9,181.7 100.7,186.2 C98.5,190.9 97.5,203.4 99.1,205.5 C102.2,209.5 106,212.1 111.1,213.9 C119,216.5 128.1,214.9 132,210.2 C132.5,209.7 132.6,210.6 132.3,212.2 L131.7,215.2 L134.4,212.1 C136,210.4 137.9,208.1 138.9,207.1 C139.8,206.1 141.7,204.4 143.1,203.4 C144.7,202.3 145.7,200.7 145.7,199.1 C145.7,197.5 146.2,196.7 147,197 C147.6,197.2 148.1,198.3 148,199.4 C147.7,202.3 150.7,203.6 164.4,206.3 C176.4,208.7 179,208.8 211.9,208.9 C244.1,209 246.7,209.2 246.7,210.8 C246.7,211.7 245.9,212.8 245,213.1 C242.9,214 201.8,213.6 181.1,212.6 C162.9,211.7 150.8,209.5 148.8,206.7 C146.7,203.6 145.1,204.3 142.9,209.6 C139.5,217.3 129.3,223.5 115.4,226.2 C104.8,228.2 98.9,227 87.2,220.4 C82,217.4 80.7,216.1 77.7,210.3 C75.7,206.6 73.3,203.4 72.2,203 C71.1,202.7 67.8,202.5 64.9,202.6 C60.6,202.8 58.6,202.3 54.9,200.1 C50.2,197.3 45.7,193.7 47,193.7 C47.4,193.7 46.9,192.8 46,191.8 C41.3,186.2 33.9,169.1 35.6,167.4 C36.1,166.9 36.7,168.1 37.1,170.1 C37.5,172.1 38.2,173.7 38.7,173.7 C39.3,173.7 39.7,174.2 39.7,174.7 C39.7,175.3 40.8,177.5 42.2,179.7 C43.6,181.9 44.7,184.1 44.7,184.7 C44.7,185.3 45.8,186.9 47.2,188.3 C48.6,189.7 49.7,191.1 49.7,191.5 C49.7,191.9 51.8,193.5 54.3,195.1 C58,197.4 60.3,198.1 66.2,198.4 C72.9,198.7 73.7,198.6 75.1,196.5 C76,195.3 76.7,193.5 76.7,192.6 C76.7,190.1 84,182.3 89.9,178.6 L95,175.3 L92.6,173.8 C89,171.4 84.7,166.5 84.1,164 C83.3,161 81.6,161.1 78.9,164.2 C77.6,165.6 75.6,167.2 74.2,167.7 C70.9,168.9 59,167.8 57.6,166.1 C57,165.3 55.9,164.7 55.3,164.7 C54.7,164.7 52.5,163.6 50.5,162.2 C48.5,160.8 46.4,159.7 45.8,159.7 C45.2,159.7 43.1,158.6 41.1,157.2 C39.1,155.8 36.7,154.7 35.8,154.7 C34.9,154.7 33.2,153.6 31.9,152.3 C30.7,150.9 27.3,148.5 24.4,146.8 C18.7,143.5 12.7,138.3 12.7,136.7 C12.7,136.2 12.3,135.7 11.7,135.7 C11.2,135.7 9.5,133.3 8.1,130.5 C6.7,127.6 4.9,124.5 4.2,123.7 C1.1,120.2 -0.5,110.9 0.2,100.9 C0.6,95.6 1.1,90.9 1.4,90.4 C1.7,89.9 2.2,87.8 2.4,85.8 C2.7,83.8 3.5,81.5 4.1,80.7 C4.8,79.9 6.4,77.1 7.6,74.4 C10,69.4 17.9,61.8 23.4,59.2 C25.2,58.3 26.9,57.2 27.3,56.6 C28.2,55 32.4,53.7 41.7,52.1 C46.3,51.3 50.9,50 51.7,49.2 C52.6,48.4 54.5,47.7 55.8,47.7 C57.2,47.7 62.5,46.8 67.6,45.7 C72.7,44.6 77.1,43.8 77.5,43.9 C78.8,44.3 100.2,35.6 102.7,33.7 L105.1,31.9 L102.7,30.9 C101.3,30.3 97.5,28.8 94.2,27.6 C87.2,24.9 86.8,24.6 81.1,18.8 C74.6,12.1 74.3,6.3 80.3,2.6 C83.4,0.7 84.3,0.6 89.8,1.6 C93.2,2.2 96.4,3.1 97.1,3.6 C97.7,4.1 101.8,5 106.2,5.7 C110.6,6.4 115.2,7.6 116.4,8.3 C119.5,10.3 121.6,10.1 121,7.9 C119.9,3.7 128.9,-2.5 130.9,1.1 C131.4,2 132.5,2.7 133.2,2.7 C134,2.7 134.7,3.4 134.7,4.2 C134.7,5 135.3,5.7 136.1,5.7 C136.9,5.7 138.2,7.5 139.1,9.7 C140.6,13.6 142.3,14.6 144.2,12.8 C145.7,11.4 154.7,12.7 154.7,14.3 C154.7,15.1 155.2,15.7 155.8,15.7 C157.9,15.7 155.9,22.9 152.7,26.9 C151,29 150,30.7 150.5,30.7 C150.9,30.7 155,29.4 159.5,27.7 C164.1,26.1 169.1,24.7 170.7,24.7 C172.3,24.7 174.8,24.2 176.4,23.6 C179.4,22.4 188.9,20.6 192.2,20.6 C197.7,20.6 208.8,21.6 213.7,22.6 C216.7,23.2 221.5,23.9 224.2,24.1 C227,24.4 233.4,25.5 238.4,26.6 C243.5,27.8 248.8,28.7 250.2,28.7 C251.6,28.7 252.7,29.1 252.7,29.5 C252.7,30.5 266.3,37.7 268.2,37.7 C268.9,37.7 270,38.4 270.7,39.2 C271.4,40 273.4,40.9 275.3,41.3 C277.2,41.6 278.7,42.3 278.7,42.7 C278.7,43.1 279.6,43.7 280.7,44 C281.9,44.3 282.7,45.4 282.7,46.6 C282.7,47.9 283.6,49.1 285,49.7 C286.2,50.2 286.8,50.6 286.4,50.6 C286,50.7 286.9,51.8 288.4,53.2 C293.7,57.9 294.4,58.8 297.6,65 C299.4,68.4 301.5,72.3 302.2,73.7 C303,75.1 303.7,77.2 303.7,78.5 C303.7,79.8 304.6,82.7 305.7,84.9 C307.4,88.4 307.7,91.1 307.7,101.7 C307.7,108.7 307.4,114.7 307,115.1 C306.5,115.5 306.1,116.3 306.1,116.8 C306,117.3 305.9,118.2 305.8,118.7 C305.8,119.3 304.8,119.7 303.8,119.7 C302,119.7 301.9,118.8 301.9,106 C301.9,98.4 301.6,90.9 301.3,89.2 C300.5,85.6 297.8,79.8 295.9,77.6 C295.2,76.6 294.4,74.2 294.1,72.2 C293.6,67.7 291.7,64.2 287.8,60 C286.1,58.2 284.7,56.3 284.7,55.8 C284.7,55.2 284.2,54.7 283.7,54.7 C282.3,54.7 277.7,50.1 277.7,48.8 C277.7,48.2 275.6,46.8 273,45.6 C270.3,44.5 267,42.9 265.4,42 C257.6,37.8 241.2,33.3 226.7,31.2 C221.5,30.4 213.2,29.1 208.3,28.3 C203.4,27.4 197.4,26.7 194.8,26.7 C189,26.7 166.9,31.6 151.2,36.3 C135.4,41 134.6,41.4 134,43.7 C133.7,44.8 133.1,45.4 132.6,45.2 C132.2,44.9 130.9,45.4 129.8,46.4 C128.8,47.4 125.4,50.2 122.4,52.7 C119.4,55.2 116.6,57.9 116.3,58.7 C115.9,59.5 115,61.3 114.3,62.7 C113.5,64.1 112.7,68.1 112.4,71.7 C111.9,78.3 109.9,91 109,93.7 C108.7,94.5 108.6,97.9 108.6,101.3 C108.8,105.8 108.4,107.7 107.2,108.7 C106.4,109.4 105.5,109.8 105.2,109.5 C104.5,108.8 104.4,89.8 105.1,82.2 C105.4,78.4 105.9,72.5 106.1,69.2 C106.7,58.7 111.2,51.5 120.8,45.2 C122.8,43.9 125,42.3 125.8,41.5 C127,40.4 134.1,36.7 140.7,33.7 C141.5,33.3 142.8,31.7 143.6,30.2 C144.4,28.6 146.1,26.3 147.3,25 C148.6,23.7 149.7,22.3 149.8,21.9 C149.8,21.5 150,20.2 150.3,19 C150.6,17 150.3,16.7 147.4,16.7 C145.7,16.8 143.1,17.4 141.7,18.2 C140.3,18.9 138,19.3 136.6,19 C135.1,18.7 133.6,19 133.3,19.6 C132.3,21.2 129.2,21 127.7,19.3 C125.2,16.2 102.3,9.3 87.5,7.2 C83.5,6.6 82.7,6.8 81.8,8.6 C80.9,10.1 81,11.2 81.9,12.7 C82.6,13.8 83.5,14.7 83.9,14.7 C84.4,14.7 84.7,15.3 84.7,16 C84.7,16.7 86.3,18.1 88.2,19 C90.1,19.9 91.7,21.1 91.7,21.6 C91.7,22.4 106.7,26.2 112.7,26.9 C114.6,27.1 115.3,27.9 115.5,30 C115.7,31.6 115.3,33.5 114.6,34.4 C112.7,36.6 91.7,46.6 85.5,48.2 C82.6,48.9 73.4,50.9 65.2,52.6 C47.2,56.2 33.7,60 28.2,63 C18.2,68.4 6.9,84.4 6.1,94.5 C5.2,105.7 5.6,114.2 7.1,117.2 C8,118.9 8.7,120.7 8.7,121.3 C8.7,121.9 9.4,123 10.2,123.7 C11,124.4 11.7,125.5 11.7,126.3 C11.7,127 12.7,128.7 14,130 C15.2,131.4 17.3,134.1 18.7,136 C20.1,138 22.7,140.4 24.5,141.2 C26.5,142.2 27.7,143.5 27.7,144.7 C27.7,145.8 28.2,146.7 28.8,146.7 C29.3,146.7 29.5,146.3 29.2,145.7 C28.9,145.2 29.3,144.7 30.1,144.7 C31,144.7 31.7,145.2 31.7,145.8 C31.7,146.3 32.1,146.6 32.6,146.2 C33.2,145.9 34.4,146.5 35.4,147.5 C36.4,148.5 38.6,149.9 40.4,150.6 C42.1,151.3 43.8,152.5 44.1,153.3 C44.4,154 45.2,154.4 45.9,154.2 C46.7,153.9 49.9,155.2 53.1,157.2 C64.6,164.1 74.1,165.7 77.1,161.2 C78,159.8 79.4,158.7 80.2,158.7 C81.2,158.7 81.7,157.6 81.7,155.3 C81.7,153.5 82.3,151.4 83.1,150.8 C85,149.2 85.7,145.8 84.4,144.9 C82.8,144 79.7,137.1 79.7,134.8 C79.7,131.8 84.2,128.2 89.6,126.8 C92.4,126.1 95,125.8 95.5,126.1 C96,126.4 100.1,125.9 104.8,125.1 C113.9,123.5 120.9,123.3 144.7,124.2 C166.9,125 195.8,125 205.7,124.2 C219.4,123.1 232.7,123 257.4,123.8 C276.3,124.5 281.9,125 287.9,126.7 C291.9,127.9 296,129.3 297,129.8 C298,130.3 299.3,130.5 299.9,130.1 C300.6,129.6 300.8,129.9 300.4,131 C300,132.1 300.2,132.4 301.1,132.1 C303,131.4 312,136.9 313.2,139.5 C313.7,140.7 315,142 315.9,142.3 C318.1,143 320.7,148.2 320.7,151.9 C320.7,153.5 321.2,155.7 321.7,156.8 C322.3,157.8 322.9,160.5 323.2,162.7 C323.7,168.3 318.6,173.8 309.7,177.1 C306.2,178.4 303.2,179.9 303,180.3 C302.9,180.8 304.5,182 306.7,183 C309,184.1 311.5,186.4 312.9,188.5 C314.1,190.5 315.5,192.4 315.9,192.5 C316.3,192.7 316.7,193.3 316.7,193.8 C316.7,194.4 317.6,195.7 318.7,196.9 C319.8,198.1 320.7,199.7 320.7,200.4 C320.7,202.5 323.8,206.7 324.9,206.1 C325.4,205.8 325.3,206.5 324.5,207.6 C323.4,209.4 323.4,209.9 324.6,210.7 C325.7,211.3 326.1,214 326.1,221.4 C326.3,239.2 321.2,244.7 304.4,244.7 C298.9,244.7 295.7,244.3 295.7,243.6 Z M312,237.1 C322,232 323.6,225.7 318.7,210.5 C315.7,201.1 312.5,195.7 308.6,193.6 C307.1,192.8 306.7,193 306.7,194.2 C306.7,195.1 307,195.6 307.5,195.3 C307.9,195.1 307.9,198.1 307.5,202 C305.6,221.5 299.3,231.9 288.7,233.3 C286,233.7 283.7,234.3 283.7,234.7 C283.7,235.3 290.5,237 297.7,238.1 C303.7,238.9 309,238.6 312,237.1 Z M118.5,222 C122.2,221.1 119.8,220 113.2,219.4 C109.9,219.1 106,218.4 104.6,217.8 C100.7,216.4 94.9,209.1 94.3,204.9 C93.2,197.8 94.8,186.5 97.5,183.5 C98.3,182.5 98.7,181.7 98.2,181.7 C97.8,181.7 98,181 98.7,180.2 C99.7,179 99.7,178.7 98.5,178.7 C95.8,178.7 88.9,184 87.1,187.5 C81.4,198.3 81,199.4 81.2,203.2 C81.5,208.1 84.9,214.2 88.5,216.1 C101.4,223.2 108,224.5 118.5,222 Z M281.7,152.6 C285.8,152 289.7,151.1 290.2,150.7 C291.7,149.6 297.8,148.4 301.2,148.6 C311,149.2 314.7,148.9 314.7,147.5 C314.7,144.5 305.9,138 296.5,134.4 C287.9,131 285.5,130.5 273.6,129.7 C253.2,128.3 220,127.8 212.2,128.8 C202.2,130.1 168.6,130.6 159.2,129.5 C150.6,128.6 108.2,128.3 106.8,129.1 C106.4,129.4 102,130.1 97.2,130.6 C92.4,131.2 87.4,132.3 86.1,133.2 C83.9,134.6 83.9,134.8 85.3,138.9 C87.9,146.4 88.1,146.5 97.2,145.5 C106.6,144.4 119.5,145.3 140.7,148.6 C144.3,149.1 150.4,150 154.2,150.6 C158.1,151.1 177.2,151.9 196.7,152.3 C216.2,152.7 236.7,153.3 242.2,153.7 C254.2,154.5 271.4,154 281.7,152.6 Z" id="Shape" fill="#000000" fill-rule="nonzero"></path>
                    <path d="M331.2,209.1 L328.2,207.7 L332.4,208.3 C341,209.6 343.4,207 344.4,195.9 L345,189.6 L340.6,190.4 C335.5,191.3 324,191.3 323,190.3 C322.7,190 322.9,188.7 323.6,187.4 C324.6,185.6 325.8,185.1 329.3,184.9 C334.6,184.7 341.4,182.8 347.7,179.8 C354.2,176.7 368.2,163.1 369.7,158.5 C370.3,156.4 371.2,154.5 371.7,154.2 C372.1,153.9 372.8,152.1 373.2,150.1 C373.5,148.1 374.2,145.7 374.7,144.8 C377.4,139.4 378.7,123.9 377.3,113.2 C375.1,96.7 366.5,75.8 360.4,72.1 C358.6,71.1 356.9,70.3 356.5,70.5 C356,70.6 355.7,70.2 355.7,69.7 C355.7,69.1 355.1,68.7 354.5,68.7 C353.8,68.7 351,67.6 348.2,66.2 C345.5,64.9 338,61.3 331.6,58.2 C325.3,55.2 319.2,51.9 318.1,50.8 C317,49.8 315.1,48.4 313.9,47.8 C308.4,44.9 314.7,39.3 324.7,38.3 C329.3,37.9 330.6,37.2 332.9,34.6 C335.8,31.2 337,26.8 335.6,25.1 C335.1,24.4 333.4,23.7 331.9,23.4 C330.4,23.1 325.9,22.1 321.8,21.3 C314.3,19.7 311.8,19.9 313.6,22.1 C315.2,24 312.9,25.7 308.7,25.7 C303.8,25.8 300.7,28.4 300.1,33.2 C299.8,35.4 298.8,38 297.8,39 C296.1,40.7 295.9,40.7 294.3,39.2 C293.4,38.3 292.6,36.2 292.6,34.6 C292.3,29.5 292.2,29.2 291,28.4 C290.3,28 289.7,27.1 289.7,26.5 C289.7,25 286.6,22.8 284.6,22.7 C281.2,22.7 280.6,30.1 283.7,33.7 C284.8,34.9 285.4,36.4 285.1,36.8 C284.8,37.3 285,37.7 285.5,37.7 C286,37.7 286.7,38.5 287.1,39.5 C287.4,40.4 288,41.8 288.3,42.5 C288.7,43.3 288,43.7 286.4,43.7 C284.6,43.7 283,42.4 280.3,38.4 C275.7,31.7 275.3,25.5 279.3,21.2 C281.5,18.9 282.4,18.5 285.7,19 C288.5,19.3 290.4,20.4 292.3,22.6 C295.2,26.1 296.8,26.5 298.7,24.2 C300.9,21.5 308.1,18.7 309,20 C309.6,20.8 309.7,20.5 309.3,19.4 C308.7,17.4 311.9,15.7 315.2,16.4 C316.3,16.6 320.6,17.2 324.7,17.7 C338.3,19.3 343.3,22.1 342.2,27.2 C341.8,28.8 341.5,30.7 341.3,31.2 C340.8,33.8 336.2,38.9 332.9,40.6 C330.8,41.6 326.6,42.9 323.5,43.6 C317,45 315.8,46.7 321.2,46.7 C323.4,46.7 325,47.3 325.3,48.2 C325.6,49 326.7,49.9 327.7,50.2 C328.7,50.5 330.5,51.6 331.7,52.7 C333,53.8 335,54.7 336.2,54.7 C337.5,54.7 339,55.4 339.7,56.2 C340.4,57 341.7,57.7 342.6,57.7 C343.5,57.7 346.9,59.1 350.2,60.7 C353.5,62.4 356.5,63.7 357,63.7 C359.1,63.7 366.7,70 368.8,73.4 C371.8,78.5 376.7,88.6 377,90.6 C377.1,91.5 377.5,92.7 377.8,93.2 C379.1,95.4 381.7,105.5 382.2,110.2 C384,128.7 384,129.3 381.7,139.3 C380.5,144.7 379.1,150 378.6,150.9 C378.1,151.9 377.7,153.5 377.7,154.4 C377.6,157.9 374,163.7 367.4,171.1 C360.6,178.7 349.9,187.7 347.7,187.7 C347,187.7 346.8,188.5 347.2,189.7 C347.5,190.8 347.5,191.7 347,191.7 C346.6,191.7 346.2,194.3 346.2,197.5 C346.2,200.6 345.7,204.3 345,205.6 C342.6,210.4 337,211.8 331.2,209.1 Z" id="Shape" fill="#000000" fill-rule="nonzero"></path>
                    <rect id="Rectangle" fill="#FFFFFF" x="366" y="86" width="15" height="16"></rect>
                    <path d="M239.2,205.7 C238.9,205.2 237.7,204.7 236.7,204.7 C233.6,204.7 224.7,200.5 224.7,199 C224.7,198.3 225.2,197.7 225.7,197.7 C226.3,197.7 226.7,196.5 226.7,195 C226.7,193.4 227.4,191.3 228.3,190.2 C229.3,188.8 229.6,187.1 229.2,184.5 C228.2,179 230.8,175 237,172.1 C243.8,169 246.7,169.1 252.1,172.7 C256.9,175.9 257.7,177.9 257.9,185.9 C258,190.7 257.6,191.3 251.5,198 C247.1,202.7 246.9,203.4 250,204 C251.4,204.3 250.8,204.5 248.5,204.6 C246.5,204.6 244.5,205.2 244.2,205.7 C243.9,206.3 242.7,206.7 241.7,206.7 C240.7,206.7 239.5,206.3 239.2,205.7 Z M243.2,185.3 C244.3,185.3 247.2,185.5 249.7,185.7 C254.2,186.1 254.2,186.1 254.1,182.9 C253.9,179.3 252.5,177.6 247.9,175.8 C244.2,174.2 238.6,174.9 235.1,177.2 C233.4,178.3 232.7,179.7 232.7,182.1 C232.7,186.4 233.3,186.9 237.6,186 C239.6,185.6 242.1,185.3 243.2,185.3 Z" id="Shape" fill="#000000" fill-rule="nonzero"></path>
                    <path d="M152.2,197.4 C150.1,196.2 148,194.2 147.7,193 C147.4,191.7 146.5,189.9 145.7,188.9 C143,185.7 139.6,178.7 140.2,177.7 C140.5,177.2 141.4,176.7 142.1,176.7 C142.8,176.7 144.7,174.7 146.4,172.3 C150.3,166.7 154.6,165.3 163.1,166.7 C167.7,167.4 169.4,168.3 171.8,170.9 C175.6,175.2 176,177.2 174.7,183.2 C173.1,190.6 169.9,196.6 166.6,198.2 C162.6,200.3 156.8,200 152.2,197.4 Z M171.4,185.4 C171.6,184.2 171.9,182.2 172.2,181 C172.6,179.3 171.7,177.7 168.6,174.7 C164.7,171 164.1,170.7 158.7,170.7 C151.7,170.7 147.7,173.2 147.7,177.7 C147.7,181.3 150.5,182 159.7,180.8 C167.7,179.8 169.7,180.8 169.7,185.6 C169.7,189.3 170.9,189.1 171.4,185.4 Z" id="Shape" fill="#000000" fill-rule="nonzero"></path>
                </g>
            </g>
            <g id="flowers" transform="translate(0.000000, 10.000000)" stroke="#000000" stroke-width="2" fill="#000000" fill-rule="nonzero">
                <g id="Group" transform="translate(142.204719, 118.448804) scale(-1, 1) rotate(-180.000000) translate(-142.204719, -118.448804) translate(0.204719, 0.948804)">
                    <path d="M191.258303,233.810878 C191.002405,233.145334 190.900045,232.47979 191.002405,232.275007 C191.155944,232.070224 190.439429,231.353484 189.467016,230.585548 C188.033986,229.510438 187.522189,229.35685 186.396237,229.817612 C184.502591,230.534352 184.041974,230.483156 183.734896,229.561633 C183.530178,229.100872 183.939615,228.384132 184.758489,227.718587 C185.782082,226.950651 186.08916,226.233911 185.9868,225.261192 C185.833261,224.032495 185.577363,223.930103 183.120741,223.674125 C179.896424,223.315755 179.282268,222.65021 178.92401,218.759335 C178.565753,215.124439 178.668112,214.86846 181.482992,213.025414 C184.707309,210.875193 188.289884,210.209649 191.872459,210.977585 C195.199135,211.694325 197.399859,211.694325 200.777715,210.823998 C204.053212,210.004866 206.407475,210.619215 206.151577,212.206282 C206.100398,212.71824 205.895679,214.202916 205.79332,215.482809 C205.639781,216.762702 205.383883,218.196182 205.230344,218.708139 C205.076805,219.220097 205.281523,219.732054 205.74214,219.885641 C206.202757,220.090424 206.509835,220.448794 206.458655,220.807164 C206.407475,221.114339 207.072811,222.854993 207.942865,224.698039 C209.580613,228.076957 210.450667,232.172615 209.734152,233.19653 C209.068817,234.220444 207.17517,234.937184 205.076805,234.937184 C203.234338,234.937184 202.773721,234.681206 200.828895,232.377398 C199.600584,230.995114 198.269913,229.817612 197.758117,229.817612 C197.2975,229.817612 196.018009,230.790331 194.943237,232.019028 C192.333075,234.98838 191.821279,235.244359 191.258303,233.810878 Z M207.072811,232.633377 C207.482248,232.12142 207.635787,231.097505 207.431068,229.664025 C207.072811,227.309021 205.281523,223.162168 204.565009,223.162168 C203.746134,223.162168 200.931254,226.899456 200.931254,228.025762 C200.931254,228.588914 201.49423,229.920003 202.210745,230.892722 C204.053212,233.350117 205.895679,234.015661 207.072811,232.633377 Z M198.832889,224.390865 C200.317099,222.547819 200.16356,221.626296 198.167554,219.015314 C197.195141,217.786616 196.325087,216.30194 196.222728,215.738787 C195.96683,214.202916 194.636159,214.254111 192.793692,215.892375 L191.104764,217.377051 L194.073183,221.523904 C195.762111,223.827712 197.24632,225.670758 197.451039,225.721954 C197.655758,225.721954 198.269913,225.107605 198.832889,224.390865 Z M184.860848,221.626296 C185.782082,221.626296 186.08916,221.370317 186.08916,220.551186 C186.08916,219.885641 187.41983,218.196182 189.467016,216.250745 L192.844872,212.974218 L191.002405,212.667044 C188.443423,212.155087 186.191519,212.71824 183.837256,214.356503 C181.534172,215.94357 180.817657,217.735421 181.585352,220.397598 C181.943609,221.728687 182.301867,222.138253 182.864843,221.93347 C183.27428,221.779883 184.195513,221.626296 184.860848,221.626296 Z" id="Shape"></path>
                    <path d="M142.023492,200.636048 C140.692822,200.482461 139.259792,200.0217 138.747996,199.612134 C137.417325,198.485828 136.444912,196.233216 136.444912,194.236583 L136.444912,192.393537 L134.807163,193.31506 C133.88593,193.827017 132.708798,194.74854 132.248182,195.311693 C131.736385,195.926042 130.763972,196.591586 130.047457,196.745173 C129.330942,196.949956 128.870326,197.308326 129.023865,197.564305 C129.535661,198.383436 126.976679,198.690611 124.878314,198.127458 C122.524051,197.513109 118.787937,194.0318 118.276141,192.086362 C117.866704,190.396903 118.736758,188.297878 120.783943,186.147658 C123.291745,183.48548 125.287751,182.922327 129.279763,183.84385 C133.271774,184.765373 133.88593,184.611786 133.578852,182.819936 C133.169415,180.26015 132.964697,180.106562 130.968691,180.311345 C128.819146,180.567324 124.673595,179.492214 122.779949,178.263516 C121.705176,177.546776 121.602817,177.13721 121.653997,174.065467 C121.756356,170.891332 121.858715,170.584157 123.650003,168.741111 C124.724775,167.717197 125.901907,166.949261 126.260164,167.051652 C126.669601,167.20524 128.051451,167.410022 129.382122,167.56361 C132.197002,167.870784 134.704804,169.406656 137.314966,172.427204 L139.157433,174.577424 L140.334564,173.451118 C141.562876,172.324812 141.614055,170.993723 140.795181,166.334912 C140.641642,165.362193 140.488103,163.877517 140.436924,163.00719 C140.385744,162.188058 140.078666,160.805774 139.720409,159.935447 C139.413331,159.116315 138.850355,156.556529 138.492097,154.303917 C138.13384,152.051305 137.673223,149.798693 137.417325,149.337931 C135.933116,146.573362 135.011882,132.033776 135.933116,126.248659 C136.240193,124.354417 136.598451,121.282674 136.75199,119.388432 C136.956708,117.442994 137.263786,115.855927 137.519684,115.753535 C137.775582,115.651144 137.980301,115.139187 137.980301,114.576034 C137.980301,114.012881 138.543277,112.425813 139.259792,111.094724 C139.925127,109.71244 140.94872,106.999066 141.511696,105.002433 C142.023492,103.056995 142.842366,100.753188 143.302983,99.8828605 C143.7636,99.0125332 144.275396,96.5039426 144.428935,94.3025264 C144.582474,92.1011102 144.940732,90.0532812 145.19663,89.7973026 C145.401348,89.4901282 145.606067,84.4217514 145.606067,78.534243 C145.606067,68.1415107 145.094271,61.7932407 144.121857,60.5645433 C143.81478,60.2573689 143.7636,59.8478031 143.968318,59.694216 C144.121857,59.4894331 144.019498,59.0286715 143.661241,58.6703015 C143.098265,58.004757 140.846361,49.4550709 140.283385,45.9225658 C140.027486,44.5402812 138.338558,38.4991856 136.598451,33.1236344 C136.444912,32.5092857 136.598451,32.2021114 137.110247,32.2021114 C137.929121,32.2021114 141.051079,38.0384241 141.051079,39.5742958 C141.051079,39.9838616 141.409337,41.4685377 141.869953,42.7996265 C142.33057,44.1307154 142.688828,45.7689786 142.688828,46.4345231 C142.688828,47.0488718 142.893546,47.7144162 143.149444,47.8680034 C143.405342,48.0215905 143.610061,48.687135 143.610061,49.4038751 C143.610061,50.0694196 143.81478,50.6325725 144.121857,50.6325725 C144.377756,50.6325725 144.480115,50.9909426 144.326576,51.4005084 C144.121857,51.8100742 144.377756,52.7315973 144.838372,53.4483375 C145.298989,54.1138819 145.657247,55.1889921 145.657247,55.7521451 C145.657247,56.3152981 146.117863,57.7487784 146.680839,58.9774758 C147.243815,60.1549775 147.806791,62.2540022 147.96033,63.5850911 C148.062689,64.91618 148.318588,66.2472688 148.472127,66.4520517 C149.291001,67.8343363 149.751617,82.2715309 149.137462,89.2853453 C148.728025,93.636982 145.043091,108.432547 143.610061,111.299507 C142.432929,113.756902 140.641642,118.671692 140.590462,119.746802 C140.590462,120.156368 140.232205,121.999414 139.771588,123.84246 C139.003894,127.272574 138.747996,134.849541 139.310972,138.33085 C139.669229,140.173896 139.720409,140.276288 141.255798,139.917918 C142.33057,139.713135 142.688828,139.764331 142.33057,140.122701 C142.074672,140.429875 141.358157,140.737049 140.795181,140.839441 C139.413331,141.044224 139.208612,143.552814 140.232205,147.597277 C140.692822,149.286736 141.153438,151.436956 141.255798,152.256088 C141.460516,153.587177 142.740007,158.604358 143.917139,162.64882 C144.224217,163.775126 144.275396,163.775126 145.759606,162.034471 C147.090276,160.4986 147.499713,160.293817 149.086282,160.4986 C153.64127,161.061753 155.893174,163.877517 155.534916,168.63872 C155.227839,172.734378 153.999527,175.34536 151.901162,176.318079 C150.007516,177.239602 150.161055,178.109929 152.20824,178.109929 C153.64127,178.109929 157.940359,180.208954 160.038724,181.949609 C161.778832,183.383089 163.621299,185.840484 163.314221,186.301245 C163.160682,186.506028 163.416581,186.96679 163.826018,187.32516 C164.747251,188.093096 164.798431,189.372989 163.928377,190.601686 C162.955964,191.932775 156.763228,192.291145 154.153066,191.216035 C151.696444,190.19212 151.747623,190.19212 152.310599,191.625601 C152.566497,192.393537 152.566497,193.519843 152.310599,194.594953 C152.003521,195.516476 151.952342,196.642782 152.105881,197.154739 C152.464138,198.383436 150.570492,200.124091 148.830384,200.124091 C148.062689,200.124091 146.732019,200.328874 145.913145,200.533657 C145.043091,200.73844 143.302983,200.789636 142.023492,200.636048 Z M148.113869,198.025066 C149.137462,197.615501 149.239821,197.25713 149.239821,193.775821 C149.239821,190.857665 149.035103,189.731359 148.267408,188.809836 C147.448534,187.785921 147.141456,187.68353 146.117863,188.195487 C145.452528,188.502661 144.121857,189.065814 143.149444,189.424184 C139.310972,190.857665 138.799175,198.178654 142.535289,198.741807 C144.070678,198.946589 146.424941,198.639415 148.113869,198.025066 Z M128.000272,195.158106 C128.409709,194.338974 129.791559,192.905494 131.01987,191.932775 C132.964697,190.345708 134.244187,188.0419 133.578852,187.32516 C133.425313,187.222768 131.787565,186.864398 129.893918,186.506028 C126.976679,186.045267 126.260164,186.045267 125.031853,186.762007 C124.264158,187.171573 123.547643,187.939508 123.394104,188.40027 C123.240566,188.912227 122.779949,189.424184 122.370512,189.577772 C121.1422,190.038533 121.449278,192.905494 122.933488,194.850931 C124.622416,197.052348 126.82314,197.205935 128.000272,195.158106 Z M160.141084,189.270597 C161.778832,188.656249 161.778832,188.451466 160.65288,186.096462 C159.21985,183.024719 154.153066,180.157758 150.161055,180.157758 C147.346175,180.157758 147.653252,182.359174 150.877569,185.840484 C154.306605,189.577772 156.763228,190.499295 160.141084,189.270597 Z M144.428935,185.379722 C144.940732,184.304612 145.350169,182.461566 145.350169,181.232868 C145.401348,179.133844 145.247809,178.826669 143.251804,177.444385 C141.409337,176.113296 140.94872,176.010904 140.283385,176.574057 C139.720409,177.034819 139.618049,177.393189 140.027486,177.802755 C140.283385,178.058733 140.539283,178.724278 140.539283,179.236235 C140.539283,180.004171 140.334564,180.055367 139.157433,179.594605 C137.570864,178.980256 136.444912,179.287431 136.444912,180.413737 C136.444912,180.823303 136.189014,181.181673 135.830756,181.181673 C135.37014,181.181673 135.37014,181.33526 135.830756,181.796021 C136.189014,182.154391 136.444912,182.819936 136.444912,183.331893 C136.444912,183.792655 136.905529,184.458199 137.417325,184.765373 C137.980301,185.021352 138.543277,185.738092 138.747996,186.250049 C139.055073,187.273964 140.89754,187.785921 142.688828,187.427551 C143.149444,187.32516 143.968318,186.403637 144.428935,185.379722 Z M131.634026,177.85395 C132.4529,177.444385 133.732391,177.086015 134.500086,177.086015 C136.496092,177.086015 136.64963,176.369274 135.165421,173.604705 C133.527673,170.635353 132.555259,169.969809 129.535661,169.816222 C126.516062,169.71383 125.799547,170.43057 125.39011,174.065467 C125.083032,176.830036 125.083032,176.932427 126.516062,177.49558 C127.334937,177.802755 128.460889,178.161125 129.023865,178.263516 C129.586841,178.417103 130.098637,178.519495 130.098637,178.570691 C130.149817,178.570691 130.866331,178.263516 131.634026,177.85395 Z M150.519312,173.91188 C151.184647,173.348727 151.645264,172.631986 151.491725,172.376008 C151.338186,172.171225 151.440545,171.966442 151.696444,171.966442 C151.952342,171.966442 152.361779,170.737745 152.617677,169.201873 C153.231833,165.925346 152.25942,163.00719 150.519312,163.00719 C149.39336,163.00719 146.834378,166.437304 146.476121,168.382741 C146.373761,169.099481 146.117863,170.276983 145.913145,171.096115 C145.708426,171.864051 145.708426,173.041552 145.861965,173.758292 C146.271402,175.396556 148.676845,175.498947 150.519312,173.91188 Z" id="Shape"></path>
                    <path d="M76.10412,147.44369 C75.541144,147.085319 75.4387847,145.856622 75.7458626,141.197811 C75.9505811,137.97248 76.2064793,127.323769 76.3600182,117.49419 C76.5135571,106.845479 76.8206349,99.2685118 77.1277128,98.7053588 C77.3836109,98.1422058 77.7418684,96.5039426 77.8442277,95.0192666 C78.1513055,91.5379572 78.6631019,88.8757795 79.072539,88.2614308 C79.2772575,88.0054522 79.481976,86.9303419 79.5331557,85.9576232 C79.635515,84.9849044 80.0449521,83.0394668 80.5055688,81.6571822 C80.9661855,80.2237019 81.3756226,78.2782643 81.4779819,77.3055455 C81.5803412,75.7696738 82.1944968,73.1074961 83.5251674,68.6534679 C83.6275266,68.2950979 83.7298859,67.9367278 83.7298859,67.7831406 C83.7810655,67.6295534 84.2416823,65.9912902 84.7534786,64.0970484 C85.3164546,62.2028065 85.6747121,60.615739 85.5723528,60.5133476 C85.4699936,60.4109561 85.828251,58.8750844 86.3400474,57.1856254 C86.8518438,55.4449707 87.1589216,53.8579033 87.0053827,53.6019246 C86.8518438,53.3971417 87.0053827,53.1923588 87.3124605,53.1923588 C87.6195383,53.1923588 87.7218976,52.9363802 87.5683587,52.6804016 C87.2101012,52.1172486 88.7454903,46.997676 89.359646,46.5369145 C89.6667238,46.2809359 90.1273405,44.7450641 90.5879572,42.1852778 C90.6903165,41.6221249 91.61155,39.6766873 92.6863224,37.8336412 C94.6311486,34.505919 98.0601842,26.3657986 98.0601842,25.188297 C98.0601842,24.8299269 98.3160824,24.5227525 98.5719806,24.5227525 C98.8790584,24.5227525 99.083777,24.0107953 99.083777,23.3964466 C99.083777,22.4237278 99.1861362,22.3725321 99.5955733,22.9868808 C99.9026512,23.4476423 100.10737,23.498838 100.10737,23.1404679 C100.10737,21.8093791 102.256914,20.4782902 104.25292,20.5806817 C106.709543,20.6830731 107.989034,19.6591586 106.658363,18.6864398 C105.583591,17.9185039 105.481232,17.355351 106.351285,17.355351 C107.17016,17.355351 109.831501,19.966333 109.831501,20.7342688 C109.831501,21.0926389 110.036219,21.451009 110.240938,21.5534004 C110.701555,21.7069876 115.461261,29.5911294 115.461261,30.1030866 C115.461261,30.3078695 116.126596,31.8437413 116.94547,33.5332002 C117.764344,35.2226592 118.685578,37.9360326 119.043835,39.6254916 C119.350913,41.3149505 120.118608,44.1819111 120.681584,46.0249573 C122.882308,52.9875759 122.67759,79.0973959 120.272147,93.3810034 C119.81153,96.1967683 119.402093,98.9613374 119.350913,99.5244904 C119.146195,101.572319 118.42968,102.903408 117.201368,103.36417 C116.433674,103.671344 115.973057,104.285693 115.973057,104.900042 C115.973057,106.179935 115.000644,105.770369 115.000644,104.490476 C114.949464,103.671344 114.847105,102.340255 114.18177,96.4527469 C114.028231,95.0704623 113.823512,92.510676 113.721153,90.8212171 C113.618794,89.1317581 113.260536,84.1657728 112.953459,79.8141361 C112.646381,75.4624994 112.288123,70.138144 112.134584,68.0391192 C111.981045,65.9400945 111.776327,63.1755253 111.571608,61.8956322 C111.31571,59.9501946 110.087399,51.0421384 109.626782,47.8168076 C109.524423,47.2536547 109.319704,45.3594128 109.063806,43.5675624 C108.859088,41.8269078 108.50083,40.291036 108.244932,40.1374488 C108.040213,39.9838616 107.937854,39.5231001 108.142573,39.1135343 C108.296112,38.7039685 108.142573,38.3455984 107.784315,38.3455984 C107.477237,38.3455984 107.374878,38.1408155 107.528417,37.8336412 C107.681956,37.5776625 107.477237,36.8097267 107.11898,36.1953779 C106.709543,35.5298335 106.197746,33.0724387 106.044208,30.6662396 C105.839489,28.2600405 105.481232,26.2634072 105.225333,26.1610157 C104.918256,26.0586243 104.713537,25.5978628 104.713537,25.188297 C104.713537,23.9595995 104.201741,24.7275354 103.894663,26.3657986 C103.741124,27.1849303 103.434046,27.9528661 103.126968,28.0040619 C102.87107,28.1064533 102.666352,28.5160191 102.666352,28.9255849 C102.666352,29.3863465 102.410453,29.5399336 102.154555,29.3863465 C101.847477,29.1815636 101.48922,29.7447165 101.335681,30.6150439 C101.130962,31.4853712 100.823885,32.2021114 100.567986,32.2021114 C100.363268,32.2021114 100.00501,33.021243 99.8002919,33.9939618 C99.646753,34.9666805 99.2884955,35.7858121 99.0325973,35.7858121 C98.7766991,35.7858121 98.5719806,36.2465737 98.5719806,36.8609224 C98.5719806,37.4240754 98.367262,37.7824454 98.1113639,37.6288583 C97.8554657,37.4752711 97.3948489,37.6288583 97.0877711,38.0384241 C96.6271544,38.601577 96.678334,38.9087514 97.24131,39.5231001 C97.9066453,40.1886445 97.8554657,40.4958189 96.7806933,42.0316907 C96.115358,43.0556052 95.7059209,43.9771282 95.8594598,44.1307154 C96.0129988,44.3354983 95.7059209,45.1034342 95.1941246,45.8713701 C94.6823282,46.639306 94.2217115,47.6120247 94.1705318,47.9703948 C94.1193522,48.3287649 93.6587355,49.1990922 93.1981187,49.9158324 C92.737502,50.5813768 92.5327834,51.3493127 92.6351427,51.6052913 C92.7886816,51.86127 92.4304242,52.6292058 91.8674482,53.3971417 C91.3044722,54.1138819 90.9973943,54.9330135 91.1509333,55.2401878 C91.3044722,55.4961665 91.2021129,55.7521451 90.8950351,55.7521451 C90.5367776,55.7521451 90.3832387,56.0593195 90.5367776,56.4688853 C90.6903165,56.8784511 90.6391369,57.2880169 90.3832387,57.3904083 C90.1785202,57.4927998 89.8202627,59.5918245 89.6667238,62.0492193 C89.4620052,65.0697671 89.1549274,66.8104218 88.5919514,67.3223791 C88.0289754,67.8855321 87.9777958,68.3462936 88.3360532,69.011838 C88.5919514,69.5237953 88.6943107,70.0869482 88.5407718,70.2405354 C88.1825143,70.5477098 88.1313347,71.3668414 87.6195383,78.2782643 C87.4148198,80.9404421 87.1077419,83.8585984 86.954203,84.67773 C86.8006641,85.5480574 86.5959456,88.0566479 86.4935863,90.3092598 C86.391227,92.5618718 85.9306103,97.4766614 85.5211732,101.265145 C85.1117361,105.053629 84.8558379,108.534938 85.0093768,109.046895 C85.2140954,109.610048 85.1629157,110.019614 84.9070176,110.019614 C84.702299,110.019614 84.4464008,112.016247 84.3440415,114.473642 C84.2416823,116.931037 83.9857841,119.081258 83.6787063,119.28604 C83.4228081,119.439628 83.3204488,119.951585 83.5251674,120.412346 C83.8834248,121.33387 82.9621914,127.682139 82.0921375,130.497904 C81.7338801,131.470623 81.5291615,133.518452 81.5803412,135.003128 C81.6315208,136.436609 81.4268022,137.665306 81.1709041,137.665306 C80.9150059,137.665306 80.5567484,138.535633 80.3520299,139.610744 C79.8914131,142.272921 78.7142815,146.778145 78.356024,147.392494 C77.9465869,148.006843 77.0765331,148.058038 76.10412,147.44369 Z M80.9661855,117.698973 C81.1709041,116.41908 81.324443,114.473642 81.4268022,113.347336 C81.4779819,112.22103 81.7338801,109.558853 81.887419,107.459828 C82.5527543,100.292426 82.5527543,92.1011102 81.887419,92.1011102 C81.5291615,92.1011102 81.2732633,92.9714376 81.2732633,94.200135 C81.2220837,95.3264409 80.9661855,96.6063341 80.6591077,96.9647042 C80.3008502,97.37427 79.9425928,99.7292733 79.8402335,102.186668 C79.481976,111.913856 79.3284371,121.077891 79.5331557,121.743435 C79.8914131,122.716154 80.6079281,120.719521 80.9661855,117.698973 Z M117.303728,91.9987188 C117.354907,90.5140427 117.713165,88.5686052 118.020243,87.7494736 C118.787937,85.7528403 119.146195,56.7248639 118.480859,52.1684443 C117.917883,48.4823521 116.536033,43.5675624 115.768339,42.5436479 C115.51244,42.1852778 115.000644,41.9804949 114.591207,42.1340821 C114.18177,42.2876693 114.028231,42.1852778 114.18177,41.9292992 C114.335309,41.6733206 114.232949,40.9565804 113.874692,40.3422317 C113.567614,39.727883 113.209357,38.4991856 113.106997,37.6288583 C112.79992,35.5810292 111.827507,33.6867874 111.264531,34.0451575 C110.650375,34.4547233 110.752734,35.1202677 111.673968,35.990595 C112.083405,36.4513566 112.236944,36.8097267 111.981045,36.8097267 C111.418069,36.8097267 111.622788,39.2671215 112.390483,41.6221249 C112.69756,42.4412565 112.902279,44.0795197 112.902279,45.3082171 C112.902279,46.4857188 113.158177,48.123982 113.414075,48.8407222 C113.721153,49.608658 113.977051,51.1957255 113.977051,52.3220315 C113.977051,53.4995332 114.335309,57.2368211 114.693566,60.615739 C115.051824,63.9946569 115.358901,67.3223791 115.410081,68.0391192 C115.461261,69.2166209 115.768339,71.0084713 115.973057,71.62282 C116.024237,71.7764072 116.075416,72.0835815 116.024237,72.2883644 C115.973057,72.6467345 115.973057,82.3227267 116.024237,85.4456659 C116.024237,85.8552317 116.024237,88.1590394 115.973057,90.5652385 C115.870698,95.9919854 115.870698,95.9919854 116.536033,95.3264409 C116.843111,95.0192666 117.201368,93.4833948 117.303728,91.9987188 Z" id="Shape"></path>
                    <path d="M184.553771,131.62421 C184.553771,130.856274 184.758489,129.985947 185.014387,129.729968 C185.9868,128.654858 187.675728,121.282674 189.313477,110.78755 C190.746507,101.623515 190.848866,84.8825129 189.518195,77.5103285 C189.006399,74.6945635 188.494603,71.9299944 188.392243,71.3668414 C188.136345,69.6261867 187.573369,67.3735748 186.856854,65.2233543 C186.498597,64.0970484 185.833261,61.7932407 185.321465,60.1037818 C184.860848,58.4143228 184.195513,56.3664938 183.837256,55.4961665 C183.427819,54.6770349 182.506585,52.3732272 181.79007,50.3765939 C181.022376,48.4311564 180.203501,46.3833273 179.896424,45.8713701 C179.640525,45.3594128 179.538166,44.7450641 179.691705,44.4890855 C179.845244,44.2331069 179.538166,43.7211496 179.077549,43.3627795 C178.565753,43.0044094 177.798058,42.0828864 177.388621,41.3149505 C176.518568,39.7790787 173.652508,36.2977694 171.656502,34.2499404 C170.837628,33.4820045 170.223472,32.6116772 170.223472,32.3556985 C170.223472,32.0485242 168.892802,30.7174353 167.306233,29.3351507 C165.668485,27.9528661 164.235455,26.7241687 164.081916,26.5193858 C163.928377,26.3657986 163.46776,26.0586243 163.058323,25.9050371 C162.648886,25.7002542 161.625293,25.0859055 160.755239,24.5739483 C159.21985,23.6012295 156.814407,23.6524252 155.534916,24.625144 C155.176659,24.8811226 154.818402,24.8811226 154.613683,24.5227525 C154.460144,24.2667739 154.562503,24.0107953 154.818402,24.0107953 C155.125479,24.0107953 155.330198,23.8572081 155.330198,23.6524252 C155.125479,22.3213363 155.534916,21.9629663 157.428563,21.9629663 C158.554515,21.9629663 159.987545,22.2701406 160.65288,22.577315 C164.593712,24.7787312 167.408592,26.9801474 171.247065,30.8710225 C173.652508,33.2772216 175.853232,35.2738549 176.10913,35.2738549 C176.876825,35.3250506 178.872831,37.116901 179.02637,37.8848369 C179.128729,38.243207 179.691705,39.16473 180.35704,39.8814702 C180.971196,40.5470146 181.482992,41.417342 181.482992,41.6733206 C181.482992,41.9804949 182.250687,43.0044094 183.2231,43.9259325 C184.195513,44.8986513 185.526184,46.8952846 186.140339,48.3799606 C186.754495,49.9158324 187.368651,51.1445298 187.573369,51.1445298 C187.726908,51.1445298 188.596962,52.4756187 189.415836,54.1138819 C190.28589,55.7009494 191.104764,57.1344297 191.360662,57.1856254 C191.565381,57.2880169 191.71892,57.6975827 191.71892,58.0559528 C191.71892,58.4655186 192.435435,60.052586 193.254309,61.5884578 C194.892057,64.5066142 196.990422,70.701297 198.116374,75.7184781 C198.474632,77.2543498 199.139967,79.9165276 199.651763,81.6059865 C200.982434,86.367189 201.49423,94.3025264 200.624176,96.9135084 C200.214739,98.0398144 199.549404,100.753188 199.191147,102.852213 C198.167554,108.278959 197.2975,111.14592 196.529806,112.118639 C196.120368,112.528205 195.813291,113.193749 195.813291,113.552119 C195.813291,114.115272 194.943237,116.316688 192.742512,121.026695 C192.230716,122.153001 191.61656,123.688873 191.411842,124.508004 C191.258303,125.27594 190.900045,126.043876 190.644147,126.197463 C190.388249,126.351051 190.183531,126.811812 190.183531,127.272574 C190.183531,128.808445 187.982806,132.443342 186.908034,132.750516 C184.963208,133.262474 184.553771,133.108886 184.553771,131.62421 Z M193.254309,112.835379 C193.561387,112.016247 193.817285,111.197116 193.868464,111.043529 C193.868464,110.889941 194.175542,110.019614 194.584979,109.046895 C194.994416,108.125372 195.301494,106.691892 195.301494,105.87276 C195.301494,105.104825 195.557392,104.285693 195.813291,104.132106 C196.120368,103.978519 196.325087,103.108191 196.325087,102.28906 C196.325087,101.418732 196.683344,100.087643 197.092782,99.2173161 C197.553398,98.3981845 197.758117,97.4766614 197.604578,97.2718785 C197.451039,97.0158999 197.604578,96.1455725 197.860476,95.3776367 C198.628171,93.3810034 197.706937,85.9576232 195.86447,79.8141361 C195.096776,77.1519584 194.022003,73.2098875 193.510207,71.1108628 C192.998411,69.011838 192.435435,66.8104218 192.230716,66.2472688 C192.025998,65.6841159 191.821279,65.0697671 191.770099,64.8137885 C191.770099,64.6090056 191.207123,63.4826997 190.541788,62.2540022 C189.876453,61.0765006 188.90404,58.9774758 188.392243,57.6463869 C187.880447,56.3152981 187.061573,54.9842092 186.498597,54.6770349 C185.526184,54.1650776 185.116747,54.8818178 186.08916,55.4961665 C186.396237,55.6497537 186.600956,56.3664938 186.600956,56.9808425 C186.600956,57.6463869 186.959213,58.4655186 187.368651,58.8238886 C187.829267,59.1822587 188.033986,59.5918245 187.931627,59.7454117 C187.778088,59.8478031 187.931627,60.4621518 188.187525,61.0253048 C188.494603,61.5884578 188.85286,62.7659595 188.955219,63.6362868 C189.108758,64.5066142 189.518195,66.2472688 189.927632,67.527162 C190.28589,68.8070551 190.848866,71.6740157 191.155944,73.9266277 C191.411842,76.1792396 191.923638,79.1485917 192.230716,80.4796805 C193.254309,85.1896873 193.817285,97.6814443 193.10077,100.036448 C192.896051,100.599601 192.998411,101.418732 193.254309,101.777102 C193.510207,102.28906 193.459027,102.954604 193.10077,103.568953 C192.793692,104.183301 192.435435,105.360803 192.384255,106.179935 C192.281896,108.330155 191.923638,110.941137 191.463022,113.193749 C191.258303,114.268859 191.258303,115.548753 191.463022,116.009514 C191.770099,116.828646 191.923638,116.77745 192.230716,115.651144 C192.435435,114.934404 192.896051,113.705706 193.254309,112.835379 Z" id="Shape"></path>
                    <path d="M54.8133911,103.261778 C54.6598522,102.903408 54.4551336,100.753188 54.3527743,98.5005759 C54.1992354,96.247964 53.9433373,93.4833948 53.7897983,92.3570889 C53.6362594,91.2307829 53.4315409,88.7221923 53.3291816,86.7767548 C53.2268223,84.2681642 52.9197445,83.1418583 52.4079481,82.8346839 C51.5378943,82.3227267 51.5378943,81.0940292 52.4591278,73.670649 C52.9197445,69.8309696 53.278002,66.0936817 53.7897983,59.8478031 C53.840978,58.8750844 54.0456965,56.6736682 54.2504151,54.9842092 C54.403954,53.2947503 54.6598522,49.5062666 54.8645707,46.5369145 C55.3763671,38.3967941 55.4787264,37.6288583 56.0417024,37.4240754 C56.3487802,37.3216839 56.5023191,37.0145096 56.2976005,36.7585309 C56.1440616,36.5025523 56.1952413,35.990595 56.4511395,35.6834207 C56.655858,35.3250506 56.8605766,34.7618976 56.9117562,34.4035276 C56.9629358,34.0451575 57.6794507,32.45809 58.4471453,30.8710225 C59.2148398,29.283955 59.8801751,27.2873217 59.9313548,26.4681901 C59.9825344,25.6490585 60.2896122,24.7275354 60.59669,24.4203611 C60.9549475,24.061991 61.2108457,23.1404679 61.2108457,22.3213363 C61.2108457,20.887856 61.1596661,20.8366603 59.3171991,21.1438346 C58.2424267,21.2974218 56.3487802,21.5022047 55.0692893,21.5534004 C53.7897983,21.6045962 52.5614871,21.7581833 52.2544092,21.9629663 C51.9985111,22.1677492 51.1796369,22.4749235 50.4631219,22.6797064 C48.7230143,23.0892722 45.3963379,26.0586243 46.2663917,26.4169944 C47.3923437,26.8777559 46.9829066,28.4648234 45.7545954,28.4136277 C44.5774637,28.3624319 44.3215655,28.7719977 39.8177575,37.3216839 C39.3059611,38.2944027 38.6406258,39.5742958 38.333548,40.1374488 C38.0264702,40.7006018 37.5146738,41.8781035 37.1564164,42.6972351 C35.4674883,46.8440889 33.9832789,48.9431136 30.2471654,52.6804016 C26.2039741,56.7248639 22.4678606,59.7966074 21.6489864,59.8478031 C20.4206751,59.8989989 13.9720409,64.1994398 11.7713165,66.5032475 C7.11396952,71.3156457 6.19273606,72.3907559 5.52740078,73.7218448 C4.70852659,75.3089123 2.25190402,76.844784 1.17713165,76.4352182 C0.102359274,76.0256524 -0.307077821,74.796955 0.307077821,73.7218448 C0.562976005,73.2098875 0.614155642,72.6467345 0.409437095,72.4419516 C0.255898184,72.2371687 0.358257458,71.9299944 0.665335279,71.7252115 C0.9724131,71.5204286 1.48420947,69.8821653 1.79128729,68.0391192 C2.09836511,66.1960731 2.40544293,64.5066142 2.50780221,64.1994398 C3.17313749,62.0492193 3.53139494,61.3836749 3.94083204,61.3836749 C4.19673022,61.3836749 4.40144877,60.8717177 4.40144877,60.2573689 C4.40144877,59.5918245 5.22032296,58.1583442 6.19273606,57.0320382 C7.16514916,55.9057323 7.98402335,54.7282306 7.98402335,54.3698605 C7.98402335,54.0114904 8.23992153,53.7043161 8.54699936,53.7043161 C8.85407718,53.7043161 9.00761609,53.345946 8.80289754,52.9363802 C8.64935863,52.5268144 8.80289754,52.1684443 9.10997536,52.1684443 C9.41705318,52.1684443 11.4642387,50.3253982 13.664963,48.0727863 C15.8656874,45.8201743 17.8616933,43.9771282 18.0664118,43.9771282 C18.32231,43.9259325 19.7041602,42.7996265 21.2395493,41.417342 C22.7749384,39.9838616 24.2079682,38.8575557 24.4638664,38.8575557 C24.668585,38.8575557 25.5386388,38.2944027 26.3063333,37.6288583 C30.7589618,33.6867874 33.9320992,31.1270011 35.1092309,30.5638481 C35.8257458,30.2054781 36.4910811,29.7447165 36.64462,29.5911294 C36.7981589,29.4375422 37.770572,28.720802 38.7941647,28.0040619 C39.8689371,27.3385174 40.585452,26.6217773 40.4319131,26.4681901 C40.0736557,26.10982 44.9357212,21.9629663 45.7545954,21.9629663 C46.0616732,21.9629663 46.368751,21.7069876 46.368751,21.3998133 C46.368751,21.1438346 46.5734695,20.9902475 46.8293677,21.1950304 C47.0852659,21.3486175 47.494703,21.1950304 47.6994216,20.887856 C48.1088587,20.1711159 51.3843554,18.7376355 53.0221038,18.5840484 C55.6322653,18.276874 64.128085,18.2256783 64.5887017,18.4816569 C64.8445999,18.6352441 66.6358872,18.6352441 68.5295338,18.4304612 C72.2656472,18.0208954 72.7774436,18.1744826 71.8562102,19.2495928 C71.2420545,20.0175287 72.1121083,19.9151372 76.5647367,18.9424184 C77.5883295,18.7376355 80.3520299,18.4816569 82.7062932,18.3792655 C85.1117361,18.3280697 87.9266161,18.2256783 88.9502089,18.1744826 C90.4344183,18.1232868 90.9973943,18.3792655 91.4580111,19.3007885 C91.8162685,19.9151372 92.3792445,20.4270945 92.737502,20.4270945 C93.4028373,20.4270945 94.2217115,21.3486175 93.863454,21.7581833 C93.7610947,21.8605748 92.1233464,21.6045962 90.2296998,21.2462261 C86.8518438,20.5294859 81.2732633,20.5806817 79.3796168,21.3998133 C78.8166408,21.6045962 77.4859702,22.2189449 76.4111978,22.6797064 C75.3364255,23.1404679 74.1592938,23.498838 73.8010364,23.498838 C73.3915993,23.498838 72.8286233,23.8060124 72.5215454,24.2155782 C72.163288,24.625144 71.1908749,25.1371012 70.3720007,25.2906884 C69.5531265,25.4954713 68.8877912,25.9562328 68.8877912,26.3657986 C68.8877912,26.7753645 68.7342523,27.0313431 68.5295338,26.9801474 C67.6594799,26.7241687 65.254037,28.7719977 65.5611148,29.5399336 C65.7146537,30.0006952 65.5611148,30.1542823 65.1004981,30.0006952 C64.2816239,29.6935208 61.876181,32.8164601 61.4155642,34.8130934 C61.2620253,35.4786378 61.1084864,37.7824454 61.0573068,39.8814702 C60.9549475,41.9804949 60.750229,44.028324 60.4943308,44.4378898 C60.2384326,44.8474556 59.9825344,46.2297402 59.9313548,47.560829 C59.8801751,48.8407222 59.7266362,50.171811 59.5730973,50.4277896 C59.470738,50.6837683 59.2660195,51.9124657 59.2148398,53.1923588 C59.1636602,54.4210562 58.907762,55.7009494 58.6518638,56.0081237 C58.3959657,56.2641024 58.0377082,58.8238886 57.8329897,61.6396535 C57.6794507,64.4554184 57.3723729,66.964009 57.2700136,67.1687919 C56.7582173,68.0391192 56.655858,82.8858796 57.1164747,82.8858796 C57.4235526,82.8858796 57.6282711,82.3739224 57.6282711,81.7083779 C57.6282711,81.0428335 57.78181,80.3260934 57.9865286,80.1213105 C58.344786,79.7629404 58.4471453,79.5069617 58.9589417,76.9983712 C59.2148398,75.6160866 60.033714,73.5170619 61.2620253,70.8548841 C62.2856181,68.6022722 63.6674683,63.9946569 63.3603904,63.7386783 C63.2068515,63.5338954 63.4627497,63.1243296 63.9745461,62.7659595 C64.4351628,62.4075894 64.8957795,61.7932407 64.9981388,61.3836749 C65.1004981,60.9741091 65.4075759,59.9501946 65.7658334,59.0798673 C66.1240908,58.2607357 66.4823483,57.083234 66.5847076,56.520081 C66.7382465,55.2913836 67.4035817,53.5507289 67.8641985,53.1923588 C68.2736356,52.8339887 70.4231803,47.560829 70.4231803,46.8440889 C70.4231803,46.5369145 70.8837971,45.9737615 71.4467731,45.6153914 C72.0609287,45.2570214 72.3680065,44.7450641 72.2144676,44.4890855 C72.0609287,44.2331069 72.6750843,43.2091923 73.5451382,42.2364736 C74.415192,41.2125591 74.9269884,40.3934274 74.7222698,40.3934274 C74.4663716,40.3422317 74.7222698,39.9326659 75.2852458,39.4719044 C76.4111978,38.4479899 77.4859702,36.9633138 77.8954073,35.7858121 C78.0489462,35.3250506 78.8678204,34.5571147 79.6866946,33.9939618 C80.5567484,33.4308088 81.9897783,31.9461327 82.8598321,30.6662396 C83.7298859,29.4375422 85.0093768,27.9016704 85.7258917,27.2873217 C87.517179,25.7002542 90.5367776,24.7787312 91.6627296,25.3930799 C92.4304242,25.8538414 92.3280649,26.0074286 90.9462147,26.5705815 C89.922622,26.9801474 89.359646,27.5944961 89.359646,28.2088448 C89.359646,28.720802 87.7730772,30.8710225 85.7770714,32.8676558 C81.6827004,37.116901 79.635515,39.4719044 79.635515,39.9838616 C79.635515,40.1374488 79.072539,40.9565804 78.4072037,41.775712 C76.8206349,43.6699539 73.4939585,49.9670281 73.9033956,50.3253982 C74.0569345,50.4789854 73.9033956,50.6325725 73.5963178,50.6325725 C73.2380603,50.6325725 72.9821622,50.9909426 72.9821622,51.4005084 C72.9821622,51.86127 72.4703658,53.1923588 71.8562102,54.3698605 C70.5255396,56.9296468 69.3995876,59.694216 69.1436894,61.1276963 C68.9901505,62.0492193 67.9665578,64.5578099 65.3563963,70.3429269 C63.9745461,73.3634747 63.6674683,74.2849977 63.5139293,75.7184781 C63.4115701,76.4352182 62.8485941,78.4830472 62.2344384,80.3260934 C61.6202828,82.1691395 60.9549475,84.4729471 60.6990493,85.4456659 C60.4943308,86.4183847 59.8289955,88.978171 59.2660195,91.1283914 C58.5495046,93.7905692 58.2936064,96.1967683 58.3959657,98.8077503 C58.5495046,102.903408 58.1400675,103.876127 56.2464209,103.876127 C55.5810856,103.876127 54.9157504,103.568953 54.8133911,103.261778 Z M9.00761609,63.4826997 C10.3894663,62.1004151 12.2319332,60.8205219 13.0508074,60.615739 C13.8696816,60.4621518 14.8420947,59.9501946 15.2003521,59.5406288 C15.50743,59.131063 16.2239449,58.8238886 16.7869209,58.8238886 C17.2987173,58.8238886 17.8616933,58.4655186 18.0152322,58.0559528 C18.2199507,57.6463869 18.5782082,57.2880169 18.9364656,57.2880169 C19.2435435,57.2880169 20.6765733,56.2129066 22.1096031,54.8818178 C25.9480759,51.298117 27.3811057,50.1206153 27.9440817,50.1206153 C28.2511595,50.1206153 28.4558781,49.8134409 28.4558781,49.5062666 C28.4558781,49.1478965 29.172393,47.8168076 29.9912672,46.5881102 C30.8101414,45.3594128 31.3731174,44.1307154 31.2195785,43.9259325 C31.0660396,43.6699539 31.2195785,43.5163667 31.5266563,43.5675624 C31.8849138,43.6699539 32.4990694,42.5948436 33.0108658,41.1613633 C33.4714825,39.7790787 34.1368178,38.0896198 34.4950752,37.4752711 C35.2627698,36.1441822 35.2627698,35.632225 34.5974345,36.0417908 C34.3415363,36.1953779 34.0856382,36.0417908 34.0856382,35.6834207 C34.0344585,35.2226592 33.82974,35.3250506 33.3691232,35.9393993 C33.0108658,36.4001609 32.550249,36.8097267 32.3455305,36.8097267 C32.0896323,36.8097267 30.6566025,37.9872283 29.0700337,39.3695129 C27.483465,40.8029932 25.8968963,41.9292992 25.5386388,41.9292992 C25.1803813,41.9292992 24.668585,42.3900607 24.3615071,42.9532137 C24.0544293,43.5163667 23.4402737,43.9771282 23.0308366,43.9771282 C22.6213995,43.9771282 22.3655013,44.1819111 22.5190402,44.4378898 C22.6725791,44.6426727 22.2119624,45.1034342 21.5466271,45.4106085 C20.8301122,45.7689786 20.2671362,46.2297402 20.2671362,46.5369145 C20.2671362,46.7928931 19.6018009,47.3560461 18.7829267,47.7656119 C18.0152322,48.1751777 16.2239449,49.9158324 14.8420947,51.6564871 C13.4602445,53.345946 12.0272147,54.7282306 11.6177776,54.7282306 C11.2083405,54.7282306 11.0036219,54.8818178 11.2083405,55.0354049 C11.3618794,55.2401878 10.9524423,56.1105152 10.287107,57.0320382 C9.57059209,57.9023656 9.00761609,58.8238886 9.00761609,59.0286715 C9.00761609,59.2846502 8.49581972,60.1037818 7.93284371,60.9741091 C6.96043061,62.3563937 5.73211933,65.9912902 6.2439157,65.9912902 C6.39745461,65.9912902 7.62576589,64.8649842 9.00761609,63.4826997 Z" id="Shape"></path>
                    <path d="M163.109503,89.6437154 C162.802425,89.0805624 162.802425,88.4662137 163.058323,88.2102351 C163.314221,87.9542565 163.723658,86.7767548 163.979557,85.6504488 C164.95197,81.2988121 162.341808,72.2883644 156.712048,60.615739 C154.869581,56.7760596 153.334192,53.4483375 153.334192,53.1923588 C153.334192,52.9875759 152.873575,52.21964 152.25942,51.4517042 C151.696444,50.734964 151.389366,50.1206153 151.594084,50.1206153 C151.798803,50.1206153 151.594084,49.7110495 151.184647,49.250288 C150.724031,48.7383307 149.649258,46.9464803 148.779204,45.2570214 C146.732019,41.417342 142.023492,33.8915703 140.641642,32.3556985 C140.078666,31.6901541 139.720409,31.1781968 139.873948,31.1781968 C140.078666,31.1781968 139.208612,30.2054781 138.031481,29.0791721 C136.854349,27.9016704 135.933116,26.9289516 136.035475,26.8265602 C136.137834,26.7753645 136.598451,26.5193858 137.059068,26.2634072 C137.929121,25.8026457 137.929121,25.7002542 137.007888,24.9323183 C135.523678,23.6524252 134.807163,24.8811226 134.551265,29.283955 C134.397726,31.2805883 134.141828,33.0724387 133.93711,33.2260259 C133.271774,33.6867874 133.630032,49.5574623 134.295367,50.2230067 C134.653625,50.5813768 134.909523,51.7588785 134.909523,52.9363802 C134.909523,54.1138819 135.26778,55.4961665 135.677217,56.0593195 C136.086654,56.5712767 136.444912,57.5439955 136.444912,58.2095399 C136.444912,60.5133476 132.913517,58.9262801 132.555259,56.4688853 C132.4529,55.956928 132.248182,54.9842092 132.043463,54.2674691 C131.838745,53.5507289 131.634026,52.8339887 131.582846,52.6804016 C131.582846,52.5268144 131.224589,51.86127 130.815152,51.1445298 C130.405715,50.4277896 130.098637,49.6598538 130.047457,49.3526794 C129.945098,48.0727863 128.563248,44.4890855 128.153811,44.4890855 C127.949092,44.4890855 127.744374,44.1307154 127.744374,43.6187582 C127.744374,42.902018 126.260164,39.4719044 124.315338,35.632225 C123.905901,34.8642891 123.752362,33.9939618 123.905901,33.7379831 C124.05944,33.4308088 123.95708,33.2260259 123.650003,33.2260259 C123.342925,33.2260259 123.189386,33.021243 123.394104,32.7652643 C123.547643,32.5092857 123.342925,31.331784 122.933488,30.2054781 C122.57523,29.0279764 122.421691,27.9528661 122.62641,27.8504747 C122.882308,27.6968875 123.087027,27.1849303 123.087027,26.672973 C123.138206,24.3179696 123.547643,23.2940551 124.571236,22.935685 C125.185392,22.6797064 125.697188,22.1677492 125.697188,21.7581833 C125.697188,21.3486175 126.157805,20.8366603 126.720781,20.6830731 C127.283757,20.5294859 127.744374,20.1711159 127.744374,19.9151372 C127.744374,19.6591586 128.460889,19.0448099 129.330942,18.5840484 C130.917511,17.8161125 130.968691,17.8161125 132.145822,19.0960056 C133.732391,20.7854646 133.681211,21.2462261 131.992283,21.6557919 C129.63802,22.1677492 126.516062,25.4954713 127.079038,26.8777559 C127.386116,27.7480832 128.25617,27.8504747 128.25617,26.9801474 C128.30735,26.0586243 130.303355,23.7548166 131.685206,23.0380765 C132.299361,22.7309021 133.83475,22.4749235 135.114241,22.4749235 C136.393732,22.4749235 137.570864,22.2701406 137.724403,21.9629663 C137.877942,21.7069876 138.747996,21.451009 139.669229,21.451009 C141.306977,21.451009 144.019498,23.0380765 147.346175,25.9562328 C148.420947,26.8777559 149.495719,27.4921046 149.751617,27.3385174 C150.058695,27.1337345 150.468132,27.5944961 150.77521,28.3112362 C151.031108,29.0279764 151.491725,29.6423251 151.798803,29.6423251 C152.515318,29.6423251 161.011138,38.1408155 161.011138,38.80636 C161.011138,39.0623386 161.215856,39.3695129 161.420575,39.4719044 C161.676473,39.5742958 162.597706,40.8029932 163.570119,42.1852778 C164.491353,43.6187582 165.412586,44.8474556 165.566125,45.0010427 C166.487359,45.7689786 168.585724,48.9943093 168.943981,50.1206153 C169.1487,50.8373555 169.762855,52.0148571 170.274652,52.782793 C170.837628,53.4995332 171.247065,54.3186648 171.247065,54.5746434 C171.247065,54.7794263 171.605322,55.6497537 172.014759,56.4688853 C172.475376,57.2880169 172.680095,58.3119314 172.526556,58.7726929 C172.373017,59.1822587 172.526556,59.694216 172.833634,59.8989989 C173.29425,60.1549775 173.550149,62.5611766 173.652508,67.3735748 L173.806047,74.4385849 L172.117119,78.0222857 C171.144706,79.9677233 169.967574,82.629901 169.506957,83.9097941 C167.613311,89.0805624 164.337814,91.9987188 163.109503,89.6437154 Z M168.329826,70.5989055 C168.381005,65.837703 167.408592,59.6430202 165.668485,53.9602947 C164.747251,50.7861597 160.243443,42.8508223 159.117491,42.338865 C158.861593,42.2876693 158.042719,41.1613633 157.172665,39.8814702 C155.381378,37.1680967 147.448534,29.283955 146.066684,28.8231935 C145.554887,28.6696063 145.14545,28.3624319 145.14545,28.1064533 C145.14545,27.9016704 144.736013,27.5433003 144.275396,27.3897132 C143.71242,27.1849303 143.917139,27.5944961 144.787193,28.3112362 C146.57848,29.9494994 146.5273,30.3590652 144.633654,29.9494994 C143.7636,29.7959123 143.098265,29.8983037 143.098265,30.1542823 C143.098265,30.4614567 143.354163,30.6662396 143.661241,30.6662396 C143.917139,30.6662396 144.019498,30.9222182 143.865959,31.1781968 C143.661241,31.4853712 144.224217,32.5092857 145.043091,33.4820045 C145.913145,34.4035276 146.732019,35.8882036 146.936737,36.7585309 C147.141456,37.6288583 147.602073,38.3455984 148.01151,38.3455984 C148.420947,38.3455984 148.728025,38.7551642 148.728025,39.3183172 C148.728025,39.8302745 149.495719,41.1101676 150.416953,42.0828864 C151.287007,43.1068009 152.617677,45.4618043 153.334192,47.3048504 C153.999527,49.1478965 154.869581,50.9397469 155.227839,51.2469213 C155.586096,51.5540956 155.893174,52.21964 155.893174,52.7315973 C155.893174,53.2435546 156.149072,53.8067075 156.40497,53.9602947 C156.712048,54.1138819 156.916767,54.7282306 156.916767,55.2913836 C156.916767,55.8545366 157.121485,56.2129066 157.377383,56.0593195 C157.633282,55.9057323 158.093898,56.520081 158.452156,57.441604 C159.475748,60.1037818 160.089904,61.2812835 161.113497,62.4075894 C161.676473,62.9707424 162.13709,63.9946569 162.188269,64.6090056 C162.239449,65.2233543 162.546527,66.0424859 162.904784,66.400856 C163.263042,66.7592261 163.570119,67.6295534 163.570119,68.3462936 C163.570119,69.011838 163.774838,69.574991 164.081916,69.574991 C164.337814,69.574991 164.440173,69.9333611 164.286634,70.3429269 C164.081916,70.7524927 164.235455,71.1108628 164.491353,71.1108628 C164.95197,71.1108628 165.770844,73.6194533 165.873203,75.360108 C165.873203,75.5648909 166.231461,75.9744567 166.640898,76.2304353 C167.71567,76.8959797 168.227466,75.2065208 168.329826,70.5989055 Z" id="Shape"></path>
                    <path d="M238.036491,76.5888054 C237.473515,76.2304353 235.733407,75.6160866 234.198018,75.2577165 C232.662629,74.8481507 229.028875,73.4658661 226.162815,72.0835815 C223.296756,70.701297 220.788953,69.574991 220.584235,69.574991 C220.430696,69.574991 218.48587,68.2439021 216.387505,66.6568346 C214.23796,65.0185714 211.781337,63.3291125 210.860104,62.9195467 C209.99005,62.4587851 208.710559,61.6396535 208.045224,61.0765006 C206.765733,60.1037818 203.336697,54.6770349 202.722542,52.7315973 C202.569003,52.1172486 201.49423,50.171811 200.368278,48.3287649 C199.293506,46.4857188 198.372272,44.7962598 198.372272,44.4890855 C198.372272,44.2331069 197.911656,43.7211496 197.34868,43.3627795 C196.734524,42.9532137 196.171548,41.9292992 196.018009,40.8029932 C195.762111,39.3695129 195.096776,38.3455984 193.254309,36.7073352 C190.23471,33.9939618 189.774093,33.6355917 188.136345,32.8164601 C187.41983,32.45809 186.03798,31.6901541 185.065567,31.0758054 C184.093154,30.4614567 182.353046,29.847108 181.227094,29.6935208 C178.92401,29.3351507 178.463394,28.157649 180.35704,27.3385174 C180.971196,27.0825388 181.482992,26.672973 181.482992,26.5193858 C181.482992,26.0074286 176.928005,24.5227525 175.494975,24.5227525 C174.82964,24.5227525 174.317843,24.3179696 174.317843,24.061991 C174.317843,23.6012295 176.057951,22.9868808 177.59334,22.9868808 C178.719292,22.9868808 185.423824,26.10982 188.392243,28.0552576 C189.518195,28.7719977 190.695327,29.3863465 190.951225,29.4375422 C191.258303,29.4375422 191.821279,29.6423251 192.230716,29.7959123 C192.640153,29.9494994 193.817285,30.2054781 194.840878,30.3590652 C195.91565,30.5638481 197.2975,31.1270011 197.962835,31.6901541 C198.67935,32.2021114 200.214739,33.2260259 201.49423,33.8915703 C202.722542,34.5571147 205.127985,35.8882036 206.816913,36.7585309 C208.505841,37.680054 210.245948,38.9087514 210.757745,39.4207087 C211.218361,39.9326659 211.730158,40.3934274 211.934876,40.3934274 C212.088415,40.3934274 212.702571,40.854189 213.316726,41.417342 C213.930882,41.9804949 214.749756,42.4412565 215.108014,42.4412565 C216.285145,42.4412565 218.48587,44.0795197 221.914905,47.6120247 C226.623432,52.4756187 225.753378,51.0421384 231.587857,62.8683509 C233.430324,66.6056389 239.930138,74.1826063 241.311988,74.1826063 C241.721425,74.1826063 241.874964,74.6945635 241.772605,75.6160866 C241.567886,77.2543498 239.725419,77.7151114 238.036491,76.5888054 Z M228.772977,66.6056389 C228.26118,65.837703 227.288767,64.1482441 226.674612,62.7659595 C226.060456,61.4348706 224.832145,59.3358459 223.962091,58.1071485 C223.143217,56.8272553 222.426702,55.5985579 222.426702,55.3425793 C222.426702,55.0354049 222.221983,54.7282306 222.017265,54.6258391 C221.761367,54.5746434 220.840133,53.345946 219.9189,52.0148571 C218.025253,49.1990922 214.493858,45.7689786 211.883697,44.1819111 C210.911284,43.5675624 209.580613,42.6460394 208.966457,42.0828864 C208.352302,41.5197334 206.049218,39.9838616 203.848494,38.7039685 C199.498224,36.0929865 197.451039,35.4786378 199.549404,37.4752711 C200.265919,38.0896198 201.340691,39.6766873 201.954847,41.0589719 C202.569003,42.3900607 203.285518,43.465171 203.541416,43.465171 C203.797314,43.465171 204.002033,43.8747368 204.002033,44.386694 C204.002033,48.687135 211.218361,59.4894331 214.852116,60.6669348 C215.466271,60.8205219 216.438684,61.4348706 217.00166,61.9468279 C217.615816,62.4587851 218.844127,63.5850911 219.81654,64.4554184 C220.788953,65.27455 221.812546,65.9912902 222.170804,65.9912902 C222.529061,65.9912902 223.092037,66.2984646 223.399115,66.7080304 C223.757372,67.1175962 225.139223,67.7319449 226.572252,68.090315 C227.954103,68.448685 229.131234,69.011838 229.131234,69.2678166 C229.182414,69.574991 229.284773,69.4214038 229.438312,68.9094466 C229.591851,68.3974893 229.284773,67.3735748 228.772977,66.6056389 Z" id="Shape"></path>
                    <path d="M248.988933,36.0929865 C248.886574,35.990595 245.662257,35.7346164 241.874964,35.5810292 C232.662629,35.1714634 221.710187,33.8403746 217.871714,32.7140686 C216.899301,32.45809 215.978068,32.3045028 215.875708,32.45809 C215.722169,32.6116772 215.312732,32.45809 214.954475,32.2021114 C214.647397,31.894937 214.033241,31.7413498 213.674984,31.7925456 C213.316726,31.894937 212.75375,31.3829797 212.395493,30.6662396 C212.037236,29.9494994 211.525439,29.3863465 211.320721,29.3863465 C210.297128,29.283955 206.561014,26.9801474 205.844499,25.9562328 C204.718547,24.3691654 204.769727,24.2155782 206.868092,22.1677492 C208.096403,20.9902475 209.017637,20.4782902 209.580613,20.6830731 C210.604206,21.1438346 213.623804,21.5534004 215.210373,21.5022047 C215.926888,21.451009 216.745762,21.9117705 217.155199,22.4749235 C217.564636,23.0380765 218.332331,23.498838 218.895307,23.498838 C219.407103,23.498838 219.86772,23.7548166 219.86772,24.0107953 C219.86772,24.3179696 220.225977,24.5227525 220.686594,24.5227525 C221.096031,24.5227525 222.784959,25.1371012 224.371528,25.8538414 C225.958097,26.5705815 228.107641,27.4921046 229.080055,27.9016704 C230.052468,28.3112362 231.280779,28.8743892 231.792575,29.1815636 C232.304372,29.4375422 232.918527,29.5399336 233.174426,29.3863465 C233.430324,29.2327593 234.044479,29.3351507 234.556276,29.6423251 C239.111263,32.2021114 257.638292,31.9973285 264.9058,29.283955 C265.315237,29.1303678 266.850627,29.0279764 268.232477,29.0791721 C269.665507,29.1303678 271.507974,28.9255849 272.326848,28.5672148 C273.196902,28.2088448 274.578752,27.9016704 275.397626,27.799279 C276.26768,27.7480832 278.212506,27.4921046 279.799075,27.3385174 C282.255697,27.0313431 282.716314,27.0825388 283.023392,27.9016704 C283.22811,28.3624319 283.125751,29.0279764 282.869853,29.283955 C282.613955,29.5399336 279.747895,30.3078695 276.523578,30.9222182 C273.299261,31.5877627 270.126123,32.4068943 269.460788,32.7652643 C268.795453,33.1236344 267.925399,33.379613 267.515962,33.2772216 C266.901806,33.1748301 264.342824,33.7379831 258.150088,35.3250506 C256.102903,35.8370079 249.347191,36.4001609 248.988933,36.0929865 Z" id="Shape"></path>
                    <path d="M59.1636602,14.3348031 C48.8765532,11.5190382 45.1916193,10.7511024 41.5066855,10.443928 C39.2547815,10.2903408 35.8257458,10.0343622 33.82974,9.88077503 C31.8849138,9.72718785 27.8929021,9.52240495 25.0268424,9.47120922 C22.2119624,9.47120922 19.9600584,9.26642632 20.0624176,9.06164342 C20.2671362,8.75446907 19.8065195,8.65207761 15.5586096,8.49849044 C14.5350169,8.44729471 13.818502,8.24251181 13.9208612,8.08892463 C14.1255798,7.73055455 13.101987,7.26979303 11.2083405,6.86022722 C9.46823282,6.55305287 7.31868807,5.52913836 7.62576589,5.221964 C7.83048444,5.06837683 7.72812517,4.45402812 7.42104735,3.89087514 C7.01161025,3.17413498 7.01161025,2.96935208 7.42104735,3.22533071 C7.72812517,3.43011361 7.98402335,3.22533071 7.98402335,2.8157649 C7.98402335,2.2014162 8.49581972,1.9966333 10.0823885,1.9966333 C11.3106997,1.9966333 12.0272147,1.79185039 11.8224961,1.48467604 C11.5154183,0.972718785 11.8224961,0.870327334 15.6609689,0.767935883 C16.9404598,0.716740157 18.2199507,0.563152981 18.4758489,0.409565804 C19.3459027,-0.102391451 25.5898184,-0.102391451 26.357513,0.409565804 C26.8693094,0.716740157 27.483465,0.716740157 28.046441,0.409565804 C28.6605966,0.0511957255 28.9676745,0.102391451 28.9676745,0.46076153 C28.9676745,0.767935883 29.2747523,0.972718785 29.6330097,0.92152306 C29.9400876,0.870327334 30.6054228,0.92152306 31.0148599,1.07511024 C32.4990694,1.63826322 36.9005182,2.91815636 38.5894462,3.27652643 C39.4595,3.48130934 40.2271946,3.78848369 40.2271946,4.04446232 C40.2271946,4.24924522 41.2507873,4.6076153 42.5302782,4.8123982 C43.8097692,4.96598538 44.7310026,5.32435546 44.5774637,5.63152981 C44.3727452,5.88750844 44.8333619,6.09229134 45.5498768,6.09229134 C46.2663917,6.09229134 46.931727,6.29707424 47.0852659,6.55305287 C47.3411641,6.91142295 50.9237387,7.67935883 53.278002,7.83294601 C54.2504151,7.93533746 57.1164747,9.26642632 57.1164747,9.67599213 C57.1164747,10.1367537 61.0573068,10.8534938 64.7422406,11.1094724 C65.7658334,11.2118639 65.8681926,11.4166468 65.5611148,12.6453442 C64.9469592,15.2051305 63.6162886,15.5635006 59.1636602,14.3348031 Z" id="Shape"></path>
                </g>
            </g>
        </g>
    </g>
</svg>