<?xml version="1.0" standalone="no"?>
<!DOCTYPE svg PUBLIC "-//W3C//DTD SVG 20010904//EN"
 "http://www.w3.org/TR/2001/REC-SVG-20010904/DTD/svg10.dtd">
<svg version="1.0" xmlns="http://www.w3.org/2000/svg"
 width="2464.000000pt" height="1536.000000pt" viewBox="0 0 2464.000000 1536.000000"
 preserveAspectRatio="xMidYMid meet">
<metadata>
Created by potrace 1.15, written by Peter Selinger 2001-2017
</metadata>
<g transform="translate(0.000000,1536.000000) scale(0.100000,-0.100000)"
fill="#000000" stroke="none">
<path d="M12815 14536 c-51 -19 -68 -44 -71 -105 -2 -48 3 -67 37 -134 44 -87
46 -102 22 -115 -12 -7 -23 -3 -42 15 -38 35 -109 76 -121 68 -18 -11 -11 -61
13 -83 13 -12 27 -22 33 -22 20 -1 84 -68 79 -82 -8 -19 -35 -19 -57 0 -24 21
-48 8 -48 -26 0 -24 7 -32 42 -48 23 -10 44 -25 46 -33 3 -8 0 -11 -6 -7 -6 3
-28 -10 -49 -29 -21 -19 -41 -35 -45 -35 -5 0 -8 -7 -8 -15 0 -8 -4 -15 -10
-15 -5 0 -10 -4 -10 -10 0 -5 -8 -18 -19 -29 -14 -14 -20 -41 -26 -124 -4 -58
-4 -114 -1 -124 6 -19 61 -53 99 -62 71 -17 179 5 212 43 6 6 33 22 60 36 60
30 91 61 115 116 17 38 22 42 65 47 130 18 158 47 164 169 1 20 7 27 24 30 18
2 23 10 25 41 3 29 -1 39 -15 43 -10 4 -32 22 -50 40 -18 19 -36 34 -41 34 -5
0 -15 11 -22 25 -7 14 -15 23 -18 21 -7 -8 -46 38 -49 59 -2 11 -5 32 -7 46
-2 14 -11 40 -20 58 -9 17 -14 36 -11 41 3 6 3 10 -2 10 -4 0 -19 18 -33 40
-13 22 -28 40 -32 40 -4 0 -8 6 -8 13 0 7 -29 21 -65 32 -36 11 -65 24 -65 28
0 5 -4 5 -10 2 -5 -3 -18 -2 -27 3 -11 5 -30 4 -48 -2z m124 -110 c53 -34 78
-68 85 -119 10 -64 3 -73 -52 -74 -26 0 -53 -2 -61 -4 -8 -2 -20 7 -27 21 -32
61 -54 118 -54 137 0 25 28 51 68 62 1 1 20 -10 41 -23z m139 -319 c6 -7 16
-35 22 -62 22 -92 24 -98 53 -108 22 -7 32 -5 48 9 19 17 19 16 8 -17 -16 -45
-40 -74 -50 -57 -6 9 -11 9 -23 -1 -9 -7 -23 -11 -31 -7 -8 3 -15 1 -15 -3 0
-5 -17 0 -37 10 -23 12 -39 15 -43 9 -6 -9 -53 141 -67 211 -5 26 -4 26 60 28
43 1 68 -3 75 -12z m-258 -256 c36 -53 80 -81 125 -81 48 0 16 -57 -45 -80
-19 -8 -63 -33 -96 -57 -43 -30 -71 -43 -95 -43 -59 0 -63 8 -48 89 7 40 16
74 21 77 4 3 8 14 8 25 0 10 6 19 13 19 6 0 22 16 35 36 20 31 27 35 50 29 15
-4 29 -10 32 -14z"/>
<path d="M11300 13500 c0 -6 -11 -8 -25 -4 -18 4 -27 1 -31 -10 -3 -9 -11 -13
-18 -9 -6 3 -8 3 -4 -2 10 -10 -50 -85 -68 -85 -8 0 -14 -7 -14 -15 0 -8 -5
-15 -10 -15 -6 0 -34 -16 -63 -35 -28 -19 -57 -35 -62 -35 -6 0 -20 -8 -31
-17 -11 -10 -36 -27 -57 -37 -20 -11 -37 -23 -37 -28 0 -4 -9 -8 -19 -8 -11 0
-23 -5 -26 -10 -4 -6 -10 -8 -15 -5 -4 3 -14 -2 -21 -11 -7 -8 -26 -22 -43
-30 -17 -8 -51 -25 -76 -38 -24 -14 -49 -22 -54 -19 -5 3 -6 1 -2 -5 4 -7 -9
-15 -36 -22 -56 -15 -98 -33 -98 -42 0 -5 -13 -8 -29 -8 -16 0 -60 -14 -97
-31 -38 -17 -84 -38 -102 -46 -18 -8 -37 -11 -44 -7 -7 4 -8 3 -4 -4 4 -7 1
-13 -8 -13 -9 -1 -20 -3 -26 -4 -5 -1 -14 -3 -19 -4 -4 0 -24 -15 -42 -31 -19
-17 -48 -37 -66 -45 -18 -7 -38 -23 -45 -34 -7 -12 -18 -21 -25 -21 -7 0 -13
-7 -13 -15 0 -8 -3 -14 -8 -12 -10 3 -26 -11 -173 -155 -71 -70 -129 -132
-129 -137 0 -5 -7 -14 -15 -21 -9 -8 -15 -29 -15 -55 0 -27 -5 -45 -14 -48
-16 -6 -55 33 -82 83 -32 58 -103 119 -139 119 -37 -1 -217 21 -249 29 -42 12
-174 8 -187 -5 -19 -19 -15 -207 7 -357 8 -49 81 -121 139 -137 22 -5 56 -17
75 -26 19 -9 42 -16 50 -16 8 0 20 -3 25 -8 6 -4 38 -12 70 -18 46 -7 68 -6
93 5 18 7 30 9 27 4 -7 -11 -9 -23 -19 -93 l-7 -48 -21 26 c-26 33 -43 20 -27
-21 7 -19 11 -114 11 -269 0 -191 -3 -260 -18 -337 -10 -54 -21 -98 -25 -98
-4 0 -10 -19 -14 -42 -4 -24 -27 -103 -51 -176 -24 -74 -44 -141 -44 -151 0
-9 -9 -33 -20 -54 -11 -20 -20 -43 -20 -51 0 -8 -7 -17 -15 -20 -12 -4 -13
-10 -6 -25 6 -11 7 -21 2 -23 -12 -5 -23 -58 -12 -58 6 0 8 -7 5 -15 -4 -8
-10 -15 -16 -15 -18 0 -35 -25 -34 -52 1 -21 -1 -24 -11 -16 -10 8 -13 4 -14
-16 -1 -14 -2 -31 -3 -38 -1 -7 -11 -23 -23 -36 -13 -14 -20 -28 -17 -33 3 -5
1 -9 -4 -9 -17 0 -23 -32 -10 -49 7 -9 8 -13 4 -9 -14 12 -36 -12 -36 -36 0
-12 -4 -26 -9 -31 -5 -6 -11 -21 -13 -35 -1 -14 -11 -32 -20 -41 -10 -9 -18
-21 -18 -26 0 -5 -9 -19 -20 -31 -11 -11 -30 -40 -42 -64 -12 -24 -39 -63 -60
-87 -21 -24 -38 -48 -38 -52 0 -11 -109 -172 -122 -180 -9 -6 -25 -31 -118
-181 -48 -79 -48 -78 -86 -123 -14 -16 -32 -42 -40 -57 -8 -16 -19 -28 -24
-28 -6 0 -10 -5 -10 -11 0 -12 -49 -82 -115 -165 -22 -28 -49 -63 -60 -78 -11
-16 -44 -54 -73 -85 -29 -31 -62 -73 -74 -93 -12 -21 -25 -38 -30 -38 -4 0 -8
-5 -8 -11 0 -6 -16 -30 -36 -53 -19 -22 -45 -53 -57 -69 -12 -15 -30 -36 -40
-47 -10 -12 -15 -25 -12 -30 4 -6 0 -10 -7 -10 -7 -1 -33 -24 -58 -52 -25 -28
-127 -135 -227 -237 -101 -102 -183 -187 -183 -189 0 -2 -15 -20 -34 -40 -19
-21 -49 -64 -66 -97 -17 -33 -41 -71 -54 -85 -12 -14 -28 -38 -36 -54 -8 -16
-59 -75 -112 -130 -54 -56 -98 -106 -98 -113 0 -7 -6 -16 -14 -20 -7 -4 -21
-21 -30 -38 -63 -112 -77 -142 -82 -176 -4 -22 -10 -39 -14 -39 -11 0 -42 -79
-35 -90 3 -4 -2 -10 -10 -14 -8 -3 -15 -10 -15 -16 0 -6 -11 -27 -24 -48 -14
-20 -27 -50 -30 -66 -3 -16 -12 -36 -21 -46 -8 -9 -15 -20 -15 -25 0 -5 -6
-16 -14 -24 -8 -9 -23 -54 -35 -101 -12 -47 -25 -86 -30 -88 -5 -2 -7 -12 -4
-22 3 -11 2 -28 -2 -37 -11 -26 -16 -76 -18 -184 -1 -68 -6 -101 -17 -114 -12
-15 -12 -17 -1 -10 11 6 13 4 7 -10 -26 -70 -32 -525 -7 -533 6 -2 13 -19 17
-38 3 -19 12 -34 18 -34 13 0 17 -7 60 -105 15 -33 33 -73 41 -88 8 -16 15
-36 15 -46 0 -9 5 -22 12 -29 7 -7 9 -12 5 -12 -4 0 4 -22 18 -50 14 -27 25
-58 25 -70 0 -11 5 -20 10 -20 6 0 10 -11 10 -25 0 -21 -3 -23 -22 -16 -23 8
-76 92 -77 122 -2 26 -28 55 -40 44 -13 -13 4 -76 36 -127 13 -21 23 -42 23
-48 0 -6 7 -13 15 -16 8 -4 15 -14 15 -23 0 -9 14 -33 31 -54 17 -20 27 -41
24 -47 -3 -5 -1 -10 5 -10 6 0 15 -11 20 -25 5 -14 14 -25 20 -25 5 0 10 -6
10 -14 0 -8 4 -16 9 -18 6 -2 11 -83 13 -186 2 -114 8 -186 14 -190 14 -9 26
-96 15 -108 -18 -19 -90 -164 -81 -164 14 0 68 62 81 93 8 18 17 26 26 23 8
-4 18 -6 23 -6 4 0 10 -11 14 -24 5 -21 48 -65 115 -119 13 -10 32 -17 42 -14
14 4 19 0 19 -14 0 -22 13 -25 32 -5 8 7 28 17 45 20 17 4 39 18 47 32 9 13
21 24 27 24 6 0 7 -5 2 -13 -4 -6 -9 -32 -9 -57 -4 -101 -16 -278 -23 -326 -4
-28 -3 -88 2 -133 7 -66 6 -95 -6 -139 -15 -54 -28 -124 -32 -167 -1 -11 -5
-32 -10 -47 -5 -21 -4 -28 6 -28 10 0 11 -2 2 -8 -21 -13 -15 -187 7 -202 4
-3 21 -27 38 -55 35 -58 52 -139 48 -242 -3 -71 -2 -72 36 -113 21 -22 43 -38
48 -35 6 3 10 0 10 -7 0 -14 52 -38 82 -38 8 0 22 -8 31 -18 11 -12 28 -17 49
-15 18 1 60 -6 93 -16 46 -14 74 -17 120 -11 33 4 69 4 81 -1 11 -4 43 -3 70
3 79 16 390 16 419 0 5 -3 25 -7 45 -9 19 -2 42 -6 50 -10 8 -3 21 -5 29 -4 7
1 20 -1 30 -5 19 -9 17 -8 61 -18 19 -5 43 -15 53 -24 9 -8 20 -12 23 -9 4 3
16 1 27 -5 21 -11 38 -14 85 -17 12 0 22 -7 22 -16 0 -8 5 -15 10 -15 6 0 9
-6 8 -12 -2 -7 6 -13 17 -13 14 0 19 6 17 18 -3 15 0 17 14 9 11 -6 27 -7 42
-1 13 5 27 7 32 4 5 -3 11 -1 15 4 3 6 18 10 33 10 40 -1 127 20 130 31 2 6 8
8 13 4 5 -3 21 4 35 15 15 12 33 21 40 21 8 0 14 4 14 8 0 5 18 28 40 51 29
30 44 40 53 33 12 -9 51 -13 42 -4 -3 3 32 17 78 32 69 23 96 26 167 24 106
-5 110 -5 110 -16 0 -6 6 -8 13 -5 6 2 19 -2 28 -10 9 -7 27 -16 39 -18 13 -3
26 -8 29 -12 15 -21 156 -62 200 -59 17 1 31 -2 31 -7 0 -5 12 -6 26 -3 14 4
32 2 39 -4 7 -6 17 -10 21 -9 5 1 14 0 19 -1 6 -1 29 -1 51 0 23 1 45 -3 48
-9 4 -5 32 -15 64 -21 31 -7 64 -14 72 -17 8 -3 49 -7 90 -8 102 -4 179 -15
185 -25 3 -5 12 -7 20 -4 8 3 20 2 27 -2 6 -4 24 -9 39 -11 14 -1 47 -11 72
-22 24 -11 73 -27 108 -37 35 -9 71 -23 80 -31 9 -7 19 -10 22 -7 4 4 13 1 21
-5 8 -7 33 -10 58 -8 33 3 44 9 47 23 5 27 20 44 36 38 7 -3 22 7 35 23 l21
28 -21 17 c-12 10 -28 18 -36 18 -7 0 -16 5 -20 12 -5 8 -1 9 12 4 15 -6 17
-5 7 5 -21 21 -15 25 34 28 31 1 51 8 56 18 7 11 23 14 66 12 31 -1 84 -1 119
-1 52 2 62 5 62 20 0 10 5 23 12 30 7 7 8 12 4 12 -5 0 -3 6 3 13 8 11 5 21
-14 43 -27 31 -31 44 -15 44 6 0 10 5 10 11 0 6 -6 9 -14 6 -8 -3 -17 1 -20
10 -5 11 -1 14 12 11 12 -4 18 1 18 12 0 14 -5 16 -22 10 -18 -7 -21 -6 -17
11 4 14 1 18 -9 14 -8 -3 -34 13 -62 39 -26 25 -49 45 -52 45 -3 -1 -8 2 -11
4 -8 8 32 26 68 31 19 3 49 8 68 12 23 5 35 3 41 -6 7 -11 12 -11 23 -2 8 7
21 10 30 6 10 -3 18 2 22 15 3 12 10 21 16 21 15 0 6 53 -12 78 -10 13 -15 30
-12 39 4 11 2 14 -5 9 -8 -4 -18 8 -28 33 -9 23 -20 41 -25 41 -5 0 -14 11
-19 25 -5 14 -14 25 -20 25 -5 0 -10 11 -10 24 0 22 -45 64 -57 53 -11 -12
-95 72 -86 86 3 6 1 7 -5 3 -5 -3 -30 11 -53 31 -115 102 -165 148 -171 163
-7 15 -47 51 -127 111 -50 38 -56 54 -66 171 -9 113 -7 137 13 175 7 12 11 39
10 61 -1 43 18 102 34 102 5 0 6 5 3 10 -4 6 -1 17 5 25 7 8 10 22 6 30 -3 8
0 15 7 15 9 0 8 3 -1 9 -11 7 -10 15 7 46 11 20 17 44 14 53 -4 10 -2 13 5 8
11 -7 26 29 21 50 -2 10 7 39 22 67 6 11 9 36 8 57 -3 32 2 44 28 69 24 23 31
37 30 66 -1 20 4 39 10 43 6 4 17 30 24 57 6 28 18 60 25 72 8 12 14 33 14 45
0 36 11 68 21 62 5 -3 9 2 9 11 0 10 -5 13 -12 9 -7 -4 -4 4 7 17 32 39 44 66
50 111 3 23 10 47 15 52 6 6 10 21 10 34 0 13 5 33 11 45 7 11 13 47 15 80 1
32 5 61 8 64 3 4 6 17 6 29 0 13 5 26 10 29 6 4 8 10 5 15 -3 5 3 13 12 19 11
6 13 11 5 11 -10 0 -10 4 0 23 7 12 11 25 10 30 -1 4 5 7 13 7 9 0 12 6 8 16
-3 9 -12 13 -22 9 -10 -4 -8 1 6 14 12 12 27 39 33 61 6 21 18 46 26 55 9 9
14 24 11 35 -3 11 1 24 9 31 8 6 14 22 14 36 0 13 7 40 15 59 8 20 13 40 10
44 -3 5 -1 10 4 12 5 1 12 19 14 38 3 19 6 35 7 35 1 0 4 20 7 45 2 25 10 52
18 60 7 8 16 30 20 48 11 53 48 128 62 125 4 -1 9 17 11 39 1 23 6 46 10 52 4
6 7 20 8 31 1 11 9 47 17 80 9 33 18 78 21 100 3 22 5 40 7 40 1 0 3 9 5 20 2
11 9 47 15 80 6 34 9 109 6 173 -3 74 -2 110 5 106 7 -4 7 0 1 12 -5 11 -10
34 -12 53 -1 18 -6 41 -11 51 -7 12 -7 28 0 45 5 14 10 37 10 50 0 23 71 105
91 105 6 0 8 4 4 10 -3 5 5 16 19 25 13 9 35 32 48 50 12 19 28 35 35 35 6 0
20 11 31 25 11 14 25 25 31 25 6 0 10 4 8 8 -4 14 94 102 114 102 10 0 31 19
47 43 16 23 48 62 70 86 22 24 46 56 53 70 8 14 23 42 35 61 11 19 19 41 17
48 -3 6 0 12 6 12 6 0 11 7 11 15 0 8 5 15 10 15 6 0 10 5 10 12 0 6 9 30 19
52 31 67 91 240 116 336 1 3 5 30 9 60 4 30 14 80 23 110 8 30 18 71 23 90 4
19 15 62 24 95 10 33 19 76 22 95 3 19 11 45 19 57 8 12 15 33 15 46 0 13 3
27 7 31 4 4 15 45 24 92 10 47 29 108 43 135 28 53 50 113 61 169 4 19 13 44
21 55 7 11 16 37 19 58 4 20 11 37 16 37 5 0 9 5 9 11 0 14 29 77 50 109 20
30 66 152 74 198 5 26 1 38 -18 57 -13 13 -22 25 -20 27 1 2 -8 5 -22 6 -14 1
-30 4 -34 7 -12 8 -1 35 14 35 28 0 50 73 54 180 3 96 2 107 -17 127 l-21 22
-67 -31 c-38 -16 -73 -34 -79 -39 -8 -7 -15 16 -22 77 -7 48 -17 93 -24 101
-7 8 -17 25 -23 36 -12 25 -52 48 -71 40 -7 -2 -36 -52 -66 -109 -35 -69 -72
-126 -109 -165 -30 -32 -58 -59 -62 -59 -4 0 -7 18 -7 40 0 43 -14 53 -26 18
-3 -12 -13 -37 -22 -57 -9 -20 -16 -38 -17 -41 -4 -20 -33 -61 -66 -91 -22
-20 -39 -40 -39 -44 0 -30 -245 -278 -269 -272 -9 2 -15 9 -13 16 1 7 -5 20
-15 28 -13 10 -15 16 -6 19 10 4 10 11 2 26 -6 11 -7 18 -2 15 4 -3 9 16 10
41 1 26 4 61 8 77 3 17 12 68 19 115 7 47 16 92 19 100 3 8 8 35 11 60 3 25
10 60 15 78 9 30 27 210 24 239 0 7 2 11 6 9 4 -3 8 32 9 76 1 44 7 89 13 100
10 19 10 208 0 208 -3 0 -5 48 -5 107 1 60 -2 135 -7 168 -5 33 -11 80 -14
105 -3 25 -13 71 -22 103 -12 44 -13 61 -4 70 22 22 8 75 -44 157 -15 24 -42
110 -55 175 -22 117 -50 218 -74 270 -13 29 -27 67 -31 84 -3 16 -15 48 -26
70 -10 22 -19 47 -19 56 0 9 -9 36 -20 59 -12 27 -22 76 -25 127 -12 172 -14
196 -29 269 -8 41 -20 113 -26 160 -7 49 -21 96 -31 112 -11 15 -19 31 -19 36
0 5 -11 22 -25 38 -14 16 -25 33 -25 37 0 10 -67 77 -77 77 -5 0 -22 13 -39
28 -17 15 -37 26 -44 24 -8 -3 -10 0 -5 7 4 8 2 11 -6 10 -20 -4 -59 11 -59
22 0 5 -4 9 -10 9 -5 0 -10 -5 -10 -10z m37 -134 c4 -7 45 -41 90 -75 96 -72
90 -52 97 -301 6 -176 20 -253 60 -329 53 -97 89 -188 96 -244 5 -39 33 -127
77 -237 68 -170 133 -400 133 -467 0 -18 5 -33 11 -33 5 0 7 -5 3 -11 -3 -6
-2 -14 3 -18 14 -9 37 -173 38 -271 1 -47 3 -87 4 -90 2 -6 13 -229 12 -250 0
-8 -3 -40 -7 -70 -3 -30 -7 -98 -8 -150 -1 -52 -7 -111 -13 -130 -6 -19 -21
-69 -33 -110 -13 -41 -28 -79 -34 -85 -16 -14 -14 -58 4 -73 8 -8 10 -11 3 -7
-18 8 -23 -23 -27 -155 -1 -63 -8 -131 -14 -150 -5 -19 -18 -75 -27 -125 -9
-49 -25 -119 -36 -155 -11 -36 -25 -78 -29 -94 -6 -18 -5 -36 1 -47 5 -10 7
-30 3 -44 -5 -22 -3 -25 17 -23 15 2 23 -2 22 -9 -2 -7 5 -13 14 -13 20 0 53
28 53 46 0 15 43 29 59 20 15 -10 58 15 121 69 61 52 71 66 42 58 -11 -2 -45
-29 -77 -59 -57 -52 -78 -63 -89 -45 -7 10 22 36 49 45 27 8 105 91 178 187
32 42 69 81 82 87 14 6 25 18 25 27 0 8 6 15 13 15 6 0 46 34 89 74 42 41 82
78 90 82 7 5 21 21 31 37 10 15 24 27 32 27 8 0 15 5 15 11 0 5 4 8 9 5 5 -3
12 5 15 19 4 14 10 25 15 25 15 0 53 70 47 86 -3 8 -2 12 4 9 6 -3 10 4 10 17
0 13 5 30 10 38 7 11 10 5 10 -24 0 -22 8 -63 17 -92 14 -45 21 -54 45 -59 20
-5 37 -1 56 11 38 26 73 44 84 44 14 0 -1 -57 -28 -110 -83 -160 -82 -155 -28
-205 l33 -31 -44 -104 c-78 -190 -95 -240 -105 -308 -5 -37 -10 -73 -10 -79 0
-8 -13 -13 -30 -13 -26 0 -30 -5 -41 -42 -6 -24 -12 -47 -13 -53 -1 -5 -8 -21
-15 -34 -24 -44 -47 -171 -65 -362 -2 -25 -21 -113 -41 -195 -32 -131 -47
-171 -126 -331 -50 -101 -106 -206 -125 -234 -18 -28 -34 -55 -34 -60 0 -4 -6
-12 -13 -16 -8 -4 -28 -28 -46 -53 -79 -113 -175 -214 -244 -258 -24 -15 -73
-54 -110 -86 -72 -64 -78 -77 -99 -201 -6 -38 -17 -77 -24 -86 -18 -20 -17
-29 1 -65 8 -16 17 -59 20 -94 3 -36 8 -83 10 -105 3 -22 2 -53 -3 -68 l-7
-28 -28 25 c-16 14 -35 26 -43 26 -23 0 -28 -28 -9 -56 13 -21 16 -48 14 -152
-1 -70 -6 -147 -11 -172 -8 -38 -100 -233 -165 -350 -11 -19 -25 -51 -32 -70
-44 -119 -60 -173 -55 -181 8 -14 44 30 44 53 0 10 7 18 15 18 8 0 15 5 15 10
0 6 5 10 11 10 15 0 5 -38 -26 -102 -13 -27 -19 -48 -12 -45 7 2 16 13 22 25
21 48 34 15 14 -35 -7 -15 -18 -44 -26 -63 -8 -19 -19 -43 -24 -54 -6 -10 -13
-30 -15 -45 -3 -14 -7 -33 -11 -41 -8 -21 -18 -55 -30 -110 -4 -14 -17 -42
-30 -62 -29 -47 -86 -169 -86 -185 0 -7 -3 -13 -7 -13 -3 0 -17 -33 -30 -72
-12 -40 -29 -80 -36 -89 -8 -8 -14 -25 -14 -36 0 -12 -9 -43 -21 -70 -23 -52
-49 -144 -49 -171 0 -9 -7 -30 -15 -46 -8 -16 -18 -47 -21 -70 -3 -22 -15 -65
-26 -94 -11 -29 -22 -74 -23 -100 -2 -26 -4 -47 -5 -47 -5 0 -10 -40 -24 -170
-8 -71 -19 -143 -25 -158 -6 -16 -11 -50 -11 -75 0 -34 -10 -69 -36 -122 -34
-71 -61 -175 -42 -164 4 3 8 -4 8 -15 0 -12 5 -21 11 -21 5 0 8 -4 5 -8 -3 -5
6 -30 19 -55 14 -25 25 -53 25 -62 0 -19 106 -126 158 -160 20 -13 53 -38 73
-57 19 -18 52 -41 73 -51 21 -10 40 -26 43 -37 3 -11 9 -17 14 -14 5 3 9 -3
10 -13 0 -12 2 -14 6 -5 7 17 64 -42 59 -61 -1 -6 -1 -8 2 -4 6 12 32 -13 32
-32 0 -13 2 -13 9 -3 7 11 13 9 30 -9 11 -12 21 -27 21 -31 0 -5 5 -6 12 -2 7
5 9 2 5 -9 -4 -10 1 -18 14 -22 10 -4 19 -10 19 -15 0 -5 6 -15 13 -22 6 -8
23 -26 36 -40 l23 -27 -43 -22 c-24 -12 -75 -26 -114 -30 -38 -4 -77 -10 -85
-12 -39 -9 -60 -19 -60 -29 0 -6 -7 -16 -16 -23 -23 -16 -11 -60 18 -70 13 -4
26 -8 31 -10 4 -1 12 -3 18 -4 5 0 7 -5 4 -11 -5 -9 16 -15 38 -11 5 1 6 -3 2
-9 -6 -9 -2 -12 28 -14 14 -1 57 -49 57 -64 0 -5 7 -9 16 -8 10 0 21 -11 27
-29 6 -16 17 -36 26 -43 13 -11 9 -12 -29 -7 -99 13 -162 16 -178 9 -18 -8
-30 -9 -107 -17 -55 -5 -115 -28 -133 -50 -8 -9 -9 -24 -3 -45 5 -17 6 -34 3
-38 -4 -4 1 -4 10 -1 14 5 17 1 16 -18 -2 -17 -8 -25 -21 -25 -10 0 -16 4 -13
9 4 5 -3 7 -14 4 -23 -6 -112 14 -149 33 -14 8 -32 14 -38 14 -7 0 -13 4 -13
9 0 5 -9 11 -21 14 -13 4 -18 10 -13 18 4 8 3 10 -5 5 -6 -4 -14 -1 -17 7 -3
9 -13 13 -26 9 -11 -2 -24 1 -28 8 -4 7 -21 14 -36 16 -16 2 -30 8 -32 13 -9
26 -116 64 -264 95 -95 20 -166 40 -177 50 -12 11 -20 13 -23 6 -2 -7 -15 -3
-33 12 -16 12 -26 17 -21 10 4 -8 1 -12 -9 -12 -9 0 -14 3 -12 7 3 5 -11 9
-31 11 -19 1 -42 8 -51 15 -12 9 -13 9 -7 0 4 -8 1 -13 -9 -13 -9 0 -13 4 -10
10 4 6 -1 7 -10 3 -10 -3 -21 0 -26 8 -6 10 -9 10 -9 2 0 -8 -14 -13 -34 -13
-25 0 -35 5 -39 20 -3 11 -10 20 -16 20 -8 0 -9 -6 -1 -19 13 -26 13 -27 -7
-27 -10 -1 -61 -4 -113 -9 -52 -4 -110 -9 -128 -10 -23 -2 -39 3 -53 18 l-20
22 -6 -24 c-4 -17 -11 -21 -27 -17 -11 3 -28 6 -36 6 -11 0 -12 2 -3 8 8 5 0
8 -20 8 -24 0 -41 9 -63 31 -44 47 -74 83 -74 89 0 3 -6 11 -12 18 -16 16 -35
43 -51 73 -7 12 -29 46 -49 76 -20 29 -40 65 -43 80 -4 14 -13 31 -21 38 -8 6
-14 20 -14 30 0 9 -7 25 -16 34 -9 8 -18 33 -21 55 -3 22 -10 40 -15 40 -6 0
-8 9 -5 20 3 10 1 20 -4 22 -4 2 -9 24 -11 50 -2 27 -6 48 -9 48 -10 0 -29 77
-23 94 3 9 2 16 -4 16 -5 0 -15 30 -21 68 -18 107 -27 151 -49 252 -23 106
-33 223 -38 445 -2 83 -6 162 -10 176 -3 14 1 46 9 70 10 31 12 48 4 60 -7 12
-6 30 6 67 22 65 22 125 1 143 -14 12 -20 9 -43 -17 -20 -24 -31 -30 -46 -24
-25 10 -35 4 -35 -21 0 -10 -6 -19 -12 -20 -10 0 -10 -2 0 -6 10 -4 10 -8 1
-20 -8 -9 -9 -17 -3 -21 5 -4 10 -16 12 -27 3 -20 3 -20 -11 -1 -15 20 -54 16
-42 -4 4 -6 1 -18 -6 -26 -6 -8 -9 -18 -5 -22 4 -4 14 2 22 12 16 23 20 21 29
-17 4 -16 3 -27 -3 -27 -6 0 -8 -9 -5 -20 3 -11 9 -17 15 -14 5 3 6 -6 2 -23
-9 -36 -9 -35 1 -57 6 -13 4 -21 -4 -24 -9 -3 -9 -7 1 -20 10 -12 10 -16 1
-19 -9 -3 -9 -11 3 -28 9 -13 13 -29 9 -36 -4 -6 -2 -28 5 -49 8 -24 9 -43 3
-54 -5 -10 -6 -47 -1 -88 4 -43 3 -77 -2 -83 -6 -7 -7 -15 -3 -19 12 -12 12
-36 0 -36 -9 0 -9 -2 0 -8 6 -4 12 -18 12 -32 4 -77 11 -132 25 -189 8 -36 13
-68 10 -73 -3 -4 0 -8 6 -8 8 0 10 -9 6 -25 -4 -14 -2 -25 4 -25 5 0 10 -9 10
-20 0 -11 -5 -20 -11 -20 -5 0 -7 -5 -4 -10 4 -6 11 -7 17 -4 7 4 8 2 4 -4 -4
-7 -4 -18 1 -24 4 -7 9 -30 10 -52 1 -21 6 -43 12 -49 6 -6 11 -22 11 -35 0
-13 4 -31 9 -40 5 -9 11 -30 14 -47 3 -16 19 -67 35 -112 16 -45 27 -85 24
-88 -3 -3 0 -5 6 -5 7 0 12 -9 12 -20 0 -12 7 -31 15 -44 8 -12 16 -34 17 -49
1 -15 6 -27 11 -27 5 0 7 -6 4 -14 -3 -7 -1 -18 4 -23 13 -13 1 -83 -15 -83
-7 0 -7 -3 1 -8 19 -12 -23 -164 -79 -287 -42 -94 -47 -100 -74 -99 -66 2
-158 14 -168 22 -6 5 -22 9 -35 10 -24 1 -116 26 -159 43 -12 5 -27 20 -34 34
-15 34 -42 34 -35 -1 4 -25 4 -25 -45 -20 -27 3 -57 10 -67 15 -17 10 -164 8
-469 -5 -93 -4 -143 -2 -163 6 -32 14 -39 32 -11 29 79 -8 59 13 -28 30 -91
18 -122 50 -150 161 -7 25 -19 59 -28 75 -9 17 -17 50 -19 74 -2 25 -8 50 -13
56 -6 7 -8 20 -4 29 3 9 2 22 -4 29 -6 6 -8 27 -6 45 2 17 0 32 -5 32 -5 0 -6
12 -2 27 4 16 4 42 -1 58 -4 17 -12 78 -17 135 -7 91 -6 112 11 170 79 260 73
226 88 534 6 122 14 203 21 212 9 11 9 14 0 14 -8 0 -10 8 -6 20 3 11 3 25 -2
32 -4 7 -8 22 -8 33 0 15 -6 19 -22 17 -12 -2 -33 4 -47 13 -27 18 -21 24 -71
-69 -14 -27 -192 -166 -212 -166 -4 0 -14 13 -21 29 -7 16 -28 38 -46 49 -29
17 -34 27 -40 71 -4 28 -4 57 0 62 4 6 0 15 -7 20 -11 7 -10 9 4 9 14 0 17 9
17 55 0 32 4 55 11 55 5 0 8 4 5 8 -3 5 16 7 43 4 54 -5 61 1 68 54 5 39 -5
43 -30 14 -9 -11 -25 -20 -35 -20 -20 0 -73 52 -86 85 -13 31 -15 65 -5 65 5
0 9 4 9 10 0 5 -8 7 -17 4 -15 -5 -15 -4 -3 4 10 8 15 30 15 73 1 52 -2 63
-20 75 -16 11 -20 21 -17 49 5 41 17 43 61 11 67 -50 163 -41 130 12 -7 11
-18 18 -26 15 -17 -7 -100 43 -135 81 l-28 30 30 13 c17 6 30 16 30 21 0 5
-34 26 -75 47 -41 20 -75 43 -75 51 0 8 -5 14 -11 14 -5 0 -7 5 -4 10 3 6 2
10 -4 10 -8 0 -51 60 -51 72 0 7 53 -3 65 -13 17 -13 58 -17 80 -8 16 6 17 8
3 8 -38 2 -66 23 -71 56 -3 18 -15 52 -26 76 -12 23 -21 49 -21 56 0 8 -7 25
-16 38 -9 14 -14 31 -11 38 2 7 -1 44 -9 82 -7 39 -16 111 -19 160 -16 266
-14 256 -46 268 -16 6 -29 16 -29 22 0 30 35 124 56 152 44 58 19 107 -38 77
-28 -14 -28 -14 -28 16 0 21 4 29 12 24 6 -4 8 -3 4 4 -3 6 1 30 10 54 8 24
17 51 18 60 1 10 9 25 17 35 27 34 39 63 39 93 0 16 5 30 10 30 6 0 10 10 10
23 0 13 5 28 12 35 7 7 8 12 3 12 -5 0 0 7 11 15 14 11 16 15 4 15 -12 0 -11
3 3 11 9 5 17 17 17 24 0 8 4 15 9 15 5 0 14 21 21 48 6 26 20 57 31 68 11 12
21 28 23 36 1 8 18 37 38 65 19 27 39 59 42 71 4 12 11 22 16 22 4 0 11 12 14
26 12 48 204 286 360 448 38 39 69 75 70 81 1 5 5 16 10 23 4 7 5 19 3 27 -3
7 17 37 46 67 140 145 202 217 199 227 -2 6 5 11 16 11 10 0 24 11 30 25 6 14
18 25 27 25 8 0 15 6 15 13 0 20 77 100 88 93 6 -3 8 2 5 12 -2 10 5 28 16 40
10 13 34 42 53 64 18 23 45 53 61 67 15 13 25 26 24 28 -2 2 14 22 36 46 21
23 45 54 53 70 8 15 18 27 23 27 5 0 27 31 50 69 23 37 55 81 71 97 16 16 30
35 30 42 0 6 4 12 9 12 8 0 41 46 61 85 5 10 17 25 72 88 15 18 30 40 34 50 3
10 16 29 30 44 13 14 24 32 24 39 0 8 4 14 8 14 5 0 17 17 28 38 10 20 22 39
25 42 5 4 34 46 74 108 14 21 28 40 42 56 7 8 9 16 6 20 -4 3 -1 6 5 6 7 0 12
6 12 14 0 8 4 16 9 18 9 4 66 91 62 97 -2 2 1 7 6 10 5 3 31 38 58 76 27 39
60 84 74 100 15 17 35 48 46 70 11 22 26 46 33 53 6 7 12 22 12 33 0 10 5 19
10 19 6 0 10 10 10 22 0 12 8 31 19 42 34 39 116 215 127 274 4 20 10 42 15
47 4 6 11 35 15 65 4 30 11 66 16 80 8 21 22 92 32 162 1 10 5 21 9 24 4 4 7
18 7 31 0 12 4 23 8 23 5 0 15 19 22 43 7 23 16 51 20 62 16 40 31 118 36 193
3 42 11 83 17 91 8 9 12 88 14 245 2 279 2 268 14 260 6 -3 9 0 8 7 -3 21 12
69 22 69 5 0 9 7 9 15 0 21 58 112 76 119 19 7 64 103 64 139 0 15 5 27 11 27
5 0 8 4 4 9 -3 5 2 16 10 25 17 16 17 76 0 88 -6 5 -3 8 6 8 8 0 37 30 65 67
55 76 91 113 149 153 22 16 56 45 76 67 20 21 65 53 100 72 35 19 96 53 134
76 39 23 92 50 120 61 27 10 65 26 84 36 20 10 42 18 51 18 9 0 20 4 26 8 5 4
27 14 49 21 22 7 58 19 80 28 61 24 76 29 135 48 30 10 64 24 75 32 11 7 27
13 36 13 9 0 22 6 28 13 6 8 40 29 75 47 36 18 75 43 87 56 12 13 28 24 35 24
7 0 48 35 91 79 90 91 114 105 130 77z m-2143 -926 c21 -10 46 -26 55 -34 9
-8 59 -36 111 -62 52 -26 97 -51 98 -56 2 -4 8 -8 13 -8 5 0 28 -12 50 -26
l41 -26 -28 -29 c-15 -16 -36 -29 -46 -29 -10 0 -18 -4 -18 -8 0 -16 -112 -64
-148 -64 -61 1 -136 22 -159 44 -13 12 -23 16 -23 10 0 -7 -4 -12 -10 -12 -5
0 -10 6 -10 14 0 7 -16 28 -35 47 -31 30 -35 40 -35 86 0 60 11 95 46 140 29
38 45 40 98 13z m729 -9482 c15 13 51 6 42 -8 -3 -4 2 -10 9 -13 8 -3 17 -1
20 6 3 9 8 8 15 -3 10 -13 15 -8 12 13 -2 15 18 6 23 -10 5 -14 18 -18 66 -19
41 -1 66 -7 79 -18 10 -9 25 -16 32 -14 8 2 13 -2 12 -8 -1 -7 9 -14 22 -17
14 -2 25 0 25 4 0 5 -7 9 -16 9 -8 0 -12 4 -9 10 4 6 12 6 23 0 9 -5 61 -18
116 -29 54 -10 105 -26 114 -35 15 -15 13 -16 -28 -16 -41 0 -102 12 -140 27
-8 3 -19 5 -24 4 -4 -1 -23 3 -40 9 -18 5 -50 12 -71 15 -37 4 -111 15 -197
31 -21 4 -35 10 -33 14 3 5 -4 6 -14 3 -11 -3 -38 5 -61 18 -34 19 -38 24 -23
30 10 3 21 2 25 -4 4 -7 11 -7 21 1z"/>
<path d="M10761 12482 c-8 -6 -11 -17 -8 -26 5 -12 0 -16 -18 -16 -40 0 -197
-136 -229 -198 -9 -18 -18 -55 -19 -82 -1 -28 -5 -50 -9 -50 -23 0 -26 -205
-3 -249 18 -36 73 -101 85 -101 5 0 31 -14 58 -31 27 -16 60 -31 73 -33 14 -1
29 -5 34 -8 21 -13 147 -40 160 -34 8 3 29 0 46 -6 51 -18 110 19 156 96 33
57 66 153 57 167 -2 4 -6 26 -9 50 -17 158 -51 337 -68 361 -32 47 -103 114
-145 136 -47 26 -139 39 -161 24z"/>
<path d="M8941 9851 c-12 -16 -21 -36 -21 -45 0 -9 -5 -16 -11 -16 -6 0 -9 -7
-5 -15 3 -8 0 -15 -6 -15 -17 0 -57 -52 -51 -67 3 -7 1 -13 -3 -13 -5 0 -15
-14 -22 -30 -8 -17 -34 -52 -58 -78 -24 -26 -44 -53 -44 -59 0 -7 -5 -13 -11
-13 -5 0 -16 -15 -24 -33 -7 -18 -23 -41 -34 -51 -12 -11 -21 -23 -21 -29 0
-5 -15 -24 -32 -42 -48 -48 -58 -62 -58 -83 0 -10 -11 -25 -25 -32 -14 -7 -25
-21 -25 -31 0 -9 -9 -19 -21 -22 -12 -3 -19 -10 -16 -15 3 -4 -3 -14 -13 -22
-10 -8 -17 -17 -14 -21 2 -4 -14 -24 -36 -45 -21 -20 -37 -40 -35 -44 2 -4 -8
-22 -23 -40 -15 -18 -27 -36 -27 -40 0 -4 -17 -24 -38 -44 -36 -34 -37 -36
-15 -37 l23 0 -23 -9 c-12 -5 -26 -20 -32 -34 -5 -13 -13 -27 -19 -30 -6 -4
-8 -13 -4 -21 3 -8 0 -15 -6 -15 -6 0 -17 -12 -25 -27 -8 -16 -26 -40 -40 -54
-14 -15 -22 -29 -19 -33 3 -3 -8 -13 -25 -23 -17 -10 -36 -27 -42 -38 -6 -11
-25 -29 -42 -40 -18 -11 -39 -35 -47 -52 -9 -18 -21 -33 -27 -33 -10 0 -92
-71 -187 -163 -39 -37 -48 -52 -45 -72 4 -20 -1 -26 -26 -36 -23 -9 -26 -13
-14 -16 19 -5 13 -33 -6 -33 -17 0 -80 -90 -82 -116 -1 -22 -37 -64 -54 -64
-5 0 -10 -4 -10 -9 0 -5 -9 -11 -20 -14 -24 -6 -38 -36 -21 -47 9 -5 8 -9 -4
-14 -9 -3 -21 -4 -26 0 -5 3 -9 1 -9 -5 0 -5 5 -13 11 -16 7 -5 3 -12 -9 -21
-11 -7 -23 -25 -26 -40 -4 -15 -14 -33 -22 -41 -8 -9 -13 -22 -10 -29 3 -7 1
-16 -5 -19 -5 -4 -7 -10 -4 -15 3 -5 -3 -15 -12 -22 -23 -17 -93 -131 -93
-152 0 -9 -4 -16 -10 -16 -5 0 -10 -6 -10 -14 0 -8 -7 -17 -16 -20 -11 -4 -15
-14 -12 -29 3 -13 -2 -29 -10 -36 -12 -11 -12 -15 0 -22 9 -6 7 -9 -9 -9 -13
0 -24 -3 -24 -7 -1 -5 -3 -19 -4 -32 -2 -21 -15 -35 -40 -44 -5 -2 -9 -28 -8
-58 2 -37 -1 -49 -7 -39 -8 13 -10 13 -10 -1 0 -9 -9 -19 -20 -22 -11 -3 -20
-12 -20 -21 0 -9 8 -16 20 -16 11 0 20 -4 20 -10 0 -5 -7 -10 -15 -10 -8 0
-19 -9 -25 -19 -8 -16 -6 -22 7 -30 16 -9 15 -10 -8 -11 -20 0 -25 -5 -24 -22
1 -13 -7 -38 -17 -57 -15 -26 -16 -36 -7 -47 10 -12 8 -17 -7 -28 -15 -11 -16
-17 -6 -29 10 -12 9 -16 -9 -20 -27 -7 -24 -54 5 -49 11 2 17 -1 14 -10 -3 -7
-13 -14 -24 -16 -17 -2 -20 -11 -19 -70 0 -37 -6 -82 -13 -99 -11 -31 -9 -37
11 -34 4 0 7 -4 7 -9 0 -6 -9 -10 -21 -10 -14 0 -19 -5 -16 -14 3 -7 1 -31 -5
-52 -6 -22 -11 -51 -12 -67 -2 -15 -5 -29 -7 -32 -3 -2 -3 -24 -1 -47 2 -24 4
-55 4 -69 0 -21 4 -25 19 -22 25 7 33 21 20 36 -6 7 -6 18 -1 26 4 8 6 20 3
28 -3 7 2 13 10 13 11 0 15 7 12 22 -4 20 5 61 26 113 4 11 9 35 12 53 3 27 1
32 -12 27 -13 -4 -12 -2 2 9 20 15 23 43 5 49 -7 2 -5 3 4 2 20 -3 34 25 17
36 -8 5 -8 9 2 15 16 10 18 36 4 47 -6 4 -4 11 5 17 8 5 11 10 5 10 -5 0 -2 5
8 11 9 6 15 15 11 20 -3 5 0 16 6 24 6 8 9 19 5 25 -3 5 -2 10 2 10 5 0 15 21
22 48 8 26 22 65 33 87 12 26 16 50 12 68 -5 24 -3 28 12 25 10 -2 19 2 20 7
0 6 4 18 8 28 5 9 5 28 2 41 -4 16 0 29 14 41 11 10 20 24 20 32 0 7 5 13 11
13 6 0 9 9 6 20 -3 13 1 24 13 30 10 6 20 22 22 37 2 20 9 29 25 31 20 3 49
55 38 71 -2 4 7 20 21 36 13 16 27 39 30 52 4 13 9 23 13 23 14 0 62 83 56 97
-3 9 0 13 7 11 6 -2 24 21 40 51 16 31 35 61 42 66 7 6 16 22 20 38 3 15 13
27 22 27 10 0 14 6 10 15 -3 9 0 15 9 15 7 0 17 9 20 20 3 11 10 20 15 20 5 0
7 7 4 15 -4 8 -2 15 3 15 5 0 20 19 33 43 13 23 41 64 62 91 21 27 38 57 38
67 0 10 6 22 13 26 8 4 22 21 33 37 14 23 16 30 5 34 -8 3 -5 8 11 16 12 6 24
22 26 35 2 12 30 49 62 81 32 33 53 61 46 64 -7 3 -7 5 2 5 12 1 30 16 117 96
18 17 43 46 56 65 13 19 32 44 42 55 44 47 117 160 112 172 -2 8 -1 11 4 8 5
-3 12 4 16 15 3 11 14 27 23 37 9 9 17 20 17 24 0 4 14 21 32 37 17 17 29 33
26 35 -10 11 8 43 29 52 13 6 24 19 26 30 2 11 9 25 16 30 7 6 17 21 21 35 4
14 21 38 37 53 16 15 26 32 22 38 -3 5 9 23 27 38 18 16 29 33 25 40 -4 6 0
18 8 27 9 8 16 11 16 5 0 -6 5 -11 11 -11 6 0 9 9 6 20 -3 13 0 20 9 20 8 0
17 13 20 30 4 16 10 28 14 25 4 -2 19 20 34 50 18 34 33 52 41 49 9 -4 15 7
20 34 3 22 15 49 25 60 10 11 16 23 13 26 -4 3 1 6 10 6 10 0 17 6 17 13 0 19
47 114 61 122 14 9 43 76 40 93 -1 7 3 11 10 10 6 -2 14 3 16 10 9 24 -26 11
-46 -17z"/>
<path d="M17381 11234 c-53 -30 -91 -70 -120 -127 -11 -21 -21 -27 -45 -26
-58 2 -106 11 -101 19 6 9 -18 20 -43 20 -14 0 -14 -2 -3 -9 10 -7 7 -9 -12
-8 -15 1 -25 7 -24 12 2 6 0 22 -4 37 -4 15 -4 29 -1 31 4 2 2 2 -5 1 -7 -2
-15 1 -18 6 -4 6 -18 10 -32 10 -24 0 -25 -2 -21 -43 3 -24 12 -56 21 -73 30
-55 39 -79 43 -111 4 -33 4 -33 -32 -27 -22 3 -47 1 -61 -7 -23 -12 -53 -66
-66 -121 -4 -16 -12 -28 -18 -28 -7 0 -9 -17 -4 -52 7 -48 45 -116 79 -140 20
-14 146 -20 161 -8 8 6 19 9 25 5 5 -3 10 -2 10 4 0 5 13 12 29 16 15 3 38 15
49 25 12 11 26 20 31 20 5 0 18 10 28 23 16 19 27 22 97 22 74 0 81 1 107 28
24 24 29 37 29 78 0 31 -7 60 -20 81 -20 33 -29 67 -10 38 7 -11 10 -11 10 -2
0 16 65 82 81 82 7 0 9 9 6 22 -4 12 -1 28 4 35 10 12 13 60 6 93 -4 21 -36
80 -43 80 -3 0 -2 -6 2 -12 4 -7 -4 -3 -18 10 -32 29 -62 28 -117 -4z m-331
-404 c9 -9 20 -28 23 -41 3 -14 15 -34 25 -45 20 -21 19 -21 -12 -37 -50 -26
-173 -27 -182 -2 -8 20 41 121 68 139 25 18 51 13 78 -14z"/>
<path d="M15714 10493 c-4 -14 -7 -38 -8 -52 -1 -19 -6 -25 -18 -23 -13 2 -18
-4 -18 -22 0 -25 19 -76 31 -86 5 -4 16 -58 34 -172 3 -20 5 -96 4 -170 -1
-73 -1 -149 -1 -168 1 -19 -4 -53 -9 -75 -6 -22 -11 -62 -12 -90 -2 -33 -7
-49 -15 -48 -14 3 -16 -23 -3 -32 5 -3 7 -28 4 -55 -3 -28 0 -85 7 -128 6 -42
13 -90 14 -107 3 -28 72 -322 84 -355 3 -8 6 -19 6 -25 3 -21 18 -82 36 -140
9 -33 21 -91 25 -130 4 -38 11 -79 15 -91 5 -12 18 -73 29 -136 31 -174 94
-344 183 -501 22 -37 36 -72 33 -78 -4 -5 -1 -16 5 -24 7 -8 10 -20 8 -27 -3
-7 3 -29 13 -48 10 -19 20 -48 22 -65 7 -46 18 -75 29 -75 5 0 7 -4 3 -9 -3
-5 4 -40 16 -78 31 -100 40 -123 50 -123 5 0 9 -10 9 -22 0 -13 7 -36 15 -52
8 -15 15 -37 15 -48 0 -10 7 -32 15 -49 9 -16 13 -34 10 -39 -3 -5 -1 -11 5
-15 5 -3 10 -25 10 -48 0 -23 5 -62 11 -87 6 -25 12 -133 13 -240 2 -107 6
-208 11 -224 6 -21 5 -27 -3 -22 -7 4 -14 -3 -18 -19 -3 -14 -10 -25 -15 -25
-5 0 -9 -6 -9 -13 0 -7 -9 -18 -20 -25 -11 -7 -20 -19 -20 -27 0 -11 -12 -15
-42 -17 -24 0 -47 -2 -53 -3 -72 -13 -81 -18 -108 -61 -16 -24 -33 -44 -38
-44 -5 0 -9 -7 -9 -15 0 -18 -16 -20 -23 -2 -3 6 -6 -2 -6 -19 -1 -23 -11 -39
-42 -65 -23 -19 -46 -33 -51 -31 -6 2 -8 -4 -4 -13 3 -9 0 -18 -8 -21 -8 -3
-17 -22 -21 -42 -4 -20 -11 -42 -17 -49 -6 -7 -8 -52 -6 -105 3 -77 8 -102 31
-148 40 -80 51 -98 75 -119 38 -32 59 -22 99 48 32 54 44 67 79 78 22 8 51 23
62 34 12 10 24 19 28 18 3 0 26 18 52 40 25 23 52 41 59 41 7 0 13 4 13 9 0 5
9 12 19 16 10 3 21 15 24 27 4 14 11 19 22 14 9 -3 14 -2 11 3 -3 5 8 11 25
13 33 5 73 -12 104 -45 23 -24 57 -106 49 -118 -3 -5 3 -34 12 -66 24 -77 24
-78 31 -160 6 -75 -13 -233 -28 -233 -5 0 -9 -15 -9 -33 0 -18 -5 -38 -10 -43
-6 -6 -12 -25 -13 -42 -1 -18 -5 -32 -9 -32 -5 0 -8 -13 -8 -29 0 -17 -5 -33
-11 -36 -6 -4 -8 -13 -5 -20 2 -7 -2 -32 -10 -56 -9 -23 -13 -53 -9 -66 4 -16
1 -23 -9 -23 -8 0 -17 -7 -20 -16 -3 -8 -2 -12 3 -9 5 3 12 1 16 -5 4 -6 -5
-10 -20 -10 -14 0 -24 -4 -20 -9 3 -6 -4 -27 -16 -48 -29 -52 -40 -64 -54 -61
-7 2 -40 -27 -73 -65 -34 -37 -65 -68 -69 -68 -5 0 -39 -29 -76 -62 -37 -34
-73 -64 -79 -66 -21 -7 -67 -67 -68 -87 0 -12 -7 -24 -15 -28 -8 -3 -15 -12
-15 -19 0 -8 -7 -20 -15 -27 -8 -7 -12 -17 -9 -22 6 -9 -13 -56 -27 -68 -6 -6
-41 -73 -57 -110 -6 -14 -16 -50 -23 -80 -6 -30 -17 -62 -24 -70 -7 -8 -13
-28 -13 -44 0 -16 -6 -32 -14 -37 -7 -4 -15 -23 -16 -41 -1 -19 -11 -57 -21
-85 -15 -42 -18 -74 -15 -194 1 -79 5 -154 8 -167 8 -37 29 -96 38 -106 4 -6
8 -25 8 -42 0 -18 5 -36 11 -40 6 -3 9 -17 6 -30 -2 -13 -1 -24 3 -24 3 0 17
-35 30 -77 13 -43 33 -91 44 -108 33 -48 56 -93 56 -113 0 -10 4 -22 9 -28 17
-17 41 -117 41 -170 0 -35 -7 -64 -20 -87 -20 -33 -22 -34 -108 -42 -169 -14
-228 -15 -292 -5 -122 20 -292 29 -354 19 -72 -12 -147 -37 -162 -56 -6 -7
-16 -13 -22 -13 -6 0 -15 -8 -21 -17 -5 -10 -11 -17 -13 -15 -5 5 -51 -16 -71
-32 -44 -34 25 -213 91 -237 15 -5 39 -16 55 -25 15 -8 27 -12 27 -8 0 3 10 0
23 -8 26 -18 157 -29 181 -16 11 6 16 5 16 -2 0 -8 34 -11 113 -9 97 2 166 -2
377 -26 25 -2 72 -12 105 -20 33 -8 77 -17 97 -20 41 -5 134 -41 158 -61 19
-16 49 -22 138 -28 39 -3 77 -8 82 -11 9 -6 107 -15 170 -16 41 -1 190 21 260
39 83 21 90 22 90 13 0 -4 14 -17 30 -29 36 -27 61 -19 80 27 7 17 17 28 22
25 12 -8 92 78 94 101 0 6 4 22 8 37 4 15 4 34 -2 43 -12 23 -3 65 15 65 8 0
12 4 8 10 -3 5 5 9 17 8 74 -3 118 3 118 16 0 10 11 12 40 9 32 -4 40 -2 40
11 0 9 8 16 21 16 11 0 17 -4 14 -10 -3 -5 -1 -10 4 -10 6 0 11 5 11 10 0 6 5
10 11 10 6 0 9 -7 5 -15 -3 -9 0 -15 10 -15 10 0 13 7 9 23 -5 19 0 25 29 37
39 15 42 20 24 38 -9 9 -9 12 0 12 7 0 12 -5 12 -11 0 -5 5 -7 11 -3 8 4 8 1
0 -14 -9 -18 -8 -23 8 -32 26 -14 28 -13 34 10 3 13 11 18 25 15 12 -2 26 3
32 10 6 8 18 11 26 8 8 -3 20 -1 27 4 13 10 28 10 97 -2 25 -3 50 -6 55 -5 6
0 26 3 45 5 19 2 37 4 40 4 3 1 -2 6 -10 12 -11 8 -3 9 33 5 35 -4 47 -2 47 8
0 7 12 13 30 13 16 0 26 -5 23 -10 -3 -5 1 -13 8 -18 12 -7 11 -9 -1 -9 -8 0
-21 -4 -29 -9 -10 -7 -10 -12 5 -30 22 -25 34 -27 34 -4 0 12 7 9 30 -13 16
-16 30 -35 30 -43 0 -7 6 -11 15 -7 30 11 33 -110 4 -179 -7 -16 -11 -34 -10
-40 3 -13 -41 -105 -50 -105 -5 0 -6 -7 -3 -15 6 -15 -17 -45 -35 -45 -6 0
-11 -6 -11 -13 0 -17 -37 -39 -45 -27 -9 14 -25 3 -35 -25 -10 -27 -74 -45
-92 -27 -8 8 -15 6 -25 -4 -17 -17 -37 -19 -27 -2 5 7 3 8 -5 4 -7 -5 -10 -14
-7 -22 3 -8 1 -14 -4 -14 -6 0 -10 6 -10 13 0 8 -4 7 -10 -3 -8 -13 -10 -12
-10 3 0 9 -4 17 -10 17 -5 0 -10 7 -10 15 0 20 -14 19 -31 -2 -11 -13 -11 -17
-1 -20 15 -6 16 -33 1 -33 -7 0 -20 -9 -30 -21 -10 -11 -22 -19 -26 -16 -13 8
-75 -21 -69 -32 3 -5 -3 -7 -15 -4 -12 3 -24 1 -28 -4 -7 -12 -91 -39 -148
-48 -24 -4 -43 -12 -43 -18 0 -5 -3 -8 -6 -4 -4 3 -22 0 -40 -8 -18 -7 -84
-21 -146 -30 -62 -9 -122 -22 -133 -28 -11 -6 -24 -10 -29 -9 -5 2 -16 -3 -25
-11 -18 -15 -95 -41 -153 -51 -21 -4 -38 -11 -38 -15 0 -5 -11 -6 -25 -3 -15
2 -25 0 -25 -7 0 -6 -11 -11 -24 -11 -14 0 -31 -7 -40 -15 -8 -8 -19 -15 -24
-15 -5 0 -16 -7 -23 -16 -13 -16 -127 -74 -146 -74 -5 0 -20 -11 -33 -25 -13
-14 -28 -25 -34 -25 -18 0 -206 -186 -206 -204 0 -9 -3 -16 -7 -16 -19 0 -68
-131 -71 -190 -2 -25 -8 -49 -15 -55 -7 -5 -14 -36 -15 -68 -4 -54 -2 -61 37
-112 23 -30 41 -58 41 -63 0 -10 87 -98 177 -180 32 -28 85 -77 118 -107 32
-30 65 -55 72 -55 7 0 13 -4 13 -9 0 -9 32 -22 60 -26 8 0 22 -4 30 -7 8 -4
33 -12 55 -18 22 -6 49 -15 60 -20 44 -19 93 -29 153 -32 34 -1 62 -5 62 -8 0
-3 29 -5 65 -5 36 0 65 4 65 9 0 4 11 5 25 2 14 -4 25 -3 25 2 0 4 24 13 53
20 71 16 85 20 121 32 17 5 50 11 73 13 23 1 45 6 49 10 4 4 22 7 40 7 36 0
84 18 84 32 0 4 11 8 24 8 26 0 50 22 38 35 -4 4 3 4 16 0 13 -4 29 -2 37 5 7
6 32 13 56 16 23 3 50 9 60 15 10 5 26 9 36 9 11 0 39 13 64 28 24 16 50 27
57 24 6 -2 12 2 12 8 0 6 6 10 12 8 7 -3 21 3 31 12 10 10 27 15 42 12 18 -3
25 0 25 12 0 12 10 16 39 16 22 0 43 5 46 11 4 6 19 10 33 9 15 -1 29 -1 32 0
5 2 21 4 105 15 55 7 95 28 95 49 0 7 9 23 20 36 35 41 21 100 -15 60 -18 -19
-36 -25 -118 -35 -61 -7 -121 -19 -227 -44 -47 -11 -96 -22 -110 -25 -46 -9
-64 -15 -132 -40 -80 -29 -120 -35 -125 -18 -4 10 22 17 50 13 4 0 7 3 7 9 0
5 18 13 40 16 27 4 40 12 40 22 0 8 3 13 6 9 3 -3 25 5 49 19 24 13 53 24 63
24 11 0 31 9 45 20 14 11 31 20 39 20 7 0 49 11 92 25 43 14 82 23 86 20 4 -3
13 2 20 10 7 8 16 13 20 10 5 -3 51 4 102 15 51 12 101 19 110 16 11 -2 18 1
18 11 0 10 6 13 16 9 8 -3 34 3 57 13 23 10 60 24 82 31 22 7 44 19 48 26 4 8
16 14 26 14 9 0 27 9 38 19 12 11 23 18 25 15 3 -2 16 8 30 24 14 15 38 40 52
55 14 15 26 32 26 38 0 5 7 12 15 15 8 3 17 14 20 25 4 10 13 19 21 19 8 0 14
4 14 9 0 6 23 40 50 76 28 36 50 73 50 81 0 7 4 14 8 14 5 0 16 19 26 42 10
24 27 62 37 85 11 23 19 47 19 52 0 6 5 11 10 11 6 0 10 7 10 15 0 8 5 15 11
15 5 0 7 4 4 10 -3 5 5 41 19 80 22 60 39 156 38 210 -4 159 -25 338 -44 373
-6 12 -13 40 -14 62 -2 33 -21 100 -51 175 -3 8 -7 25 -9 38 -1 13 -7 29 -13
36 -6 7 -13 30 -17 52 -3 21 -11 45 -17 53 -9 12 -9 13 1 7 6 -4 12 -2 12 3 0
6 -3 11 -7 11 -5 0 -17 21 -27 48 -11 26 -27 65 -37 87 -9 22 -25 67 -35 99
-15 49 -30 71 -86 128 -37 37 -74 68 -83 68 -24 0 -127 71 -132 91 -3 10 -9
16 -14 13 -12 -7 -63 21 -124 69 -16 14 -39 27 -50 31 -26 8 -120 100 -120
118 0 7 -11 30 -23 50 -13 21 -21 42 -18 47 4 5 1 11 -6 13 -7 3 -13 16 -13
29 -1 14 -9 36 -18 49 -10 14 -14 33 -11 47 4 13 2 23 -3 23 -5 0 -9 9 -9 20
0 11 4 20 9 20 5 0 4 7 -3 15 -7 8 -10 23 -8 33 3 10 2 41 -2 70 -3 29 -3 52
2 52 4 0 8 16 8 35 0 21 6 38 13 41 9 3 15 24 16 56 1 27 7 60 14 72 6 11 12
30 13 41 0 11 1 33 2 50 l2 30 23 -32 c12 -18 25 -33 28 -33 3 0 6 43 6 95 0
53 3 99 7 102 3 3 6 15 6 25 0 10 5 18 10 18 6 0 10 11 10 24 0 13 5 26 10 28
6 2 12 17 14 33 7 53 28 125 37 125 4 0 2 14 -5 31 -9 21 -10 44 -4 77 5 26
10 92 12 147 1 55 4 102 5 105 1 3 4 23 6 45 2 22 6 69 9 105 18 184 21 230
14 261 -3 19 -9 68 -13 109 -5 66 -10 79 -37 108 -18 17 -38 32 -45 32 -7 0
-13 6 -13 13 0 8 -7 29 -17 47 -9 18 -15 51 -15 73 1 22 -4 50 -12 61 -7 12
-16 42 -20 67 -13 88 -17 104 -32 120 -11 12 -12 19 -4 24 8 5 7 12 -4 24 -9
10 -14 28 -11 41 2 13 -1 30 -7 37 -6 7 -8 16 -4 20 3 3 -1 17 -10 31 -9 13
-11 21 -5 18 7 -5 9 -1 5 8 -3 9 -11 16 -16 16 -6 0 -8 9 -5 20 3 11 1 23 -4
26 -5 3 -9 14 -9 25 0 12 -4 17 -11 13 -7 -4 -10 2 -8 17 3 29 -9 69 -21 69
-5 0 -7 7 -3 16 5 13 7 13 14 2 5 -7 9 -8 9 -3 0 6 -9 18 -20 28 -11 9 -20 28
-20 42 0 18 -4 24 -12 19 -7 -5 -9 -2 -5 8 3 9 -2 23 -13 33 -16 15 -34 60
-35 90 0 6 -8 16 -18 23 -10 8 -16 19 -14 25 3 7 -5 23 -17 36 -11 13 -15 21
-8 17 21 -12 13 5 -13 30 -16 15 -20 24 -12 28 9 3 8 8 -3 18 -23 20 -51 68
-46 77 3 5 -6 21 -19 37 -44 51 -49 58 -52 72 -1 8 -7 18 -13 22 -6 4 -10 11
-8 16 2 10 -66 119 -81 128 -5 3 -12 17 -15 32 -4 14 -15 34 -25 45 -10 11
-24 32 -32 47 -8 15 -22 36 -31 46 -10 11 -18 26 -18 33 0 7 -3 13 -8 13 -4 0
-16 17 -27 38 -11 20 -31 52 -45 69 -14 18 -23 35 -20 37 3 3 -6 16 -19 29
-12 14 -20 30 -17 35 3 5 -1 15 -9 22 -8 7 -15 18 -15 26 0 7 -6 17 -13 21 -7
4 -19 22 -25 38 -7 17 -28 48 -47 69 -19 22 -32 42 -30 46 2 3 -12 21 -31 39
-19 19 -34 39 -34 45 0 13 -22 44 -61 86 -24 25 -42 58 -39 70 1 2 -7 7 -17
11 -10 3 -18 10 -19 15 -2 21 -17 44 -29 44 -13 0 -32 55 -26 75 1 5 -1 7 -5
3 -3 -4 -22 12 -40 37 -34 43 -45 73 -22 59 7 -5 8 -3 2 7 -5 8 -7 22 -5 33 1
11 -2 16 -9 11 -13 -8 -42 13 -35 25 5 8 -17 53 -51 105 -9 14 -13 33 -9 45 4
11 2 20 -4 20 -6 0 -10 10 -10 23 0 12 -7 47 -17 77 -9 30 -17 75 -17 99 0 29
-2 39 -9 30 -5 -9 -6 0 -2 25 4 25 3 37 -3 33 -11 -7 -23 36 -23 77 0 17 2 18
10 6 5 -8 10 -10 10 -4 0 5 -5 15 -11 21 -8 8 -5 15 11 26 21 14 21 16 5 41
-9 14 -16 26 -15 28 1 2 -1 14 -5 29 -5 18 4 45 35 102 22 42 40 79 39 82 -2
12 24 65 32 65 5 0 18 19 29 43 30 61 41 78 80 117 19 19 35 37 35 40 0 3 14
19 31 35 25 25 30 37 27 62 -4 24 -9 30 -24 26 -13 -4 -19 0 -19 12 0 11 -5
15 -16 11 -8 -3 -12 -2 -9 3 3 5 -9 10 -27 10 -18 0 -91 1 -163 2 -71 0 -168
6 -215 13 -47 7 -119 11 -162 9 -51 -3 -79 0 -83 8 -5 7 -10 8 -14 1 -8 -13
-68 -1 -141 28 -30 12 -68 25 -85 30 -84 22 -85 23 -183 230 -33 69 -58 157
-49 167 3 3 -1 12 -9 20 -8 9 -13 22 -10 30 3 8 2 12 -3 9 -4 -3 -16 21 -26
54 -10 32 -24 61 -31 64 -8 3 -14 11 -14 18 0 9 3 8 10 -2 8 -13 10 -13 10 2
0 9 -18 36 -40 58 -22 23 -39 44 -37 48 2 4 -4 15 -15 25 -10 9 -18 14 -18 10
0 -4 -7 3 -16 15 -9 14 -22 21 -31 18 -8 -4 -26 6 -42 22 -36 35 -73 52 -116
52 -29 0 -36 -4 -41 -27z m292 -369 c14 -31 32 -84 39 -117 15 -71 48 -162 66
-183 6 -8 8 -14 4 -14 -13 0 39 -75 79 -112 21 -21 41 -38 42 -38 2 0 18 -10
37 -23 19 -13 74 -34 123 -47 49 -13 96 -27 104 -31 41 -21 126 -34 230 -35
155 -1 450 -16 450 -22 0 -5 -47 -63 -104 -127 -20 -22 -36 -43 -36 -47 0 -3
-12 -20 -26 -37 -14 -17 -23 -31 -19 -31 3 0 -3 -12 -14 -26 -12 -15 -21 -33
-21 -41 0 -7 -7 -25 -17 -39 -21 -32 -30 -160 -14 -206 7 -18 16 -64 21 -101
10 -65 52 -240 103 -427 25 -90 70 -188 130 -283 20 -31 37 -60 37 -62 0 -9
72 -117 123 -183 26 -35 68 -94 93 -130 60 -88 110 -160 140 -199 14 -18 22
-33 18 -33 -4 0 0 -8 8 -17 8 -10 18 -25 22 -33 3 -8 15 -28 26 -45 11 -16 23
-37 27 -45 3 -8 28 -47 55 -86 26 -39 48 -75 48 -79 0 -4 23 -38 50 -76 28
-38 50 -71 50 -74 0 -2 16 -29 35 -59 80 -125 275 -489 275 -514 0 -4 6 -18
13 -32 8 -14 26 -61 41 -105 15 -44 31 -89 36 -100 20 -47 92 -300 149 -530
17 -66 40 -151 51 -190 11 -38 22 -77 25 -85 2 -8 11 -40 20 -70 22 -74 30
-252 17 -342 -6 -40 -14 -95 -17 -123 -13 -113 -32 -199 -80 -360 -24 -79 -54
-185 -56 -195 -1 -3 -3 -9 -4 -15 -1 -5 -8 -35 -14 -65 -7 -30 -16 -64 -21
-75 -10 -22 -46 -153 -61 -225 -5 -25 -14 -53 -19 -63 -6 -9 -15 -73 -22 -142
-10 -110 -10 -126 4 -142 9 -10 19 -28 23 -41 3 -12 11 -20 16 -16 5 3 8 2 7
-3 -3 -11 32 -116 43 -127 5 -6 9 -16 9 -24 0 -7 11 -37 25 -66 28 -59 90
-128 157 -174 32 -22 48 -41 53 -63 5 -20 15 -33 33 -40 15 -5 39 -16 54 -24
14 -8 38 -15 52 -15 14 0 26 -5 26 -12 0 -6 3 -8 6 -5 13 12 141 -64 192 -114
61 -60 77 -100 76 -201 -1 -43 3 -78 8 -78 4 0 18 10 30 22 l21 21 18 -22 c10
-12 25 -47 34 -79 9 -31 23 -71 31 -89 8 -17 14 -38 14 -46 0 -8 7 -30 14 -49
18 -43 82 -297 90 -358 15 -118 17 -287 2 -340 -48 -182 -131 -352 -235 -483
-144 -181 -166 -203 -266 -264 -66 -41 -182 -83 -310 -112 -136 -32 -246 -61
-285 -76 -19 -8 -60 -22 -90 -32 -30 -10 -57 -20 -60 -23 -3 -3 -16 -10 -30
-16 -14 -6 -64 -30 -111 -53 -48 -22 -90 -41 -96 -41 -5 0 -14 -5 -20 -11 -13
-13 -117 -58 -148 -64 -11 -3 -40 -9 -65 -14 -49 -9 -127 -36 -144 -50 -19
-14 -46 -21 -46 -11 0 6 7 10 15 10 8 0 15 7 15 15 0 8 5 15 10 15 6 0 10 9
10 20 0 11 5 20 11 20 19 0 38 33 39 64 0 16 -10 44 -21 63 l-22 35 22 28 c11
16 21 34 21 40 0 6 7 13 15 16 8 4 15 10 15 15 0 5 11 27 25 49 14 22 25 44
25 50 0 6 12 27 27 47 15 19 32 60 39 91 7 32 16 66 19 78 4 13 1 27 -9 37 -9
8 -16 20 -16 26 0 18 -44 41 -77 41 -18 0 -33 -4 -33 -9 0 -4 -20 -19 -45 -32
-25 -13 -45 -27 -45 -31 0 -5 -6 -8 -13 -8 -7 0 -20 -9 -30 -20 -9 -11 -21
-20 -26 -20 -11 0 -22 26 -17 43 16 55 42 133 47 137 3 3 8 12 11 20 3 9 18
22 34 30 16 8 31 17 34 20 18 18 180 100 197 100 8 0 20 6 27 13 8 6 24 19 36
27 53 36 65 51 50 60 -20 13 -23 12 -44 -3 -11 -8 -34 -11 -63 -7 -38 4 -47 9
-48 27 -1 14 3 19 12 16 16 -6 17 9 1 25 -9 9 -6 12 16 12 18 0 25 4 20 12 -4
6 -3 8 4 4 10 -6 74 13 114 35 49 26 66 -34 19 -66 -32 -21 -31 -40 1 -29 15
4 18 3 13 -6 -5 -8 -3 -11 6 -8 8 3 14 15 14 27 0 15 10 28 28 37 15 8 27 19
27 24 0 6 7 10 16 10 13 0 15 7 11 29 -6 27 -2 31 40 51 25 12 52 28 61 36 10
11 17 12 28 3 14 -11 38 -3 30 10 -3 4 10 8 29 9 41 2 46 -17 15 -48 -12 -12
-18 -25 -15 -30 3 -5 -3 -24 -13 -42 -10 -18 -22 -44 -25 -58 -9 -33 -75 -106
-93 -102 -19 4 -18 -23 2 -42 20 -20 48 -20 68 -1 8 8 20 15 26 15 6 0 15 10
20 23 6 12 14 29 19 37 6 8 12 27 15 42 4 15 12 33 20 40 7 8 17 34 21 59 4
24 12 47 18 51 7 4 6 16 -2 36 -10 24 -10 34 1 51 15 25 15 25 49 7 25 -13 28
-11 50 16 13 17 29 36 36 43 9 9 9 15 0 24 -9 9 -9 16 1 31 6 11 12 31 12 45
0 14 8 37 17 51 10 16 17 45 16 75 0 30 3 46 9 43 6 -4 8 2 3 15 -7 24 -6 25
28 12 23 -9 24 -8 25 34 0 26 -6 49 -13 55 -8 6 -12 17 -9 25 3 7 1 16 -5 20
-6 3 -11 20 -11 36 0 17 4 28 8 25 5 -3 7 23 5 57 -2 34 -4 75 -5 91 l-1 29
-14 -24 -14 -24 7 25 c4 14 6 31 6 38 -1 6 -3 19 -4 27 -1 8 -6 15 -11 15 -5
0 -7 7 -3 15 3 8 -1 21 -10 29 -8 8 -10 17 -5 20 5 4 8 14 6 24 -2 9 -4 23 -4
30 -1 6 -7 12 -15 12 -8 0 -24 21 -37 47 -12 27 -32 61 -43 76 -23 32 -79 63
-84 47 -2 -5 -10 -10 -18 -10 -8 0 -14 -9 -14 -20 0 -11 -4 -20 -10 -20 -5 0
-12 -11 -16 -24 -4 -16 -11 -23 -20 -19 -8 3 -14 -1 -14 -11 0 -9 -6 -19 -14
-22 -8 -3 -22 -21 -30 -39 -11 -23 -21 -32 -31 -28 -11 3 -13 1 -10 -10 5 -11
-6 -16 -50 -22 -51 -6 -56 -9 -62 -35 -5 -25 -8 -28 -29 -20 -19 7 -26 5 -38
-12 -13 -18 -19 -19 -43 -11 -15 6 -39 11 -53 12 -14 1 -36 3 -50 4 -19 2 -24
-2 -22 -16 3 -16 -1 -18 -27 -12 -20 4 -31 3 -31 -4 0 -6 -11 -11 -25 -11 -18
0 -23 -4 -19 -15 7 -16 -16 -21 -31 -6 -6 5 -21 12 -35 15 -21 6 -22 5 -7 -4
19 -12 23 -30 6 -30 -5 0 -7 5 -4 10 10 17 -7 11 -20 -7 -14 -19 -56 -28 -65
-14 -3 6 -12 0 -19 -12 -13 -20 -13 -21 2 -8 10 7 17 9 17 4 0 -15 -47 -33
-88 -33 -20 0 -50 -7 -66 -15 -40 -21 -71 -19 -102 9 -55 49 -63 55 -69 46 -3
-5 7 -32 22 -60 l28 -51 -38 -34 c-25 -22 -34 -35 -25 -38 7 -3 2 -6 -11 -6
-14 -1 -33 -8 -43 -18 -17 -15 -18 -15 -18 1 0 9 -4 14 -10 11 -12 -8 -13 -55
-1 -55 8 0 4 -23 -15 -103 -3 -15 -12 -26 -18 -24 -6 3 -22 -2 -36 -9 -41 -21
-77 -25 -225 -27 -95 -1 -170 4 -233 16 -50 9 -111 17 -135 17 -23 0 -55 7
-72 16 -75 39 -197 71 -350 90 -22 2 -46 7 -52 9 -7 2 -50 7 -95 11 -46 3
-114 12 -151 20 -38 8 -73 12 -77 9 -5 -3 -75 -6 -157 -7 -140 -2 -151 -1
-198 22 -45 23 -50 29 -62 75 -17 66 -16 73 4 77 10 2 18 12 18 23 0 13 8 21
23 23 12 2 22 8 22 13 0 5 9 9 20 9 11 0 20 4 20 9 0 15 70 23 85 11 16 -13
39 -4 30 11 -10 15 24 22 51 11 13 -7 24 -7 24 -3 0 5 33 8 73 6 77 -4 86 -6
131 -24 21 -8 32 -8 42 0 10 8 20 7 41 -3 29 -14 117 -16 168 -4 122 27 126
28 140 16 19 -16 82 4 113 36 13 14 26 22 30 20 4 -3 9 3 10 12 17 156 17 167
0 210 -10 24 -18 50 -18 58 0 7 -13 36 -30 62 -16 27 -30 57 -30 67 0 9 -7 30
-15 46 -8 16 -22 43 -31 60 -9 16 -13 37 -10 45 3 7 1 14 -3 14 -5 0 -12 19
-16 43 -4 23 -14 54 -21 69 -8 15 -14 40 -14 56 0 15 -4 32 -9 38 -21 22 -40
143 -38 247 1 59 5 107 8 107 4 0 2 15 -3 34 -9 29 -8 40 11 71 11 20 21 44
21 54 0 10 7 35 15 54 8 20 15 50 15 66 0 16 5 33 10 36 6 4 8 11 5 16 -4 5
-2 9 3 9 5 0 9 16 10 35 1 20 5 41 9 48 4 7 9 23 11 37 2 14 7 26 12 28 6 2
19 25 30 50 12 26 29 56 39 67 11 11 22 34 26 52 3 18 17 42 30 55 12 12 21
28 18 35 -3 7 2 13 11 13 9 0 16 3 16 8 0 4 14 22 30 41 24 26 36 32 55 27 18
-5 28 -1 37 14 7 11 22 20 34 20 11 0 30 10 42 22 11 13 34 35 49 50 38 37 42
43 88 132 22 42 61 103 86 134 25 32 49 67 53 80 4 12 12 22 17 22 5 0 9 6 9
14 0 8 7 22 16 31 16 15 31 99 39 215 2 25 5 47 6 50 1 3 1 9 0 14 -1 5 1 16
5 25 9 23 10 100 2 94 -5 -2 -8 0 -8 6 0 5 8 15 18 20 12 7 13 10 3 11 -11 0
-10 4 3 19 12 13 14 20 5 23 -10 3 -18 43 -22 121 -1 15 -6 27 -10 27 -5 0 -5
4 -2 10 3 5 -1 20 -9 32 -12 16 -13 25 -4 35 11 13 8 26 -24 87 -7 12 -6 16 1
11 15 -9 14 8 -1 24 -10 11 -10 13 0 7 6 -4 12 -2 12 3 0 6 -4 11 -10 11 -12
0 -130 90 -130 100 0 9 -66 40 -115 54 -47 14 -174 13 -184 -1 -3 -6 -34 -29
-68 -52 -35 -24 -63 -49 -63 -56 0 -7 -7 -15 -15 -19 -8 -3 -15 -12 -15 -19 0
-8 -7 -20 -15 -27 -8 -7 -12 -16 -9 -21 9 -15 -52 -69 -78 -69 -38 0 -45 12
-51 79 -6 67 5 103 37 130 8 7 18 26 21 42 4 16 10 29 15 29 5 0 45 36 91 80
45 44 91 80 101 80 12 0 16 -4 12 -12 -4 -7 -3 -8 5 -4 6 4 9 11 6 16 -7 11
11 16 70 19 27 2 53 5 57 7 13 8 9 54 -4 54 -9 0 -8 4 2 10 13 9 13 11 0 20
-12 8 -11 10 8 10 13 0 20 4 17 10 -3 6 -2 10 3 10 15 0 69 56 75 79 3 11 1
19 -3 16 -5 -3 -7 9 -5 27 13 102 13 119 -1 132 -19 19 -18 27 3 19 11 -4 14
-3 9 5 -4 7 -2 12 4 12 6 0 9 4 6 8 -8 13 -16 62 -21 117 -2 28 -7 61 -12 75
-5 14 -8 41 -7 60 1 19 -1 40 -5 45 -3 6 -6 33 -6 60 0 31 -9 68 -24 97 -12
27 -21 54 -18 60 6 17 -30 88 -44 88 -8 0 -8 4 0 14 12 15 0 62 -28 105 -9 14
-15 32 -13 41 1 9 -7 26 -18 38 -12 12 -19 26 -16 31 3 4 -4 32 -15 61 -11 29
-21 72 -23 95 -2 24 -7 48 -10 54 -10 15 -69 271 -70 301 0 14 -3 27 -7 30 -4
3 -9 25 -11 50 -1 25 -11 52 -20 62 -22 22 -23 37 -3 44 8 4 15 10 15 15 0 4
-7 6 -15 3 -9 -4 -15 0 -15 10 0 9 -5 16 -10 16 -7 0 -7 6 0 19 7 14 7 22 0
26 -6 4 -10 12 -9 18 2 7 -3 24 -11 39 -9 20 -10 31 -2 40 8 10 6 20 -8 38
-22 28 -25 51 -10 66 7 7 3 20 -12 40 -13 15 -24 38 -25 49 -1 11 -4 46 -6 78
-3 31 -9 63 -15 70 -5 6 -13 32 -18 57 -9 51 -9 47 1 79 5 17 4 21 -5 16 -8
-5 -11 -1 -8 11 2 11 10 18 17 16 7 -1 11 3 8 10 -2 7 -10 12 -17 10 -7 -2
-10 3 -8 10 3 7 1 24 -5 38 -16 39 -19 100 -5 100 9 0 9 3 0 12 -8 8 -12 49
-12 119 0 64 -4 109 -10 111 -6 2 -11 21 -12 43 0 22 -5 48 -9 57 -6 10 -5 19
1 23 9 5 8 11 -6 53 -3 9 -5 67 -5 127 1 61 -5 142 -13 182 -7 40 -11 74 -9
77 3 3 -1 28 -8 55 -9 37 -10 54 -2 62 8 8 6 22 -5 51 -16 41 -12 51 23 58 6
1 19 9 30 16 33 23 44 16 71 -42z m2220 -7451 c1 -25 8 -50 14 -58 18 -21 30
-75 23 -106 -6 -29 -23 -41 -23 -16 0 20 -41 64 -67 72 -13 3 -23 11 -23 16 0
6 -9 8 -19 4 -13 -4 -23 0 -29 12 -11 22 -5 43 13 43 7 0 18 13 23 29 9 26 15
29 46 26 33 -3 34 -2 25 22 -12 33 -11 42 3 19 6 -11 12 -39 14 -63z m-906
-1277 c0 -8 -5 -18 -10 -21 -15 -9 -50 -85 -50 -108 0 -19 -51 -178 -75 -232
-7 -16 -19 -50 -25 -75 -7 -25 -16 -49 -20 -55 -4 -5 -11 -29 -15 -53 -6 -37
-4 -47 16 -68 12 -13 28 -24 36 -24 20 0 55 40 49 56 -3 8 -2 14 3 14 5 0 12
11 15 24 3 14 15 28 27 31 11 4 18 9 15 13 -3 3 3 11 14 19 11 8 20 20 20 26
0 15 55 67 122 114 26 19 48 39 48 44 0 5 9 9 19 9 11 0 26 7 34 15 32 31 23
-12 -19 -100 -24 -49 -44 -92 -44 -95 -2 -13 -61 -110 -72 -117 -7 -4 -22 -25
-33 -46 -11 -20 -55 -78 -97 -128 -93 -109 -98 -117 -93 -158 3 -27 -3 -38
-39 -74 -87 -86 -107 -98 -156 -93 -48 5 -167 31 -290 65 -72 20 -78 23 -167
113 -50 51 -115 116 -143 143 -29 28 -65 68 -81 89 -28 37 -29 43 -22 105 4
40 16 83 30 108 12 23 23 51 23 63 0 11 6 27 13 34 10 11 15 8 29 -21 12 -24
14 -41 8 -52 -9 -18 7 -62 25 -68 11 -3 41 64 37 84 -2 6 2 14 8 18 5 3 10 17
10 29 0 13 10 31 23 40 12 9 15 14 7 10 -8 -4 -13 -5 -10 -1 3 3 7 5 10 4 6
-2 93 58 112 76 7 8 24 16 38 20 14 3 34 14 45 24 11 10 32 24 48 32 15 8 27
18 27 22 0 10 70 53 76 46 7 -6 2 -10 -106 -92 -21 -16 -42 -38 -45 -47 -4
-10 -12 -18 -20 -18 -7 0 -15 -9 -18 -20 -3 -11 -9 -20 -14 -19 -22 4 -32 -4
-59 -46 -15 -25 -33 -45 -40 -45 -7 0 -23 -17 -35 -37 -13 -21 -27 -40 -32
-42 -9 -3 -28 -45 -33 -73 -5 -22 9 -23 26 -3 7 8 16 12 21 9 5 -3 9 2 9 10 0
9 5 16 11 16 7 0 33 21 59 48 102 100 206 191 233 201 5 2 29 23 52 47 23 24
46 44 52 44 6 0 13 7 17 15 3 8 15 15 26 15 11 0 20 4 20 9 0 5 20 18 45 30
25 12 45 25 45 30 0 5 16 12 35 15 19 4 35 12 35 18 0 6 3 8 7 5 3 -4 11 0 18
9 7 10 29 16 63 17 29 1 52 5 52 10 0 4 11 7 25 7 15 0 25 -6 25 -14z"/>
<path d="M16285 9565 c-16 -7 -33 -23 -36 -36 -11 -39 -10 -99 3 -122 6 -12
16 -46 22 -75 l11 -54 70 -1 c62 -2 70 0 80 19 6 12 16 29 23 37 12 15 9 88
-6 126 -16 40 -78 97 -122 113 -8 3 -28 -1 -45 -7z"/>
<path d="M3785 7372 c-36 -12 -50 -27 -70 -72 -11 -25 -25 -51 -32 -58 -7 -8
-11 -18 -7 -23 3 -6 0 -16 -6 -24 -22 -26 -29 -88 -19 -160 5 -38 14 -72 19
-73 6 -2 8 -7 5 -11 -2 -5 17 -31 43 -58 l48 -50 -33 -29 c-17 -16 -32 -35
-33 -41 0 -7 -7 -13 -16 -13 -9 0 -14 -6 -11 -12 6 -18 71 -11 126 13 56 25
66 24 132 -6 129 -61 152 -82 111 -104 -15 -8 -26 -5 -53 15 -79 58 -196 87
-238 57 -15 -10 -20 -21 -16 -32 4 -9 9 -43 11 -76 7 -93 9 -98 67 -131 74
-42 137 -57 188 -44 36 10 42 8 73 -15 61 -46 108 -121 111 -175 1 -14 4 -47
6 -73 l3 -49 -54 -39 c-30 -22 -66 -45 -80 -51 -14 -7 -27 -15 -30 -18 -3 -3
-18 -14 -34 -24 -53 -34 -165 -5 -164 42 0 14 -15 226 -26 367 -2 33 -9 44
-37 63 -19 13 -43 22 -56 19 -18 -3 -25 2 -33 28 -12 37 -113 117 -170 136
-19 7 -37 15 -40 20 -3 4 -38 11 -78 14 -69 5 -73 4 -97 -21 -14 -15 -25 -33
-25 -40 0 -8 -4 -14 -8 -14 -11 0 -45 -97 -38 -109 3 -5 0 -21 -8 -36 -49 -95
54 -229 187 -245 31 -3 60 -7 62 -8 10 -4 111 53 170 95 65 47 80 52 82 26 0
-10 4 -65 7 -123 11 -173 14 -188 49 -225 18 -18 43 -36 57 -40 13 -4 30 -14
38 -21 22 -23 111 -17 183 12 35 14 66 30 69 34 3 4 19 15 35 24 51 29 95 63
88 70 -4 3 6 6 20 6 18 0 27 6 29 18 3 42 -4 117 -14 135 -7 15 -7 22 3 28 12
7 11 11 -1 19 -12 8 -11 10 8 10 42 0 126 -158 158 -297 11 -46 22 -83 27 -83
4 0 7 -21 7 -47 0 -27 5 -65 10 -85 8 -29 7 -51 -5 -95 -9 -32 -18 -66 -20
-76 -2 -9 -7 -23 -12 -30 -4 -6 -6 -20 -4 -31 1 -10 -1 -22 -6 -25 -11 -8 -43
-70 -43 -84 0 -10 -30 -80 -51 -119 -5 -10 -9 -29 -9 -43 0 -14 -5 -25 -11
-25 -7 0 -9 -10 -7 -25 3 -14 2 -25 -1 -25 -10 0 -61 -86 -61 -102 0 -9 -9
-27 -21 -42 -11 -14 -17 -31 -14 -36 4 -6 -4 -21 -18 -33 -24 -22 -54 -74 -97
-172 -21 -48 -37 -151 -34 -225 1 -19 2 -66 3 -105 1 -38 6 -104 11 -145 5
-41 12 -102 15 -134 3 -32 8 -62 10 -66 3 -5 9 -34 14 -67 13 -82 48 -214 61
-227 5 -5 10 -18 10 -28 0 -10 4 -26 9 -36 5 -9 15 -30 22 -47 8 -16 18 -33
24 -37 5 -4 7 -8 3 -8 -4 0 1 -16 12 -36 11 -19 18 -39 15 -45 -4 -5 -1 -9 4
-9 6 0 11 -7 11 -15 0 -8 4 -15 10 -15 5 0 7 -6 4 -14 -3 -7 1 -16 9 -19 12
-5 31 -59 24 -71 -7 -13 49 -54 79 -59 61 -10 75 9 38 53 -6 8 -18 35 -25 60
-7 25 -16 49 -21 55 -4 5 -8 17 -8 27 0 10 -4 18 -10 18 -5 0 -23 30 -41 68
-17 37 -43 92 -58 122 -14 30 -26 60 -26 65 0 6 -3 15 -7 20 -3 6 -9 33 -13
60 -7 59 -34 137 -49 147 -8 5 -8 12 0 25 8 13 6 42 -6 113 -17 102 -26 233
-24 370 2 100 15 139 106 315 133 259 178 351 178 366 0 8 4 19 8 25 4 5 16
34 26 64 11 30 22 60 26 65 10 13 64 176 80 242 11 43 11 60 0 95 -7 24 -14
64 -15 91 -2 26 -7 53 -12 60 -5 6 -10 21 -10 32 -1 11 -12 43 -24 70 -12 28
-23 56 -25 64 -8 43 -15 59 -34 81 -11 13 -20 29 -20 37 0 7 -4 13 -10 13 -5
0 -10 8 -10 18 0 10 -13 31 -30 45 -16 15 -30 32 -30 38 0 6 -22 34 -50 62
-27 28 -50 54 -50 57 0 4 19 10 43 13 92 13 140 28 169 52 16 14 33 25 38 25
5 0 11 9 15 20 3 11 10 19 14 17 13 -4 61 60 61 81 0 12 9 23 20 27 33 10 53
49 45 86 -8 35 -85 119 -110 119 -9 0 -14 4 -11 9 3 4 -21 16 -54 26 -93 28
-199 17 -292 -30 -79 -39 -125 -89 -115 -125 6 -24 -7 -25 -47 -5 -15 8 -33
15 -39 15 -6 0 -18 7 -27 15 -9 8 -33 21 -54 28 l-37 13 53 44 c56 47 138 127
176 173 31 38 26 108 -9 137 -3 3 -23 19 -44 35 -22 17 -55 45 -76 63 -39 34
-162 103 -182 101 -7 -1 -21 -4 -32 -7z m128 -109 c92 -64 137 -105 137 -124
0 -38 -172 -229 -206 -229 -9 0 -23 -8 -31 -17 -11 -13 -16 -15 -20 -5 -2 7
-12 20 -21 29 -23 23 -42 120 -31 158 5 16 9 42 9 58 0 49 72 167 102 167 5 0
32 -16 61 -37z m625 -441 c2 -7 10 -12 18 -12 8 0 14 -7 14 -16 0 -8 4 -13 9
-10 5 3 12 -2 15 -11 6 -16 -19 -52 -56 -80 -9 -7 -26 -29 -38 -48 -24 -39
-102 -99 -140 -108 -14 -3 -43 -11 -65 -17 -60 -18 -80 -15 -128 17 l-43 28
15 53 c8 28 21 52 28 52 16 0 16 5 3 31 -19 35 55 87 154 109 27 6 56 15 65
21 22 13 144 6 149 -9z m-643 -182 c27 0 96 -51 90 -67 -2 -6 1 -14 8 -16 8
-3 3 -13 -13 -28 -21 -20 -33 -23 -65 -19 -61 9 -65 14 -65 88 0 51 3 63 12
54 7 -7 22 -12 33 -12z m-377 -47 c40 -19 61 -37 80 -69 15 -24 31 -44 36 -44
5 0 14 -7 21 -17 10 -14 3 -23 -49 -64 -34 -27 -78 -58 -98 -69 -20 -11 -39
-24 -43 -30 -9 -14 -97 -12 -116 3 -23 17 -48 70 -47 98 1 29 23 110 46 162
17 41 62 69 97 60 11 -2 44 -16 73 -30z"/>
<path d="M13980 6623 c-13 -3 -31 -14 -38 -24 -10 -15 -17 -17 -32 -9 -20 11
-35 -10 -31 -42 3 -26 -45 -24 -59 2 -6 11 -15 20 -20 20 -6 0 -5 -9 2 -20 19
-29 -3 -45 -65 -46 -29 -1 -63 -5 -76 -9 -18 -6 -22 -5 -16 5 5 8 3 11 -6 8
-8 -3 -13 -11 -11 -18 2 -7 -3 -10 -12 -7 -9 4 -17 -1 -19 -11 -4 -16 -5 -15
-6 1 0 9 -6 17 -12 17 -6 0 -8 -7 -5 -16 6 -15 0 -16 -43 -11 -28 3 -51 2 -53
-4 -4 -11 -128 -19 -128 -8 0 4 5 9 12 11 6 2 -4 14 -23 26 -19 12 -28 22 -21
22 10 0 10 5 2 20 -6 11 -18 20 -28 20 -15 -1 -15 -2 -1 -10 11 -7 15 -21 13
-46 -3 -42 -12 -54 -24 -34 -8 12 -13 13 -30 3 -11 -7 -31 -13 -45 -13 -14 0
-25 -4 -25 -9 0 -9 -8 -10 -69 -11 -12 0 -28 -3 -35 -7 -24 -15 -46 -13 -46 5
0 18 -18 42 -31 42 -4 0 -10 -8 -12 -17 -4 -17 -5 -17 -6 0 -1 24 -21 11 -21
-14 0 -11 4 -18 9 -15 5 4 19 2 32 -2 l23 -9 -26 -6 c-15 -4 -38 -3 -51 2 -14
6 -28 7 -31 3 -4 -3 -26 -5 -49 -4 -32 1 -37 -1 -22 -8 20 -8 20 -9 -1 -9 -11
-1 -29 -8 -40 -16 -10 -8 -35 -15 -54 -15 -26 0 -46 -9 -74 -35 -22 -19 -43
-35 -47 -35 -5 0 -20 -11 -34 -26 -14 -14 -30 -22 -36 -19 -6 4 -9 0 -7 -11 2
-11 -2 -18 -9 -17 -7 2 -13 -2 -13 -8 0 -5 -4 -8 -8 -5 -4 2 -17 -9 -27 -25
-11 -16 -28 -29 -37 -29 -10 0 -18 -5 -18 -11 0 -5 -4 -8 -9 -5 -4 3 -17 -4
-27 -15 -11 -12 -29 -25 -42 -30 -13 -5 -20 -14 -17 -19 3 -6 -1 -13 -9 -16
-9 -3 -16 -13 -16 -21 0 -7 -12 -26 -27 -40 -16 -14 -27 -30 -25 -35 1 -5 -2
-7 -7 -3 -6 3 -22 -13 -37 -37 -15 -23 -34 -49 -41 -57 -8 -8 -13 -22 -10 -31
6 -22 -18 -54 -34 -44 -8 5 -9 3 -3 -7 5 -8 9 -51 9 -95 0 -64 4 -86 18 -101
9 -11 17 -24 17 -29 0 -5 14 -24 30 -42 17 -18 30 -37 30 -43 0 -8 23 -14 44
-10 4 1 18 -10 30 -24 12 -14 27 -25 33 -25 22 0 83 35 83 47 0 7 11 15 25 19
14 3 22 10 19 15 -3 5 0 9 6 9 14 0 32 14 81 63 21 20 41 37 45 37 18 0 164
133 164 150 0 5 9 10 20 10 11 0 19 3 18 8 -3 11 26 52 38 52 13 0 54 46 54
62 0 6 3 8 7 4 4 -4 9 -53 10 -109 2 -56 9 -117 15 -136 9 -28 8 -35 -6 -43
-9 -5 -16 -21 -16 -36 0 -15 -6 -39 -14 -53 -12 -24 -12 -29 2 -43 13 -12 13
-18 4 -28 -7 -7 -12 -20 -12 -31 0 -10 -5 -15 -10 -12 -7 4 -9 -13 -6 -48 3
-45 0 -56 -16 -66 -16 -10 -17 -15 -8 -27 10 -11 9 -14 -2 -14 -8 0 -27 -22
-41 -50 -22 -42 -23 -50 -10 -50 12 0 9 -6 -11 -25 -14 -13 -26 -31 -26 -40 0
-8 -7 -15 -15 -15 -9 0 -12 -6 -9 -15 4 -9 0 -15 -8 -15 -8 0 -19 -15 -26 -33
-7 -18 -20 -42 -30 -53 -18 -19 -37 -70 -33 -87 3 -14 -32 -3 -37 12 -3 8 0
11 6 7 6 -3 14 -1 17 5 14 22 -4 19 -34 -7 -18 -14 -29 -29 -27 -32 3 -3 -3
-21 -13 -41 -28 -53 -51 -108 -51 -120 0 -6 -4 -11 -9 -11 -5 0 -15 -17 -22
-37 -6 -21 -22 -60 -35 -88 -25 -55 -80 -207 -97 -270 -7 -22 -14 -42 -18 -45
-11 -9 -21 -102 -20 -193 1 -48 -3 -97 -9 -107 -6 -12 -6 -21 -1 -25 12 -7 12
-82 -1 -115 -13 -33 -18 -131 -7 -124 5 3 9 -16 9 -43 1 -26 7 -59 15 -73 8
-14 14 -35 15 -47 0 -12 3 -23 8 -25 19 -8 51 -69 53 -103 4 -37 3 -38 -43
-52 -50 -17 -72 -48 -94 -138 -4 -16 -9 -37 -11 -45 -19 -79 -8 -185 22 -196
7 -3 19 -25 26 -49 7 -24 16 -42 19 -40 4 2 18 -15 33 -38 15 -22 27 -36 27
-30 0 6 11 2 25 -10 22 -20 23 -23 8 -35 -10 -7 -21 -11 -26 -9 -5 1 -27 -15
-50 -36 l-42 -39 0 -91 c1 -112 21 -176 72 -232 l37 -39 98 -1 c54 0 98 -3 98
-6 0 -4 16 -3 35 1 20 4 44 6 55 3 14 -4 27 2 40 17 11 13 20 18 20 13 0 -6
11 -10 25 -10 15 0 25 5 25 14 0 9 6 13 14 10 8 -3 17 1 20 9 3 9 10 13 16 9
8 -5 48 11 60 26 3 3 12 8 21 11 13 5 16 16 12 50 l-5 44 58 13 c33 7 80 17
107 23 52 11 62 32 28 62 -11 10 -25 31 -31 47 -17 40 -30 36 -30 -10 l0 -38
-57 -6 c-32 -4 -82 -15 -112 -26 -72 -27 -239 -31 -276 -7 -14 9 -25 23 -25
30 0 8 -4 16 -9 18 -5 2 -13 15 -16 31 -6 23 -4 27 11 24 11 -1 25 -6 32 -10
6 -5 12 -5 12 0 0 4 12 15 28 23 21 13 34 14 62 5 19 -5 40 -13 47 -18 6 -4
15 -2 18 4 4 6 31 9 64 8 49 -3 56 -1 58 17 5 39 -20 55 -94 58 -130 6 -120 4
-97 21 17 13 16 13 -14 2 -27 -10 -34 -9 -42 3 -14 21 -12 30 4 30 10 0 6 9
-12 28 -15 15 -28 24 -30 20 -2 -4 -10 -4 -18 -1 -7 3 -11 10 -7 16 3 6 1 7
-5 3 -13 -8 -67 27 -97 63 -28 35 -38 83 -20 97 8 6 12 14 8 17 -3 4 -2 7 4 7
6 0 13 -7 17 -15 3 -8 10 -15 16 -15 6 0 8 5 4 11 -7 13 37 2 46 -11 3 -4 19
-8 35 -8 46 0 124 -11 143 -20 9 -5 33 -8 52 -8 28 1 35 5 35 21 0 11 -8 30
-19 42 -11 13 -16 30 -13 43 3 12 0 20 -8 20 -17 0 -28 42 -13 51 6 4 20 6 30
4 10 -2 18 0 18 6 0 5 -5 9 -11 9 -6 0 -9 7 -5 15 8 23 -4 45 -26 45 -10 0
-30 11 -43 24 -13 13 -26 22 -29 19 -2 -3 -14 2 -26 10 -12 8 -17 18 -12 21 6
3 12 0 15 -6 2 -7 8 -10 12 -5 10 8 2 18 -17 21 -26 4 -58 27 -58 41 0 8 -8
20 -18 27 -26 19 -44 66 -46 121 -1 15 -4 27 -7 27 -4 0 -12 14 -19 31 -11 25
-11 32 0 39 9 5 10 17 5 36 -8 32 -8 173 1 217 5 24 10 28 30 23 21 -6 25 -2
30 24 4 16 10 30 13 30 4 0 5 15 4 33 -2 17 3 57 13 87 9 30 17 71 18 90 4 56
5 62 15 55 6 -3 8 9 6 27 -3 18 0 35 5 38 5 3 10 29 12 57 2 28 6 49 11 46 4
-2 7 12 7 31 0 22 7 43 19 55 11 11 17 22 13 25 -3 3 0 6 7 6 7 0 9 5 6 10 -3
6 1 17 9 26 9 8 16 22 16 31 0 11 6 14 23 10 20 -6 20 -5 4 7 -15 12 -16 15
-2 26 13 11 13 15 3 21 -9 6 -6 9 10 9 15 0 21 -4 16 -12 -4 -7 -3 -8 5 -4 9
6 9 11 1 21 -16 19 -3 37 21 30 17 -6 18 -4 9 20 -15 38 -12 47 10 40 14 -5
20 -2 20 10 0 12 -6 15 -22 10 -16 -4 -19 -4 -9 3 7 5 10 15 6 22 -4 6 0 19 7
28 8 9 21 38 28 65 7 26 17 47 22 47 5 0 8 8 6 17 -2 10 2 18 9 18 19 0 28 16
14 24 -15 10 -5 81 13 81 8 0 7 3 -1 8 -13 8 -7 52 8 52 4 0 6 9 4 20 -2 11 0
20 6 20 5 0 9 -7 9 -15 0 -8 5 -15 11 -15 7 0 5 10 -5 25 -21 32 -20 35 5 32
12 -1 23 4 25 11 1 7 0 8 -3 2 -12 -25 -23 -7 -17 30 4 27 3 40 -5 40 -6 0
-11 5 -11 10 0 7 7 7 21 -1 18 -9 20 -9 11 7 -7 12 -5 27 4 50 16 39 17 47 5
40 -5 -4 -7 3 -4 14 3 11 12 19 20 18 18 -4 53 53 37 59 -15 5 -5 43 11 43 17
0 30 71 15 80 -8 5 -4 9 9 13 29 7 26 25 -4 33 -14 3 -25 11 -25 16 0 6 8 8
18 6 10 -3 23 1 30 8 9 10 3 14 -31 16 -42 4 -37 11 16 22 25 6 27 10 27 55 0
45 -2 50 -29 59 -16 6 -33 7 -37 4 -12 -12 4 81 20 113 8 17 17 41 19 55 7 39
35 100 45 100 6 0 13 11 16 25 4 14 11 25 17 25 14 0 108 102 109 117 0 9 9 8
35 -4 39 -19 46 -16 47 18 1 13 9 33 19 44 10 11 17 22 16 25 0 3 4 13 9 23
15 27 92 35 199 23 33 -4 70 -8 82 -9 23 -1 23 -1 3 -22 -12 -13 -20 -35 -20
-58 0 -20 -6 -48 -12 -63 -10 -22 -10 -28 0 -32 6 -2 12 -14 12 -27 0 -13 4
-26 9 -30 6 -3 -1 -30 -15 -61 -13 -30 -21 -60 -18 -66 4 -6 2 -8 -3 -5 -6 4
-13 -5 -16 -21 -3 -15 -15 -53 -26 -86 -11 -32 -18 -62 -15 -68 3 -5 0 -16 -8
-25 -7 -9 -18 -34 -24 -57 -6 -23 -19 -68 -28 -101 -10 -33 -19 -71 -20 -85
-2 -14 -7 -40 -11 -57 -4 -19 -4 -33 2 -33 5 0 9 -15 9 -33 0 -76 26 -147 72
-195 24 -26 48 -56 53 -67 29 -61 62 -95 107 -109 12 -4 22 -12 22 -17 0 -5 7
-9 15 -9 18 0 18 -1 0 -36 -8 -16 -15 -36 -14 -44 0 -8 7 2 15 22 17 39 38 50
66 34 12 -7 22 -6 36 7 10 9 25 17 33 17 12 0 12 -2 -1 -10 -8 -5 -11 -12 -7
-16 4 -4 2 -13 -4 -20 -6 -8 -9 -20 -5 -29 3 -8 0 -14 -7 -12 -7 1 -12 -8 -11
-20 0 -12 -4 -19 -9 -16 -6 4 -8 -3 -5 -15 4 -12 3 -22 -1 -22 -4 0 -7 -9 -8
-21 -1 -11 -9 -41 -17 -67 -14 -45 -28 -302 -16 -302 3 0 4 -18 2 -40 -3 -25
0 -40 7 -40 6 0 11 -9 11 -20 0 -13 10 -24 25 -30 14 -5 35 -19 47 -30 24 -22
38 -26 38 -10 0 5 7 7 15 4 8 -3 22 1 31 11 9 9 19 13 23 9 3 -4 1 -8 -5 -11
-5 -2 -9 -18 -8 -35 2 -35 -33 -114 -63 -139 -10 -8 -38 -39 -63 -68 -80 -94
-94 -107 -151 -134 -31 -15 -61 -27 -68 -27 -6 0 -25 -10 -42 -22 -19 -15 -41
-22 -60 -20 -32 4 -78 -25 -135 -85 -17 -18 -36 -33 -42 -33 -12 0 -82 -142
-82 -165 0 -8 -5 -15 -11 -15 -8 0 -8 -4 -1 -13 12 -14 -9 -128 -34 -184 -8
-17 -14 -38 -14 -47 0 -9 -4 -16 -9 -16 -6 0 -10 -8 -10 -17 0 -10 -2 -29 -4
-43 -15 -85 -20 -98 -32 -94 -10 4 -12 -1 -8 -15 3 -12 -4 -36 -16 -56 -11
-20 -21 -43 -21 -51 0 -10 -5 -12 -12 -8 -10 6 -10 5 -1 -7 7 -8 10 -26 7 -40
-5 -19 -3 -21 5 -9 8 12 11 5 11 -30 1 -76 25 -213 38 -218 7 -2 12 -10 12
-18 0 -19 46 -93 74 -119 33 -32 99 -80 126 -93 14 -6 34 -17 45 -24 11 -7 37
-23 57 -35 20 -13 43 -20 51 -17 8 3 20 -2 27 -11 7 -8 22 -15 33 -15 28 0 87
-22 87 -33 0 -4 5 -5 10 -2 6 3 43 -9 83 -29 39 -19 91 -40 115 -46 23 -6 42
-15 42 -21 0 -6 5 -7 10 -4 6 3 10 3 10 -2 0 -7 20 -10 113 -14 61 -3 117 4
128 18 6 7 21 13 33 13 11 0 28 4 36 10 9 6 17 5 22 -3 5 -9 10 -8 20 2 11 12
10 12 -2 6 -13 -8 -13 -7 -1 8 7 9 21 17 31 17 32 0 56 74 38 119 -8 22 -82
118 -102 132 -5 4 -6 12 -2 18 4 6 1 9 -7 5 -8 -3 -21 1 -28 8 -14 15 -44 29
-68 34 -39 8 -72 28 -67 41 3 8 1 11 -4 8 -6 -3 -10 1 -10 11 0 13 -3 14 -14
5 -21 -17 -31 5 -12 25 9 8 16 24 16 34 0 10 7 46 16 79 11 45 12 66 4 81 -18
34 -32 23 -30 -27 2 -66 1 -73 -11 -73 -5 0 -7 4 -4 10 3 6 -1 7 -9 4 -9 -3
-16 -12 -16 -19 0 -13 -21 -25 -45 -25 -18 0 -31 68 -17 82 6 6 8 16 6 23 -3
6 2 18 11 25 8 7 15 28 15 50 0 21 7 43 15 50 8 7 15 24 15 37 0 16 7 27 18
30 13 3 18 13 17 34 -1 22 3 29 17 29 10 0 17 3 15 8 -1 4 4 14 11 22 35 41
62 94 62 120 0 17 5 30 11 30 6 0 9 9 6 20 -3 13 0 20 9 20 8 0 14 6 13 13 -2
6 1 39 5 73 6 46 4 70 -8 99 -9 20 -16 48 -16 61 0 12 -4 26 -10 29 -5 3 -10
15 -10 26 0 11 -3 18 -7 16 -5 -3 -8 11 -8 30 0 33 -3 37 -40 48 -22 7 -36 13
-31 14 5 1 -10 21 -33 46 -22 24 -41 49 -41 55 0 5 -6 10 -13 10 -7 0 -23 9
-35 21 -25 22 -24 24 39 71 20 15 40 24 44 20 5 -4 5 -2 2 4 -6 11 33 50 46
46 5 -1 6 2 2 7 -7 12 25 51 42 51 7 0 12 4 11 9 -2 5 18 30 45 55 26 25 47
49 47 53 0 17 85 98 99 95 13 -3 13 -1 4 9 -9 9 -9 18 2 39 8 15 11 30 8 34
-6 5 10 10 28 8 3 -1 4 10 1 23 -2 13 1 46 8 73 10 45 9 53 -13 93 -37 65
-119 89 -169 49 -42 -32 -80 -43 -140 -41 -31 2 -65 -2 -75 -8 -15 -7 -27 -5
-51 9 -18 11 -32 25 -32 32 0 7 9 56 19 108 11 52 17 99 14 104 -4 5 1 7 11 3
10 -4 15 -3 11 3 -10 16 5 50 21 50 8 0 14 7 14 15 0 8 9 31 19 51 11 20 17
42 14 50 -3 8 -1 14 5 14 15 0 35 56 27 79 -3 12 -11 19 -16 16 -5 -4 -9 -2
-9 4 0 5 12 12 28 15 19 5 34 19 50 49 12 23 22 48 22 55 0 6 8 12 18 12 18 0
52 56 52 86 0 8 6 17 14 20 8 3 12 12 9 20 -3 8 1 14 11 14 12 0 15 7 12 25
-3 14 -1 25 4 25 7 0 20 34 26 70 2 8 6 26 10 39 5 17 4 22 -5 17 -6 -4 -9
-11 -7 -14 2 -4 -5 -19 -16 -32 -16 -20 -19 -21 -13 -5 7 19 27 159 29 202 1
11 4 19 7 17 6 -3 19 44 23 78 1 3 4 9 8 13 4 4 4 14 1 23 -5 11 -3 13 7 7 10
-6 11 -2 6 18 -3 15 -1 29 5 33 6 4 8 20 5 39 -4 22 -2 35 5 37 17 6 22 50 7
60 -10 6 -10 8 0 8 14 0 16 36 2 45 -5 3 -10 26 -10 50 0 24 -5 45 -10 47 -6
2 -12 19 -14 38 -6 62 -48 152 -83 180 -13 10 -23 21 -23 25 0 3 -16 21 -36
40 -32 31 -66 44 -156 62 -29 6 -37 18 -15 26 9 3 9 9 1 23 -12 21 -25 24 -64
17z m37 -183 c17 -18 22 -33 18 -55 -3 -20 -2 -25 4 -16 12 18 22 10 42 -31
31 -64 39 -83 42 -108 2 -14 7 -32 10 -40 3 -8 8 -36 12 -62 6 -45 5 -46 -17
-41 -17 3 -19 2 -9 -5 10 -7 11 -14 2 -31 -7 -12 -8 -21 -2 -21 6 0 6 -12 0
-32 -6 -18 -12 -51 -15 -73 -3 -22 -9 -54 -15 -72 -5 -17 -12 -57 -14 -90 -2
-32 -7 -83 -10 -113 -3 -30 -7 -82 -10 -115 -2 -33 -8 -72 -14 -86 -5 -15 -8
-29 -5 -32 2 -2 -2 -10 -11 -17 -8 -7 -15 -22 -15 -34 0 -11 -12 -39 -25 -61
-14 -22 -25 -48 -25 -57 0 -9 -10 -28 -22 -42 -13 -14 -40 -45 -61 -70 l-37
-44 -38 16 c-27 11 -44 28 -57 55 -10 21 -27 43 -37 48 -23 12 -61 86 -54 105
3 7 0 16 -5 20 -6 3 -8 17 -4 33 4 14 9 68 11 119 3 68 1 92 -9 92 -8 0 -8 3
-1 8 16 11 24 41 14 47 -16 10 -11 28 5 21 15 -5 19 4 16 36 -1 9 7 19 19 23
16 5 18 10 10 25 -8 16 -8 18 5 14 10 -4 15 0 15 11 0 9 6 23 14 31 8 7 12 22
9 32 -6 25 33 37 46 14 8 -13 12 -14 25 -3 9 7 16 20 16 27 0 8 4 14 8 14 5 0
9 6 10 13 1 15 10 52 12 52 2 0 30 117 31 130 1 6 -2 31 -6 58 -5 30 -4 47 3
47 16 0 22 28 12 56 -12 30 -18 170 -8 179 4 4 4 14 0 23 -5 15 -4 15 11 3 15
-12 17 -11 18 5 1 11 1 24 0 31 -2 19 60 -8 86 -37z m-917 -110 c0 -5 -7 -10
-15 -10 -8 0 -15 -4 -15 -10 0 -5 4 -10 10 -10 21 0 5 -48 -22 -63 -24 -14
-30 -14 -42 -2 -12 12 -15 12 -19 -5 -3 -13 0 -20 9 -20 8 0 14 -4 14 -10 0
-5 -4 -10 -10 -10 -5 0 -10 -9 -10 -21 0 -33 -18 -59 -37 -52 -14 6 -14 8 3
20 17 12 16 13 -7 13 -22 0 -24 -4 -26 -47 -1 -35 -7 -52 -23 -65 -22 -18 -46
-15 -34 4 4 6 1 9 -7 6 -8 -3 -15 -14 -17 -26 -2 -12 -10 -22 -18 -22 -9 0
-12 -5 -8 -11 9 -16 -16 -57 -35 -58 -34 -1 -81 -14 -81 -22 0 -5 5 -9 11 -9
13 0 33 -21 37 -38 1 -6 -3 -12 -9 -12 -5 0 -7 -5 -3 -12 5 -8 0 -9 -14 -6
-17 5 -22 2 -22 -14 0 -16 -3 -18 -14 -9 -16 14 -46 4 -46 -14 0 -9 9 -12 25
-9 14 2 25 0 25 -6 0 -6 -4 -9 -9 -5 -5 3 -12 1 -16 -5 -3 -5 2 -10 12 -10 12
0 8 -6 -15 -20 -18 -11 -38 -21 -45 -23 -6 -1 -18 -8 -26 -15 -11 -11 -11 -16
-2 -21 8 -5 -4 -14 -31 -24 -31 -12 -51 -29 -71 -62 -16 -25 -32 -43 -36 -41
-4 3 -20 -2 -35 -10 -16 -7 -34 -14 -41 -14 -7 0 -12 -8 -11 -17 2 -10 -3 -23
-10 -30 -14 -14 -47 -7 -38 8 3 5 2 8 -3 7 -19 -5 -52 14 -46 28 3 8 -1 14
-11 14 -23 0 -48 45 -53 93 -4 40 12 121 28 143 5 6 7 13 4 16 -3 3 1 11 10
18 8 7 15 18 15 26 0 7 10 24 23 38 12 13 29 35 37 47 16 24 147 159 155 159
12 0 97 64 122 93 27 29 46 42 108 74 11 5 30 15 41 21 22 11 202 44 242 44
12 0 22 4 22 9 0 4 15 10 33 12 17 2 35 5 40 5 4 1 7 -2 7 -8z m851 -2533 c65
-29 114 -88 180 -218 17 -33 17 -40 3 -95 -16 -59 -38 -107 -61 -132 -7 -7
-13 -22 -13 -33 0 -11 -7 -22 -15 -25 -8 -3 -20 -25 -27 -48 -7 -22 -14 -43
-18 -46 -3 -3 -34 -63 -69 -135 -35 -71 -71 -138 -79 -147 -13 -16 -11 -23 20
-75 51 -88 70 -133 65 -155 -4 -13 1 -22 18 -30 57 -26 95 -212 52 -256 -14
-13 -22 -14 -55 -4 -22 7 -49 12 -61 12 -11 0 -21 4 -21 9 0 6 -21 21 -47 34
-27 13 -64 34 -83 46 -19 12 -47 27 -62 33 -16 7 -28 15 -28 19 0 4 -15 10
-32 13 -18 4 -58 21 -88 39 -57 35 -54 30 -74 136 l-6 35 23 -22 c28 -27 39
-19 25 17 -13 34 -15 211 -3 231 5 8 8 23 7 33 -2 10 1 24 7 30 8 11 43 192
57 301 2 21 13 51 24 66 11 16 20 38 20 50 0 12 14 35 30 52 19 18 30 40 30
57 0 15 9 36 20 46 11 10 20 24 20 31 0 7 9 19 20 27 17 12 26 34 29 70 1 5 5
6 11 2 5 -3 17 2 27 12 22 22 71 40 98 37 11 -1 36 -9 56 -17z m-1361 -1307
c22 -11 48 -20 59 -20 34 0 33 -17 -2 -23 -55 -8 -171 -1 -195 12 -19 10 -21
17 -16 53 4 23 13 49 21 58 13 14 18 12 54 -22 22 -21 58 -47 79 -58z"/>
<path d="M21370 6348 c0 -10 -4 -18 -9 -18 -5 0 -12 -17 -16 -37 -4 -21 -10
-42 -15 -48 -9 -12 -18 -75 -26 -175 -3 -50 1 -116 14 -200 11 -69 17 -128 13
-132 -4 -5 -45 -18 -91 -29 -75 -19 -93 -20 -157 -11 -85 14 -156 44 -177 77
-15 22 -14 26 7 48 25 27 79 41 152 38 63 -3 100 -22 151 -78 38 -41 42 -43
57 -29 12 13 14 23 7 41 -38 100 -82 125 -227 125 -132 0 -223 -45 -228 -111
-1 -11 2 -19 7 -19 4 0 8 -11 8 -25 0 -24 39 -70 86 -101 11 -8 66 -21 122
-29 91 -14 109 -14 168 0 65 15 124 20 124 10 0 -3 -7 -17 -16 -31 -9 -13 -14
-27 -10 -31 3 -4 -1 -14 -9 -23 -8 -9 -20 -51 -26 -93 l-12 -78 34 -30 c33
-30 37 -31 104 -26 39 3 81 9 94 13 l24 7 -7 -108 c-3 -60 -10 -111 -14 -114
-5 -4 -9 -15 -9 -26 -2 -26 -41 -137 -53 -149 -6 -6 -10 -17 -10 -26 0 -9 -8
-25 -18 -36 -10 -10 -19 -21 -19 -24 -3 -10 -24 -65 -36 -92 -7 -16 -15 -28
-19 -28 -5 0 -8 -8 -8 -19 0 -19 -120 -165 -177 -215 -18 -15 -31 -32 -28 -36
3 -4 -7 -20 -20 -34 -14 -15 -25 -30 -25 -33 0 -3 -11 -21 -25 -39 -14 -18
-25 -37 -25 -43 0 -6 -9 -18 -20 -28 -40 -38 -52 -121 -55 -393 -3 -190 0
-272 10 -320 7 -36 21 -117 30 -180 10 -63 25 -140 35 -170 10 -30 26 -85 36
-122 10 -38 22 -68 26 -68 5 0 8 -6 8 -14 0 -7 6 -19 14 -25 8 -6 28 -55 45
-109 17 -53 38 -105 45 -115 18 -23 47 -12 41 17 -2 11 -7 43 -10 69 -4 27
-14 68 -24 90 -10 23 -16 48 -13 56 2 8 0 11 -5 8 -6 -4 -16 6 -24 21 -7 15
-19 34 -26 43 -8 9 -21 45 -30 80 -8 35 -20 69 -25 76 -5 7 -11 31 -13 55 -1
24 -3 45 -5 48 -1 3 -4 21 -5 40 -9 98 -12 117 -17 126 -9 13 -31 163 -29 199
1 53 2 109 2 145 0 19 0 44 0 55 1 11 1 61 0 110 -1 50 1 99 3 110 12 64 20
87 32 92 7 2 10 11 7 19 -3 8 1 14 11 14 9 0 16 8 16 18 0 10 8 27 18 38 9 11
18 26 20 34 2 8 10 19 18 23 8 4 14 15 14 23 0 19 21 57 38 67 33 21 142 139
137 147 -4 6 -2 10 3 10 5 0 16 15 23 33 7 17 23 41 35 52 11 11 19 26 16 34
-2 8 3 18 11 23 9 5 14 14 11 21 -2 7 6 23 20 36 13 13 22 29 20 36 -3 7 2 15
11 19 10 3 15 15 14 28 -2 13 7 39 19 58 12 19 22 45 22 57 0 12 5 25 10 28 6
3 10 21 10 39 0 17 6 38 12 44 8 8 14 47 15 100 4 118 6 131 23 142 12 8 12
10 -2 15 -14 5 -16 21 -15 85 1 79 3 82 37 55 20 -16 64 -24 178 -31 106 -7
113 -4 144 65 35 79 41 91 50 91 14 0 9 65 -8 88 -21 30 -119 92 -168 106 -22
6 -41 18 -44 26 -3 13 -2 13 7 0 9 -13 11 -13 11 3 0 11 8 17 23 17 18 0 19 2
7 11 -11 8 -6 9 22 7 l37 -4 -5 55 c-6 84 -34 132 -91 157 -42 19 -58 20 -125
14 -42 -5 -86 -11 -97 -15 -16 -5 -19 -3 -15 8 3 8 1 18 -5 22 -16 9 -13 35 4
35 21 0 19 12 -6 33 -16 14 -19 25 -14 47 4 19 3 30 -4 30 -6 0 -11 -5 -11
-12 0 -7 -8 -1 -17 12 -45 60 -72 80 -102 78 -22 -2 -31 -7 -31 -20z m70 -116
c0 -7 5 -10 10 -7 6 3 10 -5 10 -19 0 -14 5 -28 10 -31 6 -3 10 -13 10 -22 0
-28 -34 -92 -53 -99 -10 -3 -16 -12 -15 -21 2 -9 -7 -19 -21 -24 -23 -9 -24
-9 -17 38 4 27 9 66 11 88 4 41 11 96 14 105 3 12 41 5 41 -8z m285 -182 c4
-6 9 -8 13 -6 13 8 40 -20 44 -44 3 -25 -27 -60 -51 -60 -6 0 -11 -5 -11 -11
0 -5 -4 -8 -9 -5 -5 3 -11 -1 -15 -9 -3 -8 -15 -15 -26 -15 -11 0 -28 -4 -38
-9 -30 -17 -59 -26 -87 -30 -5 -1 -3 -5 5 -11 8 -5 11 -12 7 -16 -11 -11 -37
16 -37 39 0 11 -3 18 -6 14 -4 -3 -18 0 -33 7 -14 7 -31 11 -38 9 -6 -2 -14 1
-17 6 -9 14 44 72 58 64 6 -3 8 -3 5 1 -4 4 3 17 15 30 35 37 205 72 221 46z
m-31 -249 c3 -4 31 -11 62 -14 31 -3 61 -12 67 -19 7 -8 29 -25 49 -39 51 -33
61 -64 33 -105 -41 -60 -47 -63 -101 -52 -103 20 -153 38 -159 58 -4 11 -11
20 -16 20 -15 0 -10 18 10 37 27 26 30 64 6 88 -19 19 -19 19 5 26 36 10 38
10 44 0z m-205 -185 c23 -28 30 -120 12 -163 -12 -30 -68 -63 -106 -63 -30 0
-65 23 -60 39 3 9 6 30 8 46 2 17 16 54 31 83 14 28 24 52 21 52 -4 0 -3 5 0
10 9 15 81 12 94 -4z"/>
<path d="M2442 4887 c-6 -7 -14 -33 -17 -57 -4 -25 -14 -79 -23 -120 -9 -41
-15 -81 -13 -88 1 -8 -2 -19 -8 -26 -5 -6 -11 -33 -13 -59 -2 -26 -6 -47 -9
-47 -6 0 -15 -65 -25 -175 -6 -73 -11 -83 -30 -57 -8 12 -20 20 -25 17 -5 -4
-9 -1 -9 4 0 6 -12 11 -26 11 -23 0 -25 -3 -20 -24 3 -13 -1 -40 -9 -59 -10
-23 -11 -38 -5 -42 6 -4 7 -12 3 -18 -10 -17 -5 -214 7 -293 6 -36 8 -75 5
-85 -4 -11 -2 -34 4 -52 15 -44 31 -156 37 -257 3 -47 9 -96 14 -110 17 -50
41 -214 45 -305 1 -27 7 -67 14 -87 7 -21 10 -42 7 -47 -4 -5 -2 -12 4 -16 6
-4 8 -11 4 -16 -3 -5 -1 -15 4 -22 6 -7 15 -47 21 -91 12 -83 17 -99 31 -91 5
3 18 -21 29 -52 27 -73 42 -103 53 -103 4 0 8 -6 8 -13 0 -13 39 -28 103 -42
25 -5 27 -3 27 25 0 21 -8 35 -29 51 -16 11 -33 31 -39 43 -20 39 -74 169 -76
180 -1 6 -5 16 -9 22 -3 6 -9 26 -12 45 -12 78 -24 139 -35 175 -6 22 -15 64
-20 94 -5 30 -16 93 -24 140 -9 47 -16 86 -16 88 0 1 7 2 15 2 8 0 15 -9 15
-19 0 -11 5 -23 10 -26 6 -3 10 -21 10 -39 0 -18 3 -36 8 -40 4 -4 8 -20 9
-34 5 -57 15 -108 28 -137 8 -17 18 -43 24 -58 6 -15 17 -27 24 -27 18 0 79
-77 82 -104 4 -39 5 -41 14 -26 6 8 7 18 5 22 -3 4 -1 8 4 8 18 0 -2 56 -35
96 -18 23 -33 46 -33 53 0 6 -4 11 -10 11 -5 0 -7 7 -4 15 4 8 1 15 -6 15 -7
0 -9 8 -5 20 3 10 1 29 -5 40 -6 11 -15 60 -21 108 -12 106 -27 160 -51 188
-10 11 -16 23 -13 26 3 2 0 29 -6 59 -6 30 -12 68 -14 84 -6 57 -7 310 -1 405
6 108 19 443 19 478 -1 12 4 22 9 22 6 0 8 -14 6 -30 -3 -17 -1 -33 3 -36 4
-2 3 -19 -3 -36 -8 -23 -8 -36 1 -49 6 -10 11 -39 11 -63 0 -25 4 -48 10 -51
5 -3 10 -34 9 -68 0 -34 2 -73 5 -87 16 -65 25 -123 21 -131 -8 -13 15 -143
26 -150 6 -3 10 -9 9 -13 -5 -15 12 -96 21 -101 5 -4 9 -16 9 -28 0 -30 21
-85 48 -128 12 -20 22 -45 22 -55 0 -20 112 -164 186 -241 24 -25 44 -46 44
-47 0 -1 43 -44 95 -96 52 -52 100 -101 107 -109 22 -23 96 -95 115 -111 24
-21 60 -40 116 -60 46 -18 47 -18 58 2 6 11 8 26 5 33 -6 16 9 76 31 124 8 19
18 51 20 73 3 21 10 41 14 44 5 3 9 18 9 33 0 15 7 36 15 47 8 10 15 31 15 45
0 15 6 32 14 38 8 7 17 30 21 52 4 21 11 41 16 45 5 3 9 27 9 55 0 40 3 49 18
49 10 0 18 8 18 18 1 9 4 32 8 50 4 22 3 31 -4 27 -5 -3 -10 -1 -10 4 0 10 12
14 27 9 4 -2 8 -15 10 -30 1 -15 7 -44 11 -65 5 -21 10 -65 11 -98 1 -33 6
-62 10 -65 4 -3 8 -39 10 -80 1 -41 7 -77 12 -78 6 -3 6 -8 0 -15 -5 -7 -11
-51 -12 -98 -4 -74 -9 -94 -38 -150 -18 -35 -44 -77 -57 -92 -13 -16 -24 -32
-24 -35 0 -10 59 -42 76 -42 35 0 114 116 147 215 14 43 14 54 2 78 -10 20
-11 36 -4 60 6 17 9 70 7 117 -1 47 1 91 6 99 6 10 5 12 -2 7 -8 -5 -12 1 -12
16 0 84 -64 327 -87 329 -28 3 -32 4 -43 15 -17 17 -48 5 -54 -21 -3 -13 -15
-27 -27 -30 -14 -5 -18 -10 -11 -17 7 -7 3 -22 -13 -48 -30 -47 -75 -157 -75
-182 0 -10 -4 -18 -10 -18 -5 0 -13 -12 -16 -27 -4 -16 -10 -32 -14 -38 -3 -5
-15 -32 -24 -60 -10 -27 -25 -60 -33 -73 -8 -13 -21 -47 -28 -76 -8 -29 -24
-70 -36 -90 l-21 -36 -32 28 c-17 15 -79 75 -139 132 -59 58 -117 114 -130
126 -65 62 -149 180 -195 276 -23 47 -42 88 -42 91 0 3 -5 18 -12 34 -7 15
-12 33 -13 38 0 6 -6 19 -11 30 -19 36 -82 359 -95 484 -4 47 -11 106 -13 131
-18 158 -27 267 -27 308 0 26 -2 97 -5 157 -5 106 -6 111 -35 138 -33 30 -42
33 -57 14z m-152 -732 c0 -8 4 -15 9 -15 5 0 12 -17 17 -37 11 -55 11 -57 2
-69 -5 -7 -5 -31 0 -55 11 -49 9 -112 -2 -148 -5 -15 -4 -26 4 -31 13 -8 5
-50 -10 -50 -9 0 -25 58 -21 78 1 8 -2 19 -8 26 -6 6 -10 21 -10 31 -2 64 1
136 5 160 3 17 1 24 -6 20 -5 -3 -10 -2 -10 4 0 5 4 12 9 15 4 3 7 24 6 46 -1
22 2 40 6 40 5 0 9 -7 9 -15z"/>
<path d="M5834 4417 c-8 -23 13 -247 27 -286 17 -44 23 -283 9 -368 -16 -98
-53 -256 -95 -403 -8 -25 -16 -61 -19 -81 -4 -20 -15 -53 -25 -75 -10 -21 -27
-68 -36 -104 -10 -36 -25 -73 -34 -84 -9 -10 -14 -19 -11 -21 9 -4 -95 -197
-127 -235 -18 -21 -33 -42 -33 -47 0 -10 49 -33 69 -33 9 0 23 6 31 13 28 23
78 102 90 145 7 23 17 42 21 42 11 0 59 101 53 112 -3 5 -1 14 4 21 15 20 21
56 8 61 -6 2 -4 5 6 5 17 1 42 57 32 72 -3 5 2 16 10 25 9 8 16 24 16 34 0 11
5 32 11 47 6 15 15 37 19 48 13 34 31 133 34 185 1 27 9 58 18 67 8 10 16 25
16 33 1 45 11 122 16 127 3 4 6 40 6 82 0 42 4 82 9 89 4 7 5 33 1 57 -4 24
-3 42 2 39 4 -3 8 -1 8 5 0 5 -4 13 -10 16 -12 8 -13 75 -1 75 5 0 11 -10 14
-22 8 -31 46 -148 57 -173 5 -11 18 -51 30 -90 12 -38 26 -78 31 -87 5 -10 9
-29 9 -42 0 -14 4 -27 9 -30 5 -3 11 -18 14 -33 4 -16 10 -48 15 -73 5 -25 17
-72 25 -105 9 -33 19 -73 22 -90 30 -174 35 -214 31 -254 -3 -25 -8 -77 -12
-116 -3 -38 -8 -77 -12 -85 -3 -8 -6 -22 -7 -31 -5 -41 -18 -95 -25 -104 -4
-5 -10 -27 -14 -48 -4 -21 -16 -53 -27 -70 -24 -41 -24 -57 2 -57 66 0 125 78
149 195 7 33 16 71 21 85 9 28 9 25 12 210 2 111 -2 154 -22 245 -13 61 -28
111 -32 113 -4 2 -5 11 -2 21 3 11 0 29 -7 41 -6 12 -13 31 -15 42 -4 21 -31
109 -42 138 -3 8 -8 24 -10 35 -4 22 -40 138 -52 170 -5 11 -13 31 -19 45 -5
14 -16 48 -22 75 -17 70 -31 115 -47 152 -7 17 -13 36 -13 42 0 6 -11 31 -25
56 -14 25 -25 51 -24 58 2 14 -24 74 -44 100 -8 9 -21 17 -30 17 -9 0 -19 5
-22 10 -9 14 -35 12 -41 -3z"/>
<path d="M22422 4393 c-17 -16 -53 -46 -79 -68 -73 -61 -124 -116 -117 -126 3
-5 -1 -9 -10 -9 -8 0 -25 -17 -37 -37 -13 -21 -26 -40 -30 -43 -17 -12 -56
-116 -110 -290 -33 -107 -79 -205 -123 -263 -14 -18 -36 -56 -49 -84 -13 -29
-29 -58 -35 -66 -14 -16 -105 -197 -108 -212 -1 -6 -10 -31 -21 -55 -11 -25
-26 -60 -33 -77 -7 -18 -17 -33 -23 -33 -6 0 -8 -3 -4 -6 3 -3 -28 -72 -68
-152 -75 -150 -115 -236 -115 -247 0 -8 -14 -40 -66 -152 -27 -60 -37 -73 -57
-73 -12 0 -28 -5 -33 -10 -6 -6 -79 -13 -165 -17 -171 -6 -195 -12 -178 -45
10 -19 16 -20 122 -13 123 8 129 8 202 2 49 -4 91 7 148 39 15 8 27 12 27 8 0
-3 7 -1 15 6 12 10 21 10 47 -1 18 -7 67 -13 112 -12 77 0 331 11 331 13 0 8
100 14 225 13 93 0 158 4 161 10 4 5 13 6 20 1 22 -13 63 -12 81 4 10 8 26 12
38 9 11 -3 20 -2 20 3 0 4 30 11 68 15 37 4 70 12 74 18 3 6 24 11 45 11 21 1
43 5 50 9 7 4 24 5 38 1 14 -3 33 -3 42 1 10 4 35 7 57 5 25 -1 36 2 32 9 -4
7 1 11 13 11 12 0 21 5 21 10 0 6 7 10 15 10 9 0 12 6 8 17 -4 10 -2 14 4 10
6 -4 22 4 34 18 13 13 30 25 37 25 7 0 15 7 18 15 3 8 14 17 25 20 10 4 19 13
19 22 0 8 5 13 12 11 6 -2 22 7 35 20 15 14 30 21 41 17 11 -3 25 2 34 12 21
24 43 67 30 59 -5 -3 -12 1 -16 9 -3 8 -13 15 -23 15 -10 0 -45 24 -77 53 -47
42 -58 57 -54 75 3 12 3 20 -1 19 -4 -1 -39 31 -78 71 -87 87 -116 94 -175 38
-20 -19 -49 -43 -65 -53 -15 -10 -54 -37 -86 -60 -51 -37 -82 -62 -178 -144
-11 -9 -33 -23 -51 -30 -17 -7 -51 -31 -75 -53 -113 -103 -208 -157 -358 -206
-38 -12 -95 -31 -125 -41 -49 -16 -126 -27 -303 -44 -63 -6 -73 5 -27 30 120
66 220 127 220 135 0 6 5 10 11 10 17 0 107 63 164 115 27 25 53 45 57 45 5 0
8 6 8 13 0 7 16 30 35 50 19 20 35 44 35 51 0 8 4 17 9 21 6 3 13 26 17 50 3
25 11 45 16 45 5 0 6 5 3 10 -4 6 -1 17 5 25 6 8 9 19 5 25 -3 5 -1 10 4 10 6
0 11 9 11 20 0 11 4 28 9 38 18 36 30 69 47 127 9 33 22 71 30 86 13 25 16 92
10 219 -8 173 -9 200 -3 206 3 3 3 21 0 40 -4 23 -2 34 6 34 9 0 10 10 6 30
-4 16 -1 47 5 67 15 50 50 143 61 165 5 9 12 35 15 57 4 26 14 46 29 55 16 11
22 22 18 36 -3 12 0 20 6 20 7 0 10 4 7 8 -3 5 6 20 20 35 13 14 24 30 24 35
0 6 13 20 30 33 33 26 39 53 14 63 -30 11 -50 6 -82 -21z m-112 -197 c0 -2 -9
-28 -19 -58 -36 -101 -71 -217 -71 -238 0 -12 -4 -29 -9 -39 -11 -20 -14 -90
-12 -296 2 -154 -12 -297 -29 -303 -6 -2 -10 -12 -10 -22 0 -11 -6 -34 -14
-52 -8 -18 -23 -62 -34 -98 -11 -36 -26 -78 -33 -95 -7 -16 -14 -43 -16 -60
-3 -16 -8 -32 -12 -35 -4 -3 -13 -19 -20 -37 -18 -43 -210 -223 -238 -223 -6
0 -13 -7 -17 -15 -3 -8 -10 -15 -16 -15 -5 0 -31 -15 -57 -34 -52 -37 -126
-76 -143 -76 -6 0 -20 -9 -32 -20 -23 -21 -68 -27 -68 -10 0 6 4 10 8 10 5 0
15 26 22 58 7 31 16 62 20 67 4 6 13 27 19 48 7 20 17 37 22 37 5 0 9 7 9 16
0 20 57 141 70 149 6 3 10 13 10 22 0 9 6 24 13 32 8 9 20 32 27 51 7 19 19
42 25 50 7 8 16 26 20 40 4 14 17 45 28 70 11 25 22 54 24 64 2 11 9 27 17 35
18 22 76 141 76 158 0 8 3 12 8 9 4 -2 16 17 27 42 10 26 25 53 32 60 7 7 13
19 13 26 0 7 11 19 25 26 22 12 30 28 26 54 -1 4 5 13 14 20 9 6 17 21 18 33
0 12 5 21 11 20 5 -1 14 14 20 33 5 19 13 37 16 40 8 6 20 50 27 104 3 22 12
46 19 54 8 7 14 26 14 41 0 16 7 34 15 41 8 7 12 16 9 22 -3 5 -1 14 4 21 5 7
13 23 17 36 4 13 17 34 29 46 11 12 35 38 51 58 26 32 45 45 45 33z m642
-1223 c18 -16 35 -32 37 -36 2 -5 17 -23 35 -41 42 -44 66 -75 66 -85 0 -4 13
-24 30 -42 30 -35 37 -49 22 -49 -12 0 -150 -105 -194 -147 -29 -28 -49 -38
-90 -44 -29 -4 -69 -10 -88 -13 -19 -4 -48 -8 -65 -11 -16 -2 -93 -16 -170
-30 -102 -18 -181 -26 -297 -27 -86 -2 -154 0 -150 4 4 3 42 21 85 38 42 18
77 37 77 42 0 5 5 6 10 3 6 -3 10 -1 10 5 0 5 17 18 37 28 20 9 53 34 72 55
20 21 43 39 51 40 24 4 138 90 151 115 7 12 18 22 24 22 7 0 20 9 29 19 10 11
24 17 32 14 8 -3 14 0 14 6 0 7 8 15 17 18 10 4 28 16 40 28 34 31 47 41 55
41 3 -1 17 9 30 20 21 20 74 50 90 53 3 1 21 -11 40 -26z"/>
<path d="M4743 4042 c4 -39 -8 -107 -33 -197 -7 -22 -18 -69 -26 -104 -8 -35
-21 -75 -28 -90 -7 -14 -16 -46 -20 -71 -4 -24 -12 -50 -18 -58 -7 -7 -13 -32
-14 -55 -3 -47 -37 -207 -53 -249 -6 -16 -25 -37 -43 -47 -18 -11 -38 -25 -45
-30 -7 -6 -15 -11 -18 -11 -7 0 -97 -60 -105 -70 -3 -3 -23 -15 -45 -27 -22
-11 -61 -32 -87 -46 -25 -13 -59 -30 -75 -36 -126 -49 -169 -72 -208 -110 -28
-27 -50 -41 -60 -37 -9 3 -15 0 -15 -9 0 -8 5 -15 12 -15 6 0 19 -7 28 -15 15
-14 22 -13 71 9 30 14 63 26 74 28 11 2 23 6 26 11 3 4 14 9 25 11 11 2 44 16
74 30 30 14 63 26 75 26 12 0 60 29 107 65 48 36 90 65 95 65 6 0 22 14 36 30
15 17 36 30 47 30 11 0 20 3 20 8 0 4 16 16 35 26 19 11 35 23 35 29 0 5 7 7
15 3 24 -9 42 41 49 144 4 52 16 121 26 153 11 32 20 77 21 100 1 23 6 47 10
52 4 6 15 44 25 85 15 67 18 72 27 50 5 -14 9 -42 8 -62 -2 -20 3 -46 9 -58 9
-16 9 -25 0 -35 -8 -10 -9 -23 -1 -47 5 -18 14 -58 20 -88 15 -84 22 -113 31
-135 5 -11 14 -37 20 -57 6 -20 18 -42 26 -48 7 -7 14 -21 14 -32 0 -28 28
-84 55 -110 18 -17 21 -27 15 -54 -4 -18 -5 -35 -2 -38 3 -3 -2 -14 -10 -23
-8 -10 -20 -32 -26 -49 -11 -34 -69 -115 -109 -153 -23 -22 -24 -25 -9 -37 18
-13 77 -4 100 15 8 7 26 10 41 7 15 -3 35 0 45 6 14 9 16 17 8 39 -5 15 -16
33 -23 39 -12 10 -12 15 -2 26 35 38 38 47 33 69 -3 13 -2 26 3 30 5 3 7 22 4
43 -3 20 -5 44 -6 52 0 8 -13 36 -29 63 -15 26 -28 56 -28 65 0 10 -5 23 -10
28 -15 15 -50 115 -44 125 2 4 -2 27 -11 51 -8 24 -15 55 -15 71 0 15 -6 27
-12 27 -7 0 -5 5 5 11 13 7 15 14 8 22 -5 7 -12 37 -15 67 -3 30 -7 71 -10 90
-2 19 -7 93 -11 164 -7 148 -21 233 -40 253 -8 7 -28 16 -45 20 l-31 6 4 -41z"/>
<path d="M20081 3916 c2 -19 0 -38 -4 -42 -4 -4 -7 -19 -7 -33 0 -14 -11 -91
-24 -171 -14 -80 -26 -156 -28 -170 -2 -14 -6 -29 -10 -35 -26 -44 -42 -417
-22 -528 8 -39 22 -121 33 -182 18 -101 69 -264 107 -336 19 -37 85 -101 99
-96 14 6 8 45 -13 76 -10 14 -28 51 -41 81 -13 30 -27 62 -31 70 -18 37 -42
140 -45 190 -2 30 -6 62 -8 70 -18 61 -25 94 -21 105 3 7 -2 39 -10 71 -8 31
-12 62 -9 68 4 5 8 55 9 109 1 55 6 102 11 106 10 8 12 92 1 85 -4 -3 -8 -1
-8 4 0 6 7 13 16 16 13 5 14 9 4 21 -7 8 -8 15 -3 15 5 0 10 12 11 28 1 15 10
54 20 87 10 33 15 71 12 85 -8 31 -1 70 12 70 5 0 7 -4 3 -9 -3 -5 -1 -12 4
-16 6 -3 24 -52 41 -108 16 -56 39 -129 49 -162 10 -33 29 -103 41 -155 24
-106 71 -240 82 -240 5 0 8 -7 8 -16 0 -8 11 -39 24 -67 14 -29 30 -63 35 -77
6 -14 17 -34 23 -45 94 -147 150 -225 160 -225 4 0 7 -3 6 -7 -2 -5 14 -25 35
-45 20 -21 37 -41 37 -45 0 -4 19 -26 41 -48 l41 -40 -42 -3 c-23 -2 -47 1
-53 6 -7 6 -61 15 -122 22 -60 6 -135 19 -165 28 -30 9 -62 17 -70 17 -9 1
-35 14 -58 29 -36 23 -43 24 -48 11 -15 -37 106 -117 203 -135 30 -5 119 -12
196 -15 187 -7 204 -11 251 -51 44 -38 66 -43 66 -16 0 24 -31 65 -120 158
-41 42 -91 93 -110 113 -19 20 -33 40 -32 44 1 4 -9 20 -23 35 -14 15 -28 37
-31 50 -4 12 -12 22 -19 22 -13 0 -31 36 -27 53 1 4 -2 7 -7 7 -5 0 -14 13
-21 29 -6 16 -19 32 -27 35 -8 4 -13 13 -9 21 3 8 1 15 -4 15 -9 0 -26 39 -22
53 1 4 -3 7 -8 7 -6 0 -10 9 -10 19 0 11 -11 42 -25 70 -27 54 -66 191 -58
204 3 4 -1 14 -7 22 -7 9 -13 34 -14 58 -1 23 -7 51 -13 62 -6 11 -12 25 -13
30 -2 6 -8 24 -15 40 -22 54 -47 137 -51 173 -3 20 -8 41 -12 46 -4 6 -7 35
-7 64 0 39 -3 52 -14 52 -8 0 -12 3 -8 6 3 3 0 25 -8 49 -9 33 -10 45 -1 49 7
3 7 5 -1 5 -7 1 -13 7 -13 15 0 8 -7 17 -16 20 -9 4 -14 9 -11 13 10 9 -39 43
-63 43 -18 0 -21 -5 -19 -34z"/>
<path d="M19426 2895 c-5 -18 7 -53 42 -128 27 -56 54 -119 61 -139 7 -20 18
-42 26 -48 8 -7 28 -41 45 -76 37 -74 60 -94 112 -94 29 0 36 3 32 15 -4 8
-17 18 -30 21 -37 10 -80 71 -152 220 -43 88 -47 105 -25 97 10 -4 46 -26 79
-49 34 -23 66 -43 72 -45 21 -8 92 -80 92 -93 0 -8 5 -18 10 -21 6 -4 10 -18
9 -33 0 -15 2 -37 6 -49 6 -19 4 -23 -14 -23 -11 0 -21 -6 -21 -12 0 -7 -3
-23 -6 -34 -5 -18 0 -24 30 -34 39 -12 116 -5 116 11 0 5 -7 25 -15 45 -8 19
-12 41 -9 49 4 8 1 15 -5 15 -6 0 -11 10 -11 23 0 45 -32 118 -59 134 -14 9
-44 33 -66 53 -22 20 -62 52 -90 71 -27 19 -51 37 -53 42 -2 4 -9 7 -15 7 -7
0 -39 23 -72 50 -33 28 -65 50 -71 50 -7 0 -15 -11 -18 -25z"/>
<path d="M24118 2626 c-13 -12 -66 -30 -93 -31 -5 0 -13 -4 -16 -9 -4 -4 -19
-9 -35 -11 -16 -1 -45 -10 -65 -18 -20 -9 -59 -19 -88 -23 -35 -4 -48 -10 -39
-15 10 -6 8 -9 -7 -9 -11 0 -42 -12 -70 -25 -27 -14 -60 -25 -72 -25 -13 0
-23 -4 -23 -10 0 -5 -6 -10 -13 -10 -7 0 -18 -5 -25 -12 -15 -15 -54 -18 -69
-6 -9 8 -13 6 -13 -6 0 -9 5 -16 11 -16 5 0 7 -5 3 -11 -5 -8 -37 -10 -104 -6
-87 4 -98 3 -108 -14 -13 -20 -6 -73 8 -64 5 3 14 0 22 -7 14 -14 283 -16 413
-4 39 4 106 9 150 12 77 5 155 28 155 46 0 4 7 8 15 8 8 0 12 6 9 13 -2 7 12
29 31 49 65 64 85 99 85 143 0 28 -6 47 -18 58 -22 21 -27 21 -44 3z"/>
<path d="M2100 2610 c0 -6 -34 -10 -77 -10 -100 1 -229 -8 -318 -20 -38 -5
-99 -12 -134 -15 -36 -2 -67 -9 -70 -13 -3 -5 -30 -10 -60 -11 -30 -1 -59 -5
-65 -10 -6 -4 -65 -9 -131 -10 -136 -3 -156 -5 -170 -13 -11 -5 -114 -12 -202
-13 -29 0 -53 -4 -53 -9 0 -5 -6 -3 -13 3 -8 6 -16 9 -18 6 -9 -9 -85 -16
-208 -20 -136 -4 -170 -13 -188 -50 -22 -48 0 -73 56 -66 7 2 10 -2 6 -8 -4
-7 4 -11 19 -11 14 0 26 -4 26 -10 0 -5 7 -6 17 -3 11 4 14 3 9 -5 -5 -8 0
-12 13 -12 12 0 21 -6 21 -12 0 -9 3 -9 8 -3 4 6 13 10 20 9 6 -1 17 -2 23 -3
5 0 7 -6 4 -11 -4 -6 5 -10 22 -8 16 1 35 -2 42 -6 18 -12 227 -15 341 -5 52
4 131 10 175 13 44 2 89 6 100 9 11 3 48 8 83 12 34 4 65 11 68 16 3 5 14 9
24 9 10 0 25 7 34 15 8 8 24 15 36 15 11 0 23 7 26 15 4 8 9 13 13 11 10 -7
91 15 91 24 0 9 84 42 96 38 5 -1 29 8 53 20 62 31 138 51 201 53 30 1 63 6
72 10 13 7 28 -4 70 -52 53 -61 148 -122 148 -95 0 7 -12 19 -26 26 -36 20
-60 58 -69 108 -4 24 -17 53 -28 66 -23 24 -87 43 -87 26z m-415 -109 c18 -2
-14 -24 -38 -25 -14 -1 -32 -8 -41 -15 -9 -8 -19 -11 -23 -8 -3 4 -11 1 -17
-7 -17 -21 -102 -47 -216 -66 -125 -21 -130 -22 -130 -8 0 10 -2 10 -9 -1 -7
-10 -39 -15 -122 -17 -63 -2 -159 -6 -213 -8 -90 -4 -186 5 -226 21 -18 8 -27
10 -40 12 -5 0 -10 5 -10 11 0 5 3 9 8 9 4 -1 9 0 12 1 3 1 21 4 40 5 19 2 67
6 105 10 39 4 88 8 110 7 22 0 42 4 45 9 3 4 53 8 110 8 155 0 161 1 180 11
10 5 30 10 46 10 71 2 120 6 129 12 6 3 46 9 90 13 123 11 135 12 140 17 4 3
41 3 70 -1z"/>
</g>
</svg>
