<?xml version="1.0" standalone="no"?>
<!DOCTYPE svg PUBLIC "-//W3C//DTD SVG 20010904//EN"
 "http://www.w3.org/TR/2001/REC-SVG-20010904/DTD/svg10.dtd">
<svg version="1.0" xmlns="http://www.w3.org/2000/svg"
 width="438.000000pt" height="309.000000pt" viewBox="0 0 438.000000 309.000000"
 preserveAspectRatio="xMidYMid meet">
<metadata>
Created by potrace 1.15, written by Peter Selinger 2001-2017
</metadata>
<g transform="translate(0.000000,309.000000) scale(0.100000,-0.100000)"
fill="#000000" stroke="none">
<path d="M3260 2769 c0 -6 -8 -8 -19 -4 -11 3 -22 2 -25 -3 -3 -6 -23 -13 -43
-17 -78 -14 -298 -137 -326 -181 -4 -7 -13 -19 -20 -26 -24 -24 -47 -65 -40
-71 3 -4 18 -7 31 -7 14 0 22 3 19 7 -8 7 21 43 35 43 4 0 8 -9 8 -20 0 -31
25 -24 56 16 48 60 57 68 108 93 47 23 53 23 123 13 41 -7 83 -16 93 -22 34
-18 74 -118 78 -198 5 -92 -14 -142 -64 -166 -19 -9 -37 -23 -40 -31 -4 -8
-12 -15 -18 -15 -15 0 -56 -42 -56 -56 0 -17 68 -44 137 -54 103 -14 211 -89
182 -126 -5 -6 -22 -9 -39 -6 -16 2 -37 1 -46 -2 -14 -5 -13 -9 5 -32 12 -15
20 -28 18 -30 -5 -5 -163 13 -227 26 -151 30 -281 36 -475 20 -77 -6 -268 -10
-425 -10 -157 1 -316 -1 -355 -5 -98 -8 -297 -35 -308 -42 -10 -6 -29 -8 -147
-18 -47 -4 -87 -7 -90 -8 -17 -3 -160 16 -187 24 -36 12 -40 25 -22 80 21 62
47 80 144 103 52 12 67 32 43 58 -19 21 -36 48 -58 93 -22 47 -32 172 -16 193
31 40 69 66 120 84 79 26 170 10 209 -37 5 -5 6 4 3 20 l-6 30 27 -31 c16 -17
35 -40 45 -50 9 -10 28 -27 42 -37 16 -11 26 -27 26 -43 0 -16 5 -24 13 -21 6
2 11 13 10 24 -3 29 27 42 164 69 120 24 146 25 475 26 322 1 348 3 348 19 0
9 -8 20 -17 23 -21 9 -432 5 -639 -5 -182 -9 -303 -31 -323 -59 -21 -31 -37
-24 -59 29 -34 77 -136 139 -275 166 -106 20 -165 8 -282 -58 -52 -30 -65 -43
-95 -101 -20 -37 -44 -69 -55 -73 -11 -3 -44 -5 -73 -4 -43 2 -63 -3 -100 -25
-47 -28 -92 -64 -79 -64 4 0 -1 -9 -10 -19 -47 -56 -121 -227 -104 -244 5 -5
11 7 15 27 4 20 11 36 16 36 6 0 10 5 10 10 0 6 11 28 25 50 14 22 25 44 25
50 0 6 11 22 25 36 14 14 25 28 25 32 0 4 21 20 46 36 37 23 60 30 119 33 67
3 75 2 89 -19 9 -12 16 -30 16 -39 0 -25 73 -103 132 -140 l51 -33 -24 -15
c-36 -24 -79 -73 -85 -98 -8 -30 -25 -29 -52 2 -13 14 -33 30 -47 35 -33 12
-152 1 -166 -16 -6 -8 -17 -14 -23 -14 -6 0 -28 -11 -48 -25 -20 -14 -41 -25
-47 -25 -6 0 -27 -11 -47 -25 -20 -14 -44 -25 -53 -25 -9 0 -26 -11 -39 -24
-12 -14 -46 -38 -75 -55 -57 -33 -117 -85 -117 -101 0 -5 -4 -10 -10 -10 -5 0
-22 -24 -36 -52 -14 -29 -32 -60 -39 -68 -31 -35 -47 -128 -40 -228 4 -53 9
-100 12 -105 3 -5 8 -26 10 -46 3 -20 11 -43 17 -51 7 -8 23 -36 35 -63 24
-50 103 -126 158 -152 18 -9 35 -20 39 -26 9 -16 51 -29 144 -45 46 -8 92 -21
100 -29 9 -8 28 -15 41 -15 14 0 67 -9 118 -20 51 -11 95 -19 99 -18 13 4 227
-83 252 -102 l24 -18 -24 -10 c-14 -6 -52 -21 -85 -33 -70 -27 -74 -30 -131
-88 -65 -67 -68 -125 -8 -162 31 -19 40 -20 95 -10 34 6 66 15 73 20 6 5 47
14 91 21 44 7 90 19 102 26 31 20 52 18 46 -4 -11 -42 79 -104 99 -68 5 9 16
16 23 16 8 0 15 7 15 15 0 8 6 15 14 15 8 0 21 18 30 40 15 39 32 49 51 31 15
-14 105 -1 105 15 0 8 5 14 11 14 21 0 1 72 -31 112 -17 21 -27 38 -22 38 4 0
45 -13 90 -30 46 -16 96 -30 112 -30 16 0 41 -5 57 -11 30 -12 125 -30 158
-30 55 0 166 10 215 20 30 6 78 13 105 15 28 3 92 14 142 25 51 12 104 21 118
21 14 0 25 4 25 8 0 10 136 82 155 82 7 0 18 7 25 15 7 8 27 17 46 21 19 3 34
10 34 14 0 4 9 10 20 13 12 3 20 14 20 26 0 13 9 25 23 31 12 5 18 9 14 9 -4
1 5 12 20 26 53 47 60 56 92 118 18 34 39 73 46 87 8 14 15 35 15 48 0 13 9
42 20 64 17 35 20 62 20 168 0 70 -3 130 -7 134 -5 4 -9 12 -9 17 -1 5 -2 14
-3 19 0 6 -10 10 -20 10 -18 0 -19 -9 -19 -137 0 -76 -3 -151 -6 -168 -8 -36
-35 -94 -54 -116 -7 -10 -15 -34 -18 -54 -5 -45 -24 -80 -63 -122 -17 -18 -31
-37 -31 -42 0 -6 -5 -11 -10 -11 -14 0 -60 -46 -60 -59 0 -6 -21 -20 -47 -32
-27 -11 -60 -27 -76 -36 -78 -42 -242 -87 -387 -108 -52 -8 -135 -21 -184 -29
-49 -9 -109 -16 -135 -16 -58 0 -279 49 -436 96 -158 47 -166 51 -172 74 -3
11 -9 17 -14 15 -4 -3 -17 2 -28 12 -10 10 -44 38 -74 63 -30 25 -58 52 -61
60 -4 8 -13 26 -20 40 -8 14 -16 54 -19 90 -5 66 -25 193 -34 220 -3 8 -4 42
-4 76 2 45 -2 64 -14 74 -8 7 -17 11 -20 8 -7 -7 -8 -197 -1 -273 3 -38 8 -97
10 -130 6 -105 51 -177 147 -240 20 -13 42 -29 50 -37 12 -11 83 -48 149 -78
8 -4 21 -20 29 -35 8 -16 25 -39 37 -52 13 -13 24 -27 25 -31 0 -4 2 -17 5
-29 3 -20 0 -23 -29 -23 -17 1 -43 7 -57 15 -14 7 -37 11 -51 8 -15 -3 -30 0
-33 6 -10 16 -41 14 -56 -3 -25 -31 -254 -100 -402 -121 -40 -6 -48 -4 -57 14
-9 15 -8 26 1 41 7 11 16 20 20 20 5 0 8 6 8 13 0 7 16 21 35 30 19 9 35 21
35 26 0 8 150 46 210 53 19 2 26 10 28 31 2 16 -2 35 -9 44 -19 22 -229 122
-291 138 -29 7 -121 27 -203 44 -180 36 -315 74 -370 104 -100 54 -213 214
-221 315 -9 112 -5 197 10 227 9 17 16 35 16 41 0 6 7 17 15 24 8 7 15 18 15
26 0 7 10 24 23 37 12 14 33 41 47 60 14 20 40 44 58 52 20 10 32 23 32 35 0
11 5 20 11 20 5 0 7 -4 4 -10 -3 -5 1 -10 9 -10 9 0 16 5 16 11 0 5 4 8 9 4 6
-3 18 3 28 13 10 10 32 24 50 31 17 7 34 19 37 27 3 7 11 11 18 9 8 -3 40 10
72 30 115 69 210 85 240 40 9 -14 23 -25 31 -25 10 0 15 -11 15 -34 0 -18 6
-39 14 -45 19 -16 26 -50 13 -59 -16 -9 -47 -78 -47 -101 0 -30 45 -66 99 -80
28 -7 54 -10 59 -7 5 3 46 -2 93 -10 91 -16 161 -18 399 -9 222 8 511 8 610 0
137 -11 270 -12 517 -4 189 7 245 12 305 29 40 12 81 26 91 31 10 5 23 7 29 3
7 -5 9 -2 5 9 -4 11 -2 14 7 11 19 -7 109 48 121 74 5 12 18 25 27 28 22 7 48
59 48 96 0 16 5 38 10 49 6 10 12 37 15 59 5 56 -46 111 -135 144 -35 13 -65
28 -67 32 -1 5 15 17 37 27 23 11 48 34 62 55 12 20 26 39 30 40 4 2 8 8 8 13
0 6 9 19 20 31 11 12 20 28 20 35 0 21 31 63 42 57 5 -3 4 4 -4 15 -11 18 -11
23 1 31 11 6 15 33 15 107 2 178 -49 233 -217 233 -55 0 -87 -4 -87 -11z m163
-65 c100 -51 116 -114 67 -266 -30 -94 -62 -148 -101 -169 -15 -8 -19 -6 -19
6 0 9 3 14 8 11 4 -2 4 28 0 67 -19 195 -82 299 -188 313 -27 4 -50 10 -50 14
0 6 68 23 140 34 60 8 113 5 143 -10z m-1935 -151 c37 -9 13 -20 -53 -26 -33
-3 -72 -10 -86 -16 -39 -14 -97 -87 -103 -129 -11 -71 5 -184 32 -214 8 -10
12 -18 7 -18 -4 0 -2 -7 5 -15 10 -12 10 -15 -2 -15 -27 0 -96 53 -114 88 -57
108 -61 119 -59 157 3 49 37 110 73 129 129 71 195 84 300 59z m1632 -694 c41
-6 80 -15 85 -19 15 -11 76 -23 110 -21 98 6 135 3 135 -11 0 -30 -88 -95
-182 -131 -86 -34 -110 -39 -229 -47 -204 -14 -536 -19 -614 -9 -100 13 -436
18 -530 7 -86 -9 -510 -12 -524 -4 -4 3 -48 10 -96 15 -48 6 -98 17 -111 26
-22 14 -22 16 -8 57 26 75 28 76 119 66 94 -11 223 -2 435 31 36 5 97 14 135
20 39 5 230 13 425 17 195 4 400 10 455 14 120 8 292 3 395 -11z"/>
<path d="M3615 2424 l-30 -14 42 6 c86 13 110 -13 120 -124 l6 -63 -44 8 c-51
9 -166 9 -176 -1 -3 -3 -1 -16 6 -29 10 -18 22 -23 57 -25 53 -2 121 -21 184
-51 65 -31 205 -167 220 -213 6 -21 15 -40 20 -43 4 -3 11 -21 15 -41 3 -20
10 -44 15 -53 27 -54 40 -209 26 -316 -22 -165 -108 -374 -169 -411 -18 -10
-35 -18 -39 -16 -5 1 -8 -3 -8 -8 0 -6 -6 -10 -12 -10 -7 0 -35 -11 -63 -25
-27 -13 -102 -49 -166 -80 -63 -30 -124 -63 -135 -74 -11 -10 -30 -24 -42 -30
-55 -29 8 -85 108 -95 46 -4 59 -11 82 -37 29 -34 41 -78 27 -95 -5 -7 -22
-14 -37 -17 -15 -3 -60 -13 -101 -21 -75 -16 -100 -14 -82 8 16 19 -7 36 -49
36 -49 1 -80 27 -86 75 -3 22 -13 48 -23 58 -17 17 -19 17 -35 2 -9 -9 -17
-30 -17 -46 -3 -51 -4 -54 -16 -62 -7 -4 -13 -13 -13 -19 0 -15 -31 -37 -51
-38 -34 0 -40 74 -9 110 11 12 17 27 14 31 -3 5 -1 9 4 9 5 0 12 8 16 18 3 9
9 23 12 30 4 8 -3 12 -19 12 -18 0 -34 -13 -61 -53 -46 -67 -50 -129 -10 -172
22 -23 31 -27 64 -22 28 3 47 14 66 36 29 35 45 39 64 16 22 -27 94 -55 103
-42 6 8 7 5 3 -6 -6 -20 26 -37 59 -30 11 2 54 8 95 13 136 16 186 44 175 95
-4 16 -7 35 -9 40 -5 26 -51 77 -84 94 -21 10 -63 23 -94 30 -65 14 -77 31
-23 31 22 0 38 6 41 15 3 8 14 17 24 20 10 3 28 14 40 25 13 11 33 20 45 20
13 0 28 7 35 15 7 8 20 15 29 15 9 0 43 14 76 30 33 17 63 30 68 30 21 0 97
63 118 97 30 51 79 152 82 172 1 9 5 21 8 26 13 22 39 123 44 170 18 185 18
191 -5 291 -12 54 -26 107 -31 116 -5 10 -9 26 -9 35 -1 35 -37 93 -103 167
-68 76 -175 166 -197 166 -7 0 -9 8 -5 20 3 11 3 20 -2 20 -4 0 -8 26 -8 58 0
31 -5 68 -12 81 -24 48 -80 62 -138 35z"/>
<path d="M2695 2390 c-3 -5 -15 -10 -25 -10 -31 0 -120 -42 -120 -57 0 -7 5
-13 10 -13 6 0 10 -12 10 -27 0 -16 7 -37 16 -48 10 -14 13 -31 9 -57 -10 -55
16 -95 78 -124 68 -31 97 -30 151 6 48 32 56 52 58 132 1 48 -3 54 -64 121
-44 47 -46 54 -15 60 14 3 8 5 -15 6 -20 0 -40 6 -43 11 -3 6 -15 10 -25 10
-10 0 -22 -4 -25 -10z m40 -204 c11 0 40 2 65 4 45 4 45 4 44 -28 -2 -36 -16
-53 -62 -71 -37 -16 -93 -9 -128 14 -17 11 -24 25 -24 49 0 43 6 48 49 39 20
-4 45 -7 56 -7z"/>
<path d="M1825 2307 c-21 -12 -42 -32 -45 -44 -3 -13 -12 -31 -20 -41 -27 -32
-61 -102 -55 -112 3 -5 12 -10 19 -10 7 0 26 -20 43 -44 39 -56 82 -70 167
-56 46 7 63 16 87 42 38 43 42 63 29 123 -16 74 -48 134 -81 150 -40 21 -98
18 -144 -8z m192 -120 c2 -12 5 -32 8 -44 4 -17 -5 -33 -36 -63 -39 -37 -45
-40 -99 -40 -70 0 -110 25 -110 70 0 36 28 43 120 31 80 -10 100 0 100 48 0
37 12 35 17 -2z"/>
</g>
</svg>
