<?xml version="1.0" encoding="UTF-8"?>
<svg width="147px" height="317px" viewBox="0 0 147 317" version="1.1" xmlns="http://www.w3.org/2000/svg" xmlns:xlink="http://www.w3.org/1999/xlink">
    <!-- Generator: Sketch 42 (36781) - http://www.bohemiancoding.com/sketch -->
    <title>Group</title>
    <desc>Created with Sketch.</desc>
    <defs></defs>
    <g id="Page-1" stroke="none" stroke-width="1" fill="none" fill-rule="evenodd">
        <g id="Group" fill-rule="nonzero" fill="#000000">
            <path d="M66.184525,178.251227 C58.584525,177.451227 51.984525,175.651227 49.384525,173.851227 C48.284525,173.051227 46.584525,172.451227 45.584525,172.451227 C44.684525,172.451227 42.284525,170.851227 40.284525,168.851227 C32.784525,161.351227 24.884525,138.251227 24.184525,121.751227 C23.784525,113.951227 23.984525,112.451227 25.284525,112.451227 C26.084525,112.451227 26.784525,111.751227 26.784525,110.951227 C26.784525,110.151227 27.384525,109.451227 28.184525,109.451227 C29.884525,109.451227 31.284525,112.951227 30.284525,114.551227 C29.884525,115.151227 30.884525,114.951227 32.484525,114.051227 C35.984525,112.251227 38.584525,109.551227 36.884525,109.351227 C35.084525,109.151227 34.484525,108.851227 31.384525,107.351227 L28.484525,105.951227 L31.884525,105.251227 C40.784525,103.251227 51.284525,101.351227 62.284525,99.851227 C77.484525,97.851227 104.784525,97.251227 107.984525,98.851227 C111.784525,100.751227 116.084525,100.251227 117.384525,97.751227 C117.984525,96.451227 118.684525,95.751227 118.984525,96.051227 C119.484525,96.451227 119.284525,90.951227 118.784525,89.451227 C118.684525,89.151227 118.684525,87.451227 118.784525,85.751227 C118.884525,83.251227 118.484525,82.451227 117.284525,82.451227 C116.384525,82.451227 115.984525,82.051227 116.284525,81.451227 C116.584525,80.951227 116.484525,80.451227 116.084525,80.451227 C115.584525,80.451227 114.684525,81.351227 114.084525,82.351227 C113.084525,83.851227 112.084525,84.251227 109.184525,83.851227 C106.384525,83.551227 105.084525,83.851227 103.584525,85.351227 C102.084525,87.051227 101.384525,87.251227 99.384525,86.351227 C97.784525,85.651227 97.184525,84.651227 97.484525,83.451227 C98.084525,81.251227 95.984525,79.751227 95.184525,81.851227 C94.784525,82.851227 93.384525,83.451227 91.284525,83.451227 C88.784525,83.451227 87.784525,83.951227 87.284525,85.351227 C86.284525,88.651227 83.084525,88.851227 79.684525,86.051227 C77.984525,84.651227 75.784525,83.451227 74.684525,83.451227 C72.284525,83.451227 72.284525,81.151227 74.784525,75.751227 C75.784525,73.351227 76.384525,71.451227 75.984525,71.451227 C74.384525,71.551227 71.684525,74.351227 71.984525,75.551227 C72.184525,76.351227 70.884525,77.651227 69.184525,78.451227 C67.484525,79.251227 65.184525,81.551227 64.184525,83.451227 C61.884525,87.651227 57.184525,89.751227 55.384525,87.351227 C53.984525,85.451227 51.084525,86.251227 48.584525,89.351227 C45.384525,93.151227 46.884525,94.551227 51.984525,92.551227 C54.184525,91.751227 77.184525,90.051227 87.084525,90.051227 C89.684525,90.051227 91.784525,89.651227 91.784525,89.151227 C91.784525,88.651227 92.384525,88.451227 93.084525,88.751227 C93.684525,88.951227 95.484525,88.751227 97.084525,88.351227 C98.584525,87.951227 99.784525,87.951227 99.784525,88.551227 C99.784525,89.051227 102.884525,89.451227 106.684525,89.451227 C110.584525,89.451227 113.884525,89.851227 114.184525,90.351227 C114.684525,91.151227 104.884525,92.451227 92.784525,93.051227 C89.184525,93.251227 81.784525,94.051227 76.284525,94.851227 C70.784525,95.651227 59.084525,96.451227 50.284525,96.651227 C35.184525,96.951227 34.184525,97.051227 32.184525,99.251227 C29.384525,102.151227 28.384525,102.051227 29.184525,98.951227 C29.684525,96.851227 29.484525,96.451227 27.784525,96.451227 C25.684525,96.451227 25.684525,96.151227 26.084525,77.251227 C26.384525,63.051227 26.184525,57.051227 25.184525,54.351227 C24.484525,52.251227 24.184525,50.351227 24.584525,49.951227 C25.584525,48.951227 28.784525,40.151227 28.784525,38.351227 C28.784525,37.451227 30.084525,35.151227 31.684525,33.151227 C33.184525,31.151227 35.084525,28.151227 35.784525,26.451227 C36.484525,24.851227 37.384525,23.451227 37.884525,23.451227 C38.384525,23.451227 38.784525,22.851227 38.784525,22.051227 C38.784525,19.651227 51.484525,8.85122696 62.184525,1.95122696 C65.684525,-0.248773036 72.484525,-0.548773036 87.084525,0.851226964 C95.484525,1.75122696 96.184525,1.95122696 100.084525,5.65122696 C102.384525,7.75122696 104.484525,9.45122696 104.884525,9.45122696 C105.484525,9.45122696 111.784525,19.151227 111.784525,20.051227 C111.784525,20.351227 112.584525,21.751227 113.484525,23.151227 C114.484525,24.651227 115.884525,27.451227 116.584525,29.451227 C118.184525,33.451227 119.684525,47.451227 118.584525,47.451227 C118.184525,47.451227 117.984525,48.351227 118.084525,49.451227 C118.184525,50.551227 118.584525,51.451227 118.984525,51.451227 C119.384525,51.451227 119.784525,52.151227 119.784525,52.951227 C119.784525,53.751227 120.284525,54.451227 120.884525,54.451227 C121.684525,54.451227 121.884525,56.451227 121.584525,60.451227 C121.384525,63.751227 121.484525,66.451227 121.984525,66.451227 C122.384525,66.451227 122.784525,67.351227 122.784525,68.451227 C122.784525,69.551227 122.184525,70.451227 121.584525,70.451227 C120.684525,70.451227 120.584525,70.651227 121.384525,71.251227 C122.984525,72.251227 124.084525,76.151227 122.884525,76.851227 C122.384525,77.251227 122.284525,78.951227 122.784525,81.151227 C123.284525,83.151227 123.484525,85.151227 123.184525,85.651227 C122.784525,86.251227 122.184525,90.851227 121.484525,99.951227 C121.384525,101.051227 120.884525,102.551227 120.384525,103.251227 C119.884525,104.051227 120.184525,105.251227 121.084525,106.251227 C121.984525,107.251227 122.784525,110.151227 122.984525,112.751227 C123.184525,115.351227 123.684525,117.451227 124.184525,117.451227 C124.684525,117.451227 124.484525,118.151227 123.784525,118.951227 C123.084525,119.851227 122.784525,120.751227 123.084525,121.151227 C123.484525,121.451227 123.284525,122.551227 122.784525,123.551227 C122.084525,124.751227 122.184525,125.551227 122.884525,126.051227 C123.784525,126.551227 123.584525,127.151227 122.384525,128.051227 C121.384525,128.751227 120.784525,129.851227 120.884525,130.651227 C120.984525,131.351227 120.884525,132.651227 120.584525,133.451227 C119.384525,136.851227 118.084525,147.951227 118.884525,148.251227 C119.384525,148.451227 118.884525,149.851227 117.784525,151.451227 C116.684525,152.951227 115.784525,155.451227 115.784525,156.851227 C115.784525,160.251227 113.084525,164.351227 110.084525,165.551227 C108.784525,166.051227 107.884525,166.851227 108.184525,167.351227 C108.984525,168.651227 102.084525,172.751227 100.684525,171.851227 C99.984525,171.451227 99.784525,171.551227 100.184525,172.251227 C102.384525,175.751227 79.784525,179.751227 66.184525,178.251227 Z M91.284525,171.951227 C92.984525,171.351227 94.984525,169.951227 95.784525,168.951227 C96.584525,167.851227 96.784525,167.351227 96.184525,167.751227 C95.484525,168.151227 94.484525,167.751227 93.784525,166.951227 C92.984525,165.951227 91.684525,165.651227 89.984525,166.151227 C87.684525,166.651227 87.584525,166.551227 88.184525,164.151227 C88.684525,161.851227 88.484525,161.651227 86.284525,161.851227 C84.884525,162.051227 83.184525,162.651227 82.584525,163.251227 C80.884525,164.951227 78.784525,164.751227 78.784525,162.951227 C78.784525,160.551227 76.784525,161.251227 75.784525,163.951227 C75.284525,165.251227 73.984525,166.951227 72.884525,167.551227 C71.884525,168.251227 71.184525,169.451227 71.584525,170.251227 C71.984525,171.351227 71.584525,171.551227 69.684525,170.951227 C66.084525,169.851227 66.084525,169.451227 69.084525,166.851227 C70.584525,165.551227 71.584525,164.451227 71.284525,164.451227 C70.884525,164.451227 72.484525,162.851227 74.784525,160.951227 C77.084525,159.051227 79.384525,157.451227 79.984525,157.451227 C80.484525,157.451227 80.684525,157.051227 80.284525,156.551227 C79.984525,155.951227 80.884525,154.351227 82.284525,152.751227 C86.484525,148.151227 94.784525,137.051227 94.784525,135.951227 C94.784525,135.351227 95.684525,134.351227 96.784525,133.651227 C97.884525,132.951227 98.784525,131.951227 98.784525,131.351227 C98.784525,130.551227 98.384525,130.551227 97.484525,131.351227 C96.684525,131.951227 95.784525,132.151227 95.484525,131.751227 C95.084525,131.451227 94.784525,131.851227 94.784525,132.651227 C94.784525,133.551227 93.284525,135.551227 91.584525,137.051227 C89.784525,138.551227 88.384525,140.151227 88.584525,140.651227 C88.684525,141.151227 88.084525,141.751227 87.284525,142.051227 C86.484525,142.451227 85.784525,143.251227 85.784525,144.051227 C85.784525,144.851227 85.384525,145.451227 84.784525,145.451227 C84.284525,145.451227 83.084525,146.851227 82.184525,148.651227 C81.284525,150.351227 78.584525,153.851227 76.084525,156.351227 C73.584525,158.851227 71.484525,161.151227 71.384525,161.451227 C71.384525,161.751227 70.984525,161.851227 70.584525,161.751227 C70.084525,161.551227 69.784525,162.351227 69.784525,163.551227 C69.784525,164.651227 69.384525,165.351227 68.784525,164.951227 C67.784525,164.351227 68.584525,161.351227 70.184525,160.251227 C70.984525,159.751227 70.984525,159.451227 70.184525,159.451227 C68.284525,159.451227 65.784525,161.951227 65.484525,164.451227 C65.184525,166.251227 64.184525,167.051227 61.784525,167.751227 C57.584525,168.851227 56.884525,168.051227 59.884525,165.151227 C61.184525,163.851227 63.384525,161.351227 64.784525,159.551227 C67.984525,155.451227 73.084525,150.451227 74.084525,150.451227 C74.484525,150.451227 74.784525,150.051227 74.784525,149.551227 C74.784525,148.951227 75.884525,147.351227 77.284525,145.851227 C79.784525,143.151227 80.684525,139.451227 78.784525,139.451227 C78.284525,139.451227 77.384525,140.351227 76.784525,141.351227 C76.284525,142.451227 74.384525,144.151227 72.784525,145.151227 C71.084525,146.051227 69.784525,147.451227 69.784525,148.151227 C69.784525,148.951227 68.184525,150.451227 66.284525,151.551227 C64.384525,152.751227 62.784525,154.151227 62.784525,154.751227 C62.784525,155.451227 61.184525,157.051227 59.284525,158.451227 C57.384525,159.851227 55.784525,161.451227 55.784525,162.051227 C55.784525,163.051227 53.184525,164.651227 49.484525,165.851227 C48.084525,166.351227 47.984525,166.751227 48.884525,168.251227 C50.484525,170.751227 58.984525,172.651227 72.784525,173.451227 C84.784525,174.151227 86.384525,173.951227 91.284525,171.951227 Z M51.284525,159.851227 C50.984525,158.451227 51.784525,156.551227 53.784525,154.351227 C58.384525,149.051227 57.684525,146.351227 52.884525,150.851227 C51.384525,152.151227 48.984525,153.451227 47.484525,153.851227 C45.084525,154.451227 44.484525,154.151227 44.084525,152.451227 C43.784525,151.351227 42.984525,150.451227 42.284525,150.451227 C41.684525,150.451227 40.584525,149.251227 39.884525,147.851227 C38.784525,145.351227 35.984525,144.951227 36.584525,147.451227 C36.684525,148.151227 36.384525,149.251227 35.784525,149.951227 C34.984525,150.951227 34.984525,151.551227 35.984525,152.151227 C36.684525,152.551227 37.884525,153.951227 38.584525,155.251227 C39.684525,157.151227 39.684525,157.851227 38.584525,159.251227 C37.484525,160.551227 37.484525,160.751227 39.084525,160.151227 C40.684525,159.551227 41.184525,160.351227 40.884525,162.951227 C40.884525,163.551227 41.784525,164.451227 43.084525,164.951227 C46.284525,166.351227 51.984525,162.851227 51.284525,159.851227 Z M54.684525,55.551227 C56.884525,51.351227 60.984525,43.351227 63.884525,37.751227 C66.784525,32.051227 69.484525,27.451227 69.984525,27.451227 C70.484525,27.451227 70.584525,27.051227 70.284525,26.451227 C69.984525,25.951227 70.184525,25.451227 70.684525,25.451227 C71.284525,25.451227 71.784525,25.051227 71.784525,24.451227 C71.784525,23.951227 73.284525,21.451227 74.984525,18.951227 C77.684525,15.051227 77.984525,14.151227 76.784525,13.451227 C74.684525,12.051227 73.284525,12.851227 73.584525,15.051227 C73.684525,16.151227 73.084525,17.951227 72.084525,18.951227 C71.084525,20.051227 68.984525,23.551227 67.384525,26.651227 C65.684525,29.851227 63.784525,32.651227 63.084525,32.851227 C62.384525,33.151227 62.084525,34.051227 62.384525,34.951227 C62.784525,35.851227 61.784525,37.651227 59.684525,39.651227 C57.784525,41.351227 56.884525,42.451227 57.584525,42.051227 C59.184525,41.151227 59.184525,42.951227 57.484525,44.651227 C56.784525,45.351227 54.484525,49.551227 52.384525,53.951227 C50.184525,58.351227 48.184525,62.151227 47.884525,62.451227 C47.584525,62.751227 47.184525,63.551227 46.984525,64.251227 C46.784525,65.251227 47.184525,65.251227 48.684525,64.251227 C49.784525,63.651227 52.484525,59.651227 54.684525,55.551227 Z M97.984525,45.551227 C99.184525,43.851227 100.284525,43.651227 106.184525,44.051227 C112.184525,44.451227 112.884525,44.251227 112.384525,42.851227 C112.084525,41.951227 111.484525,40.251227 111.184525,38.951227 C110.884525,37.651227 109.484525,35.851227 108.184525,34.951227 C106.884525,34.151227 105.784525,32.751227 105.784525,31.851227 C105.784525,30.451227 105.984525,30.451227 107.384525,31.851227 C109.484525,34.051227 110.784525,33.851227 110.784525,31.451227 C110.784525,28.251227 108.684525,25.651227 106.684525,26.151227 C105.584525,26.451227 105.084525,27.151227 105.384525,27.651227 C105.684525,28.151227 105.084525,29.351227 104.084525,30.251227 C102.984525,31.151227 100.884525,34.651227 99.384525,37.951227 C97.884525,41.251227 96.184525,44.751227 95.684525,45.751227 C94.384525,48.151227 96.284525,47.951227 97.984525,45.551227 Z" id="Shape" transform="translate(74.231136, 89.287632) scale(-1, 1) rotate(-180.000000) translate(-74.231136, -89.287632) "></path>
            <path d="M13.6090939,203.134117 C13.6090939,202.234117 12.7090939,201.634117 11.2090939,201.634117 C7.60909393,201.634117 6.20909393,199.334117 7.50909393,195.534117 C8.90909393,191.634117 8.90909393,191.334117 7.60909393,192.134117 C6.60909393,192.734117 6.90909393,176.134117 8.00909393,168.634117 C8.30909393,166.734117 9.00909393,162.434117 9.40909393,159.134117 C10.5090939,152.434117 11.6090939,148.534117 14.0090939,144.134117 C14.9090939,142.534117 15.6090939,140.034117 15.6090939,138.634117 C15.6090939,135.634117 18.2090939,130.434117 20.2090939,129.334117 C21.0090939,128.834117 21.4090939,128.134117 21.1090939,127.734117 C20.2090939,126.134117 25.7090939,116.534117 29.3090939,113.334117 C31.3090939,111.534117 34.1090939,108.934117 35.5090939,107.434117 C36.8090939,105.834117 38.6090939,104.634117 39.4090939,104.634117 C40.2090939,104.634117 40.6090939,104.034117 40.2090939,103.134117 C39.9090939,102.334117 40.2090939,101.634117 40.8090939,101.634117 C41.4090939,101.634117 42.7090939,100.934117 43.6090939,100.134117 C47.2090939,96.8341174 59.3090939,91.5341174 66.4090939,90.0341174 C74.2090939,88.4341174 88.8090939,88.7341174 92.5090939,90.6341174 C100.709094,94.8341174 105.209094,96.6341174 107.209094,96.6341174 C108.509094,96.6341174 109.609094,97.0341174 109.609094,97.5341174 C109.609094,98.0341174 111.209094,98.7341174 113.109094,99.0341174 C115.009094,99.4341174 117.209094,100.734117 118.109094,101.934117 C118.909094,103.134117 119.609094,103.834117 119.609094,103.534117 C119.609094,103.234117 121.909094,105.134117 124.609094,107.834117 C127.409094,110.434117 129.609094,112.934117 129.609094,113.334117 C129.609094,113.734117 130.709094,115.234117 132.109094,116.634117 C135.309094,119.934117 136.109094,125.234117 133.809094,126.634117 C132.309094,127.434117 132.309094,127.734117 133.609094,128.534117 C134.409094,129.134117 135.209094,130.834117 135.209094,132.334117 C135.409094,135.634117 139.509094,147.634117 140.409094,147.634117 C140.809094,147.634117 141.209094,149.034117 141.309094,150.634117 C141.409094,152.334117 141.009094,153.634117 140.509094,153.634117 C139.909094,153.634117 139.609094,154.234117 139.909094,154.934117 C140.209094,155.634117 140.109094,159.234117 139.709094,163.034117 C139.309094,166.734117 139.409094,169.934117 139.809094,170.234117 C140.309094,170.534117 139.809094,171.534117 138.909094,172.434117 C137.909094,173.334117 137.509094,173.834117 138.009094,173.434117 C139.709094,172.134117 140.909094,172.534117 139.709094,173.934117 C139.109094,174.734117 138.909094,175.634117 139.309094,175.934117 C139.609094,176.334117 139.909094,178.234117 139.809094,180.134117 C139.709094,182.034117 140.109094,183.634117 140.809094,183.634117 C141.409094,183.634117 141.409094,184.234117 140.509094,185.234117 C139.409094,186.634117 139.509094,186.734117 141.609094,186.434117 C143.309094,186.234117 144.109094,185.534117 144.109094,184.234117 C144.109094,183.134117 144.709094,182.134117 145.409094,181.834117 C146.309094,181.534117 146.509094,182.134117 146.009094,184.334117 C145.209094,187.434117 144.009094,188.634117 141.309094,188.634117 C139.809094,188.634117 139.609094,189.234117 140.109094,192.634117 C140.509094,195.134117 140.309094,196.634117 139.609094,196.634117 C139.109094,196.634117 138.609094,197.134117 138.609094,197.634117 C138.609094,198.234117 139.409094,198.634117 140.409094,198.634117 C141.609094,198.634117 141.409094,199.034117 139.609094,199.934117 C137.009094,201.334117 134.509094,199.934117 136.909094,198.434117 C137.809094,197.834117 137.709094,197.634117 136.709094,197.634117 C136.009094,197.634117 135.609094,197.034117 136.009094,196.134117 C136.309094,195.334117 136.109094,194.634117 135.609094,194.634117 C135.009094,194.634117 134.609094,193.734117 134.609094,192.534117 C134.609094,191.434117 134.109094,189.634117 133.609094,188.534117 C132.709094,186.934117 133.009094,186.134117 135.109094,184.234117 C137.709094,181.834117 138.709094,179.534117 136.309094,181.534117 C134.509094,183.034117 133.409094,181.834117 134.609094,179.634117 C135.109094,178.634117 135.309094,177.634117 135.009094,177.334117 C134.709094,177.034117 134.309094,170.734117 134.109094,163.334117 C133.809094,150.134117 132.409094,142.634117 130.109094,142.634117 C129.509094,142.634117 129.009094,141.134117 129.009094,139.334117 C129.009094,137.434117 127.809094,133.434117 126.309094,130.234117 C124.809094,127.134117 123.609094,123.934117 123.609094,123.134117 C123.609094,122.334117 122.909094,121.634117 122.109094,121.634117 C121.309094,121.634117 120.609094,121.034117 120.609094,120.334117 C120.609094,118.034117 112.309094,111.634117 109.409094,111.634117 C106.809094,111.634117 94.6090939,107.334117 94.6090939,106.434117 C94.6090939,105.834117 95.8090939,105.734117 97.4090939,106.134117 C99.6090939,106.634117 99.9090939,106.534117 98.8090939,105.434117 C97.0090939,103.634117 78.1090939,103.134117 66.9090939,104.534117 C54.0090939,106.234117 49.4090939,108.234117 41.9090939,115.134117 C31.1090939,125.134117 26.2090939,133.134117 24.5090939,143.934117 C23.9090939,147.334117 23.2090939,150.834117 22.9090939,151.634117 C22.6090939,152.434117 22.1090939,154.234117 21.9090939,155.634117 C21.7090939,157.034117 21.1090939,160.434117 20.5090939,163.234117 C20.0090939,166.034117 19.6090939,169.834117 19.6090939,171.734117 C19.7090939,173.634117 19.4090939,179.634117 19.0090939,185.134117 C18.7090939,190.634117 18.4090939,196.534117 18.5090939,198.334117 C18.6090939,201.334117 16.5090939,204.634117 14.5090939,204.634117 C14.0090939,204.634117 13.6090939,203.934117 13.6090939,203.134117 Z" id="Shape" transform="translate(76.638476, 146.817059) scale(-1, 1) rotate(-180.000000) translate(-76.638476, -146.817059) "></path>
            <path d="M63.822401,314.80939 C62.622401,313.40939 62.622401,313.30939 63.822401,313.90939 C64.822401,314.60939 64.922401,314.20939 64.422401,312.40939 C63.522401,309.70939 63.622401,304.40939 64.522401,300.30939 C64.922401,298.40939 64.722401,297.50939 63.822401,297.50939 C63.122401,297.50939 62.922401,297.20939 63.222401,296.80939 C63.622401,296.50939 63.322401,295.50939 62.622401,294.70939 C61.722401,293.50939 61.722401,293.10939 62.722401,292.80939 C63.322401,292.50939 63.922401,291.60939 63.922401,290.70939 C63.922401,289.30939 63.722401,289.30939 63.022401,290.40939 C62.422401,291.30939 62.022401,290.30939 61.822401,287.30939 C61.522401,284.20939 61.822401,282.90939 62.522401,283.20939 C63.222401,283.40939 64.022401,283.20939 64.422401,282.60939 C64.722401,282.00939 64.322401,281.50939 63.322401,281.50939 C61.922401,281.50939 61.922401,281.30939 63.022401,279.90939 C63.822401,278.90939 63.922401,278.10939 63.222401,277.70939 C62.122401,276.90939 62.022401,251.70939 63.222401,249.80939 C63.622401,249.20939 63.422401,248.50939 62.822401,248.30939 C62.022401,248.00939 61.722401,245.60939 61.922401,241.50939 C62.122401,237.90939 62.222401,233.70939 62.222401,232.20939 C62.222401,229.50939 62.422401,229.30939 65.422401,229.70939 C68.022401,230.00939 68.622401,229.80939 68.122401,228.50939 C67.822401,227.70939 67.122401,226.70939 66.522401,226.30939 C65.922401,225.90939 66.522401,225.50939 67.822401,225.50939 C69.422401,225.50939 69.922401,225.10939 69.322401,224.60939 C67.622401,222.90939 52.422401,222.20939 48.222401,223.60939 C46.122401,224.30939 43.922401,225.00939 43.322401,225.10939 C42.722401,225.20939 41.122401,225.60939 39.922401,226.00939 C38.422401,226.50939 37.922401,226.40939 38.322401,225.60939 C38.822401,224.90939 38.422401,224.70939 37.422401,225.10939 C36.622401,225.50939 35.322401,225.30939 34.622401,224.80939 C33.122401,223.60939 28.722401,223.30939 29.422401,224.50939 C30.222401,225.80939 20.622401,226.70939 17.622401,225.60939 C16.022401,225.00939 13.022401,224.50939 10.822401,224.50939 C8.42240099,224.50939 6.92240099,224.00939 6.92240099,223.30939 C6.92240099,222.30939 6.72240099,222.30939 6.02240099,223.30939 C5.52240099,224.20939 4.32240099,224.40939 2.62240099,223.90939 C-0.477599013,223.20939 -0.977599013,220.50939 1.92240099,220.50939 C4.12240099,220.50939 4.52240099,218.50939 2.82240099,216.80939 C0.822400987,214.80939 3.62240099,210.00939 7.72240099,208.10939 C11.222401,206.50939 12.322401,206.60939 26.922401,208.60939 C35.422401,209.80939 44.922401,210.80939 47.922401,210.70939 C51.022401,210.60939 53.622401,211.00939 54.022401,211.70939 C54.422401,212.30939 57.022401,212.90939 59.822401,213.20939 C64.822401,213.50939 64.922401,213.50939 63.922401,211.50939 C63.322401,210.30939 63.222401,209.50939 63.822401,209.50939 C64.322401,209.50939 64.922401,210.30939 65.122401,211.30939 C65.422401,212.90939 68.122401,213.30939 79.922401,213.60939 C84.222401,213.70939 87.922401,213.10939 87.922401,212.20939 C87.922401,211.70939 88.722401,211.90939 89.622401,212.60939 C91.022401,213.80939 91.122401,213.80939 90.522401,212.60939 C90.022401,211.80939 90.222401,210.90939 91.022401,210.40939 C91.922401,209.80939 90.022401,209.70939 86.022401,210.10939 C81.622401,210.60939 79.822401,210.50939 80.222401,209.70939 C80.622401,209.20939 84.322401,208.70939 88.622401,208.70939 C92.922401,208.70939 98.122401,208.40939 100.222401,208.00939 C102.322401,207.60939 103.922401,207.70939 103.822401,208.10939 C103.222401,211.60939 105.022401,212.50939 107.622401,209.90939 C108.922401,208.70939 111.622401,208.40939 122.522401,208.60939 C129.822401,208.70939 136.222401,209.10939 136.722401,209.40939 C137.122401,209.70939 138.722401,211.90939 140.122401,214.30939 C141.422401,216.60939 142.922401,218.20939 143.222401,217.80939 C143.622401,217.50939 143.922401,217.70939 143.922401,218.30939 C143.922401,219.00939 143.522401,219.50939 142.922401,219.50939 C142.422401,219.50939 141.922401,220.90939 141.922401,222.50939 C141.922401,225.80939 141.622401,226.00939 138.822401,224.50939 C135.322401,222.60939 128.622401,222.60939 127.222401,224.40939 C126.222401,225.90939 124.622401,226.10939 116.722401,225.90939 C111.622401,225.70939 104.622401,225.60939 101.222401,225.50939 C97.822401,225.50939 94.822401,225.10939 94.522401,224.70939 C94.022401,223.90939 80.922401,224.10939 80.222401,224.90939 C79.522401,225.60939 77.722401,237.90939 77.822401,241.00939 C77.922401,242.70939 78.622401,244.50939 79.422401,245.10939 C81.122401,246.40939 81.522401,254.00939 79.822401,255.00939 C79.222401,255.40939 79.022401,256.30939 79.322401,257.10939 C79.622401,257.90939 79.422401,258.50939 78.922401,258.50939 C78.322401,258.50939 77.922401,259.20939 77.922401,260.00939 C77.922401,260.80939 78.422401,261.50939 78.922401,261.50939 C80.522401,261.50939 80.122401,267.20939 78.422401,268.90939 C77.622401,269.70939 77.322401,270.60939 77.822401,270.90939 C78.422401,271.30939 78.422401,272.80939 77.822401,274.80939 C76.322401,279.60939 76.222401,284.50939 77.622401,285.60939 C78.422401,286.30939 78.522401,287.40939 77.922401,289.10939 C77.422401,290.40939 77.322401,291.50939 77.722401,291.50939 C78.122401,291.50939 77.722401,292.00939 76.922401,292.60939 C75.822401,293.40939 75.722401,293.80939 76.722401,294.20939 C77.522401,294.50939 77.922401,297.00939 77.922401,301.50939 C77.922401,306.80939 77.622401,308.40939 76.322401,308.90939 C75.022401,309.40939 74.822401,310.30939 75.422401,313.30939 C76.022401,316.90939 76.022401,317.00939 74.222401,315.00939 C71.822401,312.40939 70.122401,306.00939 70.422401,301.00939 C70.622401,298.80939 70.522401,296.20939 70.222401,295.10939 C69.322401,291.70939 67.822401,295.60939 68.022401,301.00939 C68.522401,316.00939 67.422401,319.30939 63.822401,314.80939 Z" id="Shape" transform="translate(71.961200, 261.835883) scale(-1, 1) rotate(-180.000000) translate(-71.961200, -261.835883) "></path>
        </g>
    </g>
</svg>