<?xml version="1.0" encoding="UTF-8"?>
<svg width="285px" height="621px" viewBox="0 0 285 621" version="1.1" xmlns="http://www.w3.org/2000/svg" xmlns:xlink="http://www.w3.org/1999/xlink">
    <!-- Generator: Sketch 42 (36781) - http://www.bohemiancoding.com/sketch -->
    <title>Group 2</title>
    <desc>Created with Sketch.</desc>
    <defs></defs>
    <g id="Page-1" stroke="none" stroke-width="1" fill="none" fill-rule="evenodd">
        <g id="Group-2" transform="translate(-18.000000, -1.000000)" fill-rule="nonzero" fill="#000000">
            <path d="M69,619.460291 C67.4,618.160291 65.9,615.760291 65.5,614.160291 C65.2,612.560291 64.2,610.760291 63.4,610.060291 C62.6,609.460291 62,608.360291 62,607.760291 C61.9,607.160291 59.7,604.860291 57,602.760291 C54.2,600.560291 52,598.360291 52,597.860291 C52,597.360291 52.7,597.460291 53.5,598.160291 C54.5,599.060291 55,599.060291 55,598.260291 C55,597.660291 55.5,597.160291 56.1,597.160291 C56.6,597.160291 56.8,597.660291 56.4,598.360291 C56,599.060291 56.1,599.160291 56.9,598.760291 C57.5,598.360291 57.8,597.560291 57.5,597.060291 C57.2,596.560291 56.7,592.060291 56.5,586.960291 C56.4,581.860291 55.4,574.960291 54.5,571.660291 C53.6,568.360291 52.8,563.660291 52.9,561.160291 C52.9,553.060291 48.1,550.060291 47.5,557.860291 C47.1,562.860291 46.4,564.260291 44.7,563.560291 C43.7,563.160291 43.6,561.660291 44.3,556.860291 C45.8,546.460291 46,544.060291 46.5,531.660291 C47,520.460291 47.5,513.260291 48.5,503.660291 C48.8,501.460291 49.2,496.560291 49.5,492.660291 C50.2,483.160291 50.8,478.960291 53,470.160291 C56.3,456.560291 59.1,446.860291 60.6,444.060291 C61.3,442.560291 62,440.460291 62,439.360291 C62,438.360291 62.9,435.760291 64,433.460291 C65,431.260291 66.1,428.360291 66.4,427.060291 C66.7,425.760291 68.3,420.860291 70,416.160291 C75.6,400.960291 75.5,401.360291 73.7,399.460291 C72.9,398.460291 70.3,390.960291 68,382.660291 C65.8,374.460291 63.5,367.560291 63,367.360291 C62.4,367.160291 62,366.160291 62,365.160291 C62,364.160291 61.5,362.960291 60.9,362.560291 C60.3,362.260291 60,361.060291 60.3,360.060291 C60.6,359.060291 60.4,358.160291 59.9,357.960291 C58.2,357.360291 55.9,344.760291 55.5,333.360291 C55.2,327.060291 54.8,321.660291 54.5,321.160291 C54.2,320.660291 54.5,319.960291 55.1,319.660291 C55.6,319.260291 55.9,318.360291 55.6,317.560291 C55.3,316.760291 55.6,316.160291 56.3,316.160291 C57,316.060291 56.5,315.560291 55.2,314.860291 C54,314.160291 53.2,313.360291 53.4,313.060291 C53.7,312.860291 54,309.860291 54.2,306.460291 C54.4,301.260291 54.8,300.160291 56.5,299.660291 C57.6,299.260291 58,298.760291 57.4,298.560291 C56.1,297.960291 56.7,294.160291 58.1,294.160291 C58.6,294.160291 59,293.460291 59,292.660291 C59,291.860291 58.6,291.160291 58,291.160291 C56.4,291.160291 56.8,288.560291 59.1,284.660291 C60.5,282.260291 60.9,280.760291 60.3,279.860291 C59.3,278.660291 55.5,267.860291 52.9,259.260291 C51.5,254.660291 51.4,247.860291 52.4,239.060291 C54.3,223.760291 61.5,198.160291 65.6,191.660291 C66.4,190.460291 67.1,188.660291 67.3,187.660291 C67.5,186.560291 68.2,184.360291 68.9,182.660291 C69.5,181.060291 70.6,178.360291 71.2,176.660291 C71.8,175.060291 72.7,173.260291 73.2,172.660291 C73.6,172.160291 74,171.360291 74,170.860291 C74,170.360291 70.9,172.860291 67,176.560291 C57.7,185.260291 53.9,187.160291 45.3,187.160291 C40.3,187.160291 37.4,186.560291 34.5,185.060291 C30.3,182.860291 25.1,177.560291 25,175.360291 C25,174.760291 24.1,172.460291 23,170.460291 C21.9,168.360291 21,165.960291 21,165.060291 C21,164.260291 20.7,163.160291 20.3,162.760291 C19.5,162.060291 19.3,160.760291 18.4,153.960291 C18,151.360291 18.1,148.460291 18.5,147.460291 C18.9,146.460291 19.4,141.160291 19.6,135.660291 C20.2,119.260291 21,113.760291 23.7,106.160291 C24,105.360291 24.4,103.360291 24.5,101.660291 C24.7,100.060291 25.1,97.9602908 25.3,97.1602908 C25.5,96.3602908 26.1,93.8602908 26.7,91.6602908 C27.3,89.4602908 28.1,85.4602908 28.5,82.6602908 C28.9,79.9602908 29.5,77.2602908 30,76.6602908 C30.4,76.1602908 31,74.3602908 31.4,72.7602908 C31.8,71.1602908 33,68.6602908 34.1,67.2602908 C35.2,65.8602908 37.8,61.9602908 39.9,58.6602908 C42,55.2602908 46.3,50.4602908 49.8,47.6602908 C53.1,44.8602908 55.9,42.3602908 55.9,41.9602908 C56,41.4602908 54.8,41.1602908 53.2,41.1602908 C50.3,41.1602908 40.1,34.4602908 40.1,32.4602908 C40,31.8602908 38.7,28.3602908 37,24.8602908 C33.7,17.5602908 32.8,8.16029076 35.4,8.16029076 C36.2,8.16029076 37,8.76029076 37.3,9.46029076 C37.6,10.3602908 38,10.3602908 39.1,9.56029076 C41.3,7.86029076 47,7.06029076 49.1,8.16029076 C50.1,8.76029076 55.8,9.86029076 61.7,10.6602908 C67.7,11.5602908 75.1,12.8602908 78.3,13.6602908 C83.1,14.8602908 84.9,14.9602908 88.7,13.8602908 C92.4,12.8602908 93.4,12.9602908 93.7,13.9602908 C94.4,15.8602908 96.2,15.4602908 104.7,11.5602908 C114.1,7.16029076 123.4,5.36029076 128.3,6.86029076 C132.3,8.06029076 134.7,7.06029076 136,3.56029076 C137.1,0.66029076 139.1,0.56029076 144.4,3.06029076 C149.3,5.36029076 163.1,7.86029076 172,8.06029076 C175.6,8.16029076 180.5,8.86029076 183,9.66029076 C191.4,12.1602908 194.8,12.3602908 198.1,10.4602908 C200.7,8.96029076 201.2,8.86029076 202,10.1602908 C202.5,10.9602908 202.7,11.8602908 202.4,12.2602908 C201.9,13.1602908 212.1,17.0602908 217.5,18.0602908 C221.4,18.7602908 221.5,18.7602908 221.2,22.6602908 C221,24.9602908 221.5,27.4602908 222.3,28.5602908 C223.7,30.3602908 223.9,30.3602908 228.6,26.8602908 C231.3,24.8602908 234,22.7602908 234.7,22.1602908 C235.4,21.6602908 236.4,21.1602908 237,21.1602908 C237.6,21.1602908 238.8,20.7602908 239.8,20.2602908 C240.7,19.7602908 243.8,18.2602908 246.5,17.0602908 C249.3,15.7602908 251.6,14.5602908 251.8,14.4602908 C252,14.3602908 251.6,13.3602908 251,12.1602908 C249.9,10.1602908 250,10.0602908 252.2,10.6602908 C254.6,11.4602908 263.4,15.9602908 265.8,17.6602908 C271.1,21.4602908 278,31.4602908 278.7,36.1602908 C279.9,44.5602908 280.1,52.1602908 279,52.1602908 C278.4,52.1602908 278.2,52.5602908 278.5,53.1602908 C278.8,53.6602908 281,53.8602908 283.3,53.5602908 C287.1,53.0602908 287.9,53.3602908 291.8,56.8602908 C294.1,59.0602908 296,61.2602908 296,61.8602908 C296,62.4602908 296.7,63.4602908 297.5,64.1602908 C298.3,64.8602908 298.8,65.7602908 298.5,66.1602908 C298.2,66.5602908 298.6,67.4602908 299.3,68.0602908 C301.6,69.9602908 303.3,76.7602908 302.8,82.3602908 C301.9,92.4602908 296.6,100.160291 288.2,103.760291 C280.5,106.960291 279.7,102.660291 287.2,99.0602908 C290.8,97.4602908 293.4,95.2602908 295.4,92.5602908 C297.8,88.9602908 298.2,87.4602908 298.2,81.6602908 C298.2,75.5602908 297.8,74.6602908 294.6,70.4602908 C292.7,67.9602908 291,65.6602908 290.8,65.2602908 C290.2,63.7602908 283.2,59.1602908 281.7,59.1602908 C280.7,59.1602908 280,58.7602908 280,58.1602908 C280,57.6602908 279.5,57.1602908 278.9,57.1602908 C278.4,57.1602908 278.1,57.5602908 278.5,58.0602908 C279.2,59.2602908 275.4,60.5602908 273.9,59.6602908 C273.2,59.1602908 273.1,56.6602908 273.5,52.4602908 C274.3,43.5602908 273.4,38.6602908 270.7,37.3602908 C268.8,36.4602908 268.8,36.2602908 270.3,36.2602908 C272.6,36.1602908 271.7,34.5602908 269,33.8602908 C267.9,33.5602908 267.2,33.7602908 267.6,34.2602908 C268.7,36.0602908 267,35.0602908 264.3,32.2602908 C262.1,30.0602908 259.7,29.0602908 252.8,27.6602908 C242.9,25.6602908 239.4,26.0602908 232.3,29.7602908 C226,33.1602908 223.8,35.1602908 224.9,36.5602908 C225.4,37.1602908 226.7,40.0602908 227.8,42.9602908 C229.8,48.1602908 229.8,51.1602908 227.8,51.1602908 C226.3,51.1602908 227.8,55.9602908 230,58.1602908 C231.1,59.2602908 232,60.8602908 232,61.6602908 C232,62.5602908 232.7,64.2602908 233.5,65.5602908 C236.1,69.5602908 238.2,79.2602908 238.6,89.9602908 C239,98.1602908 238.8,100.160291 237.7,100.160291 C236.8,100.160291 236.3,101.260291 236.4,103.160291 C236.5,104.760291 236.9,106.160291 237.4,106.160291 C237.9,106.160291 237.7,106.860291 237,107.660291 C236,108.860291 236,109.460291 237,110.660291 C238.6,112.660291 236.4,112.760291 234.5,110.760291 C233.4,109.760291 233.1,106.460291 233.3,97.0602908 C233.4,90.2602908 233.2,83.0602908 232.8,81.0602908 C232.1,77.4602908 227.6,67.6602908 222.6,59.1602908 C221.2,56.6602908 219.7,53.9602908 219.3,53.1602908 C217.8,49.9602908 209.4,38.5602908 207,36.4602908 C203.8,33.6602908 202.7,33.6602908 201.5,36.3602908 C199.9,39.9602908 198,39.0602908 195.8,33.8602908 C194,29.7602908 193.9,28.8602908 195.1,28.0602908 C196.2,27.3602908 195.7,26.4602908 192.5,23.7602908 L188.6,20.4602908 L177.5,20.8602908 C171.5,21.1602908 164.6,20.9602908 162.4,20.3602908 C156.7,19.0602908 155.1,20.1602908 155.3,25.1602908 C155.4,28.9602908 157.1,30.4602908 158.5,28.1602908 C159.2,26.9602908 163,26.8602908 163,27.9602908 C163,28.4602908 164.8,29.3602908 167,30.0602908 C169.2,30.6602908 171,31.7602908 171,32.2602908 C171,32.8602908 171.9,34.5602908 173,36.1602908 C174.1,37.6602908 174.7,39.0602908 174.5,39.3602908 C174.1,39.7602908 174.9,43.0602908 176.7,48.1602908 C177.4,50.1602908 177.7,58.4602908 177.2,59.5602908 C176.2,61.3602908 176.1,106.160291 177.1,106.660291 C177.6,107.060291 178,109.260291 178,111.660291 C178,114.060291 178.4,116.360291 179,116.660291 C180.5,117.560291 180.2,119.160291 178.5,119.160291 C176.7,119.160291 176.5,120.760291 178.2,121.760291 C178.9,122.160291 179,122.060291 178.6,121.360291 C178.2,120.660291 178.5,120.160291 179.4,120.160291 C180.3,120.160291 181.3,121.360291 181.6,122.860291 C182,124.460291 183.9,127.660291 185.9,130.160291 C187.9,132.660291 190,135.260291 190.5,135.960291 C191.1,136.660291 193,138.660291 194.9,140.460291 C196.8,142.260291 199,144.360291 199.9,145.260291 C202.4,147.660291 208.5,150.160291 211.9,150.160291 C213.6,150.160291 214.9,149.860291 214.8,149.460291 C214.3,147.760291 216,142.160291 217,142.160291 C217.6,142.160291 217.9,142.560291 217.6,143.060291 C217.2,143.560291 217.5,144.160291 218,144.360291 C218.7,144.560291 218.6,146.360291 217.6,149.460291 C216.8,152.060291 216.6,154.160291 217.1,154.160291 C218.6,154.160291 218.1,156.960291 216.4,157.560291 C214,158.460291 210.2,158.260291 209.5,157.160291 C209.2,156.560291 207.4,156.160291 205.7,156.160291 C200.4,156.060291 195.6,153.060291 189.1,145.660291 C185.7,141.860291 182.6,138.260291 182.2,137.860291 C178.5,133.660291 167,123.960291 165.3,123.560291 C160.6,122.360291 153.1,130.960291 152.5,138.160291 C152.4,140.260291 152,142.360291 151.6,142.960291 C151.2,143.560291 151.8,144.460291 152.7,145.060291 C153.7,145.560291 154.2,146.360291 153.8,146.760291 C153.3,147.160291 153.5,148.060291 154,148.660291 C154.9,149.660291 156,153.460291 158.4,162.660291 C159.1,165.060291 160.5,167.760291 162.2,169.560291 C163.1,170.560291 163.7,171.760291 163.5,172.160291 C163.2,172.660291 163.7,174.260291 164.5,175.760291 C165.3,177.360291 166,179.460291 166,180.460291 C166,181.860291 166.5,182.160291 168,181.660291 C169.7,181.160291 170.1,181.560291 170.6,184.060291 C171,185.760291 171.6,187.160291 172.1,187.160291 C172.6,187.160291 173,187.560291 173,188.060291 C173,189.860291 178.5,198.060291 179.7,198.160291 C180.4,198.160291 180.7,198.860291 180.4,199.660291 C180,200.460291 181.5,203.260291 183.9,206.260291 C186.2,209.060291 188,212.260291 188,213.360291 C188,214.460291 188.8,217.360291 189.8,219.960291 C192.5,226.860291 194.1,231.360291 194.7,233.960291 C195,235.160291 195.7,236.160291 196.4,236.160291 C197,236.160291 196.8,236.660291 196,237.160291 C195,237.760291 194.9,238.160291 195.8,238.160291 C196.4,238.160291 197,239.260291 197,240.560291 C197,241.960291 197.4,243.260291 197.9,243.560291 C198.7,244.160291 199.5,247.360291 200.8,255.160291 C201.1,257.060291 201.3,262.060291 201.4,266.160291 C201.5,271.960291 201.9,274.060291 203.2,275.260291 C204.2,276.160291 205,277.260291 205,277.560291 C205,277.960291 205.6,278.860291 206.3,279.660291 C208.9,282.260291 210.1,279.760291 209.9,271.560291 C209.9,267.260291 210.5,258.960291 211.4,253.160291 C212.3,247.360291 213.4,237.360291 214,230.760291 C214.6,224.260291 215.2,218.660291 215.4,218.260291 C215.6,217.960291 215.9,215.360291 216.1,212.660291 C216.2,209.860291 216.6,207.260291 216.9,206.660291 C217.1,206.160291 217.5,204.560291 217.7,203.160291 C218.5,196.660291 219,192.460291 219.1,190.660291 C219.2,189.560291 219.8,186.460291 220.6,183.660291 C221.3,180.960291 222.4,174.760291 223.1,169.960291 C223.8,164.660291 224.7,161.460291 225.3,161.860291 C225.9,162.160291 226.1,162.060291 225.8,161.560291 C225.3,160.760291 225.8,155.860291 227.5,145.160291 C228.8,136.660291 229,133.860291 229.4,126.360291 C229.6,120.860291 230.2,117.560291 231.2,116.360291 C232.1,115.460291 233,113.960291 233.3,113.160291 C233.7,111.960291 233.9,112.060291 233.9,113.460291 C234,114.360291 234.7,115.160291 235.5,115.160291 C236.3,115.160291 237,115.960291 237,116.960291 C237,118.260291 236.8,118.360291 236.1,117.360291 C235.5,116.360291 235.1,116.460291 234.7,118.060291 C234.4,119.260291 234.6,120.160291 235.1,120.160291 C236.6,120.160291 236.1,125.860291 234.5,127.460291 C233.4,128.660291 233.3,129.160291 234.3,129.460291 C235.2,129.860291 235.2,130.060291 234.2,130.060291 C233.2,130.160291 233.2,130.560291 234.2,132.060291 C235.2,133.760291 235.1,134.360291 233.6,136.060291 C232.5,137.260291 232.2,138.160291 232.8,138.160291 C233.4,138.160291 234.1,137.560291 234.4,136.960291 C234.7,136.260291 234.7,137.960291 234.3,140.660291 C233.9,143.460291 233.5,147.260291 233.3,149.160291 C232.4,158.460291 232.4,158.660291 230.3,158.960291 C228,159.260291 226.3,162.160291 228.3,162.160291 C229,162.160291 228.6,162.860291 227.6,163.660291 C226.5,164.460291 226.2,165.160291 226.8,165.160291 C227.7,165.160291 227.8,165.660291 227,167.060291 C226,169.060291 226.6,172.160291 228,172.160291 C228.4,172.160291 229,173.160291 229.4,174.460291 C230.3,178.360291 239.6,187.160291 241.9,186.360291 C242.7,186.060291 243,186.360291 242.6,187.060291 C240.9,189.760291 245.4,187.860291 251,183.460291 C256.3,179.360291 257.3,178.060291 258.7,173.260291 C260.9,165.660291 260.8,162.660291 257.7,155.960291 C254.5,149.160291 254.4,148.860291 257.1,149.660291 C258.7,150.160291 259,150.060291 258.5,149.160291 C257.9,148.160291 258.8,148.060291 262.6,148.560291 C274.9,150.260291 277.5,150.260291 281,148.460291 C285.5,146.060291 290.2,139.260291 290.9,133.960291 C292.2,124.960291 289,114.260291 284,110.460291 C283.2,109.860291 281.6,108.560291 280.5,107.660291 C278.6,106.060291 278.6,106.060291 281.9,106.560291 C285,107.160291 289,110.060291 289,111.760291 C289,112.160291 289.7,112.960291 290.6,113.660291 C293.2,115.560291 295.7,127.560291 295.6,137.460291 C295.5,142.260291 295,146.560291 294.5,146.960291 C293.9,147.360291 292.2,149.560291 290.6,151.960291 C285.8,158.960291 282.9,160.560291 275.8,159.860291 C271.7,159.460291 268.6,158.560291 265.8,156.660291 C263.6,155.160291 261.6,154.160291 261.4,154.360291 C261.2,154.560291 261.9,156.560291 263,158.760291 C265,162.960291 266.5,177.760291 264.9,178.760291 C264.4,179.060291 264,180.360291 264,181.560291 C264,182.860291 263.3,184.460291 262.5,185.160291 C261.7,185.860291 261,186.860291 261,187.360291 C261,188.560291 257,192.760291 257,191.560291 C257,191.060291 256.5,191.460291 255.9,192.360291 C254.5,194.760291 248.5,194.660291 241.5,192.260291 C235,189.960291 230.6,186.660291 229,182.860291 C228.2,181.160291 227,180.160291 225.7,180.160291 C224.6,180.160291 224,180.460291 224.3,180.860291 C224.7,181.160291 224.5,182.160291 223.8,182.860291 C222.9,183.960291 222.9,184.460291 223.9,185.060291 C224.9,185.660291 224.9,186.760291 224.2,189.460291 C223.6,191.460291 223.4,193.260291 223.6,193.460291 C223.9,193.660291 223.4,196.760291 222.5,200.260291 C221.7,203.760291 221.4,206.760291 221.9,206.960291 C222.4,207.160291 221.9,209.060291 220.8,211.360291 C219.2,214.660291 219.1,215.560291 220.2,216.260291 C221.2,216.960291 221.2,217.160291 220.3,217.160291 C218.7,217.160291 218.6,219.860291 220.1,220.360291 C220.9,220.660291 220.7,221.960291 219.6,224.560291 C218.5,227.160291 218.3,228.860291 219,230.160291 C219.5,231.060291 219.7,232.160291 219.4,232.460291 C218.1,233.760291 217.2,240.660291 218.1,241.760291 C218.8,242.560291 218.7,243.160291 218,243.660291 C216.3,244.660291 216.8,249.160291 218.6,249.160291 C219.8,249.160291 219.3,250.160291 216.9,252.860291 C214.2,255.960291 213.9,256.760291 215.3,256.960291 C216.3,257.160291 216.7,257.760291 216.4,258.360291 C215.7,259.360291 214.9,272.160291 214.9,282.460291 C214.9,285.560291 214.5,288.160291 214,288.160291 C213.5,288.160291 213.5,289.560291 214.1,291.360291 C214.6,293.060291 214.8,294.760291 214.5,294.960291 C214.3,295.260291 215,296.160291 216.1,297.060291 C217.9,298.560291 218,299.060291 216.9,301.460291 C216.2,302.960291 215.3,304.160291 214.9,304.160291 C213.8,304.160291 212.7,300.360291 213.5,299.160291 C213.8,298.660291 213.4,298.160291 212.5,298.160291 C211.6,298.160291 211.1,297.760291 211.5,297.260291 C211.8,296.760291 211.6,295.960291 211,295.660291 C209.7,294.860291 206.8,297.060291 207.6,298.260291 C207.9,298.760291 207.6,299.160291 207.1,299.160291 C206.5,299.160291 204.3,300.660291 202.3,302.460291 C200.2,304.260291 195.8,307.060291 192.5,308.660291 C189.2,310.160291 185.7,311.860291 184.8,312.360291 C181.1,314.060291 174.4,316.160291 172.3,316.160291 C171,316.160291 170,316.560291 170,316.960291 C170,318.060291 149.2,321.160291 142.3,321.160291 C137.5,321.160291 131.3,320.060291 109.5,315.260291 C99.3,313.060291 96.8,312.260291 97.4,311.260291 C97.6,310.960291 96.5,310.660291 95,310.560291 C91.2,310.460291 88.8,309.360291 89.5,308.160291 C90.3,306.960291 97,306.860291 97,308.060291 C97,308.460291 99.8,309.460291 103.3,310.160291 C106.7,310.760291 110.2,311.560291 111,311.860291 C111.8,312.160291 113.3,312.460291 114.3,312.460291 C120.1,312.260291 120,312.360291 120,307.760291 C120,303.160291 121.2,301.160291 125.3,298.960291 C131.8,295.460291 148.5,294.760291 156.8,297.560291 C161.9,299.260291 168,304.360291 168,306.860291 C168,307.460291 168.5,308.160291 169.2,308.360291 C169.8,308.560291 169.1,309.960291 167.4,311.560291 L164.5,314.260291 L168.5,313.560291 C180.6,311.460291 199.5,301.560291 204.3,294.760291 C205.5,293.060291 206.8,291.560291 207.2,291.360291 C208.6,290.760291 208.1,289.160291 206.5,289.160291 C205.7,289.160291 205.1,288.860291 205.2,288.460291 C205.6,287.260291 201.2,280.160291 200,280.160291 C199.5,280.160291 199.1,279.860291 199.2,279.460291 C199.5,278.060291 197.2,273.560291 195.6,272.260291 C194.7,271.560291 194.3,270.560291 194.6,270.060291 C194.9,269.560291 194.4,269.160291 193.6,269.160291 C192.8,269.160291 191.7,268.560291 191.3,267.960291 C190.9,267.260291 188.8,265.760291 186.7,264.760291 C184.6,263.660291 183.1,262.260291 183.4,261.560291 C183.7,260.860291 183.2,260.560291 182.1,260.860291 C180.5,261.260291 174.1,256.960291 173.2,254.960291 C173,254.460291 172.2,254.160291 171.5,254.160291 C170.8,254.160291 170,253.560291 169.7,252.760291 C169.1,251.260291 159,246.160291 156.6,246.160291 C155.7,246.160291 155,245.660291 155,245.060291 C155,244.460291 153.4,244.060291 151.3,244.160291 C145.6,244.460291 138.4,243.060291 140.3,242.060291 C141.1,241.560291 143.8,241.560291 146.3,242.060291 C149.7,242.660291 151.7,242.460291 154,241.360291 C156.3,240.260291 157.4,240.160291 158.3,241.060291 C158.9,241.660291 160.2,242.160291 161.1,242.160291 C163.8,242.160291 168.3,244.860291 167,245.660291 C165,246.960291 168,248.060291 171.7,247.460291 C174.4,246.960291 174.9,247.160291 174.5,248.460291 C173.7,250.360291 175.9,251.860291 177,250.160291 C177.5,249.260291 177.9,249.260291 178.4,250.060291 C178.8,250.660291 178.6,251.160291 178.1,251.160291 C177.3,251.160291 177.4,251.860291 178.2,253.160291 C178.9,254.160291 179.6,254.860291 179.8,254.660291 C180.1,254.460291 181.9,255.360291 183.9,256.660291 C185.8,258.060291 188.2,259.160291 189.1,259.160291 C190,259.160291 191,259.860291 191.4,260.660291 C191.7,261.460291 192.8,262.160291 193.8,262.160291 C195.5,262.160291 195.7,261.560291 195.3,256.460291 C194.8,249.760291 190.9,236.060291 189.8,236.760291 C189.4,237.060291 188.9,236.660291 188.9,235.960291 C188.7,233.360291 188.4,232.560291 185.7,226.760291 C184.2,223.560291 183,220.360291 183,219.760291 C183,218.760291 181.7,216.560291 176,208.160291 C174.6,206.160291 172,202.160291 170.2,199.360291 C168.3,196.460291 166.5,194.160291 166,194.160291 C165.6,194.160291 163.6,190.360291 161.5,185.660291 C159.4,180.960291 157.3,177.160291 156.9,177.160291 C156.5,177.160291 155.8,176.260291 155.5,175.060291 C155.1,173.860291 153.9,172.060291 152.9,171.060291 C151.9,170.060291 151,168.260291 151,167.260291 C151,166.160291 150.6,164.960291 150,164.660291 C149.5,164.360291 149,163.260291 149,162.260291 C149,161.360291 147.7,158.460291 146.1,155.960291 C142,149.560291 141.4,147.160291 143.8,147.160291 C144.8,147.160291 145.7,146.460291 145.7,145.660291 C145.7,144.560291 145.3,144.460291 144.6,145.160291 C142.7,147.060291 141.8,146.160291 142.2,142.660291 C142.4,140.760291 142.2,139.160291 141.7,139.160291 C140.2,139.160291 141.6,123.160291 143.5,118.460291 C146.5,110.960291 157.9,108.760291 166.3,114.160291 C168.9,115.760291 171.5,117.160291 172,117.160291 C173,117.160291 172.2,98.6602908 171,95.1602908 C169.5,90.8602908 168.8,74.8602908 170,69.6602908 C171.3,63.1602908 172.1,49.8602908 171.2,48.4602908 C170.2,46.8602908 163.2,45.3602908 158.9,45.9602908 C156.5,46.1602908 155,45.8602908 154.1,44.7602908 C153.3,43.8602908 152.2,43.1602908 151.5,43.1602908 C148.6,43.1602908 138.9,37.8602908 136.4,34.8602908 C134.3,32.3602908 133.9,31.0602908 134.3,28.0602908 C134.6,26.0602908 134.4,23.9602908 134,23.4602908 C133.5,23.0602908 132.5,20.1602908 131.8,17.1602908 L130.4,11.6602908 L122.6,11.5602908 C114.3,11.3602908 110.8,12.4602908 106.8,16.6602908 C105.5,18.0602908 103.6,19.1602908 102.4,19.1602908 C100.4,19.1602908 96,22.9602908 96,24.6602908 C96,25.2602908 94.6,28.3602908 93,31.7602908 C91.3,35.0602908 89.5,40.2602908 88.9,43.2602908 C88.4,46.2602908 87.6,49.8602908 87.3,51.4602908 C85.8,58.7602908 91.7,50.4602908 93.4,42.9602908 C93.8,41.2602908 94.7,40.1602908 95.8,40.0602908 C96.7,40.0602908 97,39.7602908 96.4,39.5602908 C95.1,39.0602908 95.8,34.1602908 97.1,34.1602908 C97.6,34.1602908 98,33.5602908 98,32.7602908 C98,31.9602908 98.9,30.9602908 100,30.6602908 C101.8,30.0602908 104.4,26.7602908 104.5,24.9602908 C104.5,23.9602908 110.9,18.1602908 112,18.1602908 C113.5,18.1602908 113.2,20.3602908 111.4,22.9602908 C110.5,24.2602908 110.1,25.5602908 110.4,25.8602908 C110.7,26.2602908 111,25.9602908 111,25.2602908 C111,24.5602908 111.4,24.2602908 111.9,24.5602908 C113.1,25.3602908 118.7,18.8602908 118.2,17.2602908 C117.8,16.1602908 118.2,16.0602908 119.6,16.6602908 C120.7,17.0602908 122.3,17.3602908 123.3,17.3602908 C124.6,17.2602908 125,17.7602908 124.6,18.7602908 C124.3,19.6602908 124,20.5602908 124,20.7602908 C124,20.9602908 123.1,21.1602908 122,21.1602908 C120.7,21.1602908 120.2,21.6602908 120.6,22.5602908 C121,23.6602908 120.1,24.2602908 117.6,24.7602908 C115.6,25.0602908 114,25.8602908 114.1,26.5602908 C114.4,28.3602908 112.9,31.1602908 111.9,30.5602908 C111.4,30.2602908 111.3,29.4602908 111.6,28.8602908 C112,28.1602908 111.9,28.0602908 111.4,28.4602908 C110.9,28.9602908 110.5,29.6602908 110.5,29.9602908 C110.3,32.3602908 108.6,35.1602908 107.2,35.5602908 C106.3,35.8602908 104.4,37.7602908 103.1,39.6602908 C101.1,42.6602908 100.9,43.3602908 102.1,44.8602908 C103.4,46.3602908 103.3,46.4602908 101.2,45.9602908 C99.8,45.5602908 99,45.7602908 99.2,46.4602908 C99.5,47.8602908 97.2,55.9602908 95.9,58.1602908 C95.4,58.9602908 94.7,60.3602908 94.4,61.1602908 C94.1,61.9602908 93.2,64.0602908 92.5,65.6602908 C89.9,71.7602908 85.3,91.8602908 85.2,97.1602908 C85.2,97.9602908 84.9,101.060291 84.6,103.960291 C84.3,106.760291 84.4,109.160291 84.8,109.160291 C85.3,109.160291 85.6,111.260291 85.6,113.760291 C85.5,116.260291 85.8,118.560291 86.3,118.860291 C86.7,119.060291 86.5,120.160291 86,121.260291 C84.8,123.360291 85.6,135.160291 86.9,136.460291 C87.4,136.960291 88.1,135.960291 88.5,134.260291 C88.9,132.560291 89.6,131.160291 90.2,131.160291 C90.8,131.160291 91,130.460291 90.6,129.660291 C90.3,128.860291 90.5,128.160291 91,128.160291 C91.6,128.160291 92,127.060291 92,125.660291 C92,124.260291 92.4,123.160291 92.8,123.160291 C93.2,123.160291 96.2,120.960291 99.5,118.160291 C104.1,114.260291 106,113.260291 108.7,113.360291 C110.5,113.460291 112,113.860291 112,114.360291 C112,114.760291 114.1,115.060291 116.8,114.860291 C120.2,114.760291 121.4,115.060291 121.2,115.960291 C121.1,116.660291 121.7,117.160291 122.7,116.960291 C124,116.760291 124.5,117.360291 124.5,118.860291 C124.5,120.060291 125.3,121.860291 126.2,122.860291 C127.5,124.360291 127.7,126.360291 127.4,134.560291 C127.1,140.460291 126.3,145.560291 125.4,147.260291 C124.6,148.860291 124.1,150.460291 124.1,150.860291 C124.2,151.260291 124.1,152.360291 123.8,153.160291 C123.5,153.960291 122.7,156.660291 122.1,159.160291 C121.4,161.660291 120.2,165.960291 119.5,168.660291 C118,173.660291 115.7,183.660291 114.4,190.160291 C114.1,192.060291 112.9,195.260291 111.9,197.260291 C110.9,199.260291 110.4,201.160291 110.7,201.560291 C111.3,202.160291 109.4,207.460291 105.9,214.460291 C104.8,216.660291 104,218.960291 104,219.760291 C104,220.560291 103.1,221.660291 102.1,222.360291 C101.1,222.960291 100.4,224.160291 100.7,224.860291 C101,225.560291 100.7,226.160291 100.1,226.160291 C99.5,226.160291 99,227.260291 99,228.660291 C99,230.160291 97.8,232.460291 96.3,233.960291 C94.8,235.460291 93.6,236.860291 93.6,237.160291 C93.8,238.460291 92.7,241.160291 92,241.160291 C91.1,241.160291 88.5,246.360291 88.1,249.060291 C88.1,249.560291 87.4,250.660291 86.7,251.360291 C86,252.060291 84.3,254.460291 83,256.660291 C81.7,258.860291 80,261.060291 79.3,261.460291 C78.6,261.860291 78,262.860291 78,263.560291 C78,264.160291 76.4,266.460291 74.5,268.560291 C70.8,272.660291 69.7,275.660291 73,272.660291 C74.7,271.060291 75,271.060291 75,272.460291 C75,273.360291 72.5,275.660291 69.5,277.660291 C66.5,279.760291 64,281.760291 64,282.360291 C64,283.660291 61.4,286.160291 60.1,286.160291 C59.5,286.160291 59,286.860291 59,287.660291 C59,290.260291 62.9,289.360291 64.4,286.260291 C65.3,284.660291 66.9,283.160291 68,282.860291 C69.2,282.560291 70.4,281.360291 70.7,280.260291 C71,279.060291 71.6,278.160291 72,278.160291 C72.4,278.160291 73.7,277.260291 75,276.160291 C76.3,275.060291 77.8,274.160291 78.5,274.160291 C79.1,274.160291 80.7,273.060291 82,271.660291 C83.4,270.160291 85,269.360291 85.9,269.660291 C86.8,269.960291 87.1,269.960291 86.8,269.560291 C85.8,268.560291 91.5,264.160291 93.8,264.160291 C94.8,264.160291 96.9,263.260291 98.3,262.160291 C99.7,261.060291 101.3,260.160291 102,260.160291 C102.6,260.160291 102.8,259.660291 102.4,258.960291 C102,258.360291 102.1,258.160291 102.8,258.560291 C103.3,258.860291 104,258.760291 104.2,258.360291 C104.6,257.160291 113.1,251.960291 113.7,252.460291 C113.9,252.760291 112.6,253.960291 110.8,255.260291 C109,256.560291 106.8,258.360291 105.9,259.160291 C105,259.960291 102.8,261.760291 101.1,263.160291 C99.3,264.560291 96.4,266.960291 94.7,268.460291 C92.9,270.060291 89.8,272.360291 87.8,273.760291 C85.7,275.060291 84,276.660291 84,277.260291 C84,277.860291 81.7,280.660291 78.9,283.460291 C73.9,288.360291 71.4,293.560291 71.9,297.460291 C72,298.460291 71.5,299.160291 70.6,299.160291 C68.9,299.160291 68.9,299.160291 68.6,303.660291 C68.6,305.360291 68,307.560291 67.4,308.560291 C66.7,309.760291 66.5,311.560291 67.1,313.360291 C67.5,314.960291 67.5,315.960291 67,315.660291 C66.6,315.460291 65.7,315.860291 65.1,316.560291 C64.2,317.560291 64.2,318.160291 65,318.660291 C65.7,319.060291 65.8,319.760291 65.2,320.460291 C64.1,321.760291 64.4,340.360291 65.4,342.060291 C65.8,342.660291 66.3,345.360291 66.6,348.060291 C66.8,350.760291 67.7,354.660291 68.6,356.760291 C69.4,358.760291 69.9,361.460291 69.6,362.760291 C69.2,364.060291 69.5,365.160291 70.3,365.460291 C71.2,365.860291 71.2,366.260291 70.2,366.960291 C69.1,367.660291 69.1,367.960291 70.5,368.460291 C71.4,368.860291 72,369.960291 71.8,370.860291 C71.6,371.960291 72,372.560291 72.8,372.360291 C73.6,372.260291 73.9,372.460291 73.6,372.960291 C73.3,373.460291 73.8,374.760291 74.8,375.760291 C75.9,377.060291 76.5,379.160291 76.4,382.460291 C76.3,385.560291 76.7,387.060291 77.4,386.860291 C78,386.560291 78.4,385.860291 78.2,385.160291 C78.1,384.560291 78.5,384.160291 79.1,384.360291 C80.9,384.960291 83.1,394.160291 81.5,394.760291 C80.2,395.260291 80.3,402.260291 81.6,404.360291 C82.1,405.060291 82.3,406.460291 82.2,407.460291 C82,408.460291 82.5,409.160291 83.4,409.160291 C85.4,409.160291 85.4,411.760291 83.6,415.360291 C82.8,416.860291 81.9,419.360291 81.5,421.060291 C81.1,422.760291 80.5,424.160291 80,424.160291 C79.5,424.160291 78.8,425.660291 78.5,427.460291 C78.1,429.160291 77.4,430.860291 76.9,431.160291 C76.5,431.460291 76,433.560291 75.8,435.860291 C75.5,438.060291 74.7,440.960291 73.9,442.260291 C71.5,446.260291 69.9,450.260291 70.5,451.260291 C70.9,451.760291 70.7,452.160291 70.2,452.160291 C69.1,452.160291 66.7,460.860291 67.4,461.960291 C67.6,462.360291 67.2,464.260291 66.4,466.160291 C65.2,468.960291 64.7,469.360291 63.9,468.160291 C63.2,467.060291 63.1,467.560291 63.6,469.660291 C64,471.360291 64.6,472.760291 65,472.960291 C66.1,473.360291 64.8,480.660291 63.5,481.360291 C62.7,481.860291 62.3,483.960291 62.3,487.060291 C62.4,489.760291 62.2,491.760291 61.9,491.560291 C61,491.060291 59.7,497.960291 60.5,499.060291 C60.8,499.660291 60.6,500.260291 60,500.660291 C58.7,501.460291 58.7,505.160291 60,505.160291 C60.6,505.160291 60.8,506.260291 60.4,507.860291 C60,509.360291 59.7,511.160291 59.7,511.860291 C59.7,512.560291 59.3,513.160291 58.9,513.160291 C58,513.160291 58.9,516.360291 60.1,517.160291 C60.5,517.460291 60.4,520.160291 59.8,523.160291 C58.9,528.360291 58.4,532.260291 57.7,539.960291 C57.5,541.660291 57.6,543.160291 57.9,543.160291 C58.2,543.160291 58.4,547.160291 58.2,552.160291 C57.9,559.960291 58.1,561.160291 59.5,561.160291 C60.4,561.160291 60.8,560.660291 60.5,560.160291 C60.1,559.560291 60.5,557.860291 61.3,556.360291 C62.3,554.260291 62.4,552.960291 61.6,551.260291 C60.9,549.660291 61,548.760291 61.8,548.260291 C62.5,547.860291 63.3,544.360291 63.6,540.560291 C63.9,536.760291 64.3,532.560291 64.5,531.160291 C64.7,529.760291 64.9,527.160291 64.9,525.460291 C65,523.660291 65.5,522.160291 66.1,522.160291 C66.8,522.160291 67,523.260291 66.7,524.860291 L66.2,527.660291 L68,525.460291 C70,522.960291 70.3,515.660291 68.3,515.660291 C67.7,515.660291 66.8,515.260291 66.3,514.760291 C65.8,514.260291 66,514.160291 66.8,514.560291 C67.4,514.960291 68,514.860291 68,514.460291 C68,513.960291 67.4,512.960291 66.8,512.160291 C65.7,510.960291 65.8,510.960291 67.3,512.060291 C68.6,513.060291 69.3,513.160291 70.4,512.260291 C72.7,510.360291 73.1,513.560291 71.5,520.660291 C70.7,524.160291 69.9,530.660291 69.9,535.060291 C69.9,539.560291 69.4,542.960291 69,542.660291 C68.5,542.360291 67.6,542.960291 67,544.060291 C66.2,545.660291 66.4,546.260291 67.7,547.060291 C69.4,548.060291 69.4,548.060291 67.8,548.160291 C66.6,548.160291 66,548.960291 66,550.660291 C66,552.060291 66.4,553.160291 66.8,553.160291 C67.2,553.160291 67.3,555.260291 67,557.960291 C66.6,561.460291 66.9,563.260291 68.2,565.160291 C69.6,567.160291 69.8,568.360291 69,571.660291 C67.7,577.060291 67.8,581.960291 69.1,582.360291 C70.2,582.760291 70.6,584.860291 71.2,591.960291 C71.3,593.760291 71.8,595.560291 72.2,595.760291 C73.7,596.760291 80.1,592.860291 81.6,590.060291 C82.4,588.460291 83.5,587.160291 84,587.160291 C84.6,587.160291 85,585.860291 85,584.260291 C85,582.260291 85.8,580.860291 87.5,579.760291 C89.5,578.460291 89.8,577.660291 89.1,576.360291 C87.9,574.060291 89.3,571.660291 91.4,572.460291 C92.3,572.860291 93,572.760291 93,572.260291 C93,571.760291 92.1,571.160291 91,570.860291 C89.1,570.360291 89.1,570.260291 90.7,567.060291 C91.6,565.160291 92.7,561.460291 93.2,558.660291 C93.6,555.960291 94.3,553.560291 94.8,553.360291 C95.3,553.260291 95.4,551.760291 95.2,550.060291 C94.8,547.160291 96,545.260291 98.3,545.160291 C99.2,545.160291 98.7,549.760291 97.7,550.760291 C97.3,551.160291 97,552.560291 97,553.860291 C97,555.160291 96.3,556.460291 95.5,556.760291 C94.7,557.160291 94,558.260291 94,559.260291 C94,560.860291 94.3,560.960291 96.5,559.960291 C97.9,559.360291 99,558.260291 99,557.460291 C99,556.760291 99.4,556.160291 99.8,556.160291 C101.6,556.160291 101.9,557.560291 100.6,559.660291 C99.8,560.860291 98.9,564.460291 98.5,567.660291 C98.1,570.860291 97.1,574.660291 96.4,576.060291 C95.6,577.460291 95,579.260291 95,579.960291 C95,580.660291 94,584.060291 92.9,587.460291 C91.7,590.860291 90.5,595.260291 90.3,597.160291 C90,599.060291 89.4,601.460291 88.9,602.360291 C88.4,603.260291 88,604.960291 88,606.060291 C88,607.260291 87.6,608.160291 87,608.160291 C86.5,608.160291 86.1,608.460291 86.1,608.960291 C86.6,612.260291 85.5,614.860291 81.9,618.160291 C77,622.660291 73.3,623.060291 69,619.460291 Z M67,274.560291 C67.8,272.960291 70.9,267.860291 73.9,263.260291 C79.7,254.060291 82.6,248.860291 85.2,242.660291 C101.4,203.660291 110.1,178.260291 108.1,175.760291 C105.9,172.960291 110.3,154.760291 115.7,143.860291 C118.5,138.460291 119.8,124.860291 117.9,122.460291 C116.5,120.860291 112.1,120.760291 108.2,122.460291 C105,123.760291 98.8,130.560291 96.3,135.560291 C95.5,137.260291 94.1,139.460291 93.2,140.460291 C92.3,141.460291 91.5,142.960291 91.4,143.960291 C90.8,147.960291 87,156.660291 85.8,156.960291 C85,157.060291 83.8,158.760291 83.1,160.660291 C82.4,162.560291 81.4,164.160291 80.9,164.160291 C80.4,164.160291 80,165.360291 80,166.760291 C80,168.360291 79.6,169.060291 78.8,168.560291 C78.1,168.160291 78,168.260291 78.4,169.060291 C79.2,170.360291 77.8,175.660291 74.7,182.160291 C72.1,187.860291 71.5,189.360291 69.5,196.160291 C68.6,199.160291 67.2,203.060291 66.5,204.660291 C63.2,212.160291 62.7,213.960291 62.3,218.660291 C62,221.360291 61.6,223.860291 61.2,224.160291 C60.4,224.760291 60.2,226.460291 59.8,233.060291 C59.7,235.460291 59,237.660291 58.3,237.860291 C56.7,238.460291 56.6,241.160291 58.1,241.160291 C58.6,241.160291 58.8,241.660291 58.5,242.260291 C57.2,244.360291 56.9,257.460291 58.1,258.260291 C58.7,258.560291 59.4,259.960291 59.6,261.260291 C60.3,266.660291 62.1,273.460291 63.2,274.860291 C63.7,275.560291 63.8,276.560291 63.4,277.260291 C63,277.960291 63.2,278.260291 64.1,277.960291 C64.9,277.660291 66.2,276.160291 67,274.560291 Z M63.9,175.560291 C66.4,174.160291 70.1,171.560291 72.1,169.760291 C76.1,166.060291 79.6,157.660291 78,155.660291 C77.5,155.060291 76.8,147.360291 76.5,138.560291 C76.2,129.860291 75.5,116.360291 74.9,108.660291 C74,95.0602908 75,54.5602908 76.4,52.2602908 C77.3,50.8602908 75,49.7602908 73.7,51.0602908 C72.3,52.4602908 71,52.4602908 71,51.1602908 C71,50.6602908 72.1,49.9602908 73.5,49.5602908 C75.7,48.9602908 77.1,46.8602908 77.5,43.1602908 C77.6,42.3602908 78,39.2602908 78.4,36.4602908 C79.3,30.4602908 78.5,29.8602908 74.4,33.6602908 C72.9,35.0602908 70.1,36.6602908 68,37.2602908 C66,37.8602908 61.4,41.1602908 57.4,44.7602908 C53.6,48.2602908 50.2,51.1602908 49.8,51.1602908 C49.4,51.1602908 47.1,53.7602908 44.8,56.9602908 C42.4,60.0602908 40.2,62.8602908 39.8,62.9602908 C39.3,63.1602908 39,64.0602908 39,64.9602908 C39,65.7602908 38.4,67.2602908 37.7,68.0602908 C36.3,69.6602908 32,82.5602908 32,84.9602908 C32,85.6602908 32.5,86.1602908 33,86.1602908 C33.6,86.1602908 34,85.6602908 34,85.1602908 C34,83.9602908 38.1,77.8602908 39.3,77.3602908 C39.7,77.1602908 40,76.4602908 40,75.7602908 C40,75.0602908 40.9,73.6602908 42,72.6602908 C43.1,71.6602908 44,71.1602908 44,71.4602908 C44,72.3602908 39.9,80.3602908 38.5,82.1602908 C37.1,83.9602908 34,92.1602908 34,94.0602908 C34,94.7602908 33.4,96.7602908 32.6,98.4602908 C29.5,105.160291 28.2,109.060291 27.5,113.260291 C27.1,115.660291 26.3,118.460291 25.8,119.460291 C23.5,123.960291 25.4,151.760291 28.6,158.860291 C29.4,160.560291 30,162.560291 30,163.260291 C30,165.560291 34.9,172.860291 37.7,174.660291 C45.3,179.660291 55.8,180.060291 63.9,175.560291 Z M71.2,31.0602908 C72.6,29.9602908 74.3,29.1602908 74.9,29.1602908 C75.4,29.1602908 77.1,27.9602908 78.5,26.5602908 C82.1,22.9602908 80.5,21.3602908 74.9,23.0602908 C72.4,23.8602908 70.5,23.9602908 70.1,23.3602908 C69.4,22.2602908 61,19.4602908 56,18.6602908 C54.1,18.3602908 51.2,18.4602908 49.5,18.9602908 C45.3,20.2602908 45.9,23.0602908 51.8,29.0602908 L56.6,33.8602908 L62.5,33.3602908 C66.1,33.0602908 69.6,32.1602908 71.2,31.0602908 Z" id="Shape" transform="translate(160.516547, 311.580145) scale(-1, 1) rotate(-180.000000) translate(-160.516547, -311.580145) "></path>
            <path d="M234.2,132.845515 C233.6,131.745515 233,130.345515 233,129.645515 C233,128.945515 230.8,126.045515 228.2,123.245515 C222.7,117.445515 220,110.745515 222.2,108.145515 C223.2,106.845515 223.2,106.445515 222.2,106.045515 C221.5,105.845515 220.3,104.345515 219.5,102.845515 C218.2,100.245515 218.2,99.845515 219.6,98.445515 C220.4,97.545515 220.7,96.845515 220.1,96.845515 C219.5,96.845515 219,95.545515 219,93.845515 C219,88.045515 220.4,89.845515 226.8,103.645515 C227.6,105.345515 228.6,106.845515 229,106.845515 C229.9,106.845515 231.8,98.745515 233.1,89.845515 C235.5,72.545515 236,68.245515 236,66.345515 C236,63.145515 238.2,56.845515 239.4,56.845515 C240,56.845515 240,56.445515 239.3,55.745515 C236.8,53.245515 245.8,41.045515 251.4,39.245515 C254.3,38.245515 255.8,40.545515 252.9,41.745515 C248.3,43.445515 241,53.445515 241,57.945515 C241,59.145515 241.5,59.545515 242.5,59.245515 C244.5,58.445515 244.8,70.145515 243.4,88.345515 C242.1,103.445515 241.4,106.045515 237.3,111.545515 C234,115.845515 233.6,118.045515 235.1,122.745515 C235.8,124.745515 236.3,126.445515 236.2,126.545515 C236.1,126.745515 236.7,128.645515 237.5,130.845515 C238.8,134.545515 238.8,134.845515 237.2,134.845515 C236.3,134.845515 234.9,133.945515 234.2,132.845515 Z" id="Shape" transform="translate(236.500858, 86.922758) scale(-1, 1) rotate(-180.000000) translate(-236.500858, -86.922758) "></path>
            <path d="M282.2,121.695915 C282.2,116.495915 279.8,109.395915 277.8,108.495915 C277.3,108.295915 277,107.595915 276.9,106.995915 C276.9,106.295915 275.4,103.795915 273.5,101.295915 C271.7,98.7959153 268.8,94.0959153 267.1,90.7959153 C265.5,87.4959153 263.2,83.7959153 262.1,82.5959153 C260.9,81.3959153 260,80.0959153 260,79.6959153 C260,79.3959153 259.1,77.7959153 257.9,76.1959153 C256.1,73.5959153 256,73.1959153 257.4,71.6959153 C259,70.1959153 261,70.5959153 261,72.3959153 C261,72.9959153 260.6,73.0959153 260,72.7959153 C259.4,72.4959153 259.3,72.8959153 259.7,73.7959153 C260,74.7959153 260.5,75.0959153 260.9,74.3959153 C261.3,73.8959153 262,73.6959153 262.6,74.0959153 C263.7,74.7959153 273,93.8959153 273,95.3959153 C273,95.8959153 273.4,96.2959153 273.9,96.2959153 C274.4,96.2959153 275.1,97.5959153 275.5,99.1959153 C275.8,100.795915 276.8,102.395915 277.6,102.695915 C278.5,102.995915 278.8,103.795915 278.5,104.395915 C278.1,104.995915 278.5,105.295915 279.6,105.095915 C280.9,104.895915 281.6,105.495915 281.8,107.095915 C282,108.295915 282.5,109.295915 282.9,109.295915 C284.1,109.295915 286.3,114.495915 286.3,117.495915 C286.3,118.995915 285.8,120.795915 285.1,121.695915 C284.4,122.495915 284.1,123.595915 284.4,124.095915 C284.7,124.695915 284.4,125.595915 283.6,126.195915 C282.5,127.095915 282.3,126.295915 282.2,121.695915 Z" id="Shape" transform="translate(271.369716, 98.647958) scale(-1, 1) rotate(-180.000000) translate(-271.369716, -98.647958) "></path>
            <path d="M225.3,220.344674 C225.6,219.244674 225.5,218.344674 225.1,218.144674 C224.8,217.944674 223.7,216.444674 222.8,214.644674 C220.8,211.244674 220.4,207.844674 222,208.844674 C222.6,209.144674 223,208.744674 223,207.944674 C223,207.044674 222.4,206.644674 221.7,206.944674 C220.8,207.244674 220,205.344674 219.2,200.144674 C218.5,196.144674 217.1,191.044674 216,188.844674 C215,186.644674 214.4,184.544674 214.6,184.144674 C214.9,183.744674 214.4,183.644674 213.6,183.944674 C211.7,184.644674 211.4,190.444674 213.2,190.144674 C213.9,189.944674 214.4,190.544674 214.5,191.344674 C214.6,192.944674 209.2,196.844674 208.2,195.844674 C207.8,195.544674 208.2,194.844674 209,194.344674 C210.3,193.544674 210.2,193.344674 208.7,193.344674 C207.7,193.344674 207.1,192.944674 207.5,192.444674 C207.8,191.844674 207.2,190.644674 206.2,189.644674 C205,188.544674 204,185.744674 203.7,182.444674 C203.3,179.044674 202.4,176.644674 201.3,175.844674 C200.3,175.044674 199.8,174.144674 200.2,173.744674 C200.6,173.344674 200.5,172.444674 199.9,171.644674 C199,170.644674 199.1,169.944674 200,168.844674 C200.9,167.744674 201,167.044674 200.1,165.944674 C199.5,165.244674 199.1,163.044674 199.2,161.244674 C199.4,158.544674 199,157.644674 197.3,156.944674 C196.1,156.344674 193.7,152.944674 191.9,149.344674 C190,145.744674 187.7,142.044674 186.8,141.044674 C184.8,139.044674 184.5,137.344674 186,137.344674 C186.6,137.344674 186.3,136.444674 185.3,135.444674 C183.6,133.644674 182.8,132.244674 178.9,123.944674 C178.2,122.344674 176.9,120.844674 176,120.544674 C175.2,120.244674 174.2,119.544674 173.8,118.944674 C173.2,118.144674 172.7,118.244674 172.2,119.144674 C171.7,119.844674 169.6,120.444674 167.4,120.544674 C165.3,120.544674 162.8,120.944674 162,121.344674 C161.2,121.844674 156.1,122.344674 150.7,122.644674 C142.5,123.044674 141,122.944674 141,121.644674 C141,120.544674 140.7,120.344674 139.7,121.144674 C138.3,122.344674 134.3,120.744674 129.7,116.944674 L126.8,114.644674 L130.3,112.444674 C132.2,111.344674 134.8,110.344674 136.1,110.344674 C139.9,110.444674 152.2,114.844674 151.3,115.844674 C150.9,116.244674 151.3,116.344674 152.3,116.044674 C153.3,115.644674 156.1,115.344674 158.5,115.344674 C162,115.344674 163.7,114.744674 166.5,112.244674 C168.4,110.544674 170,108.444674 170,107.444674 C170.1,106.044674 170.2,106.044674 171.1,107.644674 C171.6,108.544674 171.8,109.844674 171.4,110.544674 C170.9,111.244674 171.4,111.444674 172.8,111.144674 C174.2,110.744674 174.7,110.944674 174.4,111.844674 C173.6,113.744674 175.6,114.544674 177.2,113.044674 C177.9,112.344674 179.3,111.444674 180.2,111.044674 C181.4,110.644674 181.7,109.644674 181.4,107.944674 C181.1,105.944674 182.3,104.244674 188,98.6446738 C191.8,94.9446738 195,91.3446738 195,90.7446738 C195,89.5446738 198.1,88.3446738 201.3,88.3446738 C202.9,88.3446738 203,88.8446738 202.5,91.4446738 C201.2,97.1446738 201.3,99.4446738 202.6,100.844674 C203.7,101.844674 203.7,102.444674 202.8,102.944674 C202,103.444674 202.3,103.944674 203.6,104.344674 C204.7,104.744674 206.2,106.444674 207,107.944674 C207.8,109.544674 209.5,112.544674 210.9,114.544674 C212.2,116.644674 213.3,119.544674 213.3,120.944674 C213.3,123.144674 213.4,123.344674 214.2,122.044674 C215.5,119.744674 217,119.944674 217,122.444674 C217,123.544674 217.4,124.244674 217.9,123.944674 C218.4,123.644674 219.1,124.444674 219.4,125.844674 C219.7,127.144674 221.1,129.444674 222.5,130.944674 C223.9,132.444674 225,134.244674 225,134.844674 C225,135.544674 225.6,136.344674 226.4,136.644674 C227.3,137.044674 227.6,138.044674 227.3,139.244674 C226.7,141.544674 229.4,142.344674 230.3,140.144674 C230.6,139.444674 230.9,139.844674 230.9,141.144674 C231,142.344674 231.5,143.344674 232,143.344674 C232.6,143.344674 233,144.244674 233,145.244674 C233,146.344674 234.2,148.244674 235.8,149.544674 C237.4,150.844674 238.4,152.644674 238.2,153.644674 C238,154.644674 238.4,155.244674 239.2,155.144674 C240.9,154.744674 240.9,159.344674 239.2,161.244674 C238.5,161.944674 238.2,163.444674 238.6,164.544674 C239.1,166.044674 238.8,166.444674 237.4,166.144674 C236.3,165.944674 235.3,164.644674 234.9,162.844674 C234.5,161.144674 234.2,160.544674 234.1,161.344674 C233.9,162.844674 233.2,161.644674 230.4,154.844674 C227.6,147.844674 227.3,147.044674 227.1,144.844674 C227.1,144.044674 226.1,143.344674 225,143.344674 C223.9,143.344674 223,142.944674 223,142.344674 C223,141.844674 223.5,141.344674 224,141.344674 C224.6,141.344674 225,140.844674 225,140.344674 C225,139.744674 224.4,139.344674 223.8,139.444674 C221.1,139.744674 220,139.344674 220,137.944674 C220,137.144674 219,135.744674 217.8,134.944674 C216.4,133.944674 216.1,133.344674 217,133.344674 C217.9,133.344674 217.6,132.644674 216.1,131.244674 C214.3,129.544674 214.1,128.944674 215.2,128.244674 C216.5,127.344674 216.5,127.344674 212.4,126.944674 C210.9,126.744674 201,115.744674 201,114.144674 C201,112.844674 198.8,113.244674 196.8,115.044674 C195.8,115.944674 194.7,116.344674 194.3,115.944674 C193.9,115.544674 194.2,114.844674 195,114.344674 C195.8,113.744674 196.2,113.344674 195.8,113.344674 C195.4,113.344674 195.5,112.244674 196,110.844674 C197.2,107.744674 195.7,103.344674 193.5,103.344674 C192.6,103.344674 190.7,104.744674 189.3,106.344674 C188,108.044674 186.2,109.344674 185.5,109.344674 C183.3,109.344674 181.7,112.144674 182.4,114.844674 C183,117.044674 183.3,117.144674 185,116.144674 C187.5,114.544674 189.1,116.044674 186.7,117.744674 C184.9,119.144674 184.4,121.344674 185.9,121.344674 C186.4,121.344674 187.1,120.644674 187.4,119.744674 C187.9,118.444674 188.3,118.344674 189.5,119.344674 C190.3,120.044674 190.8,120.944674 190.5,121.344674 C190.2,121.844674 190.9,121.944674 192,121.644674 C193.1,121.344674 193.7,120.644674 193.3,119.944674 C192.9,119.344674 193.4,119.444674 194.3,120.244674 C195.2,120.944674 196,122.544674 196,123.744674 C196,124.944674 196.4,126.344674 196.9,126.844674 C197.7,127.644674 201.2,138.144674 202.5,143.344674 C202.7,144.144674 204,147.544674 205.4,150.844674 C208.1,157.244674 208.6,160.344674 207,160.344674 C206.5,160.344674 206,159.444674 206,158.444674 C206,157.344674 205.1,155.744674 203.9,154.944674 C202.7,154.144674 202,153.144674 202.3,152.644674 C202.6,152.144674 202.2,150.344674 201.4,148.744674 C200.5,147.144674 199.7,144.944674 199.5,143.844674 C199,139.644674 196.7,133.444674 195.9,133.944674 C195.4,134.244674 195,133.544674 195,132.344674 C195,129.744674 190.3,123.344674 188.4,123.344674 C186.7,123.344674 186.6,124.744674 188.3,127.644674 C189.8,130.444674 191.1,131.344674 192.5,130.644674 C193,130.244674 193.2,130.344674 192.8,130.844674 C192.4,131.244674 192.4,132.144674 192.9,132.744674 C194.6,134.844674 198,144.344674 197,144.344674 C196.4,144.344674 196,143.944674 196,143.344674 C196,142.844674 195.6,142.344674 195,142.344674 C193.1,142.344674 194,145.544674 196,146.044674 C197.2,146.344674 198,147.444674 198,148.644674 C198,151.844674 202.2,159.444674 203.7,158.944674 C204.7,158.544674 204.8,158.844674 204,160.244674 C203.3,161.644674 203.4,162.444674 204.5,163.344674 C205.2,163.944674 205.6,165.144674 205.3,165.944674 C205,166.744674 205.3,167.344674 205.8,167.344674 C207.1,167.344674 208.3,163.744674 207.5,162.344674 C207.2,161.844674 207.6,161.344674 208.5,161.344674 C210.1,161.344674 210.1,162.144674 208.2,167.344674 C207.7,168.644674 207.9,168.644674 209.3,167.444674 C210.7,166.344674 211.1,166.344674 211.6,167.944674 C211.9,169.044674 212.9,171.344674 213.8,173.244674 C214.7,175.144674 215.3,177.544674 215.2,178.644674 C215,179.844674 215.3,180.344674 215.9,179.944674 C216.8,179.344674 217.6,182.744674 217.1,185.644674 C217.1,186.044674 217.6,186.344674 218.4,186.344674 C220,186.344674 221,188.444674 221,191.944674 C221,193.244674 222.2,197.244674 223.6,200.944674 C225.1,204.544674 226.4,208.244674 226.5,209.144674 C226.6,210.144674 227.2,212.144674 227.8,213.644674 C228.5,215.244674 229,217.044674 229,217.844674 C229,218.544674 229.6,219.344674 230.3,219.644674 C232.1,220.244674 230.5,221.544674 227.4,221.944674 C225.3,222.144674 224.9,221.844674 225.3,220.344674 Z" id="Shape" transform="translate(183.637500, 155.172337) scale(-1, 1) rotate(-180.000000) translate(-183.637500, -155.172337) "></path>
            <path d="M83.4,195.194612 C85.1,188.794612 85.2,188.294612 84,188.294612 C83.4,188.294612 83.2,187.894612 83.5,187.294612 C83.8,186.794612 83.6,186.294612 83.1,186.294612 C82.5,186.294612 82,186.994612 82,187.794612 C82,188.594612 81.6,189.294612 81.1,189.294612 C80.6,189.294612 80.4,188.394612 80.7,187.294612 C81.3,185.094612 83.5,184.594612 84.6,186.394612 C85.3,187.594612 88,183.494612 89.7,178.694612 C90.5,176.294612 90.5,175.194612 89.7,174.394612 C88.8,173.494612 88.8,172.994612 89.8,172.394612 C91.5,171.394612 96,173.294612 96,175.094612 C96,175.794612 97.1,176.794612 98.5,177.294612 C99.9,177.794612 101,178.694612 101,179.294612 C101,179.794612 102.3,180.294612 103.9,180.294612 C107.6,180.294612 108.9,182.194612 106.5,183.994612 C103.1,186.394612 99,185.594612 95.5,181.694612 C91.6,177.494612 91.5,177.594612 87.9,188.694612 C86.5,193.094612 84.8,196.894612 84,197.094612 C83.1,197.394612 82.9,196.894612 83.4,195.194612 Z" id="Shape" transform="translate(94.137626, 184.647306) scale(-1, 1) rotate(-180.000000) translate(-94.137626, -184.647306) "></path>
            <path d="M201,320.85279 C201,320.25279 202.3,315.95279 203.8,311.35279 C206.8,302.55279 210.4,288.85279 210.2,286.95279 C210.1,284.95279 209.1,281.05279 208.6,280.55279 C208.3,280.35279 208.7,278.55279 209.5,276.65279 C211.2,272.55279 211.4,270.95279 210,271.85279 C207.9,273.15279 209.1,271.05279 212.1,268.25279 C214.1,266.35279 214.7,265.35279 213.7,265.35279 C211.8,265.35279 210.8,262.95279 212.3,261.45279 C213.1,260.65279 212.9,260.35279 211.5,260.35279 C209.8,260.35279 209.7,260.15279 211,259.35279 C211.8,258.85279 212.1,258.35279 211.5,258.35279 C211,258.35279 211.3,257.85279 212.3,257.25279 C213.6,256.55279 214.1,255.15279 213.9,253.05279 C213.8,251.25279 214.3,248.55279 215,246.85279 C216.5,243.15279 216.9,238.55279 215.8,235.65279 C215.4,234.25279 215.4,233.35279 216,233.35279 C216.6,233.35279 217,232.65279 217,231.85279 C217,231.05279 217.5,230.35279 218,230.35279 C219.2,230.35279 219.3,231.35279 218.1,233.25279 C217.5,234.15279 217.5,235.45279 218.2,236.65279 C218.9,238.15279 218.9,238.85279 217.9,239.45279 C216.8,240.15279 216.9,240.35279 218.2,240.35279 C219.6,240.35279 219.8,240.95279 219.3,243.55279 C218.6,247.15279 216.7,249.65279 215.5,248.55279 C215,248.15279 215,248.95279 215.4,250.35279 C217,255.75279 217.2,257.35279 216.2,257.35279 C215.6,257.35279 215.5,258.65279 216.2,261.15279 C216.9,263.95279 216.8,266.05279 215.7,269.15279 C214.5,272.65279 214.5,273.35279 215.6,273.35279 C217.6,273.35279 217.3,274.65279 215.1,276.05279 C213.5,277.05279 213.3,278.05279 213.7,281.25279 C214.1,283.85279 213.8,285.85279 213,286.85279 C212.3,287.75279 211.6,289.65279 211.4,291.15279 C211.1,294.55279 210.2,298.75279 208.8,303.85279 C208.2,306.05279 207.7,308.25279 207.8,308.65279 C207.9,309.05279 207.4,310.15279 206.5,310.95279 C205.7,311.85279 205,313.25279 205,314.15279 C205,315.05279 204.1,317.25279 203,318.85279 C201.9,320.55279 201,321.35279 201,320.85279 Z" id="Shape" transform="translate(210.274288, 275.676395) scale(-1, 1) rotate(-180.000000) translate(-210.274288, -275.676395) "></path>
            <path d="M103.4,281.206197 C102.4,280.406197 101.1,279.906197 100.5,280.006197 C99.2,280.106197 99,275.406197 100.2,269.106197 C101.2,263.006197 104.7,255.606197 106.5,255.606197 C107.2,255.606197 109,257.006197 110.5,258.806197 C113,261.806197 113.2,262.606197 112.8,268.806197 C112.1,278.406197 107.7,284.206197 103.4,281.206197 Z" id="Shape" transform="translate(106.182064, 268.803098) scale(-1, 1) rotate(-180.000000) translate(-106.182064, -268.803098) "></path>
            <path d="M168,279.8 C165.7,278.7 165.4,277.7 164.6,269.7 C163.4,257.9 164.5,255.7 172.3,255.3 L177.7,255 L178.4,259.3 C180.6,272.3 179.5,277.4 174.3,279.6 C172.3,280.4 170.7,281.1 170.6,281.1 C170.6,281.1 169.4,280.5 168,279.8 Z" id="Shape" transform="translate(171.830351, 268.050000) scale(-1, 1) rotate(-180.000000) translate(-171.830351, -268.050000) "></path>
        </g>
    </g>
</svg>