<?xml version="1.0" encoding="UTF-8"?>
<svg width="477px" height="287px" viewBox="0 0 552 621" version="1.1" xmlns="http://www.w3.org/2000/svg" xmlns:xlink="http://www.w3.org/1999/xlink">
    <!-- Generator: Sketch 42 (36781) - http://www.bohemiancoding.com/sketch -->
    <title>Group 2</title>
    <desc>Created with Sketch.</desc>
    <defs></defs>
    <g id="Page-1" stroke="none" stroke-width="1" fill="none" fill-rule="evenodd">
        <g id="Group-2" transform="translate(0.000000, -1.000000)">
            <g id="rabbit" transform="translate(0.000000, 1.000000)"></g>
            <g id="Group" transform="translate(275.950000, 311.550000) scale(-1, 1) rotate(-180.000000) translate(-275.950000, -311.550000) translate(0.000000, 1.200000)" fill-rule="nonzero" fill="#000000">
                <path d="M318,618.2 C316.4,616.9 314.9,614.5 314.5,612.9 C314.2,611.3 313.2,609.5 312.4,608.8 C311.6,608.2 311,607.1 311,606.5 C310.9,605.9 308.7,603.6 306,601.5 C303.2,599.3 301,597.1 301,596.6 C301,596.1 301.7,596.2 302.5,596.9 C303.5,597.8 304,597.8 304,597 C304,596.4 304.5,595.9 305.1,595.9 C305.6,595.9 305.8,596.4 305.4,597.1 C305,597.8 305.1,597.9 305.9,597.5 C306.5,597.1 306.8,596.3 306.5,595.8 C306.2,595.3 305.7,590.8 305.5,585.7 C305.4,580.6 304.4,573.7 303.5,570.4 C302.6,567.1 301.8,562.4 301.9,559.9 C301.9,551.8 297.1,548.8 296.5,556.6 C296.1,561.6 295.4,563 293.7,562.3 C292.7,561.9 292.6,560.4 293.3,555.6 C294.8,545.2 295,542.8 295.5,530.4 C296,519.2 296.5,512 297.5,502.4 C297.8,500.2 298.2,495.3 298.5,491.4 C299.2,481.9 299.8,477.7 302,468.9 C305.3,455.3 308.1,445.6 309.6,442.8 C310.3,441.3 311,439.2 311,438.1 C311,437.1 311.9,434.5 313,432.2 C314,430 315.1,427.1 315.4,425.8 C315.7,424.5 317.3,419.6 319,414.9 C324.6,399.7 324.5,400.1 322.7,398.2 C321.9,397.2 319.3,389.7 317,381.4 C314.8,373.2 312.5,366.3 312,366.1 C311.4,365.9 311,364.9 311,363.9 C311,362.9 310.5,361.7 309.9,361.3 C309.3,361 309,359.8 309.3,358.8 C309.6,357.8 309.4,356.9 308.9,356.7 C307.2,356.1 304.9,343.5 304.5,332.1 C304.2,325.8 303.8,320.4 303.5,319.9 C303.2,319.4 303.5,318.7 304.1,318.4 C304.6,318 304.9,317.1 304.6,316.3 C304.3,315.5 304.6,314.9 305.3,314.9 C306,314.8 305.5,314.3 304.2,313.6 C303,312.9 302.2,312.1 302.4,311.8 C302.7,311.6 303,308.6 303.2,305.2 C303.4,300 303.8,298.9 305.5,298.4 C306.6,298 307,297.5 306.4,297.3 C305.1,296.7 305.7,292.9 307.1,292.9 C307.6,292.9 308,292.2 308,291.4 C308,290.6 307.6,289.9 307,289.9 C305.4,289.9 305.8,287.3 308.1,283.4 C309.5,281 309.9,279.5 309.3,278.6 C308.3,277.4 304.5,266.6 301.9,258 C300.5,253.4 300.4,246.6 301.4,237.8 C303.3,222.5 310.5,196.9 314.6,190.4 C315.4,189.2 316.1,187.4 316.3,186.4 C316.5,185.3 317.2,183.1 317.9,181.4 C318.5,179.8 319.6,177.1 320.2,175.4 C320.8,173.8 321.7,172 322.2,171.4 C322.6,170.9 323,170.1 323,169.6 C323,169.1 319.9,171.6 316,175.3 C306.7,184 302.9,185.9 294.3,185.9 C289.3,185.9 286.4,185.3 283.5,183.8 C279.3,181.6 274.1,176.3 274,174.1 C274,173.5 273.1,171.2 272,169.2 C270.9,167.1 270,164.7 270,163.8 C270,163 269.7,161.9 269.3,161.5 C268.5,160.8 268.3,159.5 267.4,152.7 C267,150.1 267.1,147.2 267.5,146.2 C267.9,145.2 268.4,139.9 268.6,134.4 C269.2,118 270,112.5 272.7,104.9 C273,104.1 273.4,102.1 273.5,100.4 C273.7,98.8 274.1,96.7 274.3,95.9 C274.5,95.1 275.1,92.6 275.7,90.4 C276.3,88.2 277.1,84.2 277.5,81.4 C277.9,78.7 278.5,76 279,75.4 C279.4,74.9 280,73.1 280.4,71.5 C280.8,69.9 282,67.4 283.1,66 C284.2,64.6 286.8,60.7 288.9,57.4 C291,54 295.3,49.2 298.8,46.4 C302.1,43.6 304.9,41.1 304.9,40.7 C305,40.2 303.8,39.9 302.2,39.9 C299.3,39.9 289.1,33.2 289.1,31.2 C289,30.6 287.7,27.1 286,23.6 C282.7,16.3 281.8,6.9 284.4,6.9 C285.2,6.9 286,7.5 286.3,8.2 C286.6,9.1 287,9.1 288.1,8.3 C290.3,6.6 296,5.8 298.1,6.9 C299.1,7.5 304.8,8.6 310.7,9.4 C316.7,10.3 324.1,11.6 327.3,12.4 C332.1,13.6 333.9,13.7 337.7,12.6 C341.4,11.6 342.4,11.7 342.7,12.7 C343.4,14.6 345.2,14.2 353.7,10.3 C363.1,5.9 372.4,4.1 377.3,5.6 C381.3,6.8 383.7,5.8 385,2.3 C386.1,-0.6 388.1,-0.7 393.4,1.8 C398.3,4.1 412.1,6.6 421,6.8 C424.6,6.9 429.5,7.6 432,8.4 C440.4,10.9 443.8,11.1 447.1,9.2 C449.7,7.7 450.2,7.6 451,8.9 C451.5,9.7 451.7,10.6 451.4,11 C450.9,11.9 461.1,15.8 466.5,16.8 C470.4,17.5 470.5,17.5 470.2,21.4 C470,23.7 470.5,26.2 471.3,27.3 C472.7,29.1 472.9,29.1 477.6,25.6 C480.3,23.6 483,21.5 483.7,20.9 C484.4,20.4 485.4,19.9 486,19.9 C486.6,19.9 487.8,19.5 488.8,19 C489.7,18.5 492.8,17 495.5,15.8 C498.3,14.5 500.6,13.3 500.8,13.2 C501,13.1 500.6,12.1 500,10.9 C498.9,8.9 499,8.8 501.2,9.4 C503.6,10.2 512.4,14.7 514.8,16.4 C520.1,20.2 527,30.2 527.7,34.9 C528.9,43.3 529.1,50.9 528,50.9 C527.4,50.9 527.2,51.3 527.5,51.9 C527.8,52.4 530,52.6 532.3,52.3 C536.1,51.8 536.9,52.1 540.8,55.6 C543.1,57.8 545,60 545,60.6 C545,61.2 545.7,62.2 546.5,62.9 C547.3,63.6 547.8,64.5 547.5,64.9 C547.2,65.3 547.6,66.2 548.3,66.8 C550.6,68.7 552.3,75.5 551.8,81.1 C550.9,91.2 545.6,98.9 537.2,102.5 C529.5,105.7 528.7,101.4 536.2,97.8 C539.8,96.2 542.4,94 544.4,91.3 C546.8,87.7 547.2,86.2 547.2,80.4 C547.2,74.3 546.8,73.4 543.6,69.2 C541.7,66.7 540,64.4 539.8,64 C539.2,62.5 532.2,57.9 530.7,57.9 C529.7,57.9 529,57.5 529,56.9 C529,56.4 528.5,55.9 527.9,55.9 C527.4,55.9 527.1,56.3 527.5,56.8 C528.2,58 524.4,59.3 522.9,58.4 C522.2,57.9 522.1,55.4 522.5,51.2 C523.3,42.3 522.4,37.4 519.7,36.1 C517.8,35.2 517.8,35 519.3,35 C521.6,34.9 520.7,33.3 518,32.6 C516.9,32.3 516.2,32.5 516.6,33 C517.7,34.8 516,33.8 513.3,31 C511.1,28.8 508.7,27.8 501.8,26.4 C491.9,24.4 488.4,24.8 481.3,28.5 C475,31.9 472.8,33.9 473.9,35.3 C474.4,35.9 475.7,38.8 476.8,41.7 C478.8,46.9 478.8,49.9 476.8,49.9 C475.3,49.9 476.8,54.7 479,56.9 C480.1,58 481,59.6 481,60.4 C481,61.3 481.7,63 482.5,64.3 C485.1,68.3 487.2,78 487.6,88.7 C488,96.9 487.8,98.9 486.7,98.9 C485.8,98.9 485.3,100 485.4,101.9 C485.5,103.5 485.9,104.9 486.4,104.9 C486.9,104.9 486.7,105.6 486,106.4 C485,107.6 485,108.2 486,109.4 C487.6,111.4 485.4,111.5 483.5,109.5 C482.4,108.5 482.1,105.2 482.3,95.8 C482.4,89 482.2,81.8 481.8,79.8 C481.1,76.2 476.6,66.4 471.6,57.9 C470.2,55.4 468.7,52.7 468.3,51.9 C466.8,48.7 458.4,37.3 456,35.2 C452.8,32.4 451.7,32.4 450.5,35.1 C448.9,38.7 447,37.8 444.8,32.6 C443,28.5 442.9,27.6 444.1,26.8 C445.2,26.1 444.7,25.2 441.5,22.5 L437.6,19.2 L426.5,19.6 C420.5,19.9 413.6,19.7 411.4,19.1 C405.7,17.8 404.1,18.9 404.3,23.9 C404.4,27.7 406.1,29.2 407.5,26.9 C408.2,25.7 412,25.6 412,26.7 C412,27.2 413.8,28.1 416,28.8 C418.2,29.4 420,30.5 420,31 C420,31.6 420.9,33.3 422,34.9 C423.1,36.4 423.7,37.8 423.5,38.1 C423.1,38.5 423.9,41.8 425.7,46.9 C426.4,48.9 426.7,57.2 426.2,58.3 C425.2,60.1 425.1,104.9 426.1,105.4 C426.6,105.8 427,108 427,110.4 C427,112.8 427.4,115.1 428,115.4 C429.5,116.3 429.2,117.9 427.5,117.9 C425.7,117.9 425.5,119.5 427.2,120.5 C427.9,120.9 428,120.8 427.6,120.1 C427.2,119.4 427.5,118.9 428.4,118.9 C429.3,118.9 430.3,120.1 430.6,121.6 C431,123.2 432.9,126.4 434.9,128.9 C436.9,131.4 439,134 439.5,134.7 C440.1,135.4 442,137.4 443.9,139.2 C445.8,141 448,143.1 448.9,144 C451.4,146.4 457.5,148.9 460.9,148.9 C462.6,148.9 463.9,148.6 463.8,148.2 C463.3,146.5 465,140.9 466,140.9 C466.6,140.9 466.9,141.3 466.6,141.8 C466.2,142.3 466.5,142.9 467,143.1 C467.7,143.3 467.6,145.1 466.6,148.2 C465.8,150.8 465.6,152.9 466.1,152.9 C467.6,152.9 467.1,155.7 465.4,156.3 C463,157.2 459.2,157 458.5,155.9 C458.2,155.3 456.4,154.9 454.7,154.9 C449.4,154.8 444.6,151.8 438.1,144.4 C434.7,140.6 431.6,137 431.2,136.6 C427.5,132.4 416,122.7 414.3,122.3 C409.6,121.1 402.1,129.7 401.5,136.9 C401.4,139 401,141.1 400.6,141.7 C400.2,142.3 400.8,143.2 401.7,143.8 C402.7,144.3 403.2,145.1 402.8,145.5 C402.3,145.9 402.5,146.8 403,147.4 C403.9,148.4 405,152.2 407.4,161.4 C408.1,163.8 409.5,166.5 411.2,168.3 C412.1,169.3 412.7,170.5 412.5,170.9 C412.2,171.4 412.7,173 413.5,174.5 C414.3,176.1 415,178.2 415,179.2 C415,180.6 415.5,180.9 417,180.4 C418.7,179.9 419.1,180.3 419.6,182.8 C420,184.5 420.6,185.9 421.1,185.9 C421.6,185.9 422,186.3 422,186.8 C422,188.6 427.5,196.8 428.7,196.9 C429.4,196.9 429.7,197.6 429.4,198.4 C429,199.2 430.5,202 432.9,205 C435.2,207.8 437,211 437,212.1 C437,213.2 437.8,216.1 438.8,218.7 C441.5,225.6 443.1,230.1 443.7,232.7 C444,233.9 444.7,234.9 445.4,234.9 C446,234.9 445.8,235.4 445,235.9 C444,236.5 443.9,236.9 444.8,236.9 C445.4,236.9 446,238 446,239.3 C446,240.7 446.4,242 446.9,242.3 C447.7,242.9 448.5,246.1 449.8,253.9 C450.1,255.8 450.3,260.8 450.4,264.9 C450.5,270.7 450.9,272.8 452.2,274 C453.2,274.9 454,276 454,276.3 C454,276.7 454.6,277.6 455.3,278.4 C457.9,281 459.1,278.5 458.9,270.3 C458.9,266 459.5,257.7 460.4,251.9 C461.3,246.1 462.4,236.1 463,229.5 C463.6,223 464.2,217.4 464.4,217 C464.6,216.7 464.9,214.1 465.1,211.4 C465.2,208.6 465.6,206 465.9,205.4 C466.1,204.9 466.5,203.3 466.7,201.9 C467.5,195.4 468,191.2 468.1,189.4 C468.2,188.3 468.8,185.2 469.6,182.4 C470.3,179.7 471.4,173.5 472.1,168.7 C472.8,163.4 473.7,160.2 474.3,160.6 C474.9,160.9 475.1,160.8 474.8,160.3 C474.3,159.5 474.8,154.6 476.5,143.9 C477.8,135.4 478,132.6 478.4,125.1 C478.6,119.6 479.2,116.3 480.2,115.1 C481.1,114.2 482,112.7 482.3,111.9 C482.7,110.7 482.9,110.8 482.9,112.2 C483,113.1 483.7,113.9 484.5,113.9 C485.3,113.9 486,114.7 486,115.7 C486,117 485.8,117.1 485.1,116.1 C484.5,115.1 484.1,115.2 483.7,116.8 C483.4,118 483.6,118.9 484.1,118.9 C485.6,118.9 485.1,124.6 483.5,126.2 C482.4,127.4 482.3,127.9 483.3,128.2 C484.2,128.6 484.2,128.8 483.2,128.8 C482.2,128.9 482.2,129.3 483.2,130.8 C484.2,132.5 484.1,133.1 482.6,134.8 C481.5,136 481.2,136.9 481.8,136.9 C482.4,136.9 483.1,136.3 483.4,135.7 C483.7,135 483.7,136.7 483.3,139.4 C482.9,142.2 482.5,146 482.3,147.9 C481.4,157.2 481.4,157.4 479.3,157.7 C477,158 475.3,160.9 477.3,160.9 C478,160.9 477.6,161.6 476.6,162.4 C475.5,163.2 475.2,163.9 475.8,163.9 C476.7,163.9 476.8,164.4 476,165.8 C475,167.8 475.6,170.9 477,170.9 C477.4,170.9 478,171.9 478.4,173.2 C479.3,177.1 488.6,185.9 490.9,185.1 C491.7,184.8 492,185.1 491.6,185.8 C489.9,188.5 494.4,186.6 500,182.2 C505.3,178.1 506.3,176.8 507.7,172 C509.9,164.4 509.8,161.4 506.7,154.7 C503.5,147.9 503.4,147.6 506.1,148.4 C507.7,148.9 508,148.8 507.5,147.9 C506.9,146.9 507.8,146.8 511.6,147.3 C523.9,149 526.5,149 530,147.2 C534.5,144.8 539.2,138 539.9,132.7 C541.2,123.7 538,113 533,109.2 C532.2,108.6 530.6,107.3 529.5,106.4 C527.6,104.8 527.6,104.8 530.9,105.3 C534,105.9 538,108.8 538,110.5 C538,110.9 538.7,111.7 539.6,112.4 C542.2,114.3 544.7,126.3 544.6,136.2 C544.5,141 544,145.3 543.5,145.7 C542.9,146.1 541.2,148.3 539.6,150.7 C534.8,157.7 531.9,159.3 524.8,158.6 C520.7,158.2 517.6,157.3 514.8,155.4 C512.6,153.9 510.6,152.9 510.4,153.1 C510.2,153.3 510.9,155.3 512,157.5 C514,161.7 515.5,176.5 513.9,177.5 C513.4,177.8 513,179.1 513,180.3 C513,181.6 512.3,183.2 511.5,183.9 C510.7,184.6 510,185.6 510,186.1 C510,187.3 506,191.5 506,190.3 C506,189.8 505.5,190.2 504.9,191.1 C503.5,193.5 497.5,193.4 490.5,191 C484,188.7 479.6,185.4 478,181.6 C477.2,179.9 476,178.9 474.7,178.9 C473.6,178.9 473,179.2 473.3,179.6 C473.7,179.9 473.5,180.9 472.8,181.6 C471.9,182.7 471.9,183.2 472.9,183.8 C473.9,184.4 473.9,185.5 473.2,188.2 C472.6,190.2 472.4,192 472.6,192.2 C472.9,192.4 472.4,195.5 471.5,199 C470.7,202.5 470.4,205.5 470.9,205.7 C471.4,205.9 470.9,207.8 469.8,210.1 C468.2,213.4 468.1,214.3 469.2,215 C470.2,215.7 470.2,215.9 469.3,215.9 C467.7,215.9 467.6,218.6 469.1,219.1 C469.9,219.4 469.7,220.7 468.6,223.3 C467.5,225.9 467.3,227.6 468,228.9 C468.5,229.8 468.7,230.9 468.4,231.2 C467.1,232.5 466.2,239.4 467.1,240.5 C467.8,241.3 467.7,241.9 467,242.4 C465.3,243.4 465.8,247.9 467.6,247.9 C468.8,247.9 468.3,248.9 465.9,251.6 C463.2,254.7 462.9,255.5 464.3,255.7 C465.3,255.9 465.7,256.5 465.4,257.1 C464.7,258.1 463.9,270.9 463.9,281.2 C463.9,284.3 463.5,286.9 463,286.9 C462.5,286.9 462.5,288.3 463.1,290.1 C463.6,291.8 463.8,293.5 463.5,293.7 C463.3,294 464,294.9 465.1,295.8 C466.9,297.3 467,297.8 465.9,300.2 C465.2,301.7 464.3,302.9 463.9,302.9 C462.8,302.9 461.7,299.1 462.5,297.9 C462.8,297.4 462.4,296.9 461.5,296.9 C460.6,296.9 460.1,296.5 460.5,296 C460.8,295.5 460.6,294.7 460,294.4 C458.7,293.6 455.8,295.8 456.6,297 C456.9,297.5 456.6,297.9 456.1,297.9 C455.5,297.9 453.3,299.4 451.3,301.2 C449.2,303 444.8,305.8 441.5,307.4 C438.2,308.9 434.7,310.6 433.8,311.1 C430.1,312.8 423.4,314.9 421.3,314.9 C420,314.9 419,315.3 419,315.7 C419,316.8 398.2,319.9 391.3,319.9 C386.5,319.9 380.3,318.8 358.5,314 C348.3,311.8 345.8,311 346.4,310 C346.6,309.7 345.5,309.4 344,309.3 C340.2,309.2 337.8,308.1 338.5,306.9 C339.3,305.7 346,305.6 346,306.8 C346,307.2 348.8,308.2 352.3,308.9 C355.7,309.5 359.2,310.3 360,310.6 C360.8,310.9 362.3,311.2 363.3,311.2 C369.1,311 369,311.1 369,306.5 C369,301.9 370.2,299.9 374.3,297.7 C380.8,294.2 397.5,293.5 405.8,296.3 C410.9,298 417,303.1 417,305.6 C417,306.2 417.5,306.9 418.2,307.1 C418.8,307.3 418.1,308.7 416.4,310.3 L413.5,313 L417.5,312.3 C429.6,310.2 448.5,300.3 453.3,293.5 C454.5,291.8 455.8,290.3 456.2,290.1 C457.6,289.5 457.1,287.9 455.5,287.9 C454.7,287.9 454.1,287.6 454.2,287.2 C454.6,286 450.2,278.9 449,278.9 C448.5,278.9 448.1,278.6 448.2,278.2 C448.5,276.8 446.2,272.3 444.6,271 C443.7,270.3 443.3,269.3 443.6,268.8 C443.9,268.3 443.4,267.9 442.6,267.9 C441.8,267.9 440.7,267.3 440.3,266.7 C439.9,266 437.8,264.5 435.7,263.5 C433.6,262.4 432.1,261 432.4,260.3 C432.7,259.6 432.2,259.3 431.1,259.6 C429.5,260 423.1,255.7 422.2,253.7 C422,253.2 421.2,252.9 420.5,252.9 C419.8,252.9 419,252.3 418.7,251.5 C418.1,250 408,244.9 405.6,244.9 C404.7,244.9 404,244.4 404,243.8 C404,243.2 402.4,242.8 400.3,242.9 C394.6,243.2 387.4,241.8 389.3,240.8 C390.1,240.3 392.8,240.3 395.3,240.8 C398.7,241.4 400.7,241.2 403,240.1 C405.3,239 406.4,238.9 407.3,239.8 C407.9,240.4 409.2,240.9 410.1,240.9 C412.8,240.9 417.3,243.6 416,244.4 C414,245.7 417,246.8 420.7,246.2 C423.4,245.7 423.9,245.9 423.5,247.2 C422.7,249.1 424.9,250.6 426,248.9 C426.5,248 426.9,248 427.4,248.8 C427.8,249.4 427.6,249.9 427.1,249.9 C426.3,249.9 426.4,250.6 427.2,251.9 C427.9,252.9 428.6,253.6 428.8,253.4 C429.1,253.2 430.9,254.1 432.9,255.4 C434.8,256.8 437.2,257.9 438.1,257.9 C439,257.9 440,258.6 440.4,259.4 C440.7,260.2 441.8,260.9 442.8,260.9 C444.5,260.9 444.7,260.3 444.3,255.2 C443.8,248.5 439.9,234.8 438.8,235.5 C438.4,235.8 437.9,235.4 437.9,234.7 C437.7,232.1 437.4,231.3 434.7,225.5 C433.2,222.3 432,219.1 432,218.5 C432,217.5 430.7,215.3 425,206.9 C423.6,204.9 421,200.9 419.2,198.1 C417.3,195.2 415.5,192.9 415,192.9 C414.6,192.9 412.6,189.1 410.5,184.4 C408.4,179.7 406.3,175.9 405.9,175.9 C405.5,175.9 404.8,175 404.5,173.8 C404.1,172.6 402.9,170.8 401.9,169.8 C400.9,168.8 400,167 400,166 C400,164.9 399.6,163.7 399,163.4 C398.5,163.1 398,162 398,161 C398,160.1 396.7,157.2 395.1,154.7 C391,148.3 390.4,145.9 392.8,145.9 C393.8,145.9 394.7,145.2 394.7,144.4 C394.7,143.3 394.3,143.2 393.6,143.9 C391.7,145.8 390.8,144.9 391.2,141.4 C391.4,139.5 391.2,137.9 390.7,137.9 C389.2,137.9 390.6,121.9 392.5,117.2 C395.5,109.7 406.9,107.5 415.3,112.9 C417.9,114.5 420.5,115.9 421,115.9 C422,115.9 421.2,97.4 420,93.9 C418.5,89.6 417.8,73.6 419,68.4 C420.3,61.9 421.1,48.6 420.2,47.2 C419.2,45.6 412.2,44.1 407.9,44.7 C405.5,44.9 404,44.6 403.1,43.5 C402.3,42.6 401.2,41.9 400.5,41.9 C397.6,41.9 387.9,36.6 385.4,33.6 C383.3,31.1 382.9,29.8 383.3,26.8 C383.6,24.8 383.4,22.7 383,22.2 C382.5,21.8 381.5,18.9 380.8,15.9 L379.4,10.4 L371.6,10.3 C363.3,10.1 359.8,11.2 355.8,15.4 C354.5,16.8 352.6,17.9 351.4,17.9 C349.4,17.9 345,21.7 345,23.4 C345,24 343.6,27.1 342,30.5 C340.3,33.8 338.5,39 337.9,42 C337.4,45 336.6,48.6 336.3,50.2 C334.8,57.5 340.7,49.2 342.4,41.7 C342.8,40 343.7,38.9 344.8,38.8 C345.7,38.8 346,38.5 345.4,38.3 C344.1,37.8 344.8,32.9 346.1,32.9 C346.6,32.9 347,32.3 347,31.5 C347,30.7 347.9,29.7 349,29.4 C350.8,28.8 353.4,25.5 353.5,23.7 C353.5,22.7 359.9,16.9 361,16.9 C362.5,16.9 362.2,19.1 360.4,21.7 C359.5,23 359.1,24.3 359.4,24.6 C359.7,25 360,24.7 360,24 C360,23.3 360.4,23 360.9,23.3 C362.1,24.1 367.7,17.6 367.2,16 C366.8,14.9 367.2,14.8 368.6,15.4 C369.7,15.8 371.3,16.1 372.3,16.1 C373.6,16 374,16.5 373.6,17.5 C373.3,18.4 373,19.3 373,19.5 C373,19.7 372.1,19.9 371,19.9 C369.7,19.9 369.2,20.4 369.6,21.3 C370,22.4 369.1,23 366.6,23.5 C364.6,23.8 363,24.6 363.1,25.3 C363.4,27.1 361.9,29.9 360.9,29.3 C360.4,29 360.3,28.2 360.6,27.6 C361,26.9 360.9,26.8 360.4,27.2 C359.9,27.7 359.5,28.4 359.5,28.7 C359.3,31.1 357.6,33.9 356.2,34.3 C355.3,34.6 353.4,36.5 352.1,38.4 C350.1,41.4 349.9,42.1 351.1,43.6 C352.4,45.1 352.3,45.2 350.2,44.7 C348.8,44.3 348,44.5 348.2,45.2 C348.5,46.6 346.2,54.7 344.9,56.9 C344.4,57.7 343.7,59.1 343.4,59.9 C343.1,60.7 342.2,62.8 341.5,64.4 C338.9,70.5 334.3,90.6 334.2,95.9 C334.2,96.7 333.9,99.8 333.6,102.7 C333.3,105.5 333.4,107.9 333.8,107.9 C334.3,107.9 334.6,110 334.6,112.5 C334.5,115 334.8,117.3 335.3,117.6 C335.7,117.8 335.5,118.9 335,120 C333.8,122.1 334.6,133.9 335.9,135.2 C336.4,135.7 337.1,134.7 337.5,133 C337.9,131.3 338.6,129.9 339.2,129.9 C339.8,129.9 340,129.2 339.6,128.4 C339.3,127.6 339.5,126.9 340,126.9 C340.6,126.9 341,125.8 341,124.4 C341,123 341.4,121.9 341.8,121.9 C342.2,121.9 345.2,119.7 348.5,116.9 C353.1,113 355,112 357.7,112.1 C359.5,112.2 361,112.6 361,113.1 C361,113.5 363.1,113.8 365.8,113.6 C369.2,113.5 370.4,113.8 370.2,114.7 C370.1,115.4 370.7,115.9 371.7,115.7 C373,115.5 373.5,116.1 373.5,117.6 C373.5,118.8 374.3,120.6 375.2,121.6 C376.5,123.1 376.7,125.1 376.4,133.3 C376.1,139.2 375.3,144.3 374.4,146 C373.6,147.6 373.1,149.2 373.1,149.6 C373.2,150 373.1,151.1 372.8,151.9 C372.5,152.7 371.7,155.4 371.1,157.9 C370.4,160.4 369.2,164.7 368.5,167.4 C367,172.4 364.7,182.4 363.4,188.9 C363.1,190.8 361.9,194 360.9,196 C359.9,198 359.4,199.9 359.7,200.3 C360.3,200.9 358.4,206.2 354.9,213.2 C353.8,215.4 353,217.7 353,218.5 C353,219.3 352.1,220.4 351.1,221.1 C350.1,221.7 349.4,222.9 349.7,223.6 C350,224.3 349.7,224.9 349.1,224.9 C348.5,224.9 348,226 348,227.4 C348,228.9 346.8,231.2 345.3,232.7 C343.8,234.2 342.6,235.6 342.6,235.9 C342.8,237.2 341.7,239.9 341,239.9 C340.1,239.9 337.5,245.1 337.1,247.8 C337.1,248.3 336.4,249.4 335.7,250.1 C335,250.8 333.3,253.2 332,255.4 C330.7,257.6 329,259.8 328.3,260.2 C327.6,260.6 327,261.6 327,262.3 C327,262.9 325.4,265.2 323.5,267.3 C319.8,271.4 318.7,274.4 322,271.4 C323.7,269.8 324,269.8 324,271.2 C324,272.1 321.5,274.4 318.5,276.4 C315.5,278.5 313,280.5 313,281.1 C313,282.4 310.4,284.9 309.1,284.9 C308.5,284.9 308,285.6 308,286.4 C308,289 311.9,288.1 313.4,285 C314.3,283.4 315.9,281.9 317,281.6 C318.2,281.3 319.4,280.1 319.7,279 C320,277.8 320.6,276.9 321,276.9 C321.4,276.9 322.7,276 324,274.9 C325.3,273.8 326.8,272.9 327.5,272.9 C328.1,272.9 329.7,271.8 331,270.4 C332.4,268.9 334,268.1 334.9,268.4 C335.8,268.7 336.1,268.7 335.8,268.3 C334.8,267.3 340.5,262.9 342.8,262.9 C343.8,262.9 345.9,262 347.3,260.9 C348.7,259.8 350.3,258.9 351,258.9 C351.6,258.9 351.8,258.4 351.4,257.7 C351,257.1 351.1,256.9 351.8,257.3 C352.3,257.6 353,257.5 353.2,257.1 C353.6,255.9 362.1,250.7 362.7,251.2 C362.9,251.5 361.6,252.7 359.8,254 C358,255.3 355.8,257.1 354.9,257.9 C354,258.7 351.8,260.5 350.1,261.9 C348.3,263.3 345.4,265.7 343.7,267.2 C341.9,268.8 338.8,271.1 336.8,272.5 C334.7,273.8 333,275.4 333,276 C333,276.6 330.7,279.4 327.9,282.2 C322.9,287.1 320.4,292.3 320.9,296.2 C321,297.2 320.5,297.9 319.6,297.9 C317.9,297.9 317.9,297.9 317.6,302.4 C317.6,304.1 317,306.3 316.4,307.3 C315.7,308.5 315.5,310.3 316.1,312.1 C316.5,313.7 316.5,314.7 316,314.4 C315.6,314.2 314.7,314.6 314.1,315.3 C313.2,316.3 313.2,316.9 314,317.4 C314.7,317.8 314.8,318.5 314.2,319.2 C313.1,320.5 313.4,339.1 314.4,340.8 C314.8,341.4 315.3,344.1 315.6,346.8 C315.8,349.5 316.7,353.4 317.6,355.5 C318.4,357.5 318.9,360.2 318.6,361.5 C318.2,362.8 318.5,363.9 319.3,364.2 C320.2,364.6 320.2,365 319.2,365.7 C318.1,366.4 318.1,366.7 319.5,367.2 C320.4,367.6 321,368.7 320.8,369.6 C320.6,370.7 321,371.3 321.8,371.1 C322.6,371 322.9,371.2 322.6,371.7 C322.3,372.2 322.8,373.5 323.8,374.5 C324.9,375.8 325.5,377.9 325.4,381.2 C325.3,384.3 325.7,385.8 326.4,385.6 C327,385.3 327.4,384.6 327.2,383.9 C327.1,383.3 327.5,382.9 328.1,383.1 C329.9,383.7 332.1,392.9 330.5,393.5 C329.2,394 329.3,401 330.6,403.1 C331.1,403.8 331.3,405.2 331.2,406.2 C331,407.2 331.5,407.9 332.4,407.9 C334.4,407.9 334.4,410.5 332.6,414.1 C331.8,415.6 330.9,418.1 330.5,419.8 C330.1,421.5 329.5,422.9 329,422.9 C328.5,422.9 327.8,424.4 327.5,426.2 C327.1,427.9 326.4,429.6 325.9,429.9 C325.5,430.2 325,432.3 324.8,434.6 C324.5,436.8 323.7,439.7 322.9,441 C320.5,445 318.9,449 319.5,450 C319.9,450.5 319.7,450.9 319.2,450.9 C318.1,450.9 315.7,459.6 316.4,460.7 C316.6,461.1 316.2,463 315.4,464.9 C314.2,467.7 313.7,468.1 312.9,466.9 C312.2,465.8 312.1,466.3 312.6,468.4 C313,470.1 313.6,471.5 314,471.7 C315.1,472.1 313.8,479.4 312.5,480.1 C311.7,480.6 311.3,482.7 311.3,485.8 C311.4,488.5 311.2,490.5 310.9,490.3 C310,489.8 308.7,496.7 309.5,497.8 C309.8,498.4 309.6,499 309,499.4 C307.7,500.2 307.7,503.9 309,503.9 C309.6,503.9 309.8,505 309.4,506.6 C309,508.1 308.7,509.9 308.7,510.6 C308.7,511.3 308.3,511.9 307.9,511.9 C307,511.9 307.9,515.1 309.1,515.9 C309.5,516.2 309.4,518.9 308.8,521.9 C307.9,527.1 307.4,531 306.7,538.7 C306.5,540.4 306.6,541.9 306.9,541.9 C307.2,541.9 307.4,545.9 307.2,550.9 C306.9,558.7 307.1,559.9 308.5,559.9 C309.4,559.9 309.8,559.4 309.5,558.9 C309.1,558.3 309.5,556.6 310.3,555.1 C311.3,553 311.4,551.7 310.6,550 C309.9,548.4 310,547.5 310.8,547 C311.5,546.6 312.3,543.1 312.6,539.3 C312.9,535.5 313.3,531.3 313.5,529.9 C313.7,528.5 313.9,525.9 313.9,524.2 C314,522.4 314.5,520.9 315.1,520.9 C315.8,520.9 316,522 315.7,523.6 L315.2,526.4 L317,524.2 C319,521.7 319.3,514.4 317.3,514.4 C316.7,514.4 315.8,514 315.3,513.5 C314.8,513 315,512.9 315.8,513.3 C316.4,513.7 317,513.6 317,513.2 C317,512.7 316.4,511.7 315.8,510.9 C314.7,509.7 314.8,509.7 316.3,510.8 C317.6,511.8 318.3,511.9 319.4,511 C321.7,509.1 322.1,512.3 320.5,519.4 C319.7,522.9 318.9,529.4 318.9,533.8 C318.9,538.3 318.4,541.7 318,541.4 C317.5,541.1 316.6,541.7 316,542.8 C315.2,544.4 315.4,545 316.7,545.8 C318.4,546.8 318.4,546.8 316.8,546.9 C315.6,546.9 315,547.7 315,549.4 C315,550.8 315.4,551.9 315.8,551.9 C316.2,551.9 316.3,554 316,556.7 C315.6,560.2 315.9,562 317.2,563.9 C318.6,565.9 318.8,567.1 318,570.4 C316.7,575.8 316.8,580.7 318.1,581.1 C319.2,581.5 319.6,583.6 320.2,590.7 C320.3,592.5 320.8,594.3 321.2,594.5 C322.7,595.5 329.1,591.6 330.6,588.8 C331.4,587.2 332.5,585.9 333,585.9 C333.6,585.9 334,584.6 334,583 C334,581 334.8,579.6 336.5,578.5 C338.5,577.2 338.8,576.4 338.1,575.1 C336.9,572.8 338.3,570.4 340.4,571.2 C341.3,571.6 342,571.5 342,571 C342,570.5 341.1,569.9 340,569.6 C338.1,569.1 338.1,569 339.7,565.8 C340.6,563.9 341.7,560.2 342.2,557.4 C342.6,554.7 343.3,552.3 343.8,552.1 C344.3,552 344.4,550.5 344.2,548.8 C343.8,545.9 345,544 347.3,543.9 C348.2,543.9 347.7,548.5 346.7,549.5 C346.3,549.9 346,551.3 346,552.6 C346,553.9 345.3,555.2 344.5,555.5 C343.7,555.9 343,557 343,558 C343,559.6 343.3,559.7 345.5,558.7 C346.9,558.1 348,557 348,556.2 C348,555.5 348.4,554.9 348.8,554.9 C350.6,554.9 350.9,556.3 349.6,558.4 C348.8,559.6 347.9,563.2 347.5,566.4 C347.1,569.6 346.1,573.4 345.4,574.8 C344.6,576.2 344,578 344,578.7 C344,579.4 343,582.8 341.9,586.2 C340.7,589.6 339.5,594 339.3,595.9 C339,597.8 338.4,600.2 337.9,601.1 C337.4,602 337,603.7 337,604.8 C337,606 336.6,606.9 336,606.9 C335.5,606.9 335.1,607.2 335.1,607.7 C335.6,611 334.5,613.6 330.9,616.9 C326,621.4 322.3,621.8 318,618.2 Z M316,273.3 C316.8,271.7 319.9,266.6 322.9,262 C328.7,252.8 331.6,247.6 334.2,241.4 C350.4,202.4 359.1,177 357.1,174.5 C354.9,171.7 359.3,153.5 364.7,142.6 C367.5,137.2 368.8,123.6 366.9,121.2 C365.5,119.6 361.1,119.5 357.2,121.2 C354,122.5 347.8,129.3 345.3,134.3 C344.5,136 343.1,138.2 342.2,139.2 C341.3,140.2 340.5,141.7 340.4,142.7 C339.8,146.7 336,155.4 334.8,155.7 C334,155.8 332.8,157.5 332.1,159.4 C331.4,161.3 330.4,162.9 329.9,162.9 C329.4,162.9 329,164.1 329,165.5 C329,167.1 328.6,167.8 327.8,167.3 C327.1,166.9 327,167 327.4,167.8 C328.2,169.1 326.8,174.4 323.7,180.9 C321.1,186.6 320.5,188.1 318.5,194.9 C317.6,197.9 316.2,201.8 315.5,203.4 C312.2,210.9 311.7,212.7 311.3,217.4 C311,220.1 310.6,222.6 310.2,222.9 C309.4,223.5 309.2,225.2 308.8,231.8 C308.7,234.2 308,236.4 307.3,236.6 C305.7,237.2 305.6,239.9 307.1,239.9 C307.6,239.9 307.8,240.4 307.5,241 C306.2,243.1 305.9,256.2 307.1,257 C307.7,257.3 308.4,258.7 308.6,260 C309.3,265.4 311.1,272.2 312.2,273.6 C312.7,274.3 312.8,275.3 312.4,276 C312,276.7 312.2,277 313.1,276.7 C313.9,276.4 315.2,274.9 316,273.3 Z M312.9,174.3 C315.4,172.9 319.1,170.3 321.1,168.5 C325.1,164.8 328.6,156.4 327,154.4 C326.5,153.8 325.8,146.1 325.5,137.3 C325.2,128.6 324.5,115.1 323.9,107.4 C323,93.8 324,53.3 325.4,51 C326.3,49.6 324,48.5 322.7,49.8 C321.3,51.2 320,51.2 320,49.9 C320,49.4 321.1,48.7 322.5,48.3 C324.7,47.7 326.1,45.6 326.5,41.9 C326.6,41.1 327,38 327.4,35.2 C328.3,29.2 327.5,28.6 323.4,32.4 C321.9,33.8 319.1,35.4 317,36 C315,36.6 310.4,39.9 306.4,43.5 C302.6,47 299.2,49.9 298.8,49.9 C298.4,49.9 296.1,52.5 293.8,55.7 C291.4,58.8 289.2,61.6 288.8,61.7 C288.3,61.9 288,62.8 288,63.7 C288,64.5 287.4,66 286.7,66.8 C285.3,68.4 281,81.3 281,83.7 C281,84.4 281.5,84.9 282,84.9 C282.6,84.9 283,84.4 283,83.9 C283,82.7 287.1,76.6 288.3,76.1 C288.7,75.9 289,75.2 289,74.5 C289,73.8 289.9,72.4 291,71.4 C292.1,70.4 293,69.9 293,70.2 C293,71.1 288.9,79.1 287.5,80.9 C286.1,82.7 283,90.9 283,92.8 C283,93.5 282.4,95.5 281.6,97.2 C278.5,103.9 277.2,107.8 276.5,112 C276.1,114.4 275.3,117.2 274.8,118.2 C272.5,122.7 274.4,150.5 277.6,157.6 C278.4,159.3 279,161.3 279,162 C279,164.3 283.9,171.6 286.7,173.4 C294.3,178.4 304.8,178.8 312.9,174.3 Z M320.2,29.8 C321.6,28.7 323.3,27.9 323.9,27.9 C324.4,27.9 326.1,26.7 327.5,25.3 C331.1,21.7 329.5,20.1 323.9,21.8 C321.4,22.6 319.5,22.7 319.1,22.1 C318.4,21 310,18.2 305,17.4 C303.1,17.1 300.2,17.2 298.5,17.7 C294.3,19 294.9,21.8 300.8,27.8 L305.6,32.6 L311.5,32.1 C315.1,31.8 318.6,30.9 320.2,29.8 Z" id="Shape"></path>
                <path d="M483.2,580.9 C482.6,579.8 482,578.4 482,577.7 C482,577 479.8,574.1 477.2,571.3 C471.7,565.5 469,558.8 471.2,556.2 C472.2,554.9 472.2,554.5 471.2,554.1 C470.5,553.9 469.3,552.4 468.5,550.9 C467.2,548.3 467.2,547.9 468.6,546.5 C469.4,545.6 469.7,544.9 469.1,544.9 C468.5,544.9 468,543.6 468,541.9 C468,536.1 469.4,537.9 475.8,551.7 C476.6,553.4 477.6,554.9 478,554.9 C478.9,554.9 480.8,546.8 482.1,537.9 C484.5,520.6 485,516.3 485,514.4 C485,511.2 487.2,504.9 488.4,504.9 C489,504.9 489,504.5 488.3,503.8 C485.8,501.3 494.8,489.1 500.4,487.3 C503.3,486.3 504.8,488.6 501.9,489.8 C497.3,491.5 490,501.5 490,506 C490,507.2 490.5,507.6 491.5,507.3 C493.5,506.5 493.8,518.2 492.4,536.4 C491.1,551.5 490.4,554.1 486.3,559.6 C483,563.9 482.6,566.1 484.1,570.8 C484.8,572.8 485.3,574.5 485.2,574.6 C485.1,574.8 485.7,576.7 486.5,578.9 C487.8,582.6 487.8,582.9 486.2,582.9 C485.3,582.9 483.9,582 483.2,580.9 Z" id="Shape"></path>
                <path d="M531.2,546.3 C531.2,541.1 528.8,534 526.8,533.1 C526.3,532.9 526,532.2 525.9,531.6 C525.9,530.9 524.4,528.4 522.5,525.9 C520.7,523.4 517.8,518.7 516.1,515.4 C514.5,512.1 512.2,508.4 511.1,507.2 C509.9,506 509,504.7 509,504.3 C509,504 508.1,502.4 506.9,500.8 C505.1,498.2 505,497.8 506.4,496.3 C508,494.8 510,495.2 510,497 C510,497.6 509.6,497.7 509,497.4 C508.4,497.1 508.3,497.5 508.7,498.4 C509,499.4 509.5,499.7 509.9,499 C510.3,498.5 511,498.3 511.6,498.7 C512.7,499.4 522,518.5 522,520 C522,520.5 522.4,520.9 522.9,520.9 C523.4,520.9 524.1,522.2 524.5,523.8 C524.8,525.4 525.8,527 526.6,527.3 C527.5,527.6 527.8,528.4 527.5,529 C527.1,529.6 527.5,529.9 528.6,529.7 C529.9,529.5 530.6,530.1 530.8,531.7 C531,532.9 531.5,533.9 531.9,533.9 C533.1,533.9 535.3,539.1 535.3,542.1 C535.3,543.6 534.8,545.4 534.1,546.3 C533.4,547.1 533.1,548.2 533.4,548.7 C533.7,549.3 533.4,550.2 532.6,550.8 C531.5,551.7 531.3,550.9 531.2,546.3 Z" id="Shape"></path>
                <path d="M474.3,531.9 C474.6,530.8 474.5,529.9 474.1,529.7 C473.8,529.5 472.7,528 471.8,526.2 C469.8,522.8 469.4,519.4 471,520.4 C471.6,520.7 472,520.3 472,519.5 C472,518.6 471.4,518.2 470.7,518.5 C469.8,518.8 469,516.9 468.2,511.7 C467.5,507.7 466.1,502.6 465,500.4 C464,498.2 463.4,496.1 463.6,495.7 C463.9,495.3 463.4,495.2 462.6,495.5 C460.7,496.2 460.4,502 462.2,501.7 C462.9,501.5 463.4,502.1 463.5,502.9 C463.6,504.5 458.2,508.4 457.2,507.4 C456.8,507.1 457.2,506.4 458,505.9 C459.3,505.1 459.2,504.9 457.7,504.9 C456.7,504.9 456.1,504.5 456.5,504 C456.8,503.4 456.2,502.2 455.2,501.2 C454,500.1 453,497.3 452.7,494 C452.3,490.6 451.4,488.2 450.3,487.4 C449.3,486.6 448.8,485.7 449.2,485.3 C449.6,484.9 449.5,484 448.9,483.2 C448,482.2 448.1,481.5 449,480.4 C449.9,479.3 450,478.6 449.1,477.5 C448.5,476.8 448.1,474.6 448.2,472.8 C448.4,470.1 448,469.2 446.3,468.5 C445.1,467.9 442.7,464.5 440.9,460.9 C439,457.3 436.7,453.6 435.8,452.6 C433.8,450.6 433.5,448.9 435,448.9 C435.6,448.9 435.3,448 434.3,447 C432.6,445.2 431.8,443.8 427.9,435.5 C427.2,433.9 425.9,432.4 425,432.1 C424.2,431.8 423.2,431.1 422.8,430.5 C422.2,429.7 421.7,429.8 421.2,430.7 C420.7,431.4 418.6,432 416.4,432.1 C414.3,432.1 411.8,432.5 411,432.9 C410.2,433.4 405.1,433.9 399.7,434.2 C391.5,434.6 390,434.5 390,433.2 C390,432.1 389.7,431.9 388.7,432.7 C387.3,433.9 383.3,432.3 378.7,428.5 L375.8,426.2 L379.3,424 C381.2,422.9 383.8,421.9 385.1,421.9 C388.9,422 401.2,426.4 400.3,427.4 C399.9,427.8 400.3,427.9 401.3,427.6 C402.3,427.2 405.1,426.9 407.5,426.9 C411,426.9 412.7,426.3 415.5,423.8 C417.4,422.1 419,420 419,419 C419.1,417.6 419.2,417.6 420.1,419.2 C420.6,420.1 420.8,421.4 420.4,422.1 C419.9,422.8 420.4,423 421.8,422.7 C423.2,422.3 423.7,422.5 423.4,423.4 C422.6,425.3 424.6,426.1 426.2,424.6 C426.9,423.9 428.3,423 429.2,422.6 C430.4,422.2 430.7,421.2 430.4,419.5 C430.1,417.5 431.3,415.8 437,410.2 C440.8,406.5 444,402.9 444,402.3 C444,401.1 447.1,399.9 450.3,399.9 C451.9,399.9 452,400.4 451.5,403 C450.2,408.7 450.3,411 451.6,412.4 C452.7,413.4 452.7,414 451.8,414.5 C451,415 451.3,415.5 452.6,415.9 C453.7,416.3 455.2,418 456,419.5 C456.8,421.1 458.5,424.1 459.9,426.1 C461.2,428.2 462.3,431.1 462.3,432.5 C462.3,434.7 462.4,434.9 463.2,433.6 C464.5,431.3 466,431.5 466,434 C466,435.1 466.4,435.8 466.9,435.5 C467.4,435.2 468.1,436 468.4,437.4 C468.7,438.7 470.1,441 471.5,442.5 C472.9,444 474,445.8 474,446.4 C474,447.1 474.6,447.9 475.4,448.2 C476.3,448.6 476.6,449.6 476.3,450.8 C475.7,453.1 478.4,453.9 479.3,451.7 C479.6,451 479.9,451.4 479.9,452.7 C480,453.9 480.5,454.9 481,454.9 C481.6,454.9 482,455.8 482,456.8 C482,457.9 483.2,459.8 484.8,461.1 C486.4,462.4 487.4,464.2 487.2,465.2 C487,466.2 487.4,466.8 488.2,466.7 C489.9,466.3 489.9,470.9 488.2,472.8 C487.5,473.5 487.2,475 487.6,476.1 C488.1,477.6 487.8,478 486.4,477.7 C485.3,477.5 484.3,476.2 483.9,474.4 C483.5,472.7 483.2,472.1 483.1,472.9 C482.9,474.4 482.2,473.2 479.4,466.4 C476.6,459.4 476.3,458.6 476.1,456.4 C476.1,455.6 475.1,454.9 474,454.9 C472.9,454.9 472,454.5 472,453.9 C472,453.4 472.5,452.9 473,452.9 C473.6,452.9 474,452.4 474,451.9 C474,451.3 473.4,450.9 472.8,451 C470.1,451.3 469,450.9 469,449.5 C469,448.7 468,447.3 466.8,446.5 C465.4,445.5 465.1,444.9 466,444.9 C466.9,444.9 466.6,444.2 465.1,442.8 C463.3,441.1 463.1,440.5 464.2,439.8 C465.5,438.9 465.5,438.9 461.4,438.5 C459.9,438.3 450,427.3 450,425.7 C450,424.4 447.8,424.8 445.8,426.6 C444.8,427.5 443.7,427.9 443.3,427.5 C442.9,427.1 443.2,426.4 444,425.9 C444.8,425.3 445.2,424.9 444.8,424.9 C444.4,424.9 444.5,423.8 445,422.4 C446.2,419.3 444.7,414.9 442.5,414.9 C441.6,414.9 439.7,416.3 438.3,417.9 C437,419.6 435.2,420.9 434.5,420.9 C432.3,420.9 430.7,423.7 431.4,426.4 C432,428.6 432.3,428.7 434,427.7 C436.5,426.1 438.1,427.6 435.7,429.3 C433.9,430.7 433.4,432.9 434.9,432.9 C435.4,432.9 436.1,432.2 436.4,431.3 C436.9,430 437.3,429.9 438.5,430.9 C439.3,431.6 439.8,432.5 439.5,432.9 C439.2,433.4 439.9,433.5 441,433.2 C442.1,432.9 442.7,432.2 442.3,431.5 C441.9,430.9 442.4,431 443.3,431.8 C444.2,432.5 445,434.1 445,435.3 C445,436.5 445.4,437.9 445.9,438.4 C446.7,439.2 450.2,449.7 451.5,454.9 C451.7,455.7 453,459.1 454.4,462.4 C457.1,468.8 457.6,471.9 456,471.9 C455.5,471.9 455,471 455,470 C455,468.9 454.1,467.3 452.9,466.5 C451.7,465.7 451,464.7 451.3,464.2 C451.6,463.7 451.2,461.9 450.4,460.3 C449.5,458.7 448.7,456.5 448.5,455.4 C448,451.2 445.7,445 444.9,445.5 C444.4,445.8 444,445.1 444,443.9 C444,441.3 439.3,434.9 437.4,434.9 C435.7,434.9 435.6,436.3 437.3,439.2 C438.8,442 440.1,442.9 441.5,442.2 C442,441.8 442.2,441.9 441.8,442.4 C441.4,442.8 441.4,443.7 441.9,444.3 C443.6,446.4 447,455.9 446,455.9 C445.4,455.9 445,455.5 445,454.9 C445,454.4 444.6,453.9 444,453.9 C442.1,453.9 443,457.1 445,457.6 C446.2,457.9 447,459 447,460.2 C447,463.4 451.2,471 452.7,470.5 C453.7,470.1 453.8,470.4 453,471.8 C452.3,473.2 452.4,474 453.5,474.9 C454.2,475.5 454.6,476.7 454.3,477.5 C454,478.3 454.3,478.9 454.8,478.9 C456.1,478.9 457.3,475.3 456.5,473.9 C456.2,473.4 456.6,472.9 457.5,472.9 C459.1,472.9 459.1,473.7 457.2,478.9 C456.7,480.2 456.9,480.2 458.3,479 C459.7,477.9 460.1,477.9 460.6,479.5 C460.9,480.6 461.9,482.9 462.8,484.8 C463.7,486.7 464.3,489.1 464.2,490.2 C464,491.4 464.3,491.9 464.9,491.5 C465.8,490.9 466.6,494.3 466.1,497.2 C466.1,497.6 466.6,497.9 467.4,497.9 C469,497.9 470,500 470,503.5 C470,504.8 471.2,508.8 472.6,512.5 C474.1,516.1 475.4,519.8 475.5,520.7 C475.6,521.7 476.2,523.7 476.8,525.2 C477.5,526.8 478,528.6 478,529.4 C478,530.1 478.6,530.9 479.3,531.2 C481.1,531.8 479.5,533.1 476.4,533.5 C474.3,533.7 473.9,533.4 474.3,531.9 Z" id="Shape"></path>
                <path d="M332.4,447.8 C334.1,441.4 334.2,440.9 333,440.9 C332.4,440.9 332.2,440.5 332.5,439.9 C332.8,439.4 332.6,438.9 332.1,438.9 C331.5,438.9 331,439.6 331,440.4 C331,441.2 330.6,441.9 330.1,441.9 C329.6,441.9 329.4,441 329.7,439.9 C330.3,437.7 332.5,437.2 333.6,439 C334.3,440.2 337,436.1 338.7,431.3 C339.5,428.9 339.5,427.8 338.7,427 C337.8,426.1 337.8,425.6 338.8,425 C340.5,424 345,425.9 345,427.7 C345,428.4 346.1,429.4 347.5,429.9 C348.9,430.4 350,431.3 350,431.9 C350,432.4 351.3,432.9 352.9,432.9 C356.6,432.9 357.9,434.8 355.5,436.6 C352.1,439 348,438.2 344.5,434.3 C340.6,430.1 340.5,430.2 336.9,441.3 C335.5,445.7 333.8,449.5 333,449.7 C332.1,450 331.9,449.5 332.4,447.8 Z" id="Shape"></path>
                <path d="M450,391.4 C450,390.8 451.3,386.5 452.8,381.9 C455.8,373.1 459.4,359.4 459.2,357.5 C459.1,355.5 458.1,351.6 457.6,351.1 C457.3,350.9 457.7,349.1 458.5,347.2 C460.2,343.1 460.4,341.5 459,342.4 C456.9,343.7 458.1,341.6 461.1,338.8 C463.1,336.9 463.7,335.9 462.7,335.9 C460.8,335.9 459.8,333.5 461.3,332 C462.1,331.2 461.9,330.9 460.5,330.9 C458.8,330.9 458.7,330.7 460,329.9 C460.8,329.4 461.1,328.9 460.5,328.9 C460,328.9 460.3,328.4 461.3,327.8 C462.6,327.1 463.1,325.7 462.9,323.6 C462.8,321.8 463.3,319.1 464,317.4 C465.5,313.7 465.9,309.1 464.8,306.2 C464.4,304.8 464.4,303.9 465,303.9 C465.6,303.9 466,303.2 466,302.4 C466,301.6 466.5,300.9 467,300.9 C468.2,300.9 468.3,301.9 467.1,303.8 C466.5,304.7 466.5,306 467.2,307.2 C467.9,308.7 467.9,309.4 466.9,310 C465.8,310.7 465.9,310.9 467.2,310.9 C468.6,310.9 468.8,311.5 468.3,314.1 C467.6,317.7 465.7,320.2 464.5,319.1 C464,318.7 464,319.5 464.4,320.9 C466,326.3 466.2,327.9 465.2,327.9 C464.6,327.9 464.5,329.2 465.2,331.7 C465.9,334.5 465.8,336.6 464.7,339.7 C463.5,343.2 463.5,343.9 464.6,343.9 C466.6,343.9 466.3,345.2 464.1,346.6 C462.5,347.6 462.3,348.6 462.7,351.8 C463.1,354.4 462.8,356.4 462,357.4 C461.3,358.3 460.6,360.2 460.4,361.7 C460.1,365.1 459.2,369.3 457.8,374.4 C457.2,376.6 456.7,378.8 456.8,379.2 C456.9,379.6 456.4,380.7 455.5,381.5 C454.7,382.4 454,383.8 454,384.7 C454,385.6 453.1,387.8 452,389.4 C450.9,391.1 450,391.9 450,391.4 Z" id="Shape"></path>
                <path d="M352.4,365.5 C351.4,364.7 350.1,364.2 349.5,364.3 C348.2,364.4 348,359.7 349.2,353.4 C350.2,347.3 353.7,339.9 355.5,339.9 C356.2,339.9 358,341.3 359.5,343.1 C362,346.1 362.2,346.9 361.8,353.1 C361.1,362.7 356.7,368.5 352.4,365.5 Z" id="Shape"></path>
                <path d="M417,365.6 C414.7,364.5 414.4,363.5 413.6,355.5 C412.4,343.7 413.5,341.5 421.3,341.1 L426.7,340.8 L427.4,345.1 C429.6,358.1 428.5,363.2 423.3,365.4 C421.3,366.2 419.7,366.9 419.6,366.9 C419.6,366.9 418.4,366.3 417,365.6 Z" id="Shape"></path>
                <path d="M66.4,344.7 C58.8,343.9 52.2,342.1 49.6,340.3 C48.5,339.5 46.8,338.9 45.8,338.9 C44.9,338.9 42.5,337.3 40.5,335.3 C33,327.8 25.1,304.7 24.4,288.2 C24,280.4 24.2,278.9 25.5,278.9 C26.3,278.9 27,278.2 27,277.4 C27,276.6 27.6,275.9 28.4,275.9 C30.1,275.9 31.5,279.4 30.5,281 C30.1,281.6 31.1,281.4 32.7,280.5 C36.2,278.7 38.8,276 37.1,275.8 C35.3,275.6 34.7,275.3 31.6,273.8 L28.7,272.4 L32.1,271.7 C41,269.7 51.5,267.8 62.5,266.3 C77.7,264.3 105,263.7 108.2,265.3 C112,267.2 116.3,266.7 117.6,264.2 C118.2,262.9 118.9,262.2 119.2,262.5 C119.7,262.9 119.5,257.4 119,255.9 C118.9,255.6 118.9,253.9 119,252.2 C119.1,249.7 118.7,248.9 117.5,248.9 C116.6,248.9 116.2,248.5 116.5,247.9 C116.8,247.4 116.7,246.9 116.3,246.9 C115.8,246.9 114.9,247.8 114.3,248.8 C113.3,250.3 112.3,250.7 109.4,250.3 C106.6,250 105.3,250.3 103.8,251.8 C102.3,253.5 101.6,253.7 99.6,252.8 C98,252.1 97.4,251.1 97.7,249.9 C98.3,247.7 96.2,246.2 95.4,248.3 C95,249.3 93.6,249.9 91.5,249.9 C89,249.9 88,250.4 87.5,251.8 C86.5,255.1 83.3,255.3 79.9,252.5 C78.2,251.1 76,249.9 74.9,249.9 C72.5,249.9 72.5,247.6 75,242.2 C76,239.8 76.6,237.9 76.2,237.9 C74.6,238 71.9,240.8 72.2,242 C72.4,242.8 71.1,244.1 69.4,244.9 C67.7,245.7 65.4,248 64.4,249.9 C62.1,254.1 57.4,256.2 55.6,253.8 C54.2,251.9 51.3,252.7 48.8,255.8 C45.6,259.6 47.1,261 52.2,259 C54.4,258.2 77.4,256.5 87.3,256.5 C89.9,256.5 92,256.1 92,255.6 C92,255.1 92.6,254.9 93.3,255.2 C93.9,255.4 95.7,255.2 97.3,254.8 C98.8,254.4 100,254.4 100,255 C100,255.5 103.1,255.9 106.9,255.9 C110.8,255.9 114.1,256.3 114.4,256.8 C114.9,257.6 105.1,258.9 93,259.5 C89.4,259.7 82,260.5 76.5,261.3 C71,262.1 59.3,262.9 50.5,263.1 C35.4,263.4 34.4,263.5 32.4,265.7 C29.6,268.6 28.6,268.5 29.4,265.4 C29.9,263.3 29.7,262.9 28,262.9 C25.9,262.9 25.9,262.6 26.3,243.7 C26.6,229.5 26.4,223.5 25.4,220.8 C24.7,218.7 24.4,216.8 24.8,216.4 C25.8,215.4 29,206.6 29,204.8 C29,203.9 30.3,201.6 31.9,199.6 C33.4,197.6 35.3,194.6 36,192.9 C36.7,191.3 37.6,189.9 38.1,189.9 C38.6,189.9 39,189.3 39,188.5 C39,186.1 51.7,175.3 62.4,168.4 C65.9,166.2 72.7,165.9 87.3,167.3 C95.7,168.2 96.4,168.4 100.3,172.1 C102.6,174.2 104.7,175.9 105.1,175.9 C105.7,175.9 112,185.6 112,186.5 C112,186.8 112.8,188.2 113.7,189.6 C114.7,191.1 116.1,193.9 116.8,195.9 C118.4,199.9 119.9,213.9 118.8,213.9 C118.4,213.9 118.2,214.8 118.3,215.9 C118.4,217 118.8,217.9 119.2,217.9 C119.6,217.9 120,218.6 120,219.4 C120,220.2 120.5,220.9 121.1,220.9 C121.9,220.9 122.1,222.9 121.8,226.9 C121.6,230.2 121.7,232.9 122.2,232.9 C122.6,232.9 123,233.8 123,234.9 C123,236 122.4,236.9 121.8,236.9 C120.9,236.9 120.8,237.1 121.6,237.7 C123.2,238.7 124.3,242.6 123.1,243.3 C122.6,243.7 122.5,245.4 123,247.6 C123.5,249.6 123.7,251.6 123.4,252.1 C123,252.7 122.4,257.3 121.7,266.4 C121.6,267.5 121.1,269 120.6,269.7 C120.1,270.5 120.4,271.7 121.3,272.7 C122.2,273.7 123,276.6 123.2,279.2 C123.4,281.8 123.9,283.9 124.4,283.9 C124.9,283.9 124.7,284.6 124,285.4 C123.3,286.3 123,287.2 123.3,287.6 C123.7,287.9 123.5,289 123,290 C122.3,291.2 122.4,292 123.1,292.5 C124,293 123.8,293.6 122.6,294.5 C121.6,295.2 121,296.3 121.1,297.1 C121.2,297.8 121.1,299.1 120.8,299.9 C119.6,303.3 118.3,314.4 119.1,314.7 C119.6,314.9 119.1,316.3 118,317.9 C116.9,319.4 116,321.9 116,323.3 C116,326.7 113.3,330.8 110.3,332 C109,332.5 108.1,333.3 108.4,333.8 C109.2,335.1 102.3,339.2 100.9,338.3 C100.2,337.9 100,338 100.4,338.7 C102.6,342.2 80,346.2 66.4,344.7 Z M91.5,338.4 C93.2,337.8 95.2,336.4 96,335.4 C96.8,334.3 97,333.8 96.4,334.2 C95.7,334.6 94.7,334.2 94,333.4 C93.2,332.4 91.9,332.1 90.2,332.6 C87.9,333.1 87.8,333 88.4,330.6 C88.9,328.3 88.7,328.1 86.5,328.3 C85.1,328.5 83.4,329.1 82.8,329.7 C81.1,331.4 79,331.2 79,329.4 C79,327 77,327.7 76,330.4 C75.5,331.7 74.2,333.4 73.1,334 C72.1,334.7 71.4,335.9 71.8,336.7 C72.2,337.8 71.8,338 69.9,337.4 C66.3,336.3 66.3,335.9 69.3,333.3 C70.8,332 71.8,330.9 71.5,330.9 C71.1,330.9 72.7,329.3 75,327.4 C77.3,325.5 79.6,323.9 80.2,323.9 C80.7,323.9 80.9,323.5 80.5,323 C80.2,322.4 81.1,320.8 82.5,319.2 C86.7,314.6 95,303.5 95,302.4 C95,301.8 95.9,300.8 97,300.1 C98.1,299.4 99,298.4 99,297.8 C99,297 98.6,297 97.7,297.8 C96.9,298.4 96,298.6 95.7,298.2 C95.3,297.9 95,298.3 95,299.1 C95,300 93.5,302 91.8,303.5 C90,305 88.6,306.6 88.8,307.1 C88.9,307.6 88.3,308.2 87.5,308.5 C86.7,308.9 86,309.7 86,310.5 C86,311.3 85.6,311.9 85,311.9 C84.5,311.9 83.3,313.3 82.4,315.1 C81.5,316.8 78.8,320.3 76.3,322.8 C73.8,325.3 71.7,327.6 71.6,327.9 C71.6,328.2 71.2,328.3 70.8,328.2 C70.3,328 70,328.8 70,330 C70,331.1 69.6,331.8 69,331.4 C68,330.8 68.8,327.8 70.4,326.7 C71.2,326.2 71.2,325.9 70.4,325.9 C68.5,325.9 66,328.4 65.7,330.9 C65.4,332.7 64.4,333.5 62,334.2 C57.8,335.3 57.1,334.5 60.1,331.6 C61.4,330.3 63.6,327.8 65,326 C68.2,321.9 73.3,316.9 74.3,316.9 C74.7,316.9 75,316.5 75,316 C75,315.4 76.1,313.8 77.5,312.3 C80,309.6 80.9,305.9 79,305.9 C78.5,305.9 77.6,306.8 77,307.8 C76.5,308.9 74.6,310.6 73,311.6 C71.3,312.5 70,313.9 70,314.6 C70,315.4 68.4,316.9 66.5,318 C64.6,319.2 63,320.6 63,321.2 C63,321.9 61.4,323.5 59.5,324.9 C57.6,326.3 56,327.9 56,328.5 C56,329.5 53.4,331.1 49.7,332.3 C48.3,332.8 48.2,333.2 49.1,334.7 C50.7,337.2 59.2,339.1 73,339.9 C85,340.6 86.6,340.4 91.5,338.4 Z M51.5,326.3 C51.2,324.9 52,323 54,320.8 C58.6,315.5 57.9,312.8 53.1,317.3 C51.6,318.6 49.2,319.9 47.7,320.3 C45.3,320.9 44.7,320.6 44.3,318.9 C44,317.8 43.2,316.9 42.5,316.9 C41.9,316.9 40.8,315.7 40.1,314.3 C39,311.8 36.2,311.4 36.8,313.9 C36.9,314.6 36.6,315.7 36,316.4 C35.2,317.4 35.2,318 36.2,318.6 C36.9,319 38.1,320.4 38.8,321.7 C39.9,323.6 39.9,324.3 38.8,325.7 C37.7,327 37.7,327.2 39.3,326.6 C40.9,326 41.4,326.8 41.1,329.4 C41.1,330 42,330.9 43.3,331.4 C46.5,332.8 52.2,329.3 51.5,326.3 Z M54.9,222 C57.1,217.8 61.2,209.8 64.1,204.2 C67,198.5 69.7,193.9 70.2,193.9 C70.7,193.9 70.8,193.5 70.5,192.9 C70.2,192.4 70.4,191.9 70.9,191.9 C71.5,191.9 72,191.5 72,190.9 C72,190.4 73.5,187.9 75.2,185.4 C77.9,181.5 78.2,180.6 77,179.9 C74.9,178.5 73.5,179.3 73.8,181.5 C73.9,182.6 73.3,184.4 72.3,185.4 C71.3,186.5 69.2,190 67.6,193.1 C65.9,196.3 64,199.1 63.3,199.3 C62.6,199.6 62.3,200.5 62.6,201.4 C63,202.3 62,204.1 59.9,206.1 C58,207.8 57.1,208.9 57.8,208.5 C59.4,207.6 59.4,209.4 57.7,211.1 C57,211.8 54.7,216 52.6,220.4 C50.4,224.8 48.4,228.6 48.1,228.9 C47.8,229.2 47.4,230 47.2,230.7 C47,231.7 47.4,231.7 48.9,230.7 C50,230.1 52.7,226.1 54.9,222 Z M98.2,212 C99.4,210.3 100.5,210.1 106.4,210.5 C112.4,210.9 113.1,210.7 112.6,209.3 C112.3,208.4 111.7,206.7 111.4,205.4 C111.1,204.1 109.7,202.3 108.4,201.4 C107.1,200.6 106,199.2 106,198.3 C106,196.9 106.2,196.9 107.6,198.3 C109.7,200.5 111,200.3 111,197.9 C111,194.7 108.9,192.1 106.9,192.6 C105.8,192.9 105.3,193.6 105.6,194.1 C105.9,194.6 105.3,195.8 104.3,196.7 C103.2,197.6 101.1,201.1 99.6,204.4 C98.1,207.7 96.4,211.2 95.9,212.2 C94.6,214.6 96.5,214.4 98.2,212 Z" id="Shape"></path>
                <path d="M14,254.4 C14,253.5 13.1,252.9 11.6,252.9 C8,252.9 6.6,250.6 7.9,246.8 C9.3,242.9 9.3,242.6 8,243.4 C7,244 7.3,227.4 8.4,219.9 C8.7,218 9.4,213.7 9.8,210.4 C10.9,203.7 12,199.8 14.4,195.4 C15.3,193.8 16,191.3 16,189.9 C16,186.9 18.6,181.7 20.6,180.6 C21.4,180.1 21.8,179.4 21.5,179 C20.6,177.4 26.1,167.8 29.7,164.6 C31.7,162.8 34.5,160.2 35.9,158.7 C37.2,157.1 39,155.9 39.8,155.9 C40.6,155.9 41,155.3 40.6,154.4 C40.3,153.6 40.6,152.9 41.2,152.9 C41.8,152.9 43.1,152.2 44,151.4 C47.6,148.1 59.7,142.8 66.8,141.3 C74.6,139.7 89.2,140 92.9,141.9 C101.1,146.1 105.6,147.9 107.6,147.9 C108.9,147.9 110,148.3 110,148.8 C110,149.3 111.6,150 113.5,150.3 C115.4,150.7 117.6,152 118.5,153.2 C119.3,154.4 120,155.1 120,154.8 C120,154.5 122.3,156.4 125,159.1 C127.8,161.7 130,164.2 130,164.6 C130,165 131.1,166.5 132.5,167.9 C135.7,171.2 136.5,176.5 134.2,177.9 C132.7,178.7 132.7,179 134,179.8 C134.8,180.4 135.6,182.1 135.6,183.6 C135.8,186.9 139.9,198.9 140.8,198.9 C141.2,198.9 141.6,200.3 141.7,201.9 C141.8,203.6 141.4,204.9 140.9,204.9 C140.3,204.9 140,205.5 140.3,206.2 C140.6,206.9 140.5,210.5 140.1,214.3 C139.7,218 139.8,221.2 140.2,221.5 C140.7,221.8 140.2,222.8 139.3,223.7 C138.3,224.6 137.9,225.1 138.4,224.7 C140.1,223.4 141.3,223.8 140.1,225.2 C139.5,226 139.3,226.9 139.7,227.2 C140,227.6 140.3,229.5 140.2,231.4 C140.1,233.3 140.5,234.9 141.2,234.9 C141.8,234.9 141.8,235.5 140.9,236.5 C139.8,237.9 139.9,238 142,237.7 C143.7,237.5 144.5,236.8 144.5,235.5 C144.5,234.4 145.1,233.4 145.8,233.1 C146.7,232.8 146.9,233.4 146.4,235.6 C145.6,238.7 144.4,239.9 141.7,239.9 C140.2,239.9 140,240.5 140.5,243.9 C140.9,246.4 140.7,247.9 140,247.9 C139.5,247.9 139,248.4 139,248.9 C139,249.5 139.8,249.9 140.8,249.9 C142,249.9 141.8,250.3 140,251.2 C137.4,252.6 134.9,251.2 137.3,249.7 C138.2,249.1 138.1,248.9 137.1,248.9 C136.4,248.9 136,248.3 136.4,247.4 C136.7,246.6 136.5,245.9 136,245.9 C135.4,245.9 135,245 135,243.8 C135,242.7 134.5,240.9 134,239.8 C133.1,238.2 133.4,237.4 135.5,235.5 C138.1,233.1 139.1,230.8 136.7,232.8 C134.9,234.3 133.8,233.1 135,230.9 C135.5,229.9 135.7,228.9 135.4,228.6 C135.1,228.3 134.7,222 134.5,214.6 C134.2,201.4 132.8,193.9 130.5,193.9 C129.9,193.9 129.4,192.4 129.4,190.6 C129.4,188.7 128.2,184.7 126.7,181.5 C125.2,178.4 124,175.2 124,174.4 C124,173.6 123.3,172.9 122.5,172.9 C121.7,172.9 121,172.3 121,171.6 C121,169.3 112.7,162.9 109.8,162.9 C107.2,162.9 95,158.6 95,157.7 C95,157.1 96.2,157 97.8,157.4 C100,157.9 100.3,157.8 99.2,156.7 C97.4,154.9 78.5,154.4 67.3,155.8 C54.4,157.5 49.8,159.5 42.3,166.4 C31.5,176.4 26.6,184.4 24.9,195.2 C24.3,198.6 23.6,202.1 23.3,202.9 C23,203.7 22.5,205.5 22.3,206.9 C22.1,208.3 21.5,211.7 20.9,214.5 C20.4,217.3 20,221.1 20,223 C20.1,224.9 19.8,230.9 19.4,236.4 C19.1,241.9 18.8,247.8 18.9,249.6 C19,252.6 16.9,255.9 14.9,255.9 C14.4,255.9 14,255.2 14,254.4 Z" id="Shape"></path>
                <path d="M63.9,136.2 C62.7,134.8 62.7,134.7 63.9,135.3 C64.9,136 65,135.6 64.5,133.8 C63.6,131.1 63.7,125.8 64.6,121.7 C65,119.8 64.8,118.9 63.9,118.9 C63.2,118.9 63,118.6 63.3,118.2 C63.7,117.9 63.4,116.9 62.7,116.1 C61.8,114.9 61.8,114.5 62.8,114.2 C63.4,113.9 64,113 64,112.1 C64,110.7 63.8,110.7 63.1,111.8 C62.5,112.7 62.1,111.7 61.9,108.7 C61.6,105.6 61.9,104.3 62.6,104.6 C63.3,104.8 64.1,104.6 64.5,104 C64.8,103.4 64.4,102.9 63.4,102.9 C62,102.9 62,102.7 63.1,101.3 C63.9,100.3 64,99.5 63.3,99.1 C62.2,98.3 62.1,73.1 63.3,71.2 C63.7,70.6 63.5,69.9 62.9,69.7 C62.1,69.4 61.8,67 62,62.9 C62.2,59.3 62.3,55.1 62.3,53.6 C62.3,50.9 62.5,50.7 65.5,51.1 C68.1,51.4 68.7,51.2 68.2,49.9 C67.9,49.1 67.2,48.1 66.6,47.7 C66,47.3 66.6,46.9 67.9,46.9 C69.5,46.9 70,46.5 69.4,46 C67.7,44.3 52.5,43.6 48.3,45 C46.2,45.7 44,46.4 43.4,46.5 C42.8,46.6 41.2,47 40,47.4 C38.5,47.9 38,47.8 38.4,47 C38.9,46.3 38.5,46.1 37.5,46.5 C36.7,46.9 35.4,46.7 34.7,46.2 C33.2,45 28.8,44.7 29.5,45.9 C30.3,47.2 20.7,48.1 17.7,47 C16.1,46.4 13.1,45.9 10.9,45.9 C8.5,45.9 7,45.4 7,44.7 C7,43.7 6.8,43.7 6.1,44.7 C5.6,45.6 4.4,45.8 2.7,45.3 C-0.4,44.6 -0.9,41.9 2,41.9 C4.2,41.9 4.6,39.9 2.9,38.2 C0.9,36.2 3.7,31.4 7.8,29.5 C11.3,27.9 12.4,28 27,30 C35.5,31.2 45,32.2 48,32.1 C51.1,32 53.7,32.4 54.1,33.1 C54.5,33.7 57.1,34.3 59.9,34.6 C64.9,34.9 65,34.9 64,32.9 C63.4,31.7 63.3,30.9 63.9,30.9 C64.4,30.9 65,31.7 65.2,32.7 C65.5,34.3 68.2,34.7 80,35 C84.3,35.1 88,34.5 88,33.6 C88,33.1 88.8,33.3 89.7,34 C91.1,35.2 91.2,35.2 90.6,34 C90.1,33.2 90.3,32.3 91.1,31.8 C92,31.2 90.1,31.1 86.1,31.5 C81.7,32 79.9,31.9 80.3,31.1 C80.7,30.6 84.4,30.1 88.7,30.1 C93,30.1 98.2,29.8 100.3,29.4 C102.4,29 104,29.1 103.9,29.5 C103.3,33 105.1,33.9 107.7,31.3 C109,30.1 111.7,29.8 122.6,30 C129.9,30.1 136.3,30.5 136.8,30.8 C137.2,31.1 138.8,33.3 140.2,35.7 C141.5,38 143,39.6 143.3,39.2 C143.7,38.9 144,39.1 144,39.7 C144,40.4 143.6,40.9 143,40.9 C142.5,40.9 142,42.3 142,43.9 C142,47.2 141.7,47.4 138.9,45.9 C135.4,44 128.7,44 127.3,45.8 C126.3,47.3 124.7,47.5 116.8,47.3 C111.7,47.1 104.7,47 101.3,46.9 C97.9,46.9 94.9,46.5 94.6,46.1 C94.1,45.3 81,45.5 80.3,46.3 C79.6,47 77.8,59.3 77.9,62.4 C78,64.1 78.7,65.9 79.5,66.5 C81.2,67.8 81.6,75.4 79.9,76.4 C79.3,76.8 79.1,77.7 79.4,78.5 C79.7,79.3 79.5,79.9 79,79.9 C78.4,79.9 78,80.6 78,81.4 C78,82.2 78.5,82.9 79,82.9 C80.6,82.9 80.2,88.6 78.5,90.3 C77.7,91.1 77.4,92 77.9,92.3 C78.5,92.7 78.5,94.2 77.9,96.2 C76.4,101 76.3,105.9 77.7,107 C78.5,107.7 78.6,108.8 78,110.5 C77.5,111.8 77.4,112.9 77.8,112.9 C78.2,112.9 77.8,113.4 77,114 C75.9,114.8 75.8,115.2 76.8,115.6 C77.6,115.9 78,118.4 78,122.9 C78,128.2 77.7,129.8 76.4,130.3 C75.1,130.8 74.9,131.7 75.5,134.7 C76.1,138.3 76.1,138.4 74.3,136.4 C71.9,133.8 70.2,127.4 70.5,122.4 C70.7,120.2 70.6,117.6 70.3,116.5 C69.4,113.1 67.9,117 68.1,122.4 C68.6,137.4 67.5,140.7 63.9,136.2 Z" id="Shape"></path>
            </g>
        </g>
    </g>
</svg>