<?xml version="1.0" encoding="UTF-8"?>
<svg width="496px" height="346px" viewBox="0 0 496 346" version="1.1" xmlns="http://www.w3.org/2000/svg" xmlns:xlink="http://www.w3.org/1999/xlink">
    <!-- Generator: Sketch 42 (36781) - http://www.bohemiancoding.com/sketch -->
    <title>Group</title>
    <desc>Created with Sketch.</desc>
    <defs></defs>
    <g id="Page-1" stroke="none" stroke-width="1" fill="none" fill-rule="evenodd">
        <g id="Group" transform="translate(248.000000, 173.300000) scale(-1, 1) rotate(-180.000000) translate(-248.000000, -173.300000) translate(0.200000, 0.800000)" fill-rule="nonzero" fill="#000000">
            <path d="M343.5,341.9 C342.1,340.2 340.7,337 340.3,334.8 C339.5,330 337.1,328.4 331.7,329.1 C328,329.6 327.8,329.4 324.8,324.7 C323,322 320.1,318.5 318.2,316.9 C316.3,315.2 314.8,313.5 314.8,313 C314.8,312.5 312.3,309.5 309.3,306.2 C306.3,303 303.8,300 303.8,299.5 C303.8,299.1 302.2,295.6 300.3,291.7 C297.1,285.2 294.8,278.7 294.9,276.3 C294.9,275.8 293.6,275 292.1,274.7 C283.1,272.6 273.2,269.6 271.4,268.5 C269.1,267.1 265.1,265.8 253.8,262.9 C247.3,261.2 241.9,259.5 238.3,258.1 C237.8,257.9 235.5,256.6 233.3,255.3 C228.3,252.3 220.8,248.6 219.1,248.4 C218.4,248.3 217.5,247.9 217.2,247.5 C216.8,247.1 215.6,246.8 214.6,246.8 C212,246.8 204.6,243.3 201.2,240.5 C199.6,239.2 195,237.3 191,236.2 C186.6,235.1 183.3,233.7 182.7,232.7 C182.3,231.8 180.6,230.7 179.2,230.4 C177.7,230 175.3,228.8 174,227.7 C172.6,226.7 170.9,225.8 170.2,225.8 C169.5,225.8 168.1,224.7 167,223.4 C165.7,221.6 164.5,221.1 163,221.5 C160.5,222.1 158.3,220.1 158.3,217.3 C158.3,216.2 157.2,214.8 155.8,214.1 C151.8,212.1 149.8,210.5 149.8,209.1 C149.8,208.4 149.1,207.8 148.2,207.8 C146.5,207.8 138.5,203.7 138,202.6 C137.8,202.1 137,201.8 136.3,201.8 C135.6,201.8 134.8,201.3 134.6,200.6 C134.3,199.9 132.6,199.4 130.6,199.4 C127.8,199.4 126.8,198.8 125.5,196.6 C124.1,194.1 120.8,192.7 120.8,194.6 C120.8,195 119.8,196.4 118.5,197.8 C117.2,199.2 114.7,203 112.9,206.3 C111.1,209.6 109.3,212.8 108.8,213.3 C108.4,213.9 107.8,216.7 107.4,219.7 C107,222.7 106.4,225.7 106,226.2 C105.6,226.8 105.3,233.7 105.3,241.4 C105.3,251.5 104.9,256 104,257.1 C103.3,258 102.6,260 102.6,261.7 C102.5,263.4 102.1,264.8 101.6,264.8 C101.2,264.8 100.8,265.9 100.8,267.3 C100.8,268.7 100.4,269.8 99.8,269.8 C99.3,269.8 98.8,270.3 98.8,270.9 C98.8,272.6 96.1,274.8 94.1,274.8 C91.3,274.7 89.2,272.6 87.4,268.3 C85.7,264.3 86,259.2 87.8,260.3 C88.4,260.6 88.5,260.2 88.2,259.3 C87.7,258.1 87.3,258 86.2,258.9 C85.1,259.8 84.8,259.7 84.8,258.4 C84.8,257.5 84.1,256.8 83.3,256.8 C82.5,256.8 81.8,257.1 81.8,257.6 C81.8,259.5 68.9,270.7 66.6,270.8 C65.7,270.8 64.8,271.3 64.6,271.9 C64,273.6 60,272 59.6,270 C59.4,269.1 59.6,266.7 60,264.8 C62.5,253 62.6,251.6 61.2,251.1 C60.4,250.8 58.1,251.9 56,253.4 C54,255 52,256.2 51.7,256.1 C51.3,256 49.5,256.3 47.7,256.9 C45.8,257.4 41.7,258 38.5,258.2 C33.2,258.5 32.7,258.3 32.2,256.1 C31.5,253.6 31.5,253.7 42,241.3 C47.4,234.9 47.7,234.2 48.3,227.9 C48.6,224.3 49.3,219.8 49.7,218.1 C50.3,216 50.2,214.8 49.6,214.8 C48.3,214.8 49.1,194.4 50.7,188.8 C51.4,186.3 53.1,183.3 54.5,182.1 C55.8,180.8 56.4,179.8 55.8,179.8 C55.1,179.8 55.1,179.2 55.8,178.1 C56.3,177.1 57.7,174.1 58.8,171.5 C61.8,164.6 68.8,156.8 71.9,156.8 C72.8,156.8 74.1,156.1 74.8,155.3 C75.5,154.4 76.7,153.9 77.4,154.2 C78.8,154.7 80.4,153.1 79.5,152.2 C79.2,151.9 76.4,151.5 73.3,151.2 C70.1,151 66.8,150.3 65.9,149.9 C65,149.4 62.1,148.7 59.3,148.3 C54,147.6 50.5,146.6 44.8,144 C42.9,143.1 41.1,142.3 40.8,142.3 C38.5,141.7 34.7,139.5 31.4,136.9 C29.3,135.2 26.9,133.8 26.2,133.8 C25.5,133.8 23,132 20.8,129.8 C18.6,127.6 16.3,125.8 15.8,125.8 C15.2,125.8 14.8,125.4 14.8,124.9 C14.8,124.4 13.4,123.1 11.8,122.1 C8.9,120.2 4.8,113.8 4.8,111 C4.8,110.3 4.4,110 3.8,110.3 C2.6,111 2.5,109.9 2.7,104.1 C2.9,100.7 2.6,99.8 1.3,99.8 C0.1,99.8 -0.2,99.3 0.2,98.1 C0.6,97.2 1.2,92.8 1.5,88.4 C2,82.6 2.6,79.8 4,78.4 C5,77.3 6.1,74.3 6.4,71.8 C7.2,65.9 8.3,63.9 9.9,65.5 C11.7,67.3 14.8,63.9 14.8,60.1 C14.8,57.5 15.2,56.8 16.8,56.8 C17.9,56.8 18.8,56.1 18.8,55.2 C18.8,54.1 19.4,53.8 20.8,54.3 C22.2,54.8 22.8,54.5 22.8,53.3 C22.8,52.4 23.2,51.9 23.7,52.2 C24.2,52.6 24.4,52 24.1,50.9 C23.8,49.9 24.1,48.7 24.7,48.4 C25.3,48 25.8,48.4 25.8,49.4 C25.8,50.9 26,50.9 28.6,49.2 C30.7,47.8 33.3,47.3 40,47.2 C44.8,47.2 48.5,47.4 48.3,47.8 C48,48.3 48.5,48.8 49.3,49.2 C50.1,49.5 50.8,49.3 50.8,48.8 C50.8,48.2 51.5,47.8 52.3,47.8 C53.1,47.8 53.8,48.3 53.8,48.8 C53.8,49.4 55.5,49.8 57.6,49.8 C61,49.8 74.1,53.7 75.5,55.2 C75.9,55.5 76.9,55.8 77.9,55.8 C80.3,55.8 96.1,62.7 97,64.1 C97.4,64.8 97.8,65 97.8,64.6 C97.8,64.2 99.3,65.4 101.2,67.3 C103.1,69.1 104.8,70.4 105.1,70.2 C105.4,69.9 106.6,71.1 107.8,72.7 C109,74.4 110.4,75.8 110.9,75.8 C112,75.8 112.1,72.1 111,71.6 C110.5,71.5 108,68.2 105.5,64.3 C102.9,60.5 100.4,56.8 99.8,56.1 C99.3,55.4 98.8,54.3 98.8,53.5 C98.8,51.7 92.4,46.1 90.8,46.6 C90.1,46.9 89.8,46.6 90.2,46 C90.5,45.5 89.3,43.7 87.5,42.1 C82.5,37.7 81.6,34.8 83.9,30.3 C84.7,28.6 85.7,28.4 89.3,28.6 C91.7,28.8 94.2,29.6 94.9,30.4 C95.5,31.2 97,31.8 98.3,31.8 C99.5,31.8 101.3,32.7 102.3,33.8 C103.3,34.9 105.1,35.8 106.4,35.8 C107.6,35.8 108.8,36.2 109,36.6 C109.7,38.4 115.8,41.8 118.3,41.8 C120.9,41.8 121,41.6 120.4,38.6 C120.1,36.8 119.2,34.9 118.5,34.3 C117.9,33.8 115.7,31.2 113.8,28.5 C111.9,25.9 109.3,22.6 108.1,21.3 C106.9,19.9 105.2,17.3 104.3,15.5 C103.4,13.6 101.2,10.6 99.3,8.7 C97.4,6.8 95.8,4.7 95.8,4.1 C95.8,2.3 101.4,-0.3 104.1,0.1 C110.2,1.2 112.8,2.2 114.7,3.9 C115.8,5 117.4,5.5 118.3,5.2 C119.4,4.7 120.1,5.2 120.5,6.6 C120.8,7.8 121.8,9 122.7,9.3 C123.6,9.6 126.1,12.4 128.3,15.4 C133.3,22.5 141.7,31 142.9,30.3 C143.4,30 143.5,27 143.3,23.8 C142.8,18.7 143.1,17.5 144.8,15.8 C145.9,14.7 148,13.8 149.6,13.8 C152.6,13.9 157.8,17.6 158.2,20.1 C158.3,21 160,23.2 161.9,25.1 C166.6,29.7 168.7,32.5 168.1,33.2 C167.7,33.5 168,33.8 168.6,33.8 C169.3,33.8 169.8,34.4 169.8,35.1 C169.8,35.8 171.4,38.2 173.3,40.4 C175.2,42.5 176.8,45 176.9,45.8 C177.1,50.4 177.6,52.2 178.6,52.6 C181.3,53.5 185.7,58.7 186,61.3 C186.2,63.3 187.3,64.7 189.5,65.9 C192.6,67.7 192.7,67.7 193.4,65.6 C193.7,64.5 193.5,63.3 192.9,62.9 C191.5,62 191,55.4 192.3,55.3 C192.9,55.3 193.9,54.9 194.6,54.4 C196.4,53.3 205.8,53.1 205.8,54.2 C205.8,55.7 212.7,54 215.5,51.9 C217.4,50.4 219.5,49.8 223.4,49.8 C226.4,49.8 228.8,49.4 228.8,49 C228.8,48.5 244.4,48.2 263.6,48.4 C297.6,48.6 298.4,48.6 305.8,51.1 C309.9,52.4 315.4,53.9 318,54.2 C320.7,54.6 322.9,55.5 323.2,56.4 C323.6,57.4 324.5,57.7 326.3,57.2 C328,56.8 329.5,57.1 330.6,58.1 C333.1,60.3 351.8,69.8 353.7,69.8 C354.6,69.8 356.2,70.9 357.2,72.3 C358.3,73.7 359.7,74.7 360.5,74.4 C361.2,74.1 361.7,74.2 361.7,74.6 C361.6,75 361.6,76 361.7,76.8 C361.8,78.1 362,78.1 362.7,76.9 C363.4,75.8 364.1,76 366.1,78 C367.5,79.4 370.7,81.5 373.2,82.8 C375.7,84 377.8,85.6 377.8,86.4 C377.8,87.2 378.6,87.8 379.6,87.8 C380.7,87.8 382.6,88.9 383.9,90.3 C385.2,91.6 387.6,94 389.2,95.5 C390.8,97 394.4,100.7 397.3,103.5 C400.1,106.4 402.8,108.8 403.2,108.8 C404.5,108.8 409.8,114.2 409.8,115.5 C409.8,116.2 410.9,117.9 412.3,119.4 C413.7,120.9 414.8,122.5 414.8,123.1 C414.8,123.6 416.2,125.7 417.8,127.8 C419.5,129.9 420.8,132.2 420.8,133 C420.8,133.7 421.4,135.2 422.2,136.3 C423.9,138.9 425,143.9 425.1,150.8 C425.3,155.6 425.6,156.5 428.1,158 C429.6,159 430.8,160.3 430.8,160.8 C430.8,161.4 431.2,161.7 431.7,161.3 C432.3,161 433.2,161.7 433.8,162.8 C434.4,163.9 435.7,164.8 436.6,164.8 C437.6,164.8 440.3,166.8 442.6,169.3 C444.9,171.8 447.4,173.8 448.1,173.8 C448.8,173.8 451,175.6 453.1,177.8 C455.1,180 457.2,181.8 457.8,181.8 C458.3,181.8 458.8,182.4 458.8,183.2 C458.8,184 460.4,185.2 462.2,185.9 C464.1,186.6 465.5,187.5 465.3,187.9 C465,188.3 466.2,189.6 467.9,190.9 C474.9,196.3 476.7,198 477.3,199.7 C477.6,200.7 479.4,202.4 481.3,203.4 C483.2,204.4 484.8,205.7 484.8,206.3 C484.8,206.9 485.8,208.5 487.1,209.8 C490.5,213.5 492.8,219.4 492.9,225.1 C492.9,228 493.6,234.8 494.4,240.3 C495.9,251.6 496,268.7 494.5,270.6 C494,271.2 492.8,271.8 491.9,271.8 C488.7,271.8 487.8,273.5 486.8,281.3 C486.2,285.7 485.5,290.1 485.2,291 C484.3,294 476.9,302.8 475.2,302.8 C474.4,302.8 473.5,303.5 473.2,304.3 C472.5,306.1 467.7,306.3 466,304.6 C465.3,303.9 464.8,300.3 464.8,295.5 C464.8,291.2 464.4,286.9 463.9,286 C463.4,285 462.7,277.3 462.4,268.8 C462.1,260.3 461.7,252.6 461.5,251.7 C461.1,249.3 458.8,246.8 457.2,246.8 C456.4,246.8 455.8,246.2 455.8,245.6 C455.7,244.9 455,245.6 454.2,247.1 C453.3,248.7 452.9,250.2 453.2,250.5 C453.5,250.9 453.3,251.7 452.7,252.4 C451.3,254.1 450.7,259.6 451.8,260.3 C454.6,262.1 446,270.8 441.4,270.8 C440,270.8 438.6,271.3 438.3,271.8 C437.9,272.4 437.2,272.6 436.7,272.3 C436.2,271.9 435.8,272.4 435.8,273.2 C435.8,274.1 434.2,275.1 431.8,275.8 C429.6,276.4 427.8,277.3 427.8,277.8 C427.8,278.3 426.8,279 425.6,279.4 C424.3,279.7 422.6,280.6 421.8,281.3 C420.5,282.4 415.4,284.2 409.8,285.5 C409,285.7 405.4,286 401.8,286.3 C398.2,286.5 391,287 385.7,287.3 C380.5,287.7 372.9,288 369,288 C365,288.1 361.8,288.4 361.8,288.7 C361.8,289.1 359.8,289.2 357.3,289.1 C354.8,289 352.8,289.3 352.8,289.8 C352.8,290.4 352.1,290.8 351.3,290.8 C349.8,290.8 356.5,300.7 361.1,305.4 C376.2,320.5 376.1,320.4 375.9,325.8 C375.7,331.7 374.4,335.5 371.6,338.6 C369.3,341 367.8,341.4 367.8,339.7 C367.8,338.1 361.5,330.8 360.1,330.8 C359.4,330.8 358.8,330.1 358.8,329.3 C358.8,327.2 355.9,327.4 355.2,329.6 C353.7,334.2 351.4,338.6 348.9,341.6 L346.1,344.9 L343.5,341.9 Z M350.1,333.7 C351,332 351.8,330 351.8,329.2 C351.8,327 356.1,320.8 357.7,320.8 C358.5,320.8 361.6,323.3 364.6,326.3 C367.6,329.3 370.5,331.8 371,331.8 C371.4,331.8 371.8,330 371.8,327.9 C371.8,324.5 371.3,323.5 368.3,321.2 C363.2,317.4 347.6,299.7 345.7,295.7 C344.8,293.8 343.5,291.1 342.8,289.6 C342.1,288.1 341.2,287.1 340.8,287.3 C339.8,287.9 327.7,285.3 325.2,284 C318.9,280.7 301.8,277.5 301.8,279.6 C301.8,284.6 314.4,305.8 317.5,305.8 C317.9,305.8 321,309.6 324.3,314.3 L330.3,322.7 L335.9,322.8 C342.4,322.8 343.3,323.6 344.1,329.6 C344.6,333.6 346.2,336.8 347.7,336.8 C348,336.8 349.1,335.4 350.1,333.7 Z M475.3,289.9 C475.1,289.5 475.5,287.1 476.3,284.6 C477,282 477.6,275.9 477.6,270.8 C477.6,261 478.7,258.2 483.2,257.6 C485.3,257.3 485.3,257.1 485,238.4 C484.8,224.4 484.4,218.9 483.3,216.9 C481.2,213.1 476.2,207.7 475.4,208.5 C475,208.9 474.5,208.2 474.1,207 C473.5,204.6 472.2,204.1 471.6,206 C471.3,206.8 468.4,204.4 464.6,200.5 C461.1,196.8 457.6,193.8 456.9,193.8 C456.2,193.8 453.3,191.4 450.4,188.4 C447.5,185.4 443.8,182.3 442.2,181.5 C440.6,180.7 436.7,177.5 433.6,174.5 C430.4,171.5 427.8,169.3 427.8,169.6 C427.8,169.9 427.3,169.7 426.6,169 C424.7,167.1 417.9,167.5 417.1,169.6 C416.8,170.5 414.9,172.8 413,174.6 C410.3,177.1 408.7,177.8 405.7,177.8 L401.8,177.8 L401.8,183.3 C401.8,187.8 402.4,189.7 405.3,194.2 C407.2,197.2 408.8,200.2 408.8,200.8 C408.8,201.3 409.5,201.8 410.3,201.8 C411.1,201.8 411.8,202.3 411.8,202.8 C411.8,203.4 412.4,203.8 413.1,203.8 C413.9,203.8 415.3,204.7 416.3,205.8 C417.3,206.9 418.7,207.8 419.5,207.8 C420.2,207.8 421.6,208.7 422.5,209.8 C423.5,210.9 425.1,211.8 426.2,211.8 C427.2,211.8 429.1,212.9 430.4,214.4 C431.7,215.8 432.8,216.7 432.8,216.4 C432.8,215.7 436.6,218.8 438.7,221.1 C439.6,222.2 441.3,223.4 442.6,223.9 C444,224.4 445.1,225.9 445.4,227.7 C446,230.5 448.3,232.2 452.8,233 C453.6,233.2 454.8,233.8 455.4,234.3 C459.3,237.7 460.9,238.8 461.8,238.8 C462.3,238.8 463.4,240.2 464.3,241.8 C465.2,243.5 466.3,244.8 466.8,244.8 C469.4,244.8 470.5,250.7 470.7,266.3 C470.8,275.2 471.3,282.4 471.9,282.6 C472.4,282.8 472.8,284.5 472.8,286.4 C472.8,288.3 473.3,289.8 473.9,289.8 C474.7,289.8 474.6,290.4 473.7,291.6 C472.4,293.1 472.5,293.2 474,291.9 C475,291.2 475.6,290.3 475.3,289.9 Z M361.7,280.2 C366.3,279.2 365.7,277 358.8,269.9 C357.4,268.5 356.3,267 356.3,266.7 C356.3,266.4 352.3,261.7 347.3,256.3 C335.2,243.1 335.5,243.4 334.2,241.2 C333.5,240.1 331.4,239 328.7,238.6 C326.3,238.2 322.7,237.2 320.8,236.5 C318.9,235.7 315.5,234.5 313.3,233.9 C309.1,232.6 301,229.4 296.8,227.3 C295.4,226.6 291.8,225.3 288.8,224.3 C285.8,223.3 282.9,222.3 282.3,222 C281.8,221.7 279.7,221.2 277.6,221.1 C273.9,220.7 273.8,220.8 273.2,224.8 C272.8,227 272.1,229.1 271.6,229.4 C271.1,229.7 271,233.9 271.4,239.4 C272,248.4 272,249 269.8,251.3 C265.2,256.2 263,253.4 262.7,242.6 C262.4,233.7 263.7,224.8 265.8,221.3 C267.6,218.4 267.6,218.2 265.8,216 C264.7,214.7 263.8,213.8 263.6,213.8 C263.2,214 259.8,212.8 255.7,211.1 C253.7,210.3 251.1,209.9 250,210.2 C248.9,210.6 247.7,210.4 247.3,209.8 C247,209.3 245.8,208.8 244.7,208.8 C243.6,208.8 242.5,208.1 242.2,207.3 C241.8,206.5 241.2,206.1 240.7,206.4 C239.2,207.3 233.8,204.5 233.2,202.5 C232.8,201.3 232,201 230.4,201.4 C229,201.7 226.6,201.1 224.4,199.9 C222.4,198.7 220.1,197.8 219.3,197.8 C218.5,197.8 217.8,197.4 217.8,196.8 C217.8,196.3 216.9,195.8 215.9,195.8 C213.8,195.8 204.2,191.3 201.7,189.1 C200.8,188.4 199,187.5 197.7,187.3 C196.4,187 194.8,186.1 194.2,185.3 C193.3,184.1 193.2,184.8 193.6,188.3 C194,192.1 193.7,193.1 191.9,194.7 C190.7,195.8 189.7,196.9 189.7,197.2 C190,199.2 189.7,199.8 188.6,199.8 C187.9,199.8 186.1,201.4 184.6,203.2 C183,205.1 180.6,207.3 179.1,208 C177.6,208.7 175.7,210.6 175,212.1 C174.2,213.7 173,215.2 172.2,215.5 C171.4,215.8 170.8,216.9 170.8,218 C170.8,219 171.3,219.6 171.8,219.3 C172.4,218.9 173.6,219.6 174.6,220.7 C176.9,223.4 189.3,229.8 192.4,229.8 C193.7,229.8 197.4,231.2 200.5,232.8 C203.6,234.5 206.6,235.8 207.2,235.8 C207.9,235.8 210.1,236.7 212.3,237.8 C214.5,238.9 216.6,239.8 217.1,239.8 C218.5,239.8 231.2,246 233.1,247.6 C234.1,248.5 234.8,248.7 234.8,248 C234.8,247.1 235.4,247.1 237.3,248 C238.7,248.6 239.8,249.5 239.8,250 C239.8,250.4 240.8,250.8 242.1,250.8 C243.4,250.8 244.8,251.2 245.3,251.7 C246.3,252.6 261.6,256.1 265.1,256.2 C266,256.2 266.8,256.6 266.8,257 C266.8,257.4 267.3,257.8 267.8,257.8 C268.4,257.8 270.5,258.5 272.6,259.5 C274.6,260.4 276.6,261 277,261 C277.4,260.9 279.2,261.5 281.1,262.3 C283,263.1 284.8,263.4 285.1,263.1 C285.5,262.8 286.4,263.1 287.3,263.8 C288.2,264.6 290.2,264.8 292.4,264.5 C294.9,264.1 296.1,264.3 296.5,265.4 C296.8,266.1 297.8,266.8 298.9,266.8 C299.9,266.8 303.2,267.7 306.2,268.9 C309.3,270 312.2,270.7 312.8,270.3 C313.3,270 313.8,270.2 313.8,270.8 C313.8,271.4 314.2,271.7 314.6,271.4 C316.1,270.5 325.5,273.6 334.3,277.9 C335.4,278.4 338.4,279 341.1,279.1 C343.7,279.2 345.8,279.6 345.8,280.1 C345.8,281 357.3,281 361.7,280.2 Z M393.3,277.8 C396.6,277.3 401.3,276.7 403.8,276.4 C410.1,275.8 413.8,274.8 413.8,273.6 C413.8,273.1 414.3,273 414.9,273.3 C415.9,274 422.8,269.9 422.8,268.6 C422.8,268.1 423.5,267.8 424.4,267.8 C426,267.8 432.8,261.2 432.8,259.7 C432.8,259.2 433.5,258.8 434.3,258.8 C436.2,258.8 436.2,258.4 434.4,254.9 C433.6,253.4 431,250.9 428.6,249.3 C426.2,247.8 423.4,245.8 422.3,244.8 C421.2,243.8 416.2,240.9 411.3,238.3 C406,235.6 401.4,232.5 400.4,230.9 C399.3,229.4 397,227.1 395.1,225.8 C393.2,224.5 390.4,221.8 389,219.9 C387.5,217.9 385.1,214.8 383.6,213.1 C382.1,211.2 381.1,209.1 381.4,208.3 C381.8,207.5 381.7,206.8 381.4,206.8 C380,206.8 375.1,209.7 373.9,211.2 C373.1,212.1 371.8,212.8 370.8,212.8 C369.8,212.8 368.5,213.5 367.8,214.3 C367.1,215.2 366.3,215.6 366,215.4 C365.8,215.1 364.7,215.3 363.7,215.9 C362.7,216.4 359.9,217.3 357.6,217.8 C353.5,218.6 348.8,220.2 342.3,222.9 C340.7,223.6 339.1,224.2 338.8,224.3 C338.5,224.4 336.6,225.3 334.6,226.3 C331.6,227.8 331.1,228.4 332,229.5 C332.6,230.3 334,230.7 335.1,230.4 C336.2,230.1 339.8,231.2 343.2,232.8 C346.5,234.3 352,236.4 355.3,237.3 C358.6,238.2 362,239.2 362.8,239.6 C364.6,240.3 387.5,243.6 397.3,244.6 C404,245.3 404.3,245.4 404,247.8 C403.9,249.2 403.2,250.8 402.5,251.5 C400.6,253.4 390.9,253.9 387.7,252.2 C386.1,251.4 383.6,250.8 382.1,250.8 C374.1,250.8 361.9,249.1 360.1,247.6 C359.4,247.1 358.4,246.9 357.8,247.3 C357.2,247.7 356,247.4 355.2,246.7 C354.4,246.1 353.4,245.9 353,246.3 C352.6,246.7 352.9,247.3 353.6,247.5 C354.2,247.8 354.8,248.6 354.8,249.4 C354.8,250.2 355.2,250.8 355.7,250.8 C357.3,250.8 363.8,258.2 363.8,260 C363.8,261 364.3,261.8 364.8,261.8 C366.2,261.8 372.8,268.2 372.8,269.6 C372.8,270.2 373.9,271.5 375.2,272.6 C376.9,273.9 377.5,275.2 377.2,276.5 C376.7,278.3 377.1,278.5 382,278.6 C384.9,278.6 390,278.3 393.3,277.8 Z M96.3,263.1 C97.7,258.4 97.9,254.5 97.6,243.3 C97.3,235.5 97.5,228.1 98,226.8 C98.6,225.4 99.2,221.2 99.4,217.3 C99.6,213.5 100.3,210.1 100.9,209.9 C103,209.2 106.1,205.2 108.9,199.3 C110.5,196.1 112.9,192.2 114.3,190.8 C116.5,188.5 116.7,187.9 115.7,184.3 C115.1,182.1 113.7,178.8 112.5,176.9 C110.1,172.9 108.1,164.6 108.4,159.7 L108.6,156.2 L103,156.9 C99.8,157.3 96.7,157.3 95.7,156.7 C94.7,156.2 93.3,156 92.6,156.3 C91.9,156.5 88.4,156.9 84.8,157.2 C76.3,157.7 71,159.9 69.7,163.5 C69.2,165 68.9,166.5 69,166.8 C69.2,167.1 68.3,168.7 67.2,170.3 C66,172 64.7,174.3 64.4,175.5 C64,176.8 63.1,178.4 62.5,179 C61.8,179.7 60.2,182.8 58.8,185.8 C57.4,188.8 56.1,191.5 55.8,191.8 C55.5,192.1 55.3,199.7 55.3,208.8 C55.2,230.1 54.6,233.3 50.3,238.3 C48.4,240.4 46.8,242.5 46.8,243 C46.8,243.4 46.1,243.8 45.3,243.8 C44.4,243.8 43.8,244.7 43.8,246 C43.8,247.2 42.6,249.3 41.2,250.5 L38.6,252.7 L44.2,252.3 C48.4,252.1 51.1,251.2 54.5,248.9 C57.1,247.2 59.6,245.8 60.2,245.7 C60.8,245.7 62.3,245.5 63.4,245.2 C67.6,244.5 69.2,249.8 67.3,258.1 C65.6,265.6 66.3,266.4 70.8,262 C84.4,248.6 84.5,248.5 87.5,250 C89.3,250.8 90.4,252.2 90.6,253.8 C90.7,255.2 91.1,258.1 91.4,260.3 C92.8,270.7 93.9,271.4 96.3,263.1 Z M324.8,225.4 C324.8,222 338.5,212.9 345.9,211.3 C347.8,210.9 349.8,210.2 350.3,209.8 C350.9,209.4 353.9,208.2 357.1,207.2 C360.2,206.2 362.8,205 362.8,204.6 C362.8,204.1 363.2,203.9 363.7,204.3 C364.9,205 374.5,201.2 376.5,199.3 C377.3,198.5 378.2,197.8 378.6,197.8 C379,197.8 379.3,196.1 379.4,194.1 C379.4,188.7 381.7,176.5 382.9,175.4 C383.4,174.8 383.8,173.8 383.8,173 C383.8,172.2 384.9,170.3 386.3,168.6 C387.7,167 388.8,164.8 388.8,163.8 C388.8,160.6 372.4,147.8 368.2,147.8 C367.6,147.8 366.3,146.9 365.3,145.8 C364.3,144.7 363,143.8 362.3,143.8 C361.7,143.8 360.3,143 359.2,142.1 C358.1,141.1 356.3,139.8 355.2,139.2 C354.2,138.6 352.5,136.5 351.6,134.5 C349.9,130.9 338.5,120.9 336.1,120.8 C335.4,120.8 334.5,120.2 334.1,119.5 C332.9,117.7 325.1,112.8 323.3,112.8 C322.5,112.8 321.8,112.5 321.8,112 C321.8,111.2 316.1,109.1 310.4,107.9 C308.3,107.4 306.2,106.5 305.8,105.8 C305.4,105.1 304.6,104.8 304,105.2 C303.5,105.5 301.7,105.4 300.2,104.8 C298.6,104.3 294.8,103.7 291.8,103.5 C288.8,103.2 282.7,102.2 278.3,101.3 C269.7,99.4 269.5,99.4 265.8,99.7 C264.1,99.8 263.7,100.1 264.6,100.7 C265.3,101.1 265.7,102.6 265.4,104 C265.2,105.5 265.4,106.5 266.1,106.5 C269.6,106.4 270.8,107.1 272.6,110.1 C276.2,115.9 277.8,134.8 274.7,134.8 C274.2,134.8 273.8,136.5 273.8,138.6 C273.8,141.7 273.1,143.1 269.8,146.3 C267.5,148.5 265.5,150.1 265.3,149.8 C265.1,149.5 264.1,150 263.1,150.8 C261.6,152.1 257.7,153.3 248.3,155.3 C247.2,155.5 244.8,155.9 242.9,156.2 C241.1,156.5 237.9,157.8 235.9,159.1 C233.1,161 225.8,163.3 225.8,162.3 C225.8,162.2 226.7,161.1 227.8,159.8 C229.3,158 229.6,156.7 229.2,153.8 C228.7,150.6 228.9,150 230.4,150.1 C234.9,150.1 236.8,149.7 236.8,148.9 C236.8,148.4 235.9,148.2 234.9,148.5 C233.9,148.8 228.2,148 222.4,146.9 C208.3,144.1 207.5,144.5 208.2,153.6 C210.1,175.3 210.1,176.5 208.6,179.5 C207.3,182.1 207.3,182.7 208.6,184.6 C209.4,185.8 210.9,186.8 212,186.8 C213.1,186.8 215.4,187.9 217.2,189.3 C219,190.7 221.4,191.8 222.6,191.8 C223.7,191.8 224.9,192.2 225.2,192.7 C225.7,193.5 231.6,195.2 233.1,194.9 C233.5,194.9 233.8,195.3 233.8,195.9 C233.8,196.5 234.5,196.7 235.4,196.4 C236.2,196.1 236.6,196.2 236.3,196.8 C236,197.4 236.4,197.8 237.3,197.8 C238.2,197.8 240.2,198.6 241.6,199.7 C244.7,201.8 247.5,202.7 256.6,204.4 C258.3,204.7 259.8,205.5 259.8,206 C259.8,206.5 260.3,206.6 260.8,206.3 C261.4,206 261.8,206.2 261.8,206.7 C261.8,207.3 262.8,207.8 264.1,207.8 C265.4,207.8 266.8,208.2 267.4,208.7 C268.5,209.7 278.1,212.8 280.1,212.8 C280.9,212.8 282.9,213.5 284.7,214.4 C286.4,215.3 288.5,216.1 289.2,216.2 C290,216.3 291.2,216.9 291.9,217.5 C292.7,218.1 294.8,218.9 296.6,219.3 C298.4,219.6 301.3,220.7 303.1,221.6 C306.4,223.3 306.8,223.4 313.1,224.4 C315.1,224.7 316.8,225.4 316.8,225.9 C316.8,226.4 318,226.8 319.4,226.8 C321,226.8 321.7,227.2 321.2,227.9 C320.8,228.7 321.2,228.7 322.7,227.9 C323.8,227.2 324.8,226.1 324.8,225.4 Z M164.3,209.8 C164.8,209 165.4,209 166.2,209.7 C167.1,210.5 168.1,210 169.7,207.8 C170.9,206.1 172.5,204.8 173.2,204.8 C173.9,204.8 175.3,203.2 176.4,201.2 C177.4,199.3 179.4,197.1 180.7,196.5 C182.1,195.8 184.5,193.2 186.2,190.6 C187.9,188 189.8,185.9 190.5,185.9 C192.7,185.8 190.8,183.3 186.2,180.6 C183.7,179 181.3,177.8 180.8,177.8 C180.4,177.8 179.8,177.2 179.5,176.4 C178.8,174.6 168,169.4 159.4,166.8 C155.4,165.5 144.8,156.4 144.8,154.2 C144.8,153.4 144.2,153.1 143.5,153.4 C142.8,153.6 140.7,152.3 138.9,150.4 C136.5,147.9 135.8,146.5 136.3,144.9 C137.2,141.8 142.1,142.1 144.2,145.3 C145.1,146.7 147.4,148.4 149.2,149.2 C151.1,150 152.9,151.6 153.3,152.7 C153.6,153.9 154.3,154.8 154.8,154.8 C155.3,154.8 156.6,155.7 157.7,156.9 C158.7,158 160.3,159.1 161.3,159.2 C162.2,159.3 163.3,160 163.7,160.7 C164.1,161.4 164.9,161.8 165.4,161.7 C167.6,161.3 169.8,161.9 171.2,163.4 C172.1,164.2 172.8,164.7 172.8,164.4 C172.8,164.1 176.3,166.1 180.6,168.8 C184.8,171.6 188.7,173.8 189.2,173.8 C189.8,173.8 191.1,174.7 192.3,175.8 C193.5,177 196.2,178.2 198.3,178.5 L202.1,179.1 L201.4,174.2 C199.4,158.3 198.8,150.8 199.6,147.2 C200.1,145.1 200.9,143.4 201.4,143.5 C202,143.6 202.9,142.3 203.5,140.7 C204.6,138 204.5,137.8 202.8,138.3 C201.8,138.6 200.7,138.4 200.3,137.8 C199,135.7 184.5,130.1 178.3,129.3 C177.2,129.1 174.5,128.7 172.3,128.3 C170.1,127.9 167.3,127.6 166.1,127.7 C164.9,127.7 163.6,127.3 163.3,126.8 C163,126.2 161.7,125.8 160.5,125.8 C159.2,125.8 157.1,124.4 155.4,122.3 C153.8,120.4 151.7,118.8 150.7,118.8 C147,118.8 143.9,116.4 141.3,111.7 C139.9,109 138.3,106.8 137.8,106.8 C137.3,106.8 137.1,108.8 137.4,111.3 C137.8,115.2 137.5,116.2 135.3,118.2 C133.9,119.5 132.1,122.1 131.3,124.1 C130.3,126.6 128.9,128 127.1,128.5 C125.6,128.8 123.9,129.6 123.3,130.2 C121.5,132.2 118.9,140.7 119.9,141.4 C120.4,141.7 120.7,141.6 120.6,141.1 C120.4,140.7 120.7,140.1 121.3,139.8 C121.8,139.5 124,137.3 126.3,134.8 C138.9,120.9 140.8,119.6 140.8,124.7 C140.8,126.7 139.7,128.5 136.5,131.4 C130.3,137 125.6,143.3 121.4,151.6 C117.4,159.6 116.6,165.4 118.9,171 C121.4,177.4 129,187.3 134.1,190.8 C136.9,192.7 140.4,195.5 141.9,197.1 C143.4,198.6 145.1,199.8 145.7,199.8 C146.3,199.8 146.8,200.2 146.8,200.7 C146.8,201.2 148.2,201.8 149.9,202.2 C152.7,202.7 152.9,203 151.7,204.5 C150.9,205.4 150.8,205.9 151.4,205.5 C152,205.1 153.4,205.8 154.4,206.9 C157.5,210.4 163,211.9 164.3,209.8 Z M405.4,165.1 C405,164.1 405,163.6 405.3,164 C405.7,164.3 407.6,163.5 409.5,162.2 C411.5,160.9 413.5,159.8 413.9,159.8 C414.4,159.8 414.8,158.9 414.8,157.8 C414.8,156.7 415.5,155.8 416.3,155.8 C419.2,155.8 419.9,151.3 418.1,143.6 C416.2,135.3 409.6,124.5 401.2,116.3 C389.8,105.1 380.7,97.3 376.8,95.5 C374.6,94.4 372.3,92.8 371.8,91.8 C371.3,90.9 367.9,88.6 364.3,86.7 C360.7,84.9 357.8,83.1 357.8,82.6 C357.8,82.2 354.8,80 351.1,77.8 C342.5,72.6 341.9,72.3 338.3,70.8 C332,68.3 329.2,67 324.6,64.9 C322,63.7 316.7,62.1 312.9,61.4 C309,60.6 305.1,59.5 304.3,58.8 C303.6,58.2 300.2,57.6 296.9,57.5 C293.5,57.4 290.8,57 290.8,56.6 C290.8,56.1 290.3,55.8 289.8,55.8 C288.8,55.8 289,58.2 290.8,66.3 C291.3,68.6 291.3,73.3 290.8,77.3 C290.3,81.1 290.1,84.5 290.3,84.7 C290.6,84.9 292.8,85.1 295.3,85.2 C298.9,85.3 300.3,85.9 302.1,87.9 C303.9,90 305.5,90.7 309.8,91.1 C316.2,91.6 320.7,92.8 326.3,95.2 C335.5,99.2 336.9,99.8 337.9,99.8 C338.9,99.8 344.1,103.2 346.6,105.6 C347.3,106.2 348.6,106.8 349.3,106.8 C350,106.8 351.5,107.9 352.6,109.3 C355,112.3 356.2,112.5 355.3,109.9 C354.7,108 357,104.8 358.9,104.8 C359.5,104.8 359.6,104.3 359.3,103.8 C358.9,103.2 359,102.8 359.5,102.9 C361.8,103.3 362.8,102.6 362.8,100.6 C362.8,96.9 366.7,89.8 368.4,90.5 C369.7,91 369.7,91.2 368.6,92 C367.6,92.7 367.6,92.8 368.8,92.6 C370.7,92.3 375.4,95.4 376.2,97.5 C376.6,98.3 375.7,100.3 374.3,102 C372.9,103.6 371.8,105.6 371.8,106.4 C371.8,107.2 371.2,107.8 370.4,107.8 C368.4,107.8 367.5,113 368.3,120.2 C368.9,125.9 370.7,131.6 370.8,127.9 C370.8,126.8 371.2,127 372.3,128.4 C374.2,131 374.2,131.9 372.1,131.2 C370.4,130.7 370.4,130.7 372.1,131.8 C373,132.4 374.3,132.6 375,132.2 C375.8,131.7 375.9,132 375.5,133.1 C374.7,135.1 377.5,138.1 379.4,137.4 C380.2,137.1 380.8,137.2 380.8,137.7 C380.8,139 384.9,143.3 386.1,143.3 C386.8,143.3 387.4,144.2 387.6,145.2 C388.1,147.6 390.3,149.9 391.8,149.6 C392.5,149.4 393.5,150.2 394.1,151.3 C394.8,152.4 396.1,153.9 397.1,154.6 C398,155.3 398.8,156.8 398.8,157.9 C398.8,158.9 399.3,159.8 399.8,159.8 C400.4,159.8 400.7,160.1 400.6,160.6 C400.3,161.3 404.8,166.8 405.6,166.8 C405.8,166.8 405.7,166 405.4,165.1 Z M106,150.3 C106.4,149.8 106.8,147.8 106.8,146 C106.8,144 107.2,142.9 107.8,143.3 C108.4,143.6 108.8,142.9 108.8,141.6 C108.9,140.3 110.3,137.7 112.1,135.7 C115.7,131.6 123.1,125.8 124.6,125.8 C125.1,125.8 126.1,124.5 126.7,123 C127.4,121.5 129,119 130.3,117.5 C131.7,116.1 132.8,114.2 132.8,113.3 C132.8,109.7 130.5,102.8 129.3,102.8 C128.3,102.8 126.3,98.3 126.7,97.1 C126.9,96.5 123.2,93.2 119.8,90.8 C117.9,89.5 115,87.1 113.5,85.6 C111.9,84.1 110.3,82.8 109.8,82.8 C109.3,82.8 106.1,80.1 102.7,76.8 C99.3,73.5 96,70.8 95.3,70.8 C94.7,70.8 93.3,69.9 92.2,68.7 C89,65.2 82.4,61.9 76.2,60.6 C73,60 69.8,59.1 69.2,58.6 C68.1,57.8 51.4,54.6 47.8,54.6 C47,54.5 45.9,54.2 45.3,53.9 C44.4,53.3 41.8,53.2 38.1,53.6 C37.4,53.7 36.8,54.3 36.8,54.9 C36.8,55.7 37.4,55.6 38.5,54.7 C40,53.4 40.1,53.6 39.5,55.8 C38.9,58.3 39.1,58.4 42.3,58 C44.2,57.8 45.8,57.2 45.8,56.7 C45.8,56.2 47,55.8 48.6,55.9 C51.1,56 51.1,56 49,56.6 L46.7,57.3 L48.9,59.1 C50.4,60.5 52.2,60.9 55.1,60.6 C58.9,60.2 59.4,60.6 66.4,67.5 C70.5,71.6 73.8,75.2 73.8,75.7 C73.8,76.5 61.1,77.8 52.2,77.8 C49.2,77.8 46.6,78.3 46,79.1 C45.4,79.8 40.8,81.9 35.7,83.8 C27.4,86.9 25.6,88.1 18.1,95.2 C10.7,102.3 9.8,103.5 10,106.5 C10.1,108.3 10.6,109.8 11,109.8 C11.4,109.8 12.5,111.5 13.3,113.5 C15.7,119.2 28.6,131 31.8,130.5 C32.1,130.4 34.2,132.3 36.6,134.6 C39,136.9 41.4,138.8 41.9,138.8 C43.1,138.8 48.8,141.2 53,143.4 C54.4,144.2 57.5,144.8 59.7,144.8 C62,144.8 63.8,145.3 63.8,145.9 C63.8,146.5 64.4,146.8 65.1,146.5 C65.7,146.3 67.7,146.7 69.3,147.4 C71,148 74.5,148.4 77.1,148.2 C79.7,148 83.8,148.5 86.1,149.2 C88.4,150 92.7,150.9 95.6,151.3 C98.4,151.7 100.8,152.4 100.8,152.9 C100.8,153.9 104.9,151.9 106,150.3 Z M233.3,138.3 C236.1,136.9 238.8,135.8 239.4,135.8 C241.5,135.8 242.6,133.4 243.1,127.8 C243.6,122.8 243.3,121.8 240.3,117.3 C236.1,110.9 234.4,109.1 228.3,104.3 C225.6,102.1 223.1,99.9 222.9,99.4 C222.4,98.1 216.9,92.9 212.4,89.3 C210.3,87.7 208.1,85.8 207.4,85.3 C200.7,79.4 194.9,74.8 194.1,74.8 C193.5,74.8 192.5,74.2 191.9,73.5 C191.3,72.7 189,71.5 186.8,70.8 C184.6,70.1 182.8,69.2 182.8,68.7 C182.8,68.3 181.6,67.7 180.2,67.4 C176.6,66.5 172.8,63.8 172.8,62.2 C172.8,60.1 166.1,48.8 163.4,46.3 C162.8,45.8 161.1,42.9 159.6,40.1 C156.3,33.9 153.8,30.8 152.1,30.8 C151.4,30.8 150.8,31.5 150.8,32.3 C150.8,35 145.8,38.8 142.3,38.8 C139,38.8 138.4,38.3 130.5,28.6 C129.3,27.1 127.8,25.8 127.1,25.8 C126.5,25.8 125.1,24.5 124.1,22.8 C123.2,21.2 121.8,19.8 121.1,19.8 C120.4,19.8 119.9,19.5 119.9,19.1 C120.2,17.2 119.7,15.8 118.8,15.8 C116.9,15.8 117.8,20 120.3,23 C121.7,24.6 122.8,26.6 122.8,27.4 C122.8,28.2 123.2,28.8 123.7,28.8 C124.1,28.8 125.7,31.1 127.2,34 C129.4,38.2 129.8,40 129.2,43.2 C128.1,50.1 124.1,52.5 117.7,50.3 C115.3,49.4 113.1,48.4 112.8,48 C112.5,47.6 111.2,46.7 109.9,46 C108.6,45.2 106,43.7 104,42.6 C101.6,41.3 100.2,41 99.5,41.7 C98.7,42.5 98.8,42.8 99.6,42.8 C100.3,42.8 100.7,43.2 100.5,43.7 C100,45.5 107.4,55.5 109.9,56.5 C111.5,57.1 112.8,58.6 113.2,60.2 C113.6,61.7 115.9,64.9 118.3,67.4 C121,70.1 122.8,72.8 122.8,74.1 C122.8,75.4 123.5,77.3 124.3,78.4 C125.1,79.4 125.8,80.8 125.8,81.4 C125.8,82.5 131.1,88.6 139.8,97.6 C142.3,100.2 144.2,102.6 144.1,102.9 C144,103.3 145.9,105.3 148.5,107.4 C151,109.6 153.6,111.9 154.4,112.6 C155.1,113.2 156.1,113.8 156.7,113.8 C157.2,113.8 158.1,114.4 158.5,115.1 C160.1,117.8 172.2,122.6 179,123.3 C182.8,123.7 186.2,124.6 186.9,125.4 C187.5,126.2 189,126.8 190.2,126.8 C192.5,126.8 199.4,129 200.4,130.1 C200.8,130.5 202,130.8 203,130.8 C204.2,130.8 204.6,131.2 204.2,132 C203.7,132.7 203.9,132.8 204.7,132.3 C205.4,131.9 208,132.6 210.6,133.8 C213.2,135 216.7,136.6 218.3,137.4 C220.9,138.7 226.3,140.5 227.8,140.7 C228.1,140.7 230.6,139.6 233.3,138.3 Z M265,91.9 C269.6,92 274.6,92.5 276.2,92.9 C277.8,93.4 279.6,93.4 280.2,93 C280.8,92.6 281.3,89.4 281.4,85.8 C281.5,82.2 281.8,76.7 282.2,73.5 C282.8,68.5 282.5,66.9 280.2,61.8 C278,56.9 277.2,55.9 274.6,55.6 C272.9,55.3 270.2,55.4 268.5,55.7 C266.8,56.1 261.8,56 257.4,55.6 C252.9,55.3 245.9,55.2 241.8,55.5 C237.7,55.7 231.6,56.1 228.3,56.2 C225,56.4 219.4,57.3 215.8,58.2 C212.2,59.2 208.6,60 207.8,60 C205.4,59.9 200.6,62 201.5,62.7 C202,63 203.2,64.6 204.2,66.1 C205.1,67.7 206.2,68.7 206.5,68.5 C207,68 209.4,69.7 213,73.1 C214,74 215,74.8 215.3,74.8 C215.6,74.8 217.6,75.9 219.8,77.3 C222,78.7 224.8,79.8 226.1,79.8 C227.7,79.8 231.1,82.3 236.3,87.2 C243.5,94 246.4,95.6 247.9,93.5 C248.3,93 249.2,93.3 249.9,94.1 C251.1,95.4 251.6,95.3 254,93.6 C256.3,92 258.2,91.7 265,91.9 Z" id="Shape"></path>
            <path d="M272,206.6 C269.6,204.2 270.7,201.1 275.4,197.2 C277.9,195 281,192.8 282.3,192.3 C285.5,190.9 296.7,178.9 297.4,176.1 C297.8,174.8 298.4,174 298.9,174.3 C299.3,174.6 300.9,172.7 302.4,170.1 C303.9,167.4 305.9,164.4 306.8,163.3 C307.8,162.2 309.4,159.8 310.4,157.9 C314,151.5 314.5,150.7 319,146 C329.4,135.3 335.8,131.1 334.4,136.1 C334.1,137.3 333.8,138.6 333.8,139.1 C333.8,139.5 333.1,139.8 332.3,139.8 C331.5,139.8 330.8,140.4 330.8,141.2 C330.8,142 330.2,143.3 329.4,144 C328.7,144.8 327.1,147.4 325.9,149.8 C324.7,152.3 323.2,155.2 322.5,156.3 C307.3,180.6 294.3,195.6 284,201 C280.6,202.7 277.8,204.5 277.8,205 C277.8,205.4 276.9,205.8 275.9,205.8 C274.8,205.8 273.8,206.3 273.6,206.8 C273.4,207.5 272.8,207.4 272,206.6 Z" id="Shape"></path>
        </g>
    </g>
</svg>