<?xml version="1.0" encoding="UTF-8"?>
<svg width="523px" height="302px" viewBox="0 0 523 302" version="1.1" xmlns="http://www.w3.org/2000/svg" xmlns:xlink="http://www.w3.org/1999/xlink">
    <!-- Generator: Sketch 42 (36781) - http://www.bohemiancoding.com/sketch -->
    <title>Group</title>
    <desc>Created with Sketch.</desc>
    <defs></defs>
    <g id="Page-1" stroke="none" stroke-width="1" fill="none" fill-rule="evenodd">
        <g id="Group-2" transform="translate(12.000000, -26.000000)" fill-rule="nonzero" fill="#000000">
            <g id="Group" transform="translate(249.750000, 176.700000) scale(-1, 1) rotate(-180.000000) translate(-249.750000, -176.700000) translate(-11.500000, 26.000000)">
                <path d="M86,300 C82.7,298.6 74.5,289.9 74.5,287.9 C74.5,287.3 73.6,285.9 72.4,284.8 C70.1,282.7 70.5,282.5 66,288.7 C65.3,289.7 63.1,290.7 61.2,291.1 C57.7,291.6 57.6,291.5 55.2,286.7 C53,282.1 52.8,280.4 52.6,264.7 C52.5,253.7 52.8,247.3 53.5,246.9 C55,246 54.7,237.3 52.9,222.1 C50.8,205.7 52,191.3 56,183.7 C57.4,181.2 58.5,178.5 58.5,177.8 C58.5,177 59,176.4 59.5,176.4 C60.1,176.4 60.5,175.8 60.5,175.2 C60.5,174.5 62.3,171.9 64.4,169.5 C66.6,167 68.2,164.6 67.9,164.2 C67.6,163.7 67.7,163.4 68.2,163.5 C73.8,164.5 68.5,160.9 61.5,159 C54.4,157.1 54.4,157.1 43.3,152 C39.1,150 35.2,148.4 34.5,148.4 C33.5,148.4 28.5,145.6 27.5,144.4 C27.2,144 23.8,141.7 19.9,139.2 C16,136.7 11.3,133.1 9.4,131.2 C7.5,129.3 4.7,127.1 3,126.3 L0,124.9 L0,115.4 C0.1,105.9 2.1,97.8 5.2,94.6 C5.9,93.9 6.5,92.9 6.5,92.5 C6.5,92.1 8.7,89.4 11.5,86.4 C14.2,83.5 17.1,79.1 17.9,76.7 C19.7,71.5 29.8,60.9 33.9,59.8 C35.4,59.5 36.7,58.8 37,58.4 C37.8,57.2 59.4,57.9 60.7,59.2 C61.4,59.9 63.4,60.4 65.3,60.4 C67.2,60.4 70.2,61.3 71.9,62.3 C75.4,64.4 88.1,68.4 91.4,68.4 C92.6,68.4 93.3,68.8 93,69.4 C92.6,70 93.8,70.5 95.7,70.6 C97.5,70.6 99.5,70.8 100.2,70.8 C100.8,70.9 102.4,72.2 103.8,73.7 C105.1,75.3 107,76.7 108.1,76.8 C109.1,77 109.9,77.6 109.8,78.1 C109.7,78.6 110.5,79.5 111.6,80.2 C114.2,81.8 114,80.5 111.2,76.6 C109.9,74.9 108.4,73.8 108,74.2 C107.5,74.6 107.5,74.1 107.8,73.2 C108.1,72.3 107.5,70.4 106.4,69 C103.6,65.5 100.5,55.9 100.5,50.9 C100.5,48.6 100,44.3 99.5,41.4 C98.9,38.4 98.7,35.3 99,34.3 C99.5,32.7 104.8,30.1 105.7,30.9 C105.9,31.1 106.9,26 107.9,19.6 C109.4,10.3 110.2,7.5 112,5.7 C113.5,4.3 114.7,3.9 115.6,4.5 C116.5,5 117.8,4.5 119.5,3 C122.7,2.13370988e-15 125.2,-0.8 125.8,0.9 C126.4,2.2 132,5.4 133.9,5.4 C135,5.4 136.2,7.1 141.1,15.3 C143.1,18.7 143.5,18.9 147.9,18.6 C152.8,18.3 153.2,18.5 160,26.9 C168.3,37.2 182.4,49.1 183.2,46.7 C183.5,46 185.4,45 187.6,44.4 C189.7,43.8 191.5,42.9 191.5,42.4 C191.5,41.8 192.6,41.4 194,41.4 C195.4,41.4 196.5,41 196.5,40.6 C196.5,39.5 206.4,35 208.4,35.2 C209.3,35.2 214.3,34.8 219.5,34.2 C226.4,33.3 231,32.1 236.2,29.7 C248.6,24.1 256.6,22.2 269.8,22 C276.3,21.9 281.8,22.1 282.1,22.6 C282.4,23 283.2,23.1 284,22.7 C284.9,22.4 286.1,22.6 286.8,23.1 C288.4,24.4 292.9,24.7 310.8,24.8 C318.9,24.9 325.5,25.2 325.5,25.6 C325.5,26 326.6,26.1 327.9,25.8 C329.2,25.6 331.6,26.1 333.1,26.9 C334.7,27.7 337.4,28.4 339.1,28.4 C341,28.4 342.5,29 342.9,29.9 C343.2,30.7 344.1,31.1 344.8,30.8 C345.6,30.5 346.9,30.9 347.7,31.7 C348.5,32.5 350.1,33.5 351.3,33.8 C352.5,34.2 353.5,35.1 353.5,35.8 C353.5,37.1 364.3,46 367.1,47.1 C367.9,47.4 368.5,48.1 368.5,48.8 C368.5,50.1 373.4,56 381.5,64.5 C388.6,72 388.3,71.5 393.1,81.1 C395.4,85.6 397.5,89.1 397.9,88.7 C398.2,88.4 398.5,88.7 398.5,89.5 C398.5,90.3 399.4,92.7 400.5,94.9 C401.6,97.1 402.5,99.7 402.5,100.7 C402.5,101.7 402.9,102.3 403.4,102 C403.9,101.6 404.1,102.3 403.8,103.3 C403.5,104.4 404,106.7 404.9,108.5 C406.8,112.2 406.9,112.7 405.5,111.9 C405,111.6 404.5,111.7 404.5,112.3 C404.5,112.8 405.4,113.6 406.5,113.9 C407.6,114.2 408.5,115 408.5,115.5 C408.5,116 409.1,116.4 409.8,116.4 C410.5,116.4 411.6,117.3 412.3,118.4 C412.9,119.5 414.5,120.3 415.8,120.3 C420.6,120.1 425.6,121.2 431,123.4 C432.1,123.9 434.3,124.5 435.9,124.9 C437.4,125.2 438.5,125.8 438.2,126.1 C437.4,126.8 440.1,129.5 441.3,129.2 C442.2,128.9 447.5,134.2 447.5,135.5 C447.5,136 447.9,136.4 448.4,136.4 C448.9,136.4 450.6,137.6 452.2,139.2 C460,146.5 463.2,149.2 465.3,149.8 C466.5,150.2 467.5,151 467.5,151.5 C467.5,152 468.7,152.1 470.1,151.8 C472,151.3 472.6,151.4 472.1,152.3 C471.7,153 472.1,153.4 473.2,153.4 C491.8,153.7 505.5,153.1 505.5,152.2 C505.5,151.7 506,151.4 506.6,151.4 C507.1,151.4 507.4,151.8 507.1,152.2 C506.8,152.7 508.9,153 511.8,153 C516.8,152.9 517,153 517.5,155.9 C517.9,157.6 518.6,158.8 519.1,158.7 C519.7,158.6 520.2,160.1 520.2,162.1 C520.3,164.1 520.7,165.9 521.2,166.3 C521.7,166.6 522.2,168.6 522.4,170.6 C522.7,174.5 520,178.4 516.9,178.4 C516.1,178.4 515.7,178.9 516,179.4 C516.3,180 515.8,180.4 514.8,180.4 C511.7,180.4 510.6,182.3 511.7,185.5 C513,189.4 512,193.3 509.3,194.3 C507.3,195 500,193.1 498.5,191.4 C497.3,190.1 494.4,190.5 491.3,192.4 C489.5,193.5 486.9,194.4 485.5,194.4 C483.8,194.4 483.4,194.7 484.3,195.3 C485.2,195.8 484.1,196.5 480.8,197.3 C478.2,198 474.5,199.2 472.7,200 C470.9,200.8 468.5,201.4 467.5,201.4 C466.4,201.4 465.5,202 465.5,202.7 C465.5,203.6 465.2,203.5 464.6,202.5 C463.9,201.4 463.3,201.5 461.3,202.8 C459.9,203.7 458,204.2 457.1,203.8 C454.4,202.8 446.3,205.6 445.7,207.8 C445.2,209.8 445.2,209.8 444.4,207.8 C443.8,206.2 443.6,206.4 443,209.2 C442.5,211.5 441.7,212.4 440.3,212.4 C438,212.4 432.5,215.4 432.5,216.7 C432.5,217.2 430.7,219.3 428.5,221.5 C426.3,223.7 424.5,225.9 424.5,226.4 C424.5,227 423.9,227.4 423.1,227.4 C422.4,227.4 420.6,228.3 419.2,229.4 C417.8,230.5 415.8,231.4 414.7,231.4 C413.6,231.4 412.5,231.8 412.3,232.2 C411.8,233.6 382.6,241 374,242 C371.8,242.3 367.8,243.1 365,243.9 C356,246.3 351.1,247.4 346.5,247.7 C341.8,248 340.3,249.7 344.3,250.2 C347.3,250.6 348.3,252.9 349.1,260.8 C349.5,264.5 350.2,267.7 350.7,268 C351.1,268.3 351.3,268.9 351,269.4 C350.7,269.9 351.1,272 352,274 C353.8,278.3 354,288.2 352.3,291.9 C351.4,293.8 350.4,294.4 347.9,294.4 C344.3,294.4 339.5,292.6 339.5,291.2 C339.5,290.8 338.7,290.4 337.8,290.4 C336.9,290.4 333.6,287.8 330.6,284.7 L325.1,278.9 L324.4,281.9 C324,283.6 323.1,287.4 322.5,290.4 C321.5,295.6 319.1,300.3 318,299.3 C317.8,299 316.9,295.4 316,291.3 C313.8,280.8 313.8,280.8 311.2,283.9 C310,285.4 306.9,288.6 304.3,291.2 C301.7,293.7 299.5,296.7 299.3,297.8 C298.9,300.7 296.1,300.5 295.7,297.5 L295.3,295.2 L292.5,297.9 C290.9,299.4 289.2,300.3 288.6,300 C287.1,299.1 285.2,288.8 285.1,280.9 C285.1,275.6 285.6,272.8 287.3,269.2 C288.5,266.6 289.5,263.9 289.5,263.2 C289.5,262.5 290.2,261 291,260 C292.6,258 293,249.7 291.7,247.8 C290.7,246.3 279.2,244.2 264.4,242.8 C260.9,242.5 254.9,241.6 251,240.8 C247.2,239.9 242.2,239 240,238.7 C237.8,238.4 235.3,237.8 234.5,237.3 C233,236.6 225.1,235.1 223,235.2 C222.5,235.2 219.3,235.7 216.1,236.4 C212.8,237 208.7,237.3 207.1,236.9 C205.4,236.5 202.7,236 201.1,235.8 C199.4,235.6 197.9,235 197.6,234.5 C197.3,234 195,233 192.6,232.3 C190.3,231.6 188.1,230.4 187.8,229.7 C187.5,229 186.5,228.4 185.6,228.4 C184.7,228.4 182.9,227.7 181.7,226.8 C180.5,226 179.1,225.5 178.6,225.8 C178.1,226.2 175.6,224.8 173.1,222.9 C170.5,221 167.8,219.4 167,219.4 C166.1,219.4 165.2,218.7 164.9,217.9 C164.5,217.1 163.9,216.4 163.3,216.4 C162.8,216.4 162.7,216.9 163,217.4 C164.5,219.9 161.4,218.1 159.5,215.4 C158.3,213.8 156.6,212.4 155.8,212.4 C154.9,212.4 151.9,210.7 149.1,208.5 C146.3,206.4 141.3,203 138,200.8 C134.7,198.7 131.8,196.6 131.7,196.1 C131.5,195.7 130,194.7 128.3,193.8 C126.1,192.6 125,192.5 124,193.4 C123.2,194.1 122.2,194.3 121.7,194 C120.7,193.4 119.8,195 115.3,205.9 C111.6,215 111.8,214.3 110.8,224.4 C109.6,236.1 109.9,242.9 112.1,256.4 C113.3,263.3 114.3,273.7 114.4,279.7 C114.4,289.2 114.2,290.7 112.4,292.5 L110.4,294.5 L106.9,291.5 C102.1,287.3 99.8,287.4 100.3,291.8 C100.6,294.5 100.2,295.5 98,297.3 C96.5,298.4 94.6,299.4 93.9,299.4 C93.1,299.4 92.5,299.9 92.5,300.4 C92.5,301.8 89.6,301.6 86,300 Z M345.9,286.7 C345.5,285.7 345.1,281.2 344.9,276.8 C344.8,272.3 344.2,267.7 343.6,266.6 C343,265.5 342.5,263.9 342.5,263.2 C342.5,262.4 341.6,260 340.6,257.8 C339.5,255.6 338.3,252.6 338,251.2 C337.4,248.7 336.8,248.5 330.7,247.9 C322.1,247.1 320.2,247.1 307.2,247.3 C297.4,247.4 296.4,247.6 296.7,249.2 C297,250.4 297.9,250.8 299.8,250.6 C302.9,250.3 303.3,251.4 300.7,253 C299.7,253.7 298.3,256.1 297.6,258.5 C296.9,260.9 295.5,264.4 294.4,266.2 C291.4,271.4 292.6,284.4 296,284.4 C296.8,284.4 297.5,284 297.5,283.6 C297.5,282.2 307.1,275.4 309.1,275.4 C310.1,275.4 312.1,273.8 313.4,271.9 C316.9,266.7 323,265.9 324.2,270.4 C324.5,271.5 325.3,272.4 325.9,272.4 C327.4,272.4 332.3,276.9 335.9,281.7 C339.6,286.6 347.7,290.5 345.9,286.7 Z M88,282.2 C89,274.8 90,273.1 92.6,274.4 C94,275.2 95.6,275.2 98.1,274.4 C100,273.7 102.5,273.4 103.6,273.7 C105.3,274.2 105.5,273.8 105.1,271.1 C104.9,269.3 104.2,266.3 103.6,264.4 C101.6,258.3 99.5,239.4 99.5,227.9 C99.5,219.3 100,215.4 101.5,210.9 C102.6,207.7 103.5,204.3 103.5,203.4 C103.5,202.4 104.6,200 106,198 C107.3,196 108.3,194.4 108,194.4 C107.8,194.4 109,193.1 110.6,191.5 C112.6,189.5 113.3,188 112.8,186.8 C112.4,185.7 112.5,185.3 113.2,185.7 C114.7,186.7 113.5,182.3 111.8,180.6 C111.1,179.9 110.5,177.9 110.5,176.3 C110.5,174.7 109.8,171.7 109,169.7 C108.2,167.8 107.5,165.1 107.5,163.8 C107.5,162.6 106.8,160.9 106,160 C105.2,159.2 104.5,158 104.5,157.3 C104.5,156.5 103,156.3 99.3,156.8 C96.4,157.2 93.2,157.5 92.3,157.5 C91.3,157.5 90.5,158.2 90.5,159 C90.5,159.8 89.6,160.4 88.5,160.4 C85.8,160.4 82.9,163.8 79.2,171.4 C75.6,179 69.6,188.8 68.4,189.2 C67.9,189.4 67.5,191.8 67.5,194.5 C67.5,197.5 66.7,201 65.5,203.3 C62.7,208.9 61.4,218.9 61.3,234.9 L61.3,255.4 C61.2,259 61.8,263.8 62.4,266.2 C63.4,269.8 63.9,270.3 65.1,269.4 C66.1,268.5 66.5,268.5 66.5,269.3 C66.5,269.9 67.3,270.4 68.4,270.4 C69.4,270.4 70.8,271.1 71.5,271.9 C72.2,272.7 74,273.4 75.4,273.4 C77.6,273.4 78.6,274.2 80.3,277.8 C81.5,280.2 82.5,282.5 82.5,282.9 C82.5,284 85.6,287.4 86.6,287.4 C87,287.4 87.6,285 88,282.2 Z M356.5,237.6 C358.4,237 359.4,236.6 358.8,236.5 C358.1,236.4 357.5,235.9 357.5,235.3 C357.5,234.7 354.7,231.1 351.2,227.4 C346.9,222.7 344.4,219.1 343.4,215.8 C342.1,211.7 341.5,210.9 339.4,210.9 C338.1,210.9 336.6,210.6 336,210.3 C335.5,209.9 332.8,209.3 330,208.9 C327.3,208.5 324.4,207.7 323.8,207.2 C322.9,206.5 322.5,206.5 322.5,207.4 C322.5,208.2 321.7,208.4 320.3,208 C317,207 298.6,204.2 294.4,204 C292.4,204 290.1,203.3 289.3,202.7 C288.5,202 287.6,201.7 287.2,202 C286.5,202.7 275.4,200.5 274,199.4 C272.9,198.5 262.4,196.2 261.9,196.7 C261.7,196.9 261.3,200.4 260.9,204.5 C259.9,217.4 257.9,225.6 255.3,227.6 C251.6,230.4 250.3,229.5 252.4,225.6 C254,222.9 257.8,198.7 257.1,196 C256.6,194.1 255.7,193.5 251.4,193 C248.6,192.6 245.6,191.9 244.7,191.5 C242.8,190.5 231.9,188.4 228.8,188.4 C227.7,188.4 226.2,187.7 225.5,186.9 C224.8,186.1 223,185.4 221.4,185.4 C219.9,185.4 216.4,184.2 213.8,182.8 C211.2,181.4 207,180 204.5,179.7 C202,179.4 199.5,178.6 198.9,177.8 C197.9,176.6 197.5,176.7 196.3,178.6 C195.5,179.9 194.2,182.7 193.5,184.9 C192.2,188.8 179.7,202.4 177.4,202.4 C176.9,202.4 176.7,202.9 177,203.4 C177.4,204 176.3,204.7 174.6,205 C168,206.3 172.2,211.1 181.5,212.9 C183.4,213.3 185.5,214 186,214.4 C186.9,215 203,219.1 217.8,222.4 C220.5,223 223.4,224.1 224.2,224.9 C225,225.7 226.4,226.4 227.4,226.4 C228.4,226.4 229.5,226.7 229.9,227.1 C230.3,227.5 231.8,228 233.2,228.2 C234.6,228.4 237.1,229.2 238.6,230 C240.1,230.7 243.4,231.4 245.8,231.4 C248.2,231.4 250.5,231.7 250.9,232.1 C251.9,233.2 262.5,234.1 265,233.3 C265.6,233.2 267.8,233.5 270,234.1 C276.6,236 284.7,237.4 289.8,237.6 C292.4,237.7 294.8,238.1 295.1,238.6 C295.8,239.7 352.2,238.8 356.5,237.6 Z M378.7,233.3 C382.9,232.3 387.9,231.4 389.9,231.4 C391.8,231.4 393.6,231 393.9,230.5 C394.2,230 396.2,229.3 398.2,229 C400.3,228.6 404.9,227.2 408.5,225.8 C414.5,223.6 417.3,221.7 424.7,214.9 C426.4,213.2 428.6,212.4 431.2,212.3 C433.3,212.2 434.2,212 433.3,211.7 C432.3,211.5 431.5,210.6 431.5,209.8 C431.5,209 431,208.6 430.5,208.9 C429,209.8 426.5,207.6 426.5,205.4 C426.5,203.3 416.2,193.4 414.1,193.4 C413.2,193.4 412.5,193.1 412.5,192.6 C412.5,191.8 408.4,189.6 396,183.9 C391.6,181.8 386.9,179.3 385.6,178.3 C384.3,177.2 382.4,176.4 381.4,176.4 C380.3,176.4 379.5,176 379.5,175.4 C379.5,173.9 376.5,174.2 376.5,175.7 C376.5,176.3 373.9,178.8 370.7,181.1 C360.2,188.8 351.8,196.2 351.2,198.3 C350.9,199.5 351.1,200.2 351.6,199.8 C352.1,199.5 352.5,199.8 352.5,200.4 C352.5,201.1 353.2,201.4 354,201 C354.8,200.7 356.7,200.9 358.2,201.5 C359.7,202.1 366.8,202.5 374,202.4 C381.1,202.3 388.5,202.2 390.3,202.2 C392,202.2 394.2,202.7 394.9,203.3 C396.2,204.4 396,204.9 394.2,206.7 C392.3,208.6 390.9,208.9 383.3,208.9 C378.4,208.9 374.5,209.3 374.5,209.7 C374.5,210.1 373.6,210 372.5,209.4 C371.1,208.6 370.5,208.6 370.5,209.4 C370.5,210 370.2,210.3 369.7,210 C369.3,209.8 367,210 364.5,210.4 C361.9,210.9 359.5,210.8 358.9,210.3 C358.3,209.8 357.5,209.7 357.1,210.1 C356.8,210.5 355.2,210.9 353.7,211 C352.2,211.1 350.1,211.5 348.9,211.8 C346.9,212.5 346.9,212.7 348.4,216 C349.2,217.9 350.4,219.4 351.1,219.4 C351.8,219.4 352.5,220.4 352.9,221.7 C353.2,222.9 355.2,226.1 357.5,228.8 C359.7,231.4 361.5,234.2 361.5,235 C361.5,236.7 367.3,236.1 378.7,233.3 Z M168.8,202.1 C174.8,198.9 178,196.6 182.6,192.2 C184.7,190.1 186.5,188.7 186.5,189.2 C186.5,190.5 190.5,183.4 190.8,181.5 C191,180.5 191.9,178.9 192.8,178 C194.8,176 195,174.4 193.3,174.4 C191.8,174.4 172.5,168.5 170.3,167.3 C169.3,166.8 167.9,166.4 167.2,166.4 C166.5,166.4 164.4,165.3 162.6,164 C160.7,162.6 158,161.2 156.4,160.9 C154.6,160.5 153.5,159.6 153.5,158.5 C153.5,156 149.9,152.5 146.7,151.9 C142.7,151 141,149.8 141.1,147.9 C141.2,147 141,146.5 140.7,146.8 C140.4,147.1 139.5,146.8 138.6,146 C137.7,145.3 134.6,143.8 131.6,142.8 C126.3,140.9 126.3,140.9 124.6,143.1 C120.3,148.6 118.9,151 117.2,155.3 C115.5,159.5 115.5,160.1 116.9,163.1 C117.8,164.9 118.9,166.4 119.5,166.4 C120,166.4 120.2,167.1 119.8,168 C119.3,169.3 119.6,169.5 121.6,168.9 C124.2,168.1 124.2,168.1 126.8,168.3 C128.6,168.4 129.3,171.4 127.5,171.4 C125.5,171.4 128.8,175.8 136.1,183.2 C140.1,187.1 144.1,190.4 145,190.4 C145.9,190.4 146.8,191.1 147.1,191.9 C147.5,192.7 148.3,193.4 149.1,193.4 C149.9,193.4 150.5,193.9 150.5,194.5 C150.5,195 151,195.2 151.6,194.8 C152.3,194.4 152.3,195 151.5,196.5 C150.4,198.4 150.5,198.9 152.1,200.1 C154.6,201.9 156.3,201.7 156.8,199.7 C157.1,198.4 157.3,198.6 157.5,200.4 C157.6,202.7 157.7,202.7 158.5,200.9 C159.3,198.9 159.4,198.9 159.4,201 C159.6,205.2 162.3,205.5 168.8,202.1 Z M346.9,198.9 C345.6,195.7 347.6,192.5 353.6,188.3 C356.9,185.9 362.6,181.8 366.1,179.2 C369.7,176.5 373,174.4 373.5,174.4 C375.5,174.4 374.4,172.3 372,171.4 C370.6,170.9 369.5,170 369.5,169.5 C369.5,169 368.6,168.3 367.5,167.9 C364.6,167 361.5,161.2 361.5,156.5 C361.5,151.9 364.8,138.9 366.6,136.8 C367.2,136.1 367.3,134.9 366.9,134.3 C366.5,133.5 366.6,133.4 367.3,133.8 C368,134.2 368.5,134 368.5,133.4 C368.5,131.7 374.7,123.8 377.3,122.2 L379.6,120.8 L377.6,118.2 C376.5,116.8 375.8,115.5 376,115.2 C377.1,114.2 359.8,97.4 355.5,95.4 C353,94.2 348.4,91.4 345.3,89.3 C342.1,87.1 338.6,85.4 337.5,85.4 C336.4,85.4 335.5,85 335.5,84.5 C335.5,83.2 328.4,82.4 326.4,83.5 C325.1,84.1 324.5,84.1 324.5,83.4 C324.5,82.9 322.8,82.4 320.6,82.4 C318.5,82.4 313,81.5 308.4,80.3 C303.8,79.1 298,78 295.5,77.8 C290.2,77.4 285.8,76.5 283,75.5 C276.1,72.8 273.4,72.3 269.8,73.3 C267.7,73.9 263.3,74.4 260,74.4 C252.1,74.4 249.1,75.2 250.5,76.9 C251.1,77.6 252.4,78 253.3,77.7 C260.4,75.9 266.1,97.7 262.8,113.9 C262,117.7 260.9,121.5 260.2,122.2 C259.6,123 258.6,124.4 258,125.3 C254.4,131.4 252.4,133.7 249.4,135.3 C245.8,137.2 233.3,139 231.5,137.9 C230.9,137.5 228,137 225.2,136.8 C222.3,136.5 218.2,136.2 216,136 C213.8,135.8 208.9,135.3 205,135 C197,134.2 190.5,132.5 189,130.8 C188.5,130.1 186.7,129.4 185,129.1 C183.4,128.9 181.2,128.3 180.2,127.9 C178.6,127.2 178.6,127.4 179.6,129.8 C180.6,131.8 180.6,132.7 179.7,133.6 C177.8,135.5 176.1,132.9 175.6,127.2 C175.5,126.7 174.3,126.4 172.8,126.4 C170.9,126.4 170.4,126.1 171.3,125.5 C172.3,124.9 171.7,124.5 169.3,123.9 C165.6,123 164.6,122.7 164.3,122.4 C164.1,122.3 162.7,122 161,121.8 C159.4,121.5 156.9,121 155.5,120.5 C154.1,120.1 150.8,119.6 148.1,119.5 C143.9,119.3 143.3,119.4 144.3,120.7 C145.7,122.3 144.9,123.4 142.4,123.4 C141.4,123.4 140,124 139.3,124.7 C138.6,125.4 136.7,126.1 135.1,126.2 C133.5,126.3 130,128 127.4,129.9 C124.7,131.8 122,133.4 121.5,133.4 C120.9,133.4 120.5,133.9 120.5,134.4 C120.5,135 119.4,136.7 118,138.2 C116.6,139.7 115.5,141.6 115.5,142.4 C115.5,143.3 114.8,145 113.9,146.3 C112.3,148.5 112.3,148.6 114.1,147.6 C115.8,146.7 121.7,140.3 125,135.8 C125.8,134.6 126.4,134.4 126.9,135.3 C127.3,135.9 128.2,136.1 128.8,135.7 C130.7,134.5 134.7,134.2 134.1,135.3 C133.7,135.9 134.4,136.8 135.7,137.5 C136.9,138.1 138.8,139.5 139.9,140.5 C141,141.6 142.6,142.4 143.6,142.4 C144.5,142.4 145.8,143.1 146.6,144 C147.3,144.8 148.7,145.3 149.8,145 C151,144.7 152.6,145.4 154.2,147 C156.5,149.3 158.4,149.8 163,149.5 C164.5,149.3 164.7,149.5 163.6,150.2 C162.5,151 162.7,151.3 164.4,151.9 C165.5,152.2 166.9,152.2 167.5,151.9 C168,151.6 168.5,151.7 168.5,152.3 C168.5,152.9 169.6,153.6 170.9,154 C172.3,154.3 173.6,155.2 173.9,156 C174.2,156.8 175.3,157.4 176.5,157.4 C177.6,157.4 180.8,158.3 183.7,159.4 C186.6,160.5 189.8,161.4 190.7,161.4 C191.6,161.4 192.5,162 192.8,162.7 C193,163.3 193.4,160.7 193.8,156.8 C194.5,148.3 197,141.5 198.7,143.2 C199.5,144 199.5,144.7 198.7,145.6 C198.1,146.3 197.4,149.5 197,152.7 C196.4,157.7 196.5,158.3 197.9,157.8 C198.8,157.5 199.5,157.6 199.5,158.2 C199.5,158.7 198.8,159.5 197.9,159.8 C196.6,160.3 196.5,160.7 197.5,162 C198.2,162.8 199.4,163.3 200.1,163 C200.8,162.7 201.8,163.1 202.4,163.8 C203,164.5 205.4,165.7 207.7,166.4 C210.1,167.2 213.3,168.4 214.8,169.1 C216.4,169.9 220.2,170.9 223.3,171.4 C226.3,171.9 229.1,172.8 229.4,173.3 C229.7,173.8 232.6,174.7 235.8,175.4 C239.1,176 243.2,177.2 245.1,178 C246.9,178.8 249.7,179.4 251.2,179.4 C252.8,179.4 256.4,180 259.4,180.8 C264.6,182.1 264.7,182.1 267.1,179.5 C268.5,178.1 270.5,175.3 271.5,173.3 C272.6,171.3 274.8,168.5 276.5,167 C278.2,165.6 279.4,164.4 279,164.4 C278.6,164.4 280.1,162.3 282.3,159.7 C284.5,157 289.2,150.4 292.9,144.9 C296.5,139.4 299.9,134.3 300.6,133.6 C301.2,132.9 302.2,131.3 302.8,130.1 C303.5,128.9 305,126.5 306.3,124.7 C307.5,123 308.5,121.1 308.5,120.5 C308.5,120 309.1,119.1 309.8,118.7 C310.4,118.3 313.2,115 315.9,111.4 C322.9,102.2 325.8,99.5 329.4,98.8 C333.1,98 333.7,100 330.3,101.3 C326.8,102.6 320.2,109.9 314,119.4 C312.3,121.9 310.8,124.1 310.5,124.4 C310.2,124.7 307.9,128 305.5,131.9 C303.1,135.7 300.6,139.5 299.8,140.2 C299.1,140.9 298.5,142 298.5,142.5 C298.5,143.2 295.4,147.8 285.3,162.2 C284,164 281.8,166.9 280.3,168.7 C278.8,170.5 277.5,172.2 277.5,172.6 C277.5,173 276.9,173.9 276.2,174.6 C273.9,177 270.5,181.7 270.5,182.4 C270.5,182.8 272,183.4 273.8,183.7 C275.5,183.9 279.5,185.2 282.5,186.4 C285.5,187.6 289.6,189.2 291.5,190 C293.4,190.7 298.6,191.3 302.9,191.4 C308.8,191.4 313.1,192.1 320.1,194.4 C325.3,196 332.4,197.6 336.1,198 C339.8,198.3 343.7,198.9 344.9,199.4 C346,199.9 347.1,200.3 347.2,200.3 C347.3,200.4 347.2,199.7 346.9,198.9 Z M461,194 C469.1,192.8 471.1,192.2 475,190.4 C477.2,189.4 479.7,188.3 480.5,188 C481.3,187.6 483.4,186.5 485,185.4 C490.9,181.6 494.4,180.2 496.4,180.9 C497.9,181.4 498.7,181 499.2,179.7 C499.5,178.7 500.7,176.8 501.7,175.5 C503,173.8 503.2,172.7 502.5,172 C501,170.5 501.3,167.8 503,166.4 C503.8,165.7 504.5,164.5 504.5,163.8 C504.5,162.5 499.3,162.3 471.7,162.4 C470.4,162.4 469.6,162 469.9,161.5 C470.5,160.7 465.9,158.9 464.2,159.2 C460.6,160 450.5,152.2 446,145.1 C444,141.8 441.9,140 438.1,138.3 C435.3,137.1 432.6,135.6 432,135.2 C431.5,134.7 429.7,133.2 428,131.9 C425,129.4 425,129.4 423.6,131.4 C422,133.8 417.7,134.1 416.1,131.9 C414.9,130.2 401.8,129.1 400.9,130.6 C400.6,131.1 400,131.2 399.5,130.9 C398.8,130.5 397.2,134 397.4,135.7 C397.5,136.1 397.1,136.4 396.5,136.4 C396,136.4 395.5,137.3 395.5,138.3 C395.5,139.4 395,140.6 394.5,140.9 C393.9,141.2 393.8,142.7 394.1,144.2 C395.3,149 399.7,157.5 400.9,157.1 C401.5,156.9 403.1,157.3 404.4,158 C405.8,158.7 407.2,159.1 407.6,158.9 C408,158.6 408.8,159.1 409.5,159.9 C410.2,160.7 411.6,161.4 412.6,161.4 C413.7,161.4 414.5,162 414.5,162.8 C414.5,163.6 415.5,164.4 416.8,164.8 C420.3,165.7 431.9,178.3 435.1,184.8 C437.8,190.3 438.4,190.8 443,192.3 C445.8,193.1 448.2,194.2 448.4,194.7 C448.7,195.5 452.3,195.3 461,194 Z M82.2,148.8 C83.4,148 85.2,147.7 86.1,148.1 C87.9,148.8 93.5,143.3 93.5,140.8 C93.5,140.1 94.4,139 95.4,138.4 C96.5,137.9 98.9,134.6 100.7,131.2 C102.5,127.9 104.7,124.9 105.7,124.6 C106.7,124.4 107.5,123.8 107.5,123.3 C107.5,122.8 108,122.4 108.6,122.4 C110.2,122.4 123,111.8 124.9,108.9 C126.4,106.6 126.4,106.3 123.4,102.9 C121.7,101 119.7,99.4 119.1,99.4 C118.4,99.4 116.8,98.3 115.5,96.9 C114.2,95.5 112.6,94.4 111.8,94.4 C111.1,94.4 110.5,94 110.5,93.5 C110.5,92.1 98.7,86.8 92.5,85.4 C89.5,84.7 86.6,83.8 86,83.4 C84,81.9 60.9,74.4 58.2,74.4 C56.2,74.4 53.8,75.9 50.1,79.4 C47.2,82.1 44.4,84.4 43.9,84.4 C43.4,84.5 41.2,86.3 39,88.4 C36.8,90.6 34.5,92.4 33.9,92.4 C32.3,92.4 22.5,103.2 22.5,104.9 C22.5,105.7 21.9,106.7 21.2,107.1 C20.6,107.5 18,110.6 15.6,113.9 C13.1,117.2 10.8,120.1 10.3,120.2 C9.1,120.7 9.3,122.4 10.5,122.4 C11.1,122.4 12.6,123.3 13.8,124.5 C15,125.6 18.5,128.2 21.5,130.2 C24.5,132.1 29.9,135.7 33.5,138 C39.9,142.2 44.7,144.1 47.3,143.5 C48.1,143.4 49.2,143.7 49.8,144.2 C50.5,144.6 53,145.6 55.5,146.3 C58,147 61.1,148 62.5,148.5 C70.5,151.4 77.9,151.5 82.2,148.8 Z M100.7,149.4 C104.2,149.4 104.7,149.2 104.2,147.4 C103.9,146.3 104.1,145.6 104.5,145.9 C105,146.2 106.3,143.5 107.5,139.9 C108.7,136.3 110,133.4 110.5,133.4 C111,133.4 112.7,130.9 114.3,127.9 C116,124.9 117.2,122.4 117.1,122.4 C115.9,122.4 110.5,125.8 110.5,126.5 C110.5,127 109.9,127.4 109.3,127.4 C107.9,127.4 102.5,134.5 102.5,136.2 C102.5,136.7 101.3,138.3 99.9,139.7 C98.5,141.1 97.6,142.8 98,143.4 C98.3,143.9 98.3,144.4 97.8,144.4 C97.4,144.4 96.2,145.8 95.2,147.5 C93.7,150.2 93.7,150.6 95.1,150 C95.9,149.7 98.5,149.4 100.7,149.4 Z M242.3,124.4 C245.7,121.6 248.5,118.9 248.5,118.4 C248.5,117.9 249.2,117.7 250,118 C250.8,118.4 251.5,118.1 251.5,117.4 C251.5,116.7 252.3,116.5 253.5,116.9 C255.1,117.4 255.5,117.1 255.5,115.5 C255.5,114.3 255.1,112.6 254.5,111.6 C254,110.7 252.8,108.2 251.9,106.1 C250,101.8 249.7,101.8 249.2,106 C248.6,111.3 246,114.7 237.4,121.4 C229,128.1 229.2,127.8 231.2,128.6 C234.6,129.9 236.1,129.4 242.3,124.4 Z M197.8,117.9 C199.3,117.1 200.3,116.9 200,117.4 C199.1,118.9 202.8,119.1 207.2,117.8 C210.7,116.8 211.6,116.9 213,118.3 C214.5,119.8 214.6,119.8 213.9,118.2 C213.5,116.9 213.8,116.4 214.9,116.4 C215.8,116.4 216.8,117.1 217.1,117.9 C217.8,119.7 222.6,119.9 224.4,118.2 C225.5,117.1 225.6,117.2 225,118.2 C223.3,121.3 232.7,114.6 235.3,111 C237.6,107.6 238,106.2 237.8,100.5 C237.7,96.9 236.9,92.1 235.9,89.9 C233.5,84 227.6,76.4 225.5,76.4 C224.5,76.4 222.4,75.3 220.8,74 C219.3,72.7 216.4,71.3 214.5,70.9 C212.6,70.5 210.1,69.7 209,69 C207.9,68.3 204.5,67.2 201.5,66.5 C198.5,65.7 195.4,64.7 194.8,64.2 C194.1,63.6 192.6,63.4 191.5,63.7 C190,64.1 189.5,63.7 189.5,62.3 C189.5,61.1 188.5,60.2 186.6,59.7 C183.7,58.9 174,50.5 158.9,35.7 C154.8,31.7 150.6,28.4 149.6,28.4 C147.9,28.4 147,29.8 145.1,35.7 C144.8,36.7 144,37.4 143.3,37.2 C142,36.7 128.6,17.9 125.9,12.6 C124,8.9 122.1,8.5 120.5,11.4 C119.9,12.5 119.8,13.4 120.2,13.4 C120.6,13.4 120.4,13.9 119.7,14.6 C118.9,15.4 118.5,19.8 118.5,27.9 C118.5,44.3 118.3,44.6 112.9,43.8 C108.9,43.2 108.7,43.3 109.2,45.4 C109.5,46.6 110.4,47.8 111.1,48.1 C111.9,48.4 112.5,49.4 112.5,50.5 C112.5,51.5 113.7,56 115.2,60.6 C116.7,65.2 117.8,69.6 117.6,70.6 C117.5,71.5 117.9,72.5 118.5,72.9 C119,73.2 119.5,74.7 119.5,76.2 C119.5,78.2 120.3,79.5 122.5,80.8 C124.2,81.7 125.3,83 125,83.5 C124.6,84 125,84.7 125.8,85 C126.7,85.3 127.6,86.6 127.9,88 C128.5,90.4 130.5,91.4 130.5,89.3 C130.5,88.8 131,88.6 131.6,89 C132.4,89.5 132.4,89.9 131.5,90.4 C130.6,91 130.8,91.7 132.4,93.3 C133.5,94.4 135,95.4 135.5,95.4 C136.1,95.4 136.5,95.8 136.5,96.3 C136.5,96.8 138.3,99.1 140.6,101.4 C143.3,104.1 145.4,105.4 146.8,105.2 C148,105 149,105.4 149,105.9 C149,106.5 149.4,107.5 149.9,108.2 C150.5,109.2 151,109.1 152.1,107.7 C153.4,106 153.4,106 153.5,108 C153.5,109.6 154.3,110.3 156.7,110.8 C158.4,111.1 160.7,112.1 161.6,113 C162.8,114.1 165.2,114.6 168.9,114.5 C172.5,114.5 174.9,115 175.9,115.9 C177.8,117.8 179.6,117.8 178.9,115.9 C178.5,115.1 178.8,114.4 179.4,114.4 C180,114.4 180.5,114.9 180.5,115.4 C180.5,116 181.2,116.4 182,116.4 C182.8,116.4 183.5,116.8 183.5,117.3 C183.5,118.6 189.7,120.2 192.5,119.7 C193.9,119.4 196.2,118.6 197.8,117.9 Z M10.5,112.8 C10.5,112.1 11.3,110.4 12.4,109.2 C13.4,107.9 16.8,103.9 19.9,100.2 C23,96.5 25.5,93 25.5,92.4 C25.5,91.9 25.9,91.4 26.4,91.4 C27.5,91.4 33.5,82.8 33.5,81.3 C33.5,80.4 34.9,80 37.2,80.3 C38.5,80.5 40,78.6 39.2,77.8 C38.2,76.8 25.5,83.3 25.5,84.8 C25.5,85.7 24.8,86.4 24,86.4 C21.9,86.4 17.1,91.5 18.4,92.4 C19.1,92.8 18.6,93.6 17,94.4 C15.2,95.3 14.5,96.6 14.5,98.6 C14.5,100.1 14.1,101.4 13.6,101.4 C12.1,101.4 7.4,111.6 8,113.6 C8.7,115.6 10.5,115.1 10.5,112.8 Z M398,106.2 C396.6,101.6 389.9,88.7 385.8,82.7 C380.1,74.4 363.9,57.7 361.7,57.9 C358.7,58.3 354.1,59.6 351.2,61.1 C348.8,62.3 348.5,63 348.7,66.7 C348.8,69 348.5,72.4 348,74.3 C347.3,77.3 347.4,77.7 348.9,77.1 C349.9,76.7 350.4,76.8 350,77.4 C349.7,78 350.1,78.4 351,78.4 C353,78.4 363.9,85.7 365.7,88.3 C366.4,89.3 367.9,90.3 369,90.5 C370.1,90.7 371.4,91.8 372,93 C373.7,96.4 376.4,98.5 384,102.3 C385.7,103.1 387.5,104.4 388.1,105.2 C388.8,106.1 390.2,106.5 391.8,106.2 C393.3,105.9 394.2,106 394,106.5 C393.5,107.3 395.1,108.2 397.3,108.3 C398.2,108.4 398.4,107.7 398,106.2 Z M333.7,73.5 C334.6,73.4 330,68.4 329,68.4 C328.6,68.4 326.3,66.8 323.9,64.9 C316.5,58.8 314.2,58.3 294.6,58.1 C284.9,58.1 276.4,58.4 275.7,58.8 C274.1,59.8 274.1,64.4 275.8,64.5 C281.1,64.7 290,65.7 295,66.5 C298.3,67 302.1,67.6 303.5,67.8 C304.9,67.9 306.7,68.3 307.5,68.6 C308.3,69 309.7,69.2 310.5,69.2 C312.6,69.2 316.7,70.2 319,71.3 C320.1,71.8 322.8,72.6 325,73.1 C328.5,73.8 330.1,73.9 333.7,73.5 Z M229.4,64.2 C230.5,63.2 230.7,63.2 230.1,64.2 C229.3,65.5 230.7,65.7 234.3,64.8 C236.1,64.3 236.3,63.9 235.4,62.8 C234.4,61.6 234.6,61.5 236,62 C237.3,62.5 237.6,62.4 237.1,61.6 C236,59.7 241.4,58 243.3,59.6 C244.6,60.7 244.7,60.7 244,59.4 C243.3,58.2 243.4,58.1 244.6,59.1 C247.1,61.1 253,61.6 259.1,60.4 C262.3,59.7 265.8,59.1 266.8,59 C267.8,58.9 269.3,58 270.2,57.1 C271.8,55.5 271.8,55.4 269.7,55.4 C268.4,55.4 267.6,55.1 267.9,54.6 C268.1,54.2 263.9,53.7 258.5,53.6 C251.1,53.3 248,53.6 245.6,54.8 C244,55.7 241.7,56.4 240.5,56.4 C238.5,56.4 232.5,59 231.5,60.3 C229.9,62.3 225.7,64.2 224.8,63.3 C221.7,60.2 230.3,53.1 241,49.9 C244.3,48.9 247.5,47.7 248,47.3 C248.6,46.9 253.1,46.8 258.2,47 L267.4,47.4 L267.3,39.8 L267.1,32.3 L263.1,32.9 C254.8,34.3 242.2,37.5 238.2,39.3 C235.9,40.3 233.2,41.4 232.2,41.7 C231.2,42.1 230.6,42.8 230.9,43.3 C231.2,43.8 230.7,44 229.6,43.7 C228.6,43.5 225.3,44.6 222.3,46.3 C219.3,48 216.1,49.4 215.2,49.4 C214.3,49.4 213.5,49.9 213.5,50.4 C213.5,51 212.9,51.4 212.1,51.4 C211.4,51.4 209.2,52.6 207.3,54.2 C203.6,57.1 203.6,57.5 208.7,60.8 C210.4,61.9 211.5,62.1 212,61.5 C212.4,60.8 213.2,60.8 214.3,61.3 C222.3,65.5 227,66.4 229.4,64.2 Z M278,54.4 C279,51.3 285.5,50.1 300.5,50.4 C333.1,50.8 332.6,50.8 338.5,53.7 C341.5,55.2 344.2,55.9 344.3,55.4 C344.5,54.8 345.1,54.4 345.6,54.4 C346.9,54.4 352.5,50.2 352.5,49.2 C352.5,48.8 351.9,48.4 351.3,48.4 C350.6,48.4 348.9,47.5 347.5,46.4 C346.1,45.3 344.2,44.4 343.3,44.4 C342.3,44.4 341.5,43.9 341.5,43.3 C341.5,42.8 341.1,42.5 340.6,42.9 C340.1,43.2 337,41.9 333.8,40 C323.1,33.7 318.3,32.7 295.3,32 L274.5,31.4 L274.4,34.1 C274.3,35.7 274.2,40.1 274.1,43.9 C274,47.8 273.6,52.1 273.1,53.7 C272.4,56.1 272.5,56.4 274.8,56.4 C276.5,56.4 277.6,55.7 278,54.4 Z" id="Shape"></path>
            </g>
        </g>
    </g>
</svg>