<?xml version="1.0" encoding="UTF-8"?>
<svg width="477px" height="287px" viewBox="0 0 477 287" version="1.1" xmlns="http://www.w3.org/2000/svg" xmlns:xlink="http://www.w3.org/1999/xlink">
    <!-- Generator: Sketch 42 (36781) - http://www.bohemiancoding.com/sketch -->
    <title>Group 3</title>
    <desc>Created with Sketch.</desc>
    <defs></defs>
    <g id="Page-1" stroke="none" stroke-width="1" fill="none" fill-rule="evenodd">
        <g id="Group-3" transform="translate(2.000000, 2.000000)">
            <g id="Group-2">
                <g id="workspace">
                    <g id="main">
                        <g id="color_1_" transform="translate(20.000000, 0.000000)" fill-rule="nonzero">
                            <g id="XMLID_1_">
                                <g id="Group">
                                    <path d="M442.1,72 C442.1,75.2 440.4,78 437.9,79.6 C436.5,80.5 434.9,81 433.1,81 C432.2,81 431.3,80.9 430.5,80.6 C426.8,79.5 424.1,76.1 424.1,72 C424.1,71.5 424.1,71 424.2,70.6 C424.5,68.8 425.4,67.1 426.6,65.8 C428.2,64.1 430.6,63 433.1,63 C438.1,63 442.1,67 442.1,72 Z M437.1,72 C437.1,70.9 436.6,69.9 435.9,69.2 C435.2,68.5 434.2,68 433.1,68 C430.9,68 429.1,69.8 429.1,72 C429.1,73.1 429.6,74.1 430.3,74.8 C431,75.5 432,76 433.1,76 C435.3,76 437.1,74.2 437.1,72 Z" id="Shape" fill="#B67DBC"></path>
                                    <path d="M440.1,134.8 L440.1,138.8 C440.1,141 438.3,142.8 436.1,142.8 L432.1,142.8 L8.1,142.8 L4.1,142.8 C1.9,142.8 0.1,141 0.1,138.8 L0.1,134.8 C0.1,132.6 1.9,130.8 4.1,130.8 L29.1,130.8 L63.1,130.8 L93.1,130.8 L173.1,130.8 L193.1,130.8 L247.1,130.8 L267.1,130.8 L291.1,130.8 L333.1,130.8 L341.1,130.8 L382.1,130.8 L396.1,130.8 L410.1,130.8 L426.1,130.8 L436.1,130.8 C438.3,130.8 440.1,132.5 440.1,134.8 Z" id="Shape" fill="#AA7D5E"></path>
                                    <path d="M436,69.1 C436.7,69.8 437.2,70.8 437.2,71.9 C437.2,74.1 435.4,75.9 433.2,75.9 C432.1,75.9 431.1,75.4 430.4,74.7 L436,69.1 Z" id="Shape" fill="#E7E7E7"></path>
                                    <path d="M436,69.1 L430.3,74.8 C429.6,74.1 429.1,73.1 429.1,72 C429.1,69.8 430.9,68 433.1,68 C434.2,68 435.2,68.4 436,69.1 Z" id="Shape" fill="#E7E7E7"></path>
                                    <path d="M432.1,142.8 L432.1,148.8 C432.1,149.9 431.2,150.8 430.1,150.8 L402.1,150.8 L390.1,150.8 L50.1,150.8 L38.1,150.8 L10.1,150.8 C9,150.8 8.1,149.9 8.1,148.8 L8.1,142.8 L432.1,142.8 Z" id="Shape" fill="#AA7D5E"></path>
                                    <polygon id="Shape" fill="#B67DBC" points="426.1 122.8 426.1 130.8 410.1 130.8 410.1 122.8 418.1 122.8 423.6 122.8"></polygon>
                                    <polygon id="Shape" fill="#AA7D5E" points="402.1 280.8 402.1 283 397.1 283 390.1 283 390.1 280.8 390.1 157.6 402.1 157.6"></polygon>
                                    <rect id="Rectangle-path" fill="#AA7D5E" x="390.1" y="150.8" width="12" height="6.9"></rect>
                                    <rect id="Rectangle-path" fill="#E26969" x="382.1" y="104.8" width="14" height="26"></rect>
                                    <polygon id="Shape" fill="#E26969" points="396.1 98.8 396.1 104.8 382.1 104.8 382.1 98.8 385.4 98.8 392.1 98.8"></polygon>
                                    <path d="M394.2,25.8 C396.8,28.4 396.8,32.6 394.2,35.2 L390.4,39 C389.2,35.9 387.3,33 384.8,30.5 C382.3,28 379.4,26.1 376.3,24.9 L380.1,21.1 C382.7,18.5 386.9,18.5 389.5,21.1 L390.9,22.5 L394.2,25.8 Z" id="Shape" fill="#B67DBC"></path>
                                    <path d="M390.3,39 C393.8,48 391.9,58.6 384.7,65.8 L380,70.5 L344.6,35.1 L349.3,30.4 C356.5,23.2 367.1,21.3 376.1,24.8 C379.2,26 382.1,27.9 384.6,30.4 C387.2,33 389.1,35.9 390.3,39 Z" id="Shape" fill="#B67DBC"></path>
                                    <path d="M349.1,121.8 L349.1,122.8 C349.1,127.2 345.5,130.8 341.1,130.8 L333.1,130.8 C328.7,130.8 325.1,127.2 325.1,122.8 L325.1,106.8 L349.1,106.8 L349.1,121.8 Z" id="Shape" fill="#E7E7E7"></path>
                                    <polygon id="Shape" fill="#E7E7E7" points="349.1 105.8 349.1 106.8 325.1 106.8 325.1 100.8 349.1 100.8"></polygon>
                                    <path d="M301.1,97.8 L301.1,106.8 C301.1,110.1 298.4,112.8 295.1,112.8 L239.4,112.8 L200.8,112.8 L145.1,112.8 C141.8,112.8 139.1,110.1 139.1,106.8 L139.1,97.8 L301.1,97.8 Z M223.1,104.8 C223.1,103.1 221.8,101.8 220.1,101.8 C218.4,101.8 217.1,103.1 217.1,104.8 C217.1,106.5 218.4,107.8 220.1,107.8 C221.8,107.8 223.1,106.4 223.1,104.8 Z" id="Shape" fill="#E7E7E7"></path>
                                    <path d="M301.1,6.8 L301.1,97.8 L139.1,97.8 L139.1,6.8 C139.1,3.5 141.8,0.8 145.1,0.8 L295.1,0.8 C298.4,0.8 301.1,3.4 301.1,6.8 Z M294.1,90.8 L294.1,7.8 L146.1,7.8 L146.1,90.8 L294.1,90.8 Z" id="Shape" fill="#777777"></path>
                                    <rect id="Rectangle-path" fill="#555555" x="146.1" y="7.8" width="148" height="83"></rect>
                                    <path d="M291.1,130.8 L267.1,130.8 C268.2,125.2 273.2,121 279.1,121 C285,121 290,125.2 291.1,130.8 Z" id="Shape" fill="#777777"></path>
                                    <rect id="Rectangle-path" fill="#777777" x="193.1" y="122.8" width="54" height="8"></rect>
                                    <path d="M247.1,122.8 L193.1,122.8 C198.3,122.8 200.8,116.8 200.8,112.8 L239.4,112.8 C239.4,116.7 241.9,122.8 247.1,122.8 Z" id="Shape" fill="#777777"></path>
                                    <circle id="Oval" fill="#777777" cx="220.1" cy="104.8" r="3"></circle>
                                    <path d="M173.1,126.8 L173.1,130.8 L93.1,130.8 L93.1,126.8 C93.1,124.6 94.9,122.8 97.1,122.8 L169.1,122.8 C171.3,122.8 173.1,124.5 173.1,126.8 Z" id="Shape" fill="#777777"></path>
                                    <polygon id="Shape" fill="#AA7D5E" points="148.1 188 148.1 274 144.1 274 136.1 274 70.1 274 62.1 274 58.1 274 58.1 188"></polygon>
                                    <rect id="Rectangle-path" fill="#AA7D5E" x="58.1" y="164" width="90" height="24"></rect>
                                    <rect id="Rectangle-path" fill="#555555" x="136.1" y="274" width="8" height="9"></rect>
                                    <rect id="Rectangle-path" fill="#555555" x="62.1" y="274" width="8" height="9"></rect>
                                    <path d="M63.1,79.8 L63.1,130.8 L29.1,130.8 L29.1,79.8 L63.1,79.8 Z M56.1,111.8 C56.1,106.3 51.6,101.8 46.1,101.8 C40.6,101.8 36.1,106.3 36.1,111.8 C36.1,117.3 40.6,121.8 46.1,121.8 C51.6,121.8 56.1,117.3 56.1,111.8 Z M50.1,90.8 C50.1,88.6 48.3,86.8 46.1,86.8 C43.9,86.8 42.1,88.6 42.1,90.8 C42.1,93 43.9,94.8 46.1,94.8 C48.3,94.8 50.1,93 50.1,90.8 Z" id="Shape" fill="#78D8D3"></path>
                                    <circle id="Oval" fill="#777777" cx="46.1" cy="111.8" r="10"></circle>
                                    <polygon id="Shape" fill="#AA7D5E" points="50.1 280.8 50.1 283 43.1 283 38.1 283 38.1 280.8 38.1 157.6 50.1 157.6"></polygon>
                                    <rect id="Rectangle-path" fill="#AA7D5E" x="38.1" y="150.8" width="12" height="6.9"></rect>
                                    <circle id="Oval" fill="#777777" cx="46.1" cy="90.8" r="4"></circle>
                                </g>
                            </g>
                        </g>
                        <g id="shadow" transform="translate(20.000000, 1.000000)" fill-rule="nonzero">
                            <rect id="Rectangle-path" fill="#000000" opacity="0.25" x="8.1" y="141.8" width="422.4" height="7.9"></rect>
                            <rect id="Rectangle-path" fill="#000000" opacity="0.25" x="38.1" y="149.7" width="12" height="14.1"></rect>
                            <rect id="Rectangle-path" fill="#000000" opacity="0.25" x="390.1" y="149.7" width="12" height="14.1"></rect>
                            <rect id="Rectangle-path" fill="#FFFFFF" opacity="0.25" x="0.4" y="130.8" width="440" height="4"></rect>
                            <rect id="Rectangle-path" fill="#FFFFFF" opacity="0.25" x="29.1" y="78" width="34" height="5"></rect>
                            <rect id="Rectangle-path" fill="#FFFFFF" opacity="0.25" x="93.1" y="121.8" width="80" height="4"></rect>
                            <path d="M270.9,130.6 C272.7,126 277.1,122.8 282.3,122.8 C285.2,122.8 287.8,123.8 289.9,125.4 C287.7,122.6 284.2,120.8 280.3,120.8 C274.4,120.8 269.4,125 268.3,130.6 L270.9,130.6 L270.9,130.6" id="Shape" fill="#FFFFFF" opacity="0.25"></path>
                            <path d="M301.1,9.8 C301.1,6.5 298.4,3.8 295.1,3.8 L145.1,3.8 C141.8,3.8 139.1,6.5 139.1,9.8 L139.1,6.8 C139.1,3.5 141.8,0.8 145.1,0.8 L295.1,0.8 C298.4,0.8 301.1,3.5 301.1,6.8 L301.1,9.8 Z" id="Shape" fill="#FFFFFF" opacity="0.25"></path>
                            <rect id="Rectangle-path" fill="#000000" opacity="0.25" x="200.7" y="112.1" width="39.4" height="4.2"></rect>
                            <rect id="Rectangle-path" fill="#FFFFFF" opacity="0.25" x="193.1" y="121.8" width="54" height="4"></rect>
                            <rect id="Rectangle-path" fill="#FFFFFF" x="325.1" y="99.8" width="23.3" height="6"></rect>
                            <rect id="Rectangle-path" fill="#FFFFFF" opacity="0.25" x="382.1" y="97.8" width="13.4" height="6"></rect>
                            <polygon id="Shape" fill="#FFFFFF" opacity="0.25" points="178.5 6.8 146.1 39.2 146.1 48.2 187.7 6.7"></polygon>
                            <polygon id="Shape" fill="#FFFFFF" opacity="0.25" points="146.1 55.8 195.1 6.8 239.4 6.8 156.2 90 146.1 90"></polygon>
                            <path d="M442.1,72 C442.1,72.5 442.1,73 442,73.5 C441.3,69.2 437.6,66 433.1,66 C428.6,66 424.9,69.2 424.2,73.5 C424.1,73 424.1,72.5 424.1,72 C424.1,67 428.1,63 433.1,63 C438.1,63 442.1,67 442.1,72 Z" id="Shape" fill="#FFFFFF" opacity="0.25"></path>
                            <polygon id="Shape" fill="#FFFFFF" opacity="0.25" points="426.1 125.8 423.6 125.8 418.1 125.8 410.1 125.8 410.1 122.8 418.1 122.8 423.6 122.8 426.1 122.8"></polygon>
                            <path d="M390.3,39.6 C390.6,40.3 390.8,41.1 391.1,41.8 C391.9,44.5 392.2,47.4 392,50.2 C391.8,47.6 391.3,45 390.3,42.5 C389.1,39.4 387.2,36.5 384.7,34 C382.2,31.5 379.3,29.6 376.2,28.4 C367.2,24.9 356.7,26.8 349.4,34 L346.2,37.2 L344.7,35.7 L349.4,31 C356.6,23.8 367.2,21.9 376.2,25.4 L380,21.6 C382.6,19 386.8,19 389.4,21.6 L394.1,26.3 C395.8,28 396.4,30.3 395.9,32.5 C395.6,31.3 395,30.2 394.1,29.3 L389.4,24.6 C386.8,22 382.6,22 380,24.6 L378.2,26.4 C380.5,27.6 382.7,29.1 384.7,31.1 C387.2,33.6 389.1,36.5 390.3,39.6 C390.6,40.3 390.8,41.1 391.1,41.8" id="Shape" fill="#FFFFFF" opacity="0.25"></path>
                            <ellipse id="Oval" fill="#FFFFFF" opacity="0.25" transform="translate(360.413150, 30.890420) rotate(-18.306308) translate(-360.413150, -30.890420) " cx="360.41315" cy="30.89042" rx="5.90005655" ry="2.20002109"></ellipse>
                            <path d="M36.1,110.8 C36.1,113.5 37.1,116.9 38.9,118.7 L29.2,128.4 L29.2,117 L36.2,110 C36.1,110.2 36.1,110.5 36.1,110.8 Z" id="Shape" fill="#FFFFFF" opacity="0.25"></path>
                            <path d="M63.4,94.1 L53,104.5 C51.2,102.8 48.8,100.7 46.1,100.7 L45.3,100.7 L63.1,82.9 L63.4,94.1 Z" id="Shape" fill="#FFFFFF" opacity="0.25"></path>
                            <rect id="Rectangle-path" fill="#FFFFFF" opacity="0.25" x="58.1" y="163" width="90" height="4.8"></rect>
                            <rect id="Rectangle-path" fill="#FFFFFF" opacity="0.25" x="58.1" y="187" width="90" height="4.8"></rect>
                        </g>
                        <g id="lines_2_" stroke="#333333" stroke-linejoin="round">
                            <path d="M315.1,112.8 L165.1,112.8 C161.8,112.8 159.1,110.1 159.1,106.8 L159.1,6.8 C159.1,3.5 161.8,0.8 165.1,0.8 L315.1,0.8 C318.4,0.8 321.1,3.5 321.1,6.8 L321.1,106.8 C321.1,110.1 318.4,112.8 315.1,112.8 Z" id="Shape" stroke-width="4" stroke-linecap="round"></path>
                            <path d="M159.1,97.8 L321.1,97.8" id="Shape" stroke-width="2" stroke-linecap="round"></path>
                            <rect id="Rectangle-path" stroke-width="4" stroke-linecap="round" x="166.1" y="7.8" width="148" height="83"></rect>
                            <circle id="Oval" stroke-width="2" stroke-linecap="round" cx="240.1" cy="104.8" r="3"></circle>
                            <rect id="Rectangle-path" stroke-width="4" stroke-linecap="round" x="213.1" y="122.8" width="54" height="8"></rect>
                            <path d="M213.1,122.8 C218.3,122.8 220.8,116.8 220.8,112.8" id="Shape" stroke-width="4" stroke-linecap="round"></path>
                            <path d="M267.1,122.8 C261.9,122.8 259.4,116.8 259.4,112.8" id="Shape" stroke-width="4" stroke-linecap="round"></path>
                            <path d="M456.1,142.8 L24.1,142.8 C21.9,142.8 20.1,141 20.1,138.8 L20.1,134.8 C20.1,132.6 21.9,130.8 24.1,130.8 L456.1,130.8 C458.3,130.8 460.1,132.6 460.1,134.8 L460.1,138.8 C460.1,141 458.3,142.8 456.1,142.8 Z" id="Shape" stroke-width="4" stroke-linecap="round"></path>
                            <path d="M452.1,142.8 L452.1,148.8 C452.1,149.9 451.2,150.8 450.1,150.8 L30.1,150.8 C29,150.8 28.1,149.9 28.1,148.8 L28.1,142.8" id="Shape" stroke-width="4" stroke-linecap="round"></path>
                            <path d="M58.1,280.8 L58.1,150.8" id="Shape" stroke-width="4" stroke-linecap="round"></path>
                            <path d="M198.1,283 L197.1,283" id="Shape" stroke-width="4" stroke-linecap="round"></path>
                            <path d="M462.1,283 L208.1,283" id="Shape" stroke-width="4" stroke-linecap="round"></path>
                            <path d="M187.1,283 L20.1,283" id="Shape" stroke-width="4" stroke-linecap="round"></path>
                            <path d="M70.1,157.6 L58.1,157.6" id="Shape" stroke-width="4" stroke-linecap="round"></path>
                            <g id="Group" transform="translate(402.000000, 87.000000)" stroke-width="4" stroke-linecap="round">
                                <polyline id="Shape" points="0.1 43.8 0.1 11.8 14.1 11.8 14.1 43.8"></polyline>
                                <path d="M0.1,17.8 L14.1,17.8" id="Shape"></path>
                                <path d="M10.1,11.8 L10.1,2.2" id="Shape"></path>
                                <path d="M3.4,11.8 L1.5,0.8" id="Shape"></path>
                            </g>
                            <g id="Group" transform="translate(345.000000, 51.000000)" stroke-linecap="round">
                                <path d="M16.1,79.8 L8.1,79.8 C3.7,79.8 0.1,76.2 0.1,71.8 L0.1,49.8 L24.1,49.8 L24.1,71.8 C24.1,76.2 20.5,79.8 16.1,79.8 Z" id="Shape" stroke-width="4"></path>
                                <path d="M24.1,54.8 C28.5,54.8 32.1,58.4 32.1,62.8 L32.1,62.8 C32.1,67.2 28.5,70.8 24.1,70.8" id="Shape" stroke-width="4"></path>
                                <path d="M0.1,55.8 L24.1,55.8" id="Shape" stroke-width="2"></path>
                                <path d="M22.5,10.1 L22.5,10.8 C22.5,15.5 19.3,19.4 15,20.5" id="Shape" stroke-width="2" opacity="0.5"></path>
                                <path d="M16.9,1.8 C15.6,1.1 14.1,0.8 12.5,0.8" id="Shape" stroke-width="2" opacity="0.5"></path>
                                <path d="M21,5.5 C20.8,5.2 20.6,5 20.4,4.7" id="Shape" stroke-width="2" opacity="0.5"></path>
                                <path d="M6.9,23.6 C6,24.8 5.5,26.2 5.5,27.8 C5.5,30.6 7.1,33 9.4,34.1" id="Shape" stroke-width="2" opacity="0.5"></path>
                                <path d="M14.5,35.3 C15.7,36 16.5,37.3 16.5,38.8 C16.5,41 14.7,42.8 12.5,42.8" id="Shape" stroke-width="2" opacity="0.5"></path>
                            </g>
                            <path d="M287.1,130.8 C288.2,125.2 293.2,121 299.1,121 C305,121 310,125.2 311.1,130.8" id="Shape" stroke-width="4" stroke-linecap="round"></path>
                            <path d="M113.1,130.8 L113.1,126.8 C113.1,124.6 114.9,122.8 117.1,122.8 L189.1,122.8 C191.3,122.8 193.1,124.6 193.1,126.8 L193.1,130.8" id="Shape" stroke-width="4" stroke-linecap="round"></path>
                            <polyline id="Shape" stroke-width="4" stroke-linecap="round" points="49.1 130.8 49.1 79.8 83.1 79.8 83.1 130.8"></polyline>
                            <circle id="Oval" stroke-width="4" stroke-linecap="round" cx="66.1" cy="111.8" r="10"></circle>
                            <circle id="Oval" stroke-width="4" stroke-linecap="round" cx="66.1" cy="90.8" r="4"></circle>
                            <path d="M77.1,124.8 L77.2,124.8" id="Shape" stroke-width="4" stroke-linecap="round"></path>
                            <path d="M69.6,115.3 C68.7,116.2 67.4,116.8 66.1,116.8 C63.3,116.8 61.1,114.6 61.1,111.8 C61.1,109 63.3,106.8 66.1,106.8 C68.9,106.8 71.1,109 71.1,111.8" id="Shape" stroke-width="2" stroke-linecap="round"></path>
                            <path d="M70.1,280.8 L70.1,150.8" id="Shape" stroke-width="4" stroke-linecap="round"></path>
                            <path d="M410.1,280.8 L410.1,150.8" id="Shape" stroke-width="4" stroke-linecap="round"></path>
                            <path d="M422.1,157.6 L410.1,157.6" id="Shape" stroke-width="4" stroke-linecap="round"></path>
                            <path d="M422.1,280.8 L422.1,150.8" id="Shape" stroke-width="4" stroke-linecap="round"></path>
                            <path d="M63.1,269 L63.1,283" id="Shape" stroke-width="2" stroke-linecap="round"></path>
                            <path d="M417.1,277 L417.1,283" id="Shape" stroke-width="2" stroke-linecap="round"></path>
                            <path d="M66,111.8 L66.1,111.8" id="Shape" stroke-width="4" stroke-linecap="round"></path>
                            <g id="Group" transform="translate(364.000000, 19.000000)" stroke-linecap="round">
                                <polyline id="Shape" stroke-width="4" points="74.1 103.8 66.1 103.8 66.1 111.8 82.1 111.8 82.1 103.8 79.6 103.8 74.1 103.8"></polyline>
                                <circle id="Oval" stroke-width="4" cx="89.1" cy="53" r="9"></circle>
                                <path d="M86.6,61.6 L74.1,103.8" id="Shape" stroke-width="4"></path>
                                <path d="M82.6,46.8 L50.7,16.5" id="Shape" stroke-width="4"></path>
                                <path d="M46.3,20.1 C49.8,29.1 48,39.7 40.7,46.9 L36,51.6 L0.6,16.2 L5.3,11.5 C12.5,4.3 23.1,2.4 32.1,5.9" id="Shape" stroke-width="4"></path>
                                <path d="M50.2,16.2 L46.4,20 C45.2,16.9 43.3,14 40.8,11.4 C38.3,8.9 35.4,7 32.2,5.8 L36,2 C38.6,-0.6 42.8,-0.6 45.4,2 L50.1,6.7 C52.8,9.4 52.8,13.6 50.2,16.2 Z" id="Shape" stroke-width="4"></path>
                                <circle id="Oval" stroke-width="2" cx="89.1" cy="53" r="4"></circle>
                                <path d="M91.9,50.2 L86.3,55.8" id="Shape" stroke-width="2"></path>
                                <path d="M47.4,2.9 C58.4,2.9 67.4,11.9 67.4,22.9" id="Shape" stroke-width="2"></path>
                                <path d="M67.4,22.9 L67.4,32.9 C67.4,38.4 69.6,43.4 73.3,47 C75.3,49 77.6,50.5 80.2,51.5" id="Shape" stroke-width="2"></path>
                                <path d="M93.9,60.6 C99.8,68.4 99.2,79.6 92,86.7" id="Shape" stroke-width="2"></path>
                                <path d="M79.6,103.8 C80.4,100.2 82.2,96.7 85,93.8 L92.1,86.7" id="Shape" stroke-width="2"></path>
                                <path d="M13.5,19.6 L12.5,18.6" id="Shape" stroke-width="2"></path>
                                <path d="M10,16.1 L5.4,11.5" id="Shape" stroke-width="2"></path>
                                <path d="M40.7,46.9 L16,22.1" id="Shape" stroke-width="2"></path>
                            </g>
                            <path d="M10.1,283 L0.1,283" id="Shape" stroke-width="4" stroke-linecap="round"></path>
                            <path d="M472.1,283 L471.1,283" id="Shape" stroke-width="4" stroke-linecap="round"></path>
                            <path d="M351.1,111.8 L363.1,111.8" id="Shape" stroke-width="2"></path>
                            <path d="M353.1,115.8 L361.1,115.8" id="Shape" stroke-width="2"></path>
                            <g id="Group" transform="translate(78.000000, 164.000000)" stroke-width="4" stroke-linecap="round">
                                <rect id="Rectangle-path" x="0.1" y="0" width="90" height="110"></rect>
                                <path d="M78.1,119 L78.1,110" id="Shape"></path>
                                <path d="M86.1,110 L86.1,119" id="Shape"></path>
                                <path d="M4.1,119 L4.1,110" id="Shape"></path>
                                <path d="M12.1,110 L12.1,119" id="Shape"></path>
                                <path d="M0.1,24 L90.1,24" id="Shape"></path>
                                <path d="M37.1,12 L53.1,12" id="Shape"></path>
                                <path d="M37.1,36 L53.1,36" id="Shape"></path>
                            </g>
                            <path d="M160.1,260 L160.1,274" id="Shape" stroke-width="2" stroke-linecap="round"></path>
                            <path d="M160.1,254.2 L160.1,250.8" id="Shape" stroke-width="2" stroke-linecap="round"></path>
                            <path d="M147,274 L147,269" id="Shape" stroke-width="2" stroke-linecap="round"></path>
                        </g>
                    </g>
                </g>
            </g>
        </g>
    </g>
</svg>